<svg xmlns="http://www.w3.org/2000/svg" width="78.36" height="68.103" viewBox="0 0 78.36 68.103"><g transform="translate(-0.5 -1.5)"><path d="M34.83,31.935c-8.467,0-15.331-6.477-15.331-14.467S26.362,3,34.83,3,50.161,9.477,50.161,17.467,43.3,31.935,34.83,31.935Zm26.83,28.935A7.459,7.459,0,0,1,53.993,68.1H15.666A7.459,7.459,0,0,1,8,60.869V57.252c0-9.988,8.58-18.084,19.164-18.084H42.5c10.584,0,19.164,8.1,19.164,18.084Z" transform="translate(15.701 0)" fill="#4378af" stroke="#010101" stroke-width="3"/><path d="M28.83,31.935c-8.467,0-15.331-6.477-15.331-14.467S20.362,3,28.83,3,44.161,9.477,44.161,17.467,37.3,31.935,28.83,31.935Zm26.83,28.935A7.459,7.459,0,0,1,47.993,68.1H9.666A7.459,7.459,0,0,1,2,60.869V57.252c0-9.988,8.58-18.084,19.164-18.084H36.5c10.584,0,19.164,8.1,19.164,18.084Z" transform="translate(0 0)" fill="#8abde2" stroke="#010101" stroke-width="3"/></g></svg>