<svg xmlns="http://www.w3.org/2000/svg" width="75.361" height="67.808" viewBox="0 0 75.361 67.808"><path d="M56.781,24.182l-.075-.113A3.778,3.778,0,0,1,63.3,20.377,22.6,22.6,0,0,1,43.671,54.206H28.6A22.6,22.6,0,1,1,28.6,9H32.37a3.767,3.767,0,1,1,0,7.534H28.6a15.069,15.069,0,1,0,0,30.137H43.671a15.069,15.069,0,0,0,13.11-22.49Z" transform="translate(9.077 13.603)" fill="#bed0f7"/><path d="M11.5,33.024l.075.113a3.778,3.778,0,0,1-6.592,3.692A22.6,22.6,0,0,1,24.609,3H39.678a22.6,22.6,0,1,1,0,45.206H35.911a3.767,3.767,0,1,1,0-7.534h3.767a15.069,15.069,0,1,0,0-30.137H24.609A15.069,15.069,0,0,0,11.5,33.024Z" transform="translate(-1.998 -3)" fill="#e0e8f9"/></svg>