<svg xmlns="http://www.w3.org/2000/svg" width="78.358" height="78.358" viewBox="0 0 78.358 78.358"><g transform="translate(1.5 1.5)"><path d="M9.534,2H69.809a7.534,7.534,0,0,1,7.534,7.534V58.507a7.534,7.534,0,0,1-7.534,7.534H9.534A7.534,7.534,0,0,1,2,58.507V9.534A7.556,7.556,0,0,1,9.534,2Zm0,15.069V58.507H69.809V17.069Z" transform="translate(-2 -2)" fill="#4378af" stroke="#010101" stroke-width="3"/><path d="M37.2,31.872,51.328,46a3.783,3.783,0,1,1-5.349,5.349L31.852,37.222,29.7,45.811a3.767,3.767,0,0,1-7.158.414l-11.3-30.137a3.767,3.767,0,0,1,4.822-4.86l30.137,11.3a3.767,3.767,0,0,1-.377,7.2l-8.664,2.147Z" transform="translate(22.922 22.902)" fill="#8abde2" stroke="#010101" stroke-width="3"/></g></svg>