<svg xmlns="http://www.w3.org/2000/svg" width="76.834" height="76.808" viewBox="0 0 76.834 76.808"><path d="M41.4,79.808a8.534,8.534,0,0,1-6.017-2.518l-3.542-3.5a8.534,8.534,0,0,0-6.059-2.518H7.267A4.267,4.267,0,0,1,3,67.007V7.267A4.267,4.267,0,0,1,7.267,3H24.336A21.336,21.336,0,0,1,41.4,11.534Z" transform="translate(-3 -3)" fill="#e0e8f9"/><path d="M12,79.808V11.534A21.336,21.336,0,0,1,29.069,3H46.137A4.267,4.267,0,0,1,50.4,7.267v59.74a4.267,4.267,0,0,1-4.267,4.267H27.618a8.534,8.534,0,0,0-6.059,2.518l-3.542,3.5A8.534,8.534,0,0,1,12,79.808Z" transform="translate(26.43 -3)" fill="#bed0f7"/></svg>