<?xml version="1.0" encoding="utf-8"?>
<!-- Generator: Adobe Illustrator 23.0.3, SVG Export Plug-In . SVG Version: 6.00 Build 0)  -->
<svg version="1.1" id="Layer_1" xmlns="http://www.w3.org/2000/svg" xmlns:xlink="http://www.w3.org/1999/xlink" x="0px" y="0px"
	 viewBox="0 0 288 288" style="enable-background:new 0 0 288 288;" xml:space="preserve">
<style type="text/css">
	.st0{fill:#8ABDE2;stroke:#010101;stroke-width:0.97;stroke-miterlimit:10;}
	.st1{fill:#010101;}
	.st2{fill:none;stroke:#010101;stroke-width:0.66;stroke-miterlimit:10;}
	.st3{fill:#FFFFFF;}
	.st4{fill:#3A71A1;}
	.st5{fill:#F7C451;}
	.st6{fill:#CE3239;}
	.st7{fill:#D1912A;}
	.st8{fill:#EF6572;}
</style>
<title>web images</title>
<rect x="48.3" y="56.9" class="st0" width="95.6" height="95.4"/>
<rect x="143.8" y="56.9" class="st0" width="95.6" height="95.4"/>
<rect x="143.8" y="152.3" class="st0" width="95.6" height="95.4"/>
<rect x="48.3" y="152.3" class="st0" width="95.6" height="95.4"/>
<path class="st1" d="M144.1,56.8l0.6,47.7l0.4,47.7c0.2,15.9,0.5,31.8,0.3,47.7c-0.1,8-0.2,15.9-0.4,23.9l-0.4,11.9
	c-0.2,4-0.3,8-0.5,11.9h-0.3c-0.2-4-0.3-7.9-0.5-11.9l-0.3-11.9c-0.2-8-0.3-15.9-0.4-23.9c-0.2-15.9,0.1-31.8,0.3-47.7l0.4-47.7
	l0.6-47.7H144.1z"/>
<path class="st1" d="M48.3,152.1l47.8-0.6l47.8-0.4c15.9-0.1,31.9-0.5,47.8-0.3c8,0.1,15.9,0.2,23.9,0.4l12,0.4c4,0.2,8,0.3,12,0.5
	v0.3c-4,0.2-8,0.3-12,0.5l-12,0.4c-8,0.2-15.9,0.3-23.9,0.4c-16,0.2-31.9-0.1-47.8-0.3L96.2,153l-47.8-0.6V152.1z"/>
<line class="st2" x1="48.3" y1="247.7" x2="239.6" y2="247.7"/>
<line class="st2" x1="48.3" y1="56.9" x2="239.6" y2="56.9"/>
<path class="st3" d="M214,127.8c0,12.6-6,10.9-10.5,10.8s-9.5-1.1-9.5-8.3c0-3-0.6-6-1.7-8.8c-0.8-2-2.3-3.7-4.1-4.8
	c-4.4-2.7-8.6-5.7-12.7-8.8c-14.4-15.6-5.1-32.7,11.8-36.6s25.6,4,25.6,4L214,127.8z"/>
<path class="st4" d="M213.9,127.8c0,12.6-6.9,10.9-11.2,10.7s-9.3-1.1-9.3-8.3c0-3-0.6-6-1.6-8.8c-0.8-2-2.2-3.7-4-4.8
	c-4.3-2.7-8.4-5.7-12.4-8.8c-14-15.6-5-32.7,11.5-36.6s24.9,5.1,24.9,5.1s3.3,4.1,3.7,7.8S213.9,127.8,213.9,127.8z"/>
<path class="st1" d="M213.1,126.3l0.3-9.5c0.2-5.9,0.5-14.2,0.7-23.6c0-2.3,0.1-4.8,0.1-7.2c0-0.6,0-1.2-0.1-1.7
	c-0.1-0.5-0.2-1.1-0.4-1.6c-0.4-1.1-0.9-2.2-1.5-3.2c-0.3-0.5-0.6-1-1-1.5c-0.2-0.2-0.4-0.5-0.5-0.7h-0.1l-0.2-0.2
	c-0.1-0.1-0.2-0.2-0.3-0.3c-0.9-0.8-1.9-1.4-3-2c-2.2-1.2-4.6-2-7-2.5c-2.4-0.5-4.9-0.6-7.4-0.4c-2.4,0.2-4.9,0.7-7.2,1.3
	c-2.2,0.7-4.4,1.7-6.4,2.9c-1.9,1.2-3.6,2.7-5,4.3c-3,3.4-4.5,7.8-4.3,12.4c0.4,4.9,2.4,9.5,5.6,13.2l0.6,0.7l0.1,0.1l0,0l0.4,0.3
	l1.5,1.2c1,0.8,2.1,1.6,3.1,2.3c2.1,1.5,4.2,3,6.3,4.4l0.8,0.5c0.3,0.2,0.6,0.4,0.9,0.6c0.6,0.4,1.1,0.9,1.6,1.5
	c0.9,1.1,1.6,2.3,2.1,3.6c0.9,2.4,1.4,4.9,1.5,7.4c0,0.6,0,1.3,0,1.8v0.8l0.1,0.8c0.1,0.9,0.5,1.9,1,2.6c1.1,1.4,2.8,2.3,4.7,2.5
	c0.9,0.1,1.9,0.2,2.8,0.3c1,0.1,1.9,0.1,2.7,0.2c1.4,0.2,2.9-0.1,4.2-0.8c1-0.6,1.8-1.6,2.3-2.7c0.3-0.9,0.6-1.8,0.8-2.7
	c0.1-0.8,0.2-1.4,0.2-1.8v-0.6c0.1-1.9,1.6-1.9,1.6,0.1v0.7c0,0.4-0.1,1.1-0.2,1.9c-0.2,1-0.4,2.1-0.8,3.1c-0.5,1.4-1.5,2.6-2.7,3.5
	l-0.6,0.4l-0.6,0.3c-0.4,0.2-0.8,0.3-1.3,0.4c-0.9,0.2-1.8,0.2-2.7,0.2c-0.9,0-1.8-0.1-2.7-0.1c-1,0-2-0.1-3-0.2
	c-1.1-0.1-2.2-0.4-3.2-0.9c-1.2-0.5-2.1-1.3-2.9-2.3c-0.7-1.1-1.2-2.3-1.4-3.5l-0.1-0.9l-0.1-0.9c0-0.6,0-1.1-0.1-1.7
	c-0.2-2.3-0.7-4.6-1.5-6.7c-0.4-1-0.9-2-1.7-2.8c-0.4-0.4-0.8-0.8-1.2-1.1c-0.2-0.2-0.5-0.3-0.7-0.5l-0.8-0.5
	c-2.2-1.4-4.4-2.9-6.5-4.4c-1.1-0.8-2.1-1.6-3.2-2.3l-1.6-1.2l-0.4-0.3c-0.1-0.1-0.2-0.2-0.3-0.3l-0.2-0.2l-0.7-0.8
	c-1.8-2.1-3.3-4.4-4.4-6.9c-1.2-2.5-1.8-5.2-2-8c-0.1-1.4,0-2.7,0.2-4.1c0.2-1.3,0.5-2.6,1-3.8c0.9-2.4,2.2-4.6,3.8-6.6
	c1.6-1.9,3.6-3.6,5.7-4.9c2.2-1.4,4.6-2.5,7.2-3.2c2.6-0.7,5.2-1.2,7.9-1.4c2.7-0.2,5.5,0,8.2,0.6c2.7,0.6,5.3,1.5,7.7,2.9
	c1.2,0.7,2.3,1.5,3.4,2.4l0.4,0.4l0.2,0.2c0.1,0.1,0.2,0.2,0.3,0.3c0.2,0.3,0.4,0.6,0.6,0.8c0.4,0.6,0.8,1.1,1.1,1.7
	c0.7,1.2,1.3,2.5,1.7,3.8c0.2,0.7,0.4,1.4,0.4,2.1c0,0.7,0,1.3,0,2c0,2.5-0.1,4.9-0.2,7.3c-0.4,9.4-0.9,17.7-1.2,23.6
	s-0.6,9.5-0.6,9.5C214.5,128.3,213.1,128.2,213.1,126.3z"/>
<path class="st1" d="M182.5,97.4l-0.3-0.4c-2.4-3.5-2.2-8.2,0.6-11.4c0.6-0.8,1.4-1.6,2.2-2.2c0.2-0.2,0.4-0.3,0.7-0.5l0.6-0.3
	l1.3-0.6c1.8-0.8,3.8-1.2,5.8-1.3c2,0,4.1,0.5,5.9,1.4c1.4,0.7,2.6,1.7,3.6,2.8c0.4,0.5,0.8,0.9,1.1,1.5c0.2,0.4-0.8,0.9-1,0.7
	c-0.3-0.4-0.7-0.8-1.1-1.2c-1-0.9-2.2-1.7-3.4-2.2c-1.6-0.7-3.3-1-5-0.9c-1.7,0.1-3.4,0.6-5,1.3l-1.1,0.5l-0.6,0.3l-0.4,0.3
	c-0.7,0.5-1.4,1.1-1.9,1.8c-1.2,1.2-1.9,2.8-2.1,4.5c-0.1,1.3,0,2.7,0.5,3.9c0.1,0.4,0.3,0.8,0.5,1.1l0.2,0.4
	C183.6,97.2,182.8,97.7,182.5,97.4z"/>
<path class="st1" d="M205.8,112.2h-0.4c-0.3,0-0.7,0-1,0c-1.2,0-2.4-0.3-3.4-0.9c-1.7-1-3-2.5-3.8-4.3l-0.1-0.3
	c0-0.1-0.1-0.2-0.1-0.4l-0.1-0.6c0-0.4-0.1-0.7-0.1-1.1s0-0.7,0-1c0-1.5,0.4-3,1.1-4.4c0.8-1.4,1.9-2.5,3.2-3.3c1-0.6,2.1-1,3.2-1.2
	c0.4-0.1,0.9-0.2,1.4-0.2c0.3,0,0.4,1.1,0.2,1.2c-0.4,0.1-0.8,0.2-1.1,0.3c-0.9,0.3-1.8,0.8-2.6,1.4c-1,0.7-1.8,1.7-2.3,2.8
	c-0.5,1.1-0.7,2.3-0.7,3.4c0,0.3,0,0.6,0,0.9l0.1,0.9v0.5c0,0.1,0,0.2,0.1,0.3c0.1,0.3,0.2,0.6,0.3,0.8c0.5,1.1,1.3,2,2.3,2.7
	c0.8,0.5,1.7,0.9,2.6,1c0.3,0,0.6,0.1,0.9,0.1h0.3C206,111.1,206.1,112.1,205.8,112.2z"/>
<circle class="st5" cx="96.5" cy="200.2" r="34.2"/>
<path class="st1" d="M129.8,198.6l-0.1-0.7c0-0.7-0.1-1.3-0.2-2l-0.2-1.5l-0.1-0.8l-0.2-0.9l-0.5-2c-0.2-0.7-0.5-1.4-0.8-2.2
	c-3.2-8.1-9.4-14.7-17.3-18.2c-4.9-2.2-10.3-3.2-15.7-2.8c-1.4,0.1-2.8,0.2-4.2,0.5c-0.7,0.1-1.3,0.3-2,0.5c-0.7,0.2-1.3,0.4-2,0.6
	c-1.3,0.4-2.7,1-3.9,1.6c-0.6,0.3-1.3,0.6-1.9,1l-1.8,1.1c-3.5,2.3-6.6,5.3-9,8.8c-0.4,0.6-0.8,1.1-1.1,1.8c-0.4,0.6-0.7,1.2-1,1.8
	c-4.9,9.5-4.9,20.7,0,30.2c0.3,0.6,0.6,1.2,1,1.8c0.4,0.6,0.7,1.2,1.1,1.8c0.8,1.1,1.7,2.2,2.6,3.3c1.9,2.1,4,4,6.4,5.5l1.8,1.1
	c0.6,0.4,1.2,0.7,1.9,1c1.3,0.6,2.6,1.2,3.9,1.6c0.7,0.3,1.4,0.4,2,0.6s1.4,0.4,2.1,0.5c6.7,1.3,13.6,0.5,19.9-2.3
	c4.4-2,8.3-4.9,11.4-8.4c2.5-2.9,4.5-6.2,5.9-9.8c0.3-0.8,0.6-1.5,0.8-2.2s0.4-1.4,0.5-2l0.2-0.9l0.1-0.8l0.2-1.5
	c0.1-0.7,0.2-1.3,0.2-2l0.1-0.7c0.1-2.1,1.6-2.1,1.6,0.1v0.8c0,0.7-0.1,1.4-0.2,2.1c-0.1,0.5-0.1,1-0.2,1.6l-0.1,0.9l-0.2,1
	c-0.2,0.6-0.3,1.4-0.5,2.1s-0.5,1.5-0.8,2.3c-1.4,3.8-3.4,7.4-6.1,10.5c-3.3,3.9-7.4,7-12,9.2c-5.2,2.5-11,3.6-16.8,3.3
	c-1.5-0.1-3-0.2-4.5-0.5c-0.8-0.1-1.5-0.3-2.2-0.5c-0.8-0.2-1.5-0.4-2.2-0.6c-1.5-0.5-2.9-1-4.3-1.7c-0.7-0.3-1.4-0.6-2.1-1l-2-1.2
	c-2.6-1.7-4.9-3.7-7-5.9c-1-1.1-2-2.3-2.9-3.6c-0.4-0.6-0.9-1.2-1.2-1.9c-0.4-0.6-0.8-1.3-1.1-1.9c-5.5-10.3-5.5-22.7,0-33
	c0.3-0.7,0.7-1.4,1.1-2.1c0.4-0.7,0.8-1.3,1.2-1.9c0.9-1.2,1.8-2.4,2.9-3.5c2.1-2.3,4.4-4.3,7-5.9l2-1.2c0.7-0.4,1.4-0.7,2.1-1
	c1.4-0.7,2.8-1.2,4.3-1.7c0.7-0.3,1.5-0.4,2.2-0.6c0.7-0.2,1.5-0.4,2.2-0.5c1.5-0.3,3-0.4,4.5-0.5c5.8-0.3,11.6,0.8,16.8,3.3
	c4.6,2.2,8.7,5.3,12,9.2c2.6,3.1,4.7,6.7,6.1,10.5c0.3,0.8,0.6,1.6,0.8,2.3s0.4,1.4,0.5,2.1l0.2,0.9c0,0.3,0.1,0.6,0.1,0.9l0.2,1.6
	c0.1,0.7,0.2,1.4,0.2,2.1v0.7C131.3,200.8,130,200.7,129.8,198.6z"/>
<path class="st6" d="M196.9,174.1c6.4-7.7,17.3-8.1,24.2-0.9c6.9,7.5,7.3,19,0.9,26.9c-0.3,0.3-0.6,0.6-0.9,1l-25.1,28.1
	c-2.2,2.5-3.4,6.6-8.1,0l0,0L162.7,201c-6.9-7.5-7.3-19-0.9-26.9c6.4-7.7,17.3-8.1,24.2-0.9c0.3,0.3,0.6,0.6,0.9,0.9l5,5.6
	L196.9,174.1z"/>
<path class="st1" d="M196.4,175.8l-4.5,5l-2.7-2.9l-2.3-2.4l-1.4-1.5c-0.5-0.5-1-1-1.6-1.5c-1.3-1-2.7-1.9-4.3-2.5
	c-1.8-0.7-3.7-1-5.6-0.9c-4.4,0.2-8.6,2.3-11.4,5.8c-3.1,4-4.6,9-4.1,14c0.2,2.6,1,5.1,2.3,7.4c0.3,0.6,0.6,1.1,1,1.7l0.6,0.8
	c0.2,0.3,0.4,0.5,0.6,0.8c0.9,1,1.9,2.1,2.8,3.1l21.7,24.1l0.8,0.9l0.3,0.4c0.1,0.1,0.2,0.2,0.3,0.4c0.4,0.6,0.8,1,1.2,1.5
	c0.2,0.2,0.4,0.4,0.6,0.6c0.2,0.2,0.4,0.4,0.6,0.5c0.1,0.1,0.2,0.1,0.3,0.1c0.1,0,0.2,0.1,0.2,0.1s0.1,0,0.1,0s0,0,0.1,0
	c0.4-0.2,0.7-0.4,0.9-0.8c0.4-0.4,0.8-1,1.3-1.6s1-1.1,1.5-1.7l2.9-3.2l11.8-13.1l5.9-6.6c1-1.1,2-2.2,3-3.3l1.4-1.6
	c0.4-0.5,0.8-1.1,1.2-1.6c2.9-4.4,4-9.7,2.9-14.9c-0.9-4.6-3.5-8.6-7.3-11.3c-3-2.1-6.7-3-10.4-2.5c-2.4,0.3-4.7,1.3-6.7,2.7
	c-0.5,0.4-1.1,0.8-1.5,1.2l-0.4,0.3l-0.1,0.1c-1.5,1.5-2.6,0.6-1.1-1.1l0.1-0.1l0.4-0.4c0.5-0.5,1.1-1,1.7-1.4
	c2.2-1.6,4.7-2.7,7.4-3.1c1.9-0.3,3.8-0.2,5.7,0.1c2.2,0.4,4.2,1.3,6.1,2.5c4.3,2.9,7.3,7.4,8.4,12.5c1.3,5.8,0.2,11.8-3,16.8
	c-0.5,0.6-0.9,1.3-1.4,1.8l-1.5,1.7l-2.9,3.3l-5.9,6.6l-11.7,13.2L198,229c-0.5,0.5-1,1.1-1.3,1.5s-0.8,1.1-1.3,1.7
	c-0.6,0.8-1.4,1.4-2.4,1.8c-0.6,0.2-1.2,0.2-1.8,0c-0.3-0.1-0.5-0.2-0.7-0.3c-0.2-0.1-0.4-0.2-0.6-0.4c-0.4-0.2-0.7-0.5-1-0.8
	c-0.3-0.3-0.6-0.5-0.8-0.8c-0.5-0.5-0.9-1.1-1.3-1.7c-0.3-0.3-0.8-0.9-1.3-1.4l-21.5-24.2c-1-1.1-1.8-2.1-2.8-3.2
	c-0.2-0.3-0.5-0.6-0.7-0.9l-0.6-0.9c-0.4-0.6-0.8-1.3-1.2-1.9c-1.4-2.6-2.3-5.5-2.5-8.5c-0.5-5.7,1.2-11.3,4.9-15.7
	c1.7-2,3.8-3.6,6.1-4.8c2.2-1,4.6-1.6,7-1.6c2.2,0,4.3,0.4,6.3,1.2c1.7,0.7,3.3,1.7,4.8,2.9c0.6,0.6,1.2,1.1,1.7,1.7l1.4,1.6
	l2.2,2.5l1.1,1.3l0.3,0.3l3.3-3.7C196.8,173.2,197.8,174.1,196.4,175.8z"/>
<path class="st7" d="M78.8,213.8l28.3-33.2c-8.1-6.9-20.9-5-28.7,4.1S70.7,207,78.8,213.8z"/>
<path class="st1" d="M77.8,213.7l-0.3-0.3c-0.3-0.2-0.5-0.5-0.8-0.8l-1.1-1.3c-0.4-0.6-0.9-1.2-1.3-2c-1-1.8-1.7-3.8-2.1-5.8
	c-0.5-2.5-0.5-5.1-0.1-7.7c1-6,4.2-11.4,8.9-15.2c2.4-1.9,5.1-3.4,8.1-4.3c2.8-0.9,5.7-1.2,8.6-0.9c2.9,0.3,5.7,1.3,8.2,2.9
	c0.2,0.1,0.3,0.2,0.5,0.3l0.6,0.4c0.6,0.4,1.2,0.9,1.7,1.3l-2.2,2.6l-2.9,3.4l-11.3,13.1c-7,8-12.4,14.1-12.4,14.1
	c-0.7,0.8-1.6,0.1-0.9-0.8l12-14.5l11.1-13.3l2.9-3.4l0.6-0.8l0,0l0,0l-0.1-0.1l-0.2-0.1c-0.1-0.1-0.3-0.2-0.4-0.3
	c-2.2-1.4-4.7-2.2-7.2-2.5c-2.6-0.3-5.2,0-7.7,0.7c-2.7,0.8-5.2,2.1-7.4,3.9c-4.4,3.4-7.4,8.4-8.5,13.8c-0.5,2.3-0.5,4.8-0.1,7.1
	c0.3,1.9,0.9,3.7,1.8,5.4c0.4,0.7,0.8,1.3,1.1,1.9l1,1.3c0.2,0.3,0.5,0.5,0.7,0.7l0.3,0.3C79.2,213.7,78.6,214.4,77.8,213.7z"/>
<path class="st7" d="M114.6,186.9l-28,33.4c8.1,6.8,21,4.9,28.7-4.3S122.7,193.7,114.6,186.9z"/>
<path class="st1" d="M115.6,187l0.3,0.3c0.3,0.2,0.5,0.5,0.8,0.8l1.1,1.3c0.4,0.6,0.9,1.2,1.3,2c1,1.8,1.8,3.7,2.2,5.8
	c0.5,2.5,0.6,5.1,0.2,7.7c-1,6-4.1,11.4-8.8,15.2c-2.4,2-5.1,3.5-8.1,4.4c-2.8,0.9-5.7,1.2-8.6,0.9c-2.9-0.3-5.8-1.3-8.2-2.9
	c-0.2-0.1-0.3-0.2-0.5-0.3l-0.6-0.4c-0.6-0.4-1.2-0.9-1.7-1.3l2.2-2.6l2.9-3.3l11.3-13.1l12.3-14.2c0.7-0.8,1.6-0.1,0.9,0.8
	l-11.9,14.6l-11,13.4l-2.8,3.4l-0.6,0.8l0,0l0,0l0.1,0.1l0.2,0.1c0.1,0.1,0.3,0.2,0.4,0.3c2.2,1.4,4.7,2.2,7.3,2.5
	c2.6,0.3,5.2,0,7.7-0.8c2.7-0.8,5.2-2.1,7.4-3.9c4.4-3.5,7.4-8.4,8.4-13.9c0.4-2.4,0.4-4.8,0-7.1c-0.3-1.9-0.9-3.7-1.8-5.4
	c-0.4-0.7-0.8-1.3-1.1-1.8l-1-1.3c-0.2-0.3-0.5-0.5-0.7-0.7l-0.3-0.3C114.1,187.1,114.7,186.3,115.6,187z"/>
<path class="st8" d="M130.9,98.2c0-14.8-15.4-26.9-34.4-26.9S62,83.4,62,98.2c0,10.2,7.3,19.2,18.1,23.7l0,0c0,0-3.4,11.3-8,15.4
	c-0.1,0.1-0.1,0.2,0,0.2c0,0,0.1,0.1,0.2,0c6.1-3,22-13.6,22.3-13l4.1,0.5l0,0C117,124.3,130.9,112.6,130.9,98.2z"/>
<path class="st1" d="M131.6,100v0.6c-0.1,0.7-0.2,1.3-0.3,1.9c-0.5,2.8-1.5,5.5-3,7.9c-0.5,0.9-1.1,1.8-1.8,2.6
	c-0.3,0.5-0.7,0.9-1.1,1.3c-0.4,0.4-0.8,0.9-1.2,1.4c-2,2-4.3,3.7-6.7,5.2c-3,1.7-6.3,3-9.6,3.9c-1.9,0.5-3.9,0.9-5.8,1.1l-3.2,0.3
	l-3.7-0.5c0.3,0,0.3,0.1,0.1,0h-0.3c-0.1,0-0.1,0-0.2,0l-0.4,0.2l-0.5,0.3l-1.3,0.8l-3.3,2.1c-2.5,1.6-5.4,3.5-8.8,5.5l-1.3,0.8
	l-2,1.2c-0.8,0.5-1.6,0.9-2.4,1.4c-0.6,0.4-1.3,0.7-2.1,0.9c-0.3,0-0.7,0-1-0.1c-0.1,0-0.2-0.1-0.3-0.1c-0.1-0.1-0.2-0.3-0.2-0.3
	V138l-0.1-0.4v-0.2c0-0.1,0.1-0.3,0.2-0.5l0.4-1c0.3-0.3,0.5-0.6,0.8-0.9l0.7-1l0.8-1c0.2-0.3,0.4-0.7,0.6-1.1l0.4-0.7l0.3-0.6
	c0.2-0.4,0.4-0.9,0.7-1.4c0.4-1,0.9-2,1.4-3.2l0.7-1.8l0.6-1.7l0,0c0.1,0.1-0.4-0.2-0.7-0.3l-1-0.5c-0.7-0.3-1.4-0.7-2.1-1.2
	s-1.3-0.9-2-1.3c-2.7-1.8-5-4.1-7-6.7c-1.8-2.4-3.1-5-4-7.8c-0.4-1.5-0.7-3-0.9-4.5c0-0.8-0.1-1.6-0.1-2.3s0.1-1.6,0.2-2.4
	c0.4-3.2,1.5-6.2,3.1-9c1.6-2.8,3.7-5.3,6.2-7.4c1.2-1,2.5-2,3.8-2.9c1.3-0.8,2.7-1.6,4.2-2.3c1.4-0.7,2.9-1.3,4.4-1.8
	c0.7-0.3,1.5-0.4,2.3-0.7c0.7-0.2,1.5-0.4,2.3-0.6c5.8-1.2,11.8-1.3,17.7-0.2c5.2,1,10.1,2.9,14.5,5.8c3.6,2.3,6.6,5.4,8.9,8.9
	c0.8,1.4,1.6,2.8,2.1,4.3l0.6,1.9c0.1,0.3,0.2,0.6,0.3,0.8l0.1,0.8c0.2,1,0.4,1.7,0.4,2.2v0.8c0.1,2.4-1.4,2.2-1.6,0.1l-0.1-0.7
	c-0.1-0.7-0.2-1.4-0.4-2.1l-0.1-0.7c-0.1-0.3-0.2-0.5-0.3-0.8l-0.6-1.7c-0.6-1.4-1.3-2.7-2.1-3.9c-2.2-3.3-5.1-6.1-8.4-8.2
	c-4.2-2.6-8.9-4.4-13.8-5.3c-5.5-1-11.2-0.8-16.7,0.4c-0.7,0.1-1.4,0.3-2.1,0.6c-0.7,0.2-1.4,0.4-2.1,0.6c-1.4,0.5-2.7,1.1-4.1,1.7
	c-1.3,0.6-2.6,1.4-3.9,2.1c-1.2,0.8-2.4,1.7-3.5,2.7c-2.2,1.9-4.1,4.1-5.5,6.7c-1.4,2.4-2.3,5.1-2.6,7.9c-0.5,5.3,1,10.7,4.3,14.9
	c1.8,2.3,3.9,4.4,6.3,6.1c0.6,0.4,1.2,0.8,1.8,1.2s1.3,0.8,1.9,1.1l0.9,0.5l1.3,0.6l1,0.4l0.5,0.2l0.2,0.1c0.1,0,0.2,0.1,0.1,0.2
	l-0.6,2c-0.2,0.4-0.3,0.8-0.4,1.3l-0.4,1c-0.2,0.7-0.5,1.3-0.7,1.9c-0.5,1.2-1,2.3-1.5,3.3c-0.2,0.5-0.5,1-0.7,1.4l-0.3,0.7
	l-0.2,0.3l-0.1,0.1l0,0l-0.1,0.2c-0.1,0.1-0.2,0.2-0.3,0.3c0,0-0.1,0.1,0,0.1h0.1l0.1-0.1l0.3-0.2l0.6-0.4l1.3-0.8l8.7-5.4
	c1.3-0.8,2.4-1.4,3.4-2l1.4-0.8l0.6-0.3c0.2-0.1,0.3-0.2,0.7-0.3c0.3-0.1,0.5-0.2,0.8-0.2H95c0.1,0.1,0.2,0.1,0.3,0.2l0.4,0.3
	c0.1,0.1,0.2,0.2,0.3,0.2c0.2,0,0.2,0-0.1,0l2.9-0.1l2.9-0.2c1.9-0.2,3.7-0.6,5.6-1c3.2-0.8,6.3-2,9.2-3.6c2.3-1.3,4.5-2.9,6.4-4.8
	c0.4-0.4,0.8-0.9,1.2-1.3c0.4-0.4,0.7-0.8,1.1-1.2c0.6-0.8,1.2-1.6,1.7-2.4c1.4-2.2,2.4-4.7,2.9-7.3c0.1-0.6,0.2-1.2,0.3-1.8v-0.6
	C130.3,97.7,131.6,97.6,131.6,100z"/>
<path class="st1" d="M239.6,247.7l-0.7-104l-0.5-103.4l1.1,1.2L144,41.6l-95.7,0.1l1.5-1.5L49.7,144l-0.1,51.9l-0.2,51.9l-1.1-1.1
	l95.4,0.4L239.6,247.7z M239.6,247.7l-95.4,0.6l-95.9,0.5h-1.1v-1.1l-0.2-51.8L47,144L46.9,40.3v-1.5h1.5L144,39l95.6,0.2h1.2v1.1
	l-0.5,104L239.6,247.7z"/>
<path d="M166.3,204.7c-1.2-0.9-2.2-2-3.1-3.2c-0.3-0.5-0.6-0.8,0-1.2s0.5-0.7,0-1.3s-0.8-0.2-1.1,0.2c-0.2,0.1-0.3,0.3-0.5,0.4
	c-1.5-1.9-2.7-4.1-3.4-6.5c-0.3-0.7-0.4-1.4,0.1-1.9c1.2-1,0.5-1.6-0.3-2.2c-1-0.6-0.6-1.5-0.6-2.4c1.2,0.2,1.6-1.2,2.8-1.1
	c0.8,0,1.5,0.3,2.1,0.9c0.2,0.2,0.3,0.4,0.5,0.6c1.8-1.9,2.6-1.9,4.3-0.3c0.2,0.2,0.2,0.6,0.7,0.1c1.7-1.5,2.7-1.6,3.6-0.5
	s0.8,2.4-1,3.8c0.7,0.4,1.3,1.1,1.7,1.8c0.7-1.1,1.4-1.9,2.7-1.7c0.9,0.1,1.6,0.8,1.8,1.8c0.2,1.3-0.4,2.1-1.8,2.7
	c0.9,0.4,1.6,1.1,2,2.1c0.6-1.3,1.4-2,2.8-1.7c0.8,0.2,1.5,0.9,1.6,1.7c0.2,1.1-0.5,2.3-1.6,2.6c2.4,1.9,2.4,3,0.2,4.8
	c0.7,0.5,1.3,1.1,1.7,1.9c0.7-1.1,1.4-1.9,2.7-1.7c0.9,0.1,1.6,0.8,1.8,1.8c0.3,1.3-0.5,2.1-1.5,2.6c2.1,1.8,2.2,2.3,0.5,4.4
	c-0.5,0.6,0,0.6,0.3,0.8c1.2,1.2,1.3,2.5,0.3,3.5s-2.2,1-3.4-0.1c-0.5-0.5-0.6-0.6-1.1,0c-0.4,0.4-0.8,0.7-1.3,1
	c0.2,0.1,0.6,0.2,0.7,0.4c0.7,0.9,1.3,0.9,2.2,0.1c0.8-0.7,2.1-0.6,2.8,0.2c0.1,0.1,0.1,0.2,0.2,0.2c0.8,0.8,0.9,2.1,0.1,3
	c-0.6,0.6-0.8,1,0,1.6c0.7,0.7,0.8,1.7,0.4,2.5c-1.9-1.4-3.1-3.5-4.8-5.1c-1.5-1.4-2.7-3.1-4.1-4.7c-3.4-3.7-6.8-7.4-10.1-11.2
	c-0.1-0.2-0.2-0.5-0.3-0.8c0.8,0.7,1.3,0,1.7-0.5s-0.4-1-0.6-1C166.7,203.2,166.5,204,166.3,204.7z M172.1,193.2
	c-1.6,1.2-1.9,2.3,0.1,3.3c0.2-0.8,1-1,1.6-1.6C173.1,194.6,172.5,194,172.1,193.2z M174.8,199.7c1.1,0.3,1.4,1.1,2.1,1.7
	c0.3-0.9,1.1-1.3,1.8-1.8c-0.9-0.4-1.6-1.1-1.9-2C176.4,198.5,175.7,199.3,174.8,199.7L174.8,199.7z M179.9,208.9
	c1.2,2.3,2.2,1.2,3.2,0c-0.8-0.2-1.3-0.9-1.8-1.8C181.1,207.9,180.6,208.5,179.9,208.9L179.9,208.9z M167.3,188.3
	c-0.2,0.8-0.7,1.4-1.4,1.9l1.6,1.7c0.3-0.7,0.9-1.1,1.6-1.6C168.3,189.9,167.6,189.1,167.3,188.3L167.3,188.3z M176.8,202.6
	c-0.6,1-2.2,1.6-0.5,2.7c1.4,0.9,1.1-1.1,2-1C177.6,203.9,177.1,203.3,176.8,202.6L176.8,202.6z M181.4,212.2
	c-0.1,0.8-2.2,0.9-0.6,2.3c0.9,0.9,1.1,0.1,1.4-0.3C183.8,212.9,181.2,213.1,181.4,212.2L181.4,212.2z M173.5,199.7
	c-0.5-0.5-1-1-1.4-1.6c-1.4,1.5-1.3,1.5-0.9,2.1C172.4,201.9,172.7,199.9,173.5,199.7L173.5,199.7z M177.8,209.3l-1.3-1.6
	c-0.2,0.7-1.8,1.1-0.3,2.2C177.6,210.8,177.3,209,177.8,209.3L177.8,209.3z M167.3,196.3c0.5-0.5,1.3-0.9,1.3-1.4s-0.8-0.9-1.2-1.4
	c-0.5,0.4-1.3,0.8-1.3,1.3S166.9,195.8,167.3,196.3L167.3,196.3z M164.5,190c-1.2,0-1.3-1.1-1.9-1c-0.4,0.1-1.1,0.9-1.1,1.2
	c0.1,0.5,0.6,1.3,1.3,1.2C163.3,191.4,163.7,190.7,164.5,190L164.5,190z M168.7,199.6c-0.5-0.4-0.9-1-1.4-1.1c-0.3,0-1,0.7-1,1.1
	s0.7,1.1,1,1.1C167.8,200.6,168.2,200,168.7,199.6L168.7,199.6z M178.1,213.7c-0.5-0.5-0.9-1.1-1.4-1.2s-1,0.6-1.1,1.1
	s0.6,1.1,1,1.1C177.1,214.7,177.6,214.1,178.1,213.7L178.1,213.7z M173.2,204.5l-1.1-1.5c-0.4,0.4-1.2,0.8-1.2,1.2s0.7,1.2,1.1,1.2
	S172.9,204.8,173.2,204.5L173.2,204.5z M173.4,208.9c-0.5-0.4-0.9-1-1.3-1c-0.5,0.1-0.9,0.5-1.1,1c-0.1,0.5,0.5,1.1,1,1.1
	S172.8,209.4,173.4,208.9L173.4,208.9z M164,195c-0.4-0.4-0.7-1-1.1-1.1s-1,0.6-1.1,1s0.5,1.1,1,1.1S163.5,195.4,164,195z"/>
<path d="M187.8,223.4c-1.6-1.6-1.8-2.8-0.6-3.9s2.5-0.8,4.1,1c0.4-1.1,1.5-1.7,2.6-1.5c0.9,0.1,1.6,0.9,1.8,1.8
	c0.2,1.1-0.4,2.1-1.5,2.5c-0.1,0.3,0.1,0.4,0.3,0.5c1.8,1.3,1.9,2.2,0.2,3.6c-0.9,0.8-1.4,1.8-2.2,2.7c-0.6,0.8-1.8,1.1-2.7,0.6
	c-0.9-0.5-2.3-0.8-2.1-2.3c0-0.2,0-0.4-0.1-0.6C185.9,225.4,185.9,225.2,187.8,223.4z M191.2,221.6c-0.5,1-2.4,1.7-0.5,2.9
	c0.4,0.3,0.4,0.3,2.1-1.3C192,223,191.4,222.4,191.2,221.6z M192.2,228.1c-0.5,0.2-0.2-2.4-1.6-0.8c-0.5,0.6-0.8,0.8-0.1,1.6
	C191.9,230.3,191.7,228,192.2,228.1L192.2,228.1z"/>
<path d="M165.3,180.5c1.2,0.8,2.3,1.5,1.9,2.9c-0.3,1.2-1.5,2-2.7,1.7c-0.5-0.1-1-0.4-1.3-0.9c-0.5-0.5-0.5-0.6-1,0
	c-1.2,1.4-2.5,1.4-3.6,0.3s-0.9-2.2,0.3-3.5c0.3-0.3,0.8-0.4,0.2-0.9c-0.4-0.4,1.2-3.7,1.8-3.8c1.1-0.2,1.2,0.9,1.9,1.4
	c0.6-1.2,1.4-1.9,2.8-1.6c0.8,0.2,1.5,0.9,1.6,1.7C167.3,179.2,166.6,180,165.3,180.5z M162.7,178.5c-0.3,0.9-1,1.7-1.9,2.1
	c1,0.3,1.4,1,2,1.7c0.3-0.9,1.1-1.2,1.7-1.8C163.6,180.1,162.9,179.4,162.7,178.5L162.7,178.5z"/>
<path d="M188.4,213.7c-1.4-0.6-2.1-1.5-1.7-2.9c0.3-1.1,1.5-1.8,2.6-1.5c0.7,0.2,1.2,0.7,1.5,1.4c0.4,1.4-0.3,2.3-1.6,3
	c1.1,0.8,2.3,1.4,1.8,3c-0.3,1-1.2,1.7-2.2,1.6c-1,0-1.8-0.7-2.1-1.6C186.2,215.2,187.1,214.4,188.4,213.7z"/>
<path d="M193.5,214c1.2,0,2.1,1,2.1,2.2c0,1.2-1,2.1-2.2,2.1c-0.1,0-0.1,0-0.2,0c-1.1,0-1.9-0.9-1.9-2c0-0.1,0-0.2,0-0.3
	c0-1.1,0.9-2,2-2C193.4,214,193.5,214,193.5,214z"/>
<path d="M169.6,180.8c1.1-0.1,2.1,0.7,2.2,1.8c0,0.1,0,0.1,0,0.2c0.1,1.1-0.7,2.1-1.8,2.2c-0.1,0-0.1,0-0.2,0c-1.2,0-2.2-0.9-2.2-2
	C167.5,181.8,168.4,180.9,169.6,180.8L169.6,180.8z"/>
<path d="M181.6,201.9c0-1.1,0.9-2,2-2c0.1,0,0.1,0,0.2,0c1.1,0.1,2,1.1,1.9,2.3c-0.1,1.1-1.1,1.9-2.2,1.9c-1.1,0-2-0.9-2-2
	C181.6,202,181.6,202,181.6,201.9z"/>
<path d="M176.4,188c-0.2,1.4-0.9,2.1-2.2,2.1c-1.1,0-2-1-2-2.2c0-1.1,1-2,2.2-2l0,0c1.1,0,2,0.9,2,2
	C176.5,187.9,176.5,188,176.4,188z"/>
<path d="M190.8,202.1c-0.1,1.1-1,2-2.1,1.9s-2-1-1.9-2.1l0,0c0-1,0.8-1.9,1.9-1.9c0.1,0,0.2,0,0.2,0
	C190.1,200.1,190.7,200.9,190.8,202.1z"/>
<path d="M181.1,188c0,1.1-0.9,2-2,2c-1.1,0-2-0.8-2-1.9c0-0.1,0-0.2,0-0.2c0-1,0.8-1.9,1.8-1.9c0.1,0,0.2,0,0.3,0
	C180.3,186,180.9,186.8,181.1,188z"/>
<path d="M176.4,182.7c0.2,1.1-0.6,2.1-1.7,2.3c-0.1,0-0.3,0-0.4,0c-1,0.1-1.9-0.7-2-1.8c0-0.1,0-0.2,0-0.2c0-1.1,0.8-2,1.9-2.1
	c0,0,0.1,0,0.1,0C175.4,180.8,176.3,181.6,176.4,182.7C176.3,182.7,176.3,182.7,176.4,182.7z"/>
<path d="M185.7,192.8c-0.1,1.1-1,1.9-2.1,1.8c0,0,0,0,0,0c-1.1-0.1-1.9-1-1.9-2.1c0.1-1.1,1-1.9,2.1-1.9
	C184.9,190.7,185.8,191.6,185.7,192.8C185.7,192.8,185.7,192.8,185.7,192.8z"/>
<path d="M181.1,192.6c0,1.1-0.9,2.1-2.1,2.1c-1.1,0-2.1-0.9-2.1-2.1c0,0,0,0,0,0c0-1.1,0.8-2,1.8-2c0.1,0,0.1,0,0.2,0
	c1.1-0.1,2.1,0.8,2.1,1.9C181.1,192.5,181.1,192.6,181.1,192.6z"/>
<path d="M193.7,213.4c-1.1,0.2-2.1-0.6-2.3-1.7c0-0.1,0-0.3,0-0.4c-0.1-1,0.7-1.9,1.8-2c0.1,0,0.1,0,0.2,0c1.1-0.1,2,0.8,2.1,1.9
	c0,0.1,0,0.1,0,0.2C195.5,212.5,194.7,213.4,193.7,213.4C193.7,213.4,193.7,213.4,193.7,213.4z"/>
<path d="M190.8,206.7c0,1.1-0.8,2-1.9,2.1c-0.1,0-0.1,0-0.2,0c-1.1,0-2-0.9-2-2c0-0.1,0-0.1,0-0.2c0-1.1,0.8-2,1.8-2
	c0.1,0,0.1,0,0.2,0c1.1-0.1,2.1,0.8,2.1,1.9C190.8,206.6,190.8,206.6,190.8,206.7z"/>
<path d="M193.4,204.7c1.1,0,1.9,0.9,1.9,1.9c0,0,0,0.1,0,0.1c0,1.1-0.9,2-2,2s-2-0.9-2-2C191.4,205.4,192.2,204.8,193.4,204.7z"/>
<path d="M184,195.3c1,0.1,1.8,1,1.8,2c0,1.1-0.8,2-1.9,2.1c-0.1,0-0.1,0-0.2,0c-1.1,0-2-0.9-2-2c0-0.1,0-0.1,0-0.2
	c0.1-1.1,1.1-2,2.2-1.9C183.9,195.3,184,195.3,184,195.3z"/>
<path d="M169.6,175.6c-1.1,0-2-0.9-2-2c0-1.1,0.9-2,2-2c0,0,0.1,0,0.1,0c1,0,1.9,0.8,1.9,1.8c0,0.1,0,0.2,0,0.2
	C171.6,174.8,170.7,175.6,169.6,175.6z"/>
<path d="M200.1,216.2c0,1.1-0.9,1.9-1.9,1.9c0,0,0,0,0,0c-1.1,0.1-2.1-0.8-2.1-1.9c0,0,0-0.1,0-0.1c-0.1-1,0.7-1.9,1.8-2
	c0.1,0,0.2,0,0.2,0c1.1,0,2,0.8,2.1,1.9C200.1,216.1,200.1,216.1,200.1,216.2z"/>
<path d="M171.7,178.1c-0.1,1.4-0.8,2.2-2.1,2.2c-1.1,0-2.1-0.9-2.1-2s0.9-2.1,2-2.1C170.7,176.1,171.6,177,171.7,178.1
	C171.7,178.1,171.7,178.1,171.7,178.1z"/>
<path d="M196,221c0-1.1,0.9-2,2-2c0.1,0,0.1,0,0.2,0c1-0.1,1.9,0.7,2,1.7c0.1,0.7-1.7,2.5-2.4,2.4C196.7,223,195.9,222.1,196,221z"
	/>
<path d="M176.4,178.3c-0.2,1.2-0.8,2-2,2c-1.1,0-2-0.9-2-2s0.9-2,2-2C175.6,176.3,176.2,177.1,176.4,178.3z"/>
<path d="M181,183c-0.2,1.2-0.8,2-2.1,2c-1,0-1.8-0.7-1.9-1.7c0-0.1,0-0.1,0-0.2c-0.1-1,0.6-1.9,1.6-2c0.1,0,0.2,0,0.4,0
	C180.2,181,180.9,181.8,181,183z"/>
<path d="M198.1,204.8c1.1,0.2,1.9,0.8,1.9,2c-0.1,1.1-1,1.8-2.1,1.7c-1-0.1-1.7-0.9-1.7-1.8C196.2,205.6,197,204.8,198.1,204.8
	C198.1,204.8,198.1,204.8,198.1,204.8z"/>
<path d="M190.7,197.4c-0.2,1.2-0.8,2-2.1,1.9c-1.1-0.2-1.8-1.3-1.5-2.4c0.2-0.8,0.8-1.4,1.5-1.5c1.1-0.1,2,0.8,2,1.8
	C190.7,197.3,190.7,197.3,190.7,197.4z"/>
<path d="M195.4,202c-0.2,1.2-0.9,2-2.1,1.9c-1,0-1.8-0.8-1.8-1.8c0-0.1,0-0.1,0-0.2c0-1,0.8-1.9,1.8-1.9c0.1,0,0.2,0,0.3,0
	C194.6,200.1,195.4,201,195.4,202z"/>
<path d="M198.1,213.4c-1.2-0.2-2-0.8-2-2.1c0.2-1.1,1.3-1.8,2.3-1.6c0.8,0.2,1.4,0.8,1.6,1.6C200.1,212.6,199.3,213.2,198.1,213.4z"
	/>
<path d="M174.5,171.6c1.1,0.1,1.9,1,1.8,2.1s-1,1.9-2.1,1.8c-1-0.1-1.9-1-1.8-2C172.5,172.4,173.4,171.6,174.5,171.6z"/>
<path d="M190.6,192.7c-0.2,1.1-0.8,1.9-2,1.9c-1-0.1-1.8-1-1.7-2.1c0.1-0.9,0.9-1.7,1.8-1.7C189.8,190.8,190.6,191.6,190.6,192.7
	C190.7,192.7,190.7,192.7,190.6,192.7z"/>
<path d="M185.7,188c-0.2,1.3-0.9,2-2.1,1.9c-1,0-1.8-0.8-1.8-1.8c0-0.1,0-0.1,0-0.2c0-1,0.8-1.9,1.8-1.9c0.1,0,0.2,0,0.3,0
	C184.9,186.1,185.7,187,185.7,188z"/>
<path d="M165,175.7c-1.1-0.1-1.8-0.5-2-1.6c-0.1-0.5,2.1-2.5,2.7-2.4c0.9,0.2,1.5,1.1,1.4,2c0,1.1-0.8,2-1.9,2.1
	C165.1,175.7,165,175.7,165,175.7z"/>
<path d="M204.7,215.7c0,0.6-1.6,2.4-2.1,2.3c-1-0.1-1.8-0.9-1.8-2c0,0,0-0.1,0-0.1c0-1,0.8-1.8,1.8-1.8c0.1,0,0.1,0,0.2,0
	C203.7,214.1,204.5,214.8,204.7,215.7z"/>
<path d="M202.8,213.3c-1.2-0.2-1.9-0.9-1.9-2c0-1,0.9-1.8,2-1.8c1,0,1.8,0.9,1.8,2l0,0C204.6,212.5,203.8,213.3,202.8,213.3z"/>
<path d="M193.4,199.2c-1,0-1.8-0.8-1.8-1.9c0,0,0-0.1,0-0.1c0.1-1,1-1.8,2-1.7s1.8,1,1.7,2C195.2,198.5,194.3,199.3,193.4,199.2z"/>
<path d="M198.1,200.2c1,0,1.8,0.7,1.8,1.7c0,0,0,0.1,0,0.1c0,1-0.9,1.8-1.9,1.8s-1.8-0.9-1.8-1.9C196.3,201,197.1,200.2,198.1,200.2
	C198.1,200.2,198.1,200.2,198.1,200.2z"/>
<path d="M183.7,181.1c1,0,1.8,0.8,1.9,1.7c0,0.1,0,0.1,0,0.2c0.1,0.9-0.7,1.7-1.6,1.8c-0.1,0-0.1,0-0.2,0c-0.9,0.1-1.8-0.6-1.9-1.5
	c0-0.1,0-0.2,0-0.3C181.9,181.8,182.6,181.2,183.7,181.1z"/>
<path d="M180.9,178.2c0,1-0.8,1.9-1.8,1.9c0,0-0.1,0-0.1,0c-1,0-1.8-0.9-1.8-1.9c0-0.9,0.8-1.7,1.7-1.8
	C180.1,176.3,180.7,177.1,180.9,178.2z"/>
<path d="M198.1,195.6c0.9-0.1,1.6,0.6,1.7,1.5c0,0.1,0,0.1,0,0.2c0.1,0.9-0.6,1.8-1.6,1.8c-0.9,0.1-1.8-0.6-1.8-1.6
	c0-0.1,0-0.2,0-0.3c0-0.9,0.7-1.6,1.5-1.7C198,195.6,198,195.6,198.1,195.6z"/>
<path d="M195.2,192.6c0.1,0.9-0.6,1.7-1.5,1.8c-0.1,0-0.2,0-0.3,0c-0.9,0.1-1.7-0.5-1.7-1.4c0-0.1,0-0.2,0-0.4
	c-0.1-0.9,0.6-1.6,1.4-1.7c0.1,0,0.2,0,0.2,0c0.9-0.1,1.7,0.5,1.8,1.4C195.2,192.4,195.2,192.5,195.2,192.6z"/>
<path d="M204.5,202.1c0,0.9-0.7,1.6-1.6,1.6c-0.1,0-0.1,0-0.2,0c-0.9,0-1.7-0.7-1.8-1.6c0-0.9,0.7-1.7,1.6-1.8c0.1,0,0.2,0,0.2,0
	C203.9,200.4,204.4,201,204.5,202.1z"/>
<path d="M183.6,176.5c1.2,0.1,1.8,0.7,1.8,1.8c0.1,0.9-0.6,1.6-1.5,1.7c-0.1,0-0.2,0-0.4,0c-0.9,0-1.6-0.6-1.6-1.5
	c0-0.1,0-0.2,0-0.2c-0.1-0.9,0.6-1.7,1.5-1.8C183.5,176.5,183.6,176.5,183.6,176.5z"/>
<path d="M193.4,186.3c0.9-0.1,1.6,0.6,1.7,1.5c0,0.1,0,0.1,0,0.2c0.1,0.9-0.6,1.7-1.6,1.8c-0.9,0.1-1.7-0.6-1.8-1.6
	c0-0.1,0-0.2,0-0.3c0-0.9,0.7-1.6,1.6-1.7C193.3,186.3,193.3,186.3,193.4,186.3z"/>
<path d="M190.5,188c0,0.9-0.7,1.7-1.7,1.7c-0.1,0-0.1,0-0.2,0c-0.9,0.1-1.7-0.6-1.8-1.5c0-0.1,0-0.3,0-0.4c0-0.9,0.7-1.6,1.7-1.6
	c0.1,0,0.2,0,0.2,0c0.9,0,1.7,0.8,1.7,1.7C190.5,187.9,190.5,188,190.5,188z"/>
<path d="M204.6,206.7c0.1,0.9-0.6,1.7-1.5,1.8c-0.1,0-0.1,0-0.2,0c-1,0-1.8-0.7-1.8-1.7s0.7-1.8,1.7-1.8l0,0
	c0.9-0.1,1.7,0.6,1.8,1.5C204.5,206.5,204.6,206.6,204.6,206.7z"/>
<path d="M180.8,173.5c0.1,0.9-0.6,1.7-1.5,1.8c-0.1,0-0.1,0-0.2,0c-1,0-1.8-0.7-1.8-1.7s0.7-1.8,1.7-1.8c0.9-0.1,1.8,0.6,1.9,1.5
	C180.8,173.4,180.8,173.5,180.8,173.5z"/>
<path d="M190.4,183c0.1,0.9-0.6,1.6-1.5,1.7c-0.1,0-0.2,0-0.3,0c-0.8,0.1-1.6-0.6-1.6-1.4c0-0.1,0-0.2,0-0.3
	c-0.1-0.9,0.5-1.6,1.4-1.7c0.1,0,0.2,0,0.4,0c0.9,0,1.6,0.7,1.7,1.6C190.4,182.9,190.4,182.9,190.4,183z"/>
<path d="M202.8,199c-1-0.1-1.7-0.7-1.6-1.7c0-0.8,0.6-1.5,1.4-1.6c0.1,0,0.1,0,0.2,0c0.8-0.1,1.6,0.5,1.7,1.4c0,0.1,0,0.2,0,0.3
	C204.4,198.4,203.7,198.9,202.8,199z"/>
<path d="M199.8,192.7c-0.2,1-0.7,1.6-1.8,1.6c-0.9,0-1.6-0.7-1.6-1.5c0-0.1,0-0.2,0-0.3c0-0.8,0.7-1.5,1.5-1.5c0,0,0.1,0,0.1,0
	C199.2,191,199.7,191.7,199.8,192.7z"/>
<path d="M209.1,206.8c0,0.9-0.8,1.6-1.7,1.6c0,0-0.1,0-0.1,0c-0.9-0.1-1.6-0.9-1.5-1.8c0.1-0.8,0.8-1.5,1.6-1.5
	c0.9,0,1.6,0.7,1.6,1.6C209.2,206.7,209.2,206.7,209.1,206.8z"/>
<path d="M209.1,202.1c-0.1,0.9-0.7,1.6-1.6,1.6c-0.9,0-1.6-0.8-1.6-1.6c0-0.9,0.8-1.6,1.6-1.6C208.4,200.5,209.1,201.2,209.1,202.1z
	"/>
<path d="M196.5,187.9c0.2-0.9,0.7-1.6,1.7-1.6c0.9,0,1.6,0.8,1.5,1.6s-0.8,1.6-1.6,1.5C197.2,189.5,196.4,188.8,196.5,187.9
	C196.5,187.9,196.5,187.9,196.5,187.9z"/>
<path d="M207.4,209.6c0.9,0.1,1.6,0.4,1.7,1.3c0.1,0.5-1.8,2.2-2.2,2.1c-0.7-0.2-1.3-0.8-1.2-1.6c-0.1-0.9,0.6-1.7,1.5-1.8
	C207.3,209.6,207.4,209.6,207.4,209.6z"/>
<path d="M195.1,183c-0.2,1-0.7,1.6-1.8,1.5c-0.8,0-1.5-0.7-1.5-1.5c0-0.1,0-0.1,0-0.2c0-0.8,0.6-1.5,1.5-1.6c0.1,0,0.2,0,0.3,0
	C194.4,181.4,195.1,182.1,195.1,183z"/>
<path d="M199.6,182.9c0.1,0.8-0.5,1.4-1.3,1.5c0,0-0.1,0-0.1,0c-0.8,0.1-1.5-0.5-1.6-1.3c-0.1-0.8,0.5-1.5,1.3-1.6
	c0.1,0,0.2,0,0.2,0c0.8,0,1.4,0.6,1.5,1.3C199.6,182.9,199.6,182.9,199.6,182.9z"/>
<path d="M204.4,192.6c0,0.9-0.7,1.6-1.5,1.6c0,0,0,0-0.1,0c-0.9,0-1.6-0.7-1.6-1.5c0-0.9,0.7-1.6,1.5-1.6
	C203.6,191.1,204.3,191.7,204.4,192.6C204.3,192.6,204.3,192.6,204.4,192.6z"/>
<path d="M207.4,198.9c-0.9-0.1-1.5-0.6-1.5-1.5c-0.1-0.8,0.5-1.5,1.3-1.5c0.1,0,0.2,0,0.3,0c0.8,0,1.4,0.6,1.4,1.4
	c0,0.1,0,0.1,0,0.2C208.9,198.2,208.3,198.9,207.4,198.9C207.5,198.9,207.4,198.9,207.4,198.9z"/>
<path d="M182,173.5c0.1-0.6,0.2-1.3,1-1.3c0.4,0,2.2,1.9,2.1,2.2c-0.3,0.6-0.9,0.9-1.5,0.8C182.7,175.2,182,174.5,182,173.5
	C182,173.6,182,173.6,182,173.5z"/>
<path d="M195,178.2c0,0.8-0.6,1.6-1.5,1.6c0,0,0,0-0.1,0c-0.7,0-1.4-0.3-1.4-1.1c0-0.9,0.7-1.7,1.6-1.9
	C194.4,176.6,194.8,177.4,195,178.2z"/>
<path d="M207.4,191.3c0.9,0.1,1.5,0.5,1.5,1.4c0,0.8-0.6,1.4-1.4,1.4c-0.8,0-1.4-0.6-1.4-1.4c0,0,0,0,0,0
	C206,191.9,206.6,191.3,207.4,191.3C207.3,191.3,207.3,191.3,207.4,191.3z"/>
<path d="M212.1,200.6c1,0.1,1.5,0.6,1.5,1.5c0,0.8-0.6,1.4-1.4,1.4s-1.4-0.6-1.4-1.4c-0.1-0.7,0.5-1.4,1.2-1.5
	C212,200.6,212,200.6,212.1,200.6z"/>
<path d="M202.8,186.5c0.7,0,1.4,0.6,1.4,1.3c0,0.1,0,0.1,0,0.2c0,0.8-0.7,1.4-1.5,1.4c-0.8,0-1.4-0.7-1.4-1.5l0,0
	c-0.1-0.7,0.5-1.4,1.2-1.4C202.7,186.5,202.7,186.5,202.8,186.5z"/>
<path d="M211.6,208.1c-0.6-0.2-1-0.6-1-1.2c-0.1-0.7,0.3-1.4,1-1.7c0.6-0.3,1.2-0.1,1.6,0.4c0.6,0.6-0.1,0.9-0.4,1.2
	C212.4,207.2,212.4,208.1,211.6,208.1z"/>
<path d="M207.5,189.3c-0.7,0-1.3-0.5-1.4-1.2c0,0,0-0.1,0-0.1c0-0.7,0.4-1.2,1.1-1.3c0,0,0.1,0,0.1,0c0.7-0.1,1.3,0.4,1.4,1
	c0,0.1,0,0.2,0,0.3C208.8,188.7,208.2,189.3,207.5,189.3z"/>
<path d="M204.1,182.9c-0.1,0.8-0.5,1.4-1.3,1.4c-0.7,0-1.4-0.5-1.4-1.3s0.5-1.4,1.3-1.4l0,0C203.4,181.5,204.1,182.1,204.1,182.9
	C204.1,182.8,204.1,182.9,204.1,182.9z"/>
<path d="M204.1,178.3c-0.1,0.8-0.6,1.3-1.3,1.2c-0.7-0.1-1.2-0.7-1.1-1.4c0.1-0.6,0.6-1.1,1.2-1.1
	C203.5,177,204.1,177.6,204.1,178.3z"/>
<path d="M212.2,194c-0.7,0-1.3-0.5-1.4-1.2c-0.1-0.7,0.4-1.3,1-1.4c0.1,0,0.2,0,0.3,0c0.7,0,1.2,0.5,1.3,1.1c0,0,0,0.1,0,0.1
	C213.4,193.4,213,193.8,212.2,194z"/>
<path d="M199.5,178.1c0,0.9-0.4,1.5-1.3,1.5c-0.7,0.1-1.3-0.3-1.5-1c0-0.1,0-0.2,0-0.4c-0.1-0.7,0.4-1.3,1.1-1.3c0.1,0,0.1,0,0.2,0
	C198.8,176.8,199.4,177.3,199.5,178.1C199.5,178.1,199.5,178.1,199.5,178.1z"/>
<path d="M213.5,197.4c0,0.7-0.6,1.3-1.3,1.3c0,0-0.1,0-0.1,0c-0.7,0-1.3-0.6-1.3-1.4c0-0.7,0.6-1.3,1.4-1.3l0,0
	C213,196,213.4,196.5,213.5,197.4z"/>
<path d="M199.4,173.6c0,0.7-0.6,1.3-1.3,1.3c0,0,0,0,0,0c-0.6,0.1-1.2-0.4-1.3-1c0-0.1,0-0.1,0-0.2c0-0.7,0.7-1.3,1.4-1.3
	C198.9,172.2,199.4,172.9,199.4,173.6z"/>
<path d="M216.8,198.6c-0.8-0.2-1.3-0.6-1.2-1.4c0.1-0.7,0.7-1.2,1.4-1.1c0.6,0.1,1.1,0.6,1.1,1.2C218,198,217.5,198.6,216.8,198.6z"
	/>
<path d="M207.5,184.2c-0.8-0.1-1.3-0.5-1.2-1.3c0-0.6,0.5-1.1,1.1-1.1c0,0,0.1,0,0.1,0c0.6,0,1.2,0.5,1.2,1.1c0,0.1,0,0.1,0,0.2
	C208.6,183.7,208.1,184.2,207.5,184.2z"/>
<path d="M213.3,187.9c0,0.6-0.4,1.1-1,1.2c0,0-0.1,0-0.1,0c-0.6,0-1.2-0.5-1.2-1.1s0.5-1.2,1.1-1.2l0,0c0.6,0,1.1,0.4,1.2,1
	C213.3,187.9,213.3,187.9,213.3,187.9z"/>
<path d="M189.7,179.1c0,0.4-0.2,0.7-0.6,0.8c0,0,0,0,0,0c-0.8,0.2-1.6-0.2-1.9-1c-0.3-0.5-0.2-1.1,0.2-1.5c0.6-0.4,0.8,0.3,1.1,0.6
	C188.9,178.3,189.3,178.7,189.7,179.1z"/>
<path d="M174.4,169.1c0.5,0.4,1.5-0.5,1.5,0.6c0,0.7-0.8,1-1.5,1s-1.7-0.3-1.6-1.1C172.8,168.7,173.8,169.5,174.4,169.1z"/>
<path d="M216.7,200.7c0.6,0.1,1.2,0.2,1.1,0.7c-0.3,0.7-0.8,1.3-1.6,1.6c-0.5,0.2-0.7-0.4-0.7-0.9
	C215.4,201.4,216,200.7,216.7,200.7z"/>
<path d="M202.7,174.7c-0.6,0-1-0.4-1-1c0-0.1,0-0.2,0-0.3c0-0.6,0.5-1,1-1c0,0,0.1,0,0.1,0c0.6,0,1,0.4,1,1c0,0.1,0,0.2,0,0.3
	c0,0.6-0.5,1-1,1C202.8,174.7,202.8,174.7,202.7,174.7z"/>
<path d="M207.4,174.6c-0.5,0-0.9-0.4-0.9-0.9c-0.1-0.5,0.3-0.9,0.8-1c0.1,0,0.1,0,0.2,0c0.5,0,0.9,0.4,0.9,0.9c0,0,0,0.1,0,0.1
	C208.3,174.1,207.9,174.5,207.4,174.6z"/>
<path d="M217.9,192.7c0,0.6-0.4,1-0.9,1.1c-0.1,0-0.2,0-0.2,0c-0.6,0-1-0.4-1-1c0,0,0-0.1,0-0.1c0.1-0.6,0.6-1,1.2-1
	C217.4,191.7,217.8,192.1,217.9,192.7L217.9,192.7z"/>
<path d="M207.4,177.2c0.7,0,1.1,0.3,1.1,1c0.1,0.5-0.3,1-0.9,1.1c-0.1,0-0.1,0-0.2,0c-0.5,0-1-0.4-1-0.9c0-0.1,0-0.1,0-0.2
	C206.4,177.7,206.8,177.3,207.4,177.2C207.3,177.2,207.4,177.2,207.4,177.2z"/>
<path d="M216.8,187c0.6,0.1,1,0.4,1,0.9c0.1,0.5-0.3,0.9-0.8,1c-0.1,0-0.1,0-0.2,0c-0.5,0-0.9-0.4-0.9-0.9c0,0,0-0.1,0-0.1
	C215.9,187.4,216.2,187.1,216.8,187z"/>
<path d="M212.1,181.9c0.7,0,1.1,0.3,1.1,1c0,0.5-0.3,1-0.9,1c0,0-0.1,0-0.1,0c-0.5,0.1-0.9-0.3-1-0.8c0,0,0-0.1,0-0.1
	C211.1,182.5,211.5,182,212.1,181.9C212,181.9,212.1,181.9,212.1,181.9z"/>
<path d="M168.4,170.4c0.8-0.7,2-0.9,3-0.7C170.5,171,169.6,171.2,168.4,170.4z"/>
<path d="M221.9,191.7c0.6,0.1,1,0.4,0.9,1c0,0.5-0.4,0.9-0.9,0.9c0,0-0.1,0-0.1,0c-0.5,0-0.8-0.4-0.8-0.9
	C220.9,192.1,221.3,191.8,221.9,191.7z"/>
<path d="M212.1,177.4c0.5,0,0.9,0.3,0.9,0.8c0.1,0.5-0.2,0.9-0.7,1c0,0-0.1,0-0.1,0c-0.5,0-0.9-0.3-0.9-0.8c0,0,0,0,0,0
	C211.2,177.8,211.6,177.5,212.1,177.4z"/>
<path class="st1" d="M226.4,44.8c1.4,1.3,2.8,2.5,4.2,3.8c0.7,0.6,1.4,1.3,2,2c0.6,0.7,1.2,1.4,1.8,2.2l0,0
	c-0.8-0.5-1.5-1.1-2.2-1.8c-0.7-0.6-1.3-1.3-2-2c-1.3-1.4-2.6-2.8-3.8-4.2L226.4,44.8z"/>
<path class="st1" d="M234.1,44.8c-1.3,1.4-2.5,2.8-3.8,4.2c-0.6,0.7-1.3,1.4-2,2c-0.7,0.6-1.4,1.2-2.2,1.8l0,0
	c0.5-0.8,1.1-1.5,1.8-2.2c0.6-0.7,1.4-1.3,2-2c1.4-1.3,2.8-2.6,4.2-3.8L234.1,44.8z"/>
</svg>
