<svg xmlns="http://www.w3.org/2000/svg" width="193.9" height="210" viewBox="0 0 193.9 210"><title>Asset 1</title><g id="b4845544-446b-4e43-b160-b39c687e103a" data-name="Layer 2"><g id="ecdcef7e-34ec-427a-8a3d-efdbd73e423e" data-name="Layer 1"><rect x="1.4" y="18.1" width="95.6" height="95.4" fill="#8abde2" stroke="#010101" stroke-miterlimit="10" stroke-width="0.97"/><rect x="96.9" y="18.1" width="95.6" height="95.4" fill="#8abde2" stroke="#010101" stroke-miterlimit="10" stroke-width="0.97"/><rect x="96.9" y="113.5" width="95.6" height="95.4" fill="#8abde2" stroke="#010101" stroke-miterlimit="10" stroke-width="0.97"/><rect x="1.4" y="113.5" width="95.6" height="95.4" fill="#8abde2" stroke="#010101" stroke-miterlimit="10" stroke-width="0.97"/><path d="M97.2,18l.6,47.7.4,47.7c.2,15.9.5,31.8.3,47.7-.1,8-.2,15.9-.4,23.9l-.4,11.9c-.2,4-.3,8-.5,11.9h-.3c-.2-4-.3-7.9-.5-11.9L96.1,185c-.2-8-.3-15.9-.4-23.9-.2-15.9.1-31.8.3-47.7l.4-47.7L97,18Z" fill="#010101"/><path d="M1.4,113.3l47.8-.6,47.8-.4c15.9-.1,31.9-.5,47.8-.3,8,.1,15.9.2,23.9.4l12,.4c4,.2,8,.3,12,.5v.3c-4,.2-8,.3-12,.5l-12,.4c-8,.2-15.9.3-23.9.4-16,.2-31.9-.1-47.8-.3l-47.7-.4-47.8-.6v-.3Z" fill="#010101"/><line x1="1.4" y1="208.9" x2="192.7" y2="208.9" fill="none" stroke="#010101" stroke-miterlimit="10" stroke-width="0.66"/><line x1="1.4" y1="18.1" x2="192.7" y2="18.1" fill="none" stroke="#010101" stroke-miterlimit="10" stroke-width="0.66"/><path d="M167.1,89c0,12.6-6,10.9-10.5,10.8s-9.5-1.1-9.5-8.3a24.16,24.16,0,0,0-1.7-8.8,10.13,10.13,0,0,0-4.1-4.8c-4.4-2.7-8.6-5.7-12.7-8.8-14.4-15.6-5.1-32.7,11.8-36.6s25.6,4,25.6,4Z" fill="#fff"/><path d="M167,89c0,12.6-6.9,10.9-11.2,10.7s-9.3-1.1-9.3-8.3a26.34,26.34,0,0,0-1.6-8.8,9.93,9.93,0,0,0-4-4.8c-4.3-2.7-8.4-5.7-12.4-8.8-14-15.6-5-32.7,11.5-36.6s24.9,5.1,24.9,5.1,3.3,4.1,3.7,7.8S167,89,167,89Z" fill="#3a71a1"/><path d="M166.2,87.5l.3-9.5c.2-5.9.5-14.2.7-23.6,0-2.3.1-4.8.1-7.2a9.15,9.15,0,0,0-.1-1.7,9.36,9.36,0,0,0-.4-1.6,18.67,18.67,0,0,0-1.5-3.2,13,13,0,0,0-1-1.5,3,3,0,0,1-.5-.7h-.1l-.2-.2-.3-.3a15.67,15.67,0,0,0-3-2,25.49,25.49,0,0,0-7-2.5,26.12,26.12,0,0,0-7.4-.4,43.45,43.45,0,0,0-7.2,1.3,30.69,30.69,0,0,0-6.4,2.9,23.15,23.15,0,0,0-5,4.3A17.45,17.45,0,0,0,122.9,54a23.07,23.07,0,0,0,5.6,13.2l.6.7.1.1h0l.4.3,1.5,1.2c1,.8,2.1,1.6,3.1,2.3,2.1,1.5,4.2,3,6.3,4.4l.8.5.9.6a7.52,7.52,0,0,1,1.6,1.5,13.06,13.06,0,0,1,2.1,3.6,23.79,23.79,0,0,1,1.5,7.4v2.6l.1.8a5.89,5.89,0,0,0,1,2.6,6.85,6.85,0,0,0,4.7,2.5l2.8.3c1,.1,1.9.1,2.7.2a6.92,6.92,0,0,0,4.2-.8,6.08,6.08,0,0,0,2.3-2.7,27.59,27.59,0,0,0,.8-2.7c.1-.8.2-1.4.2-1.8v-.6c.1-1.9,1.6-1.9,1.6.1V91c0,.4-.1,1.1-.2,1.9a17.68,17.68,0,0,1-.8,3.1,7.74,7.74,0,0,1-2.7,3.5l-.6.4-.6.3a5,5,0,0,1-1.3.4,12.29,12.29,0,0,1-2.7.2c-.9,0-1.8-.1-2.7-.1s-2-.1-3-.2a9,9,0,0,1-3.2-.9,7.25,7.25,0,0,1-2.9-2.3,9.54,9.54,0,0,1-1.4-3.5l-.1-.9-.1-.9a9.7,9.7,0,0,0-.1-1.7,25.09,25.09,0,0,0-1.5-6.7,8.11,8.11,0,0,0-1.7-2.8,12,12,0,0,0-1.2-1.1c-.2-.2-.5-.3-.7-.5l-.8-.5c-2.2-1.4-4.4-2.9-6.5-4.4-1.1-.8-2.1-1.6-3.2-2.3l-1.6-1.2-.4-.3-.3-.3-.2-.2-.7-.8a27.87,27.87,0,0,1-4.4-6.9,21.93,21.93,0,0,1-2-8,18.8,18.8,0,0,1,.2-4.1,16.37,16.37,0,0,1,1-3.8,22.47,22.47,0,0,1,9.5-11.5,26,26,0,0,1,7.2-3.2,42.19,42.19,0,0,1,7.9-1.4,28.39,28.39,0,0,1,8.2.6,26.57,26.57,0,0,1,7.7,2.9,26.16,26.16,0,0,1,3.4,2.4l.4.4.2.2.3.3a5.55,5.55,0,0,0,.6.8,16.29,16.29,0,0,1,1.1,1.7,18.42,18.42,0,0,1,1.7,3.8,7.79,7.79,0,0,1,.4,2.1v2c0,2.5-.1,4.9-.2,7.3-.4,9.4-.9,17.7-1.2,23.6s-.6,9.5-.6,9.5C167.6,89.5,166.2,89.4,166.2,87.5Z" fill="#010101"/><path d="M135.6,58.6l-.3-.4a9.32,9.32,0,0,1,.6-11.4,11.46,11.46,0,0,1,2.2-2.2,4.23,4.23,0,0,1,.7-.5l.6-.3,1.3-.6a16.34,16.34,0,0,1,5.8-1.3,13.47,13.47,0,0,1,5.9,1.4,12.46,12.46,0,0,1,3.6,2.8,8.28,8.28,0,0,1,1.1,1.5c.2.4-.8.9-1,.7a12,12,0,0,0-1.1-1.2,12.38,12.38,0,0,0-3.4-2.2,10.84,10.84,0,0,0-5-.9,14.8,14.8,0,0,0-5,1.3l-1.1.5-.6.3-.4.3a8.13,8.13,0,0,0-1.9,1.8,7.56,7.56,0,0,0-2.1,4.5,8.59,8.59,0,0,0,.5,3.9,3.7,3.7,0,0,0,.5,1.1l.2.4C136.7,58.4,135.9,58.9,135.6,58.6Z" fill="#010101"/><path d="M158.9,73.4h-1.4a6.65,6.65,0,0,1-3.4-.9,9.34,9.34,0,0,1-3.8-4.3l-.1-.3c0-.1-.1-.2-.1-.4l-.1-.6c0-.4-.1-.7-.1-1.1v-1a9.88,9.88,0,0,1,1.1-4.4,9.21,9.21,0,0,1,3.2-3.3,9.58,9.58,0,0,1,3.2-1.2,5.9,5.9,0,0,1,1.4-.2c.3,0,.4,1.1.2,1.2-.4.1-.8.2-1.1.3a9.39,9.39,0,0,0-2.6,1.4,7,7,0,0,0-2.3,2.8,8.29,8.29,0,0,0-.7,3.4v.9l.1.9v.5a.37.37,0,0,0,.1.3,6.89,6.89,0,0,0,.3.8,6.67,6.67,0,0,0,2.3,2.7,6.4,6.4,0,0,0,2.6,1c.3,0,.6.1.9.1h.3C159.1,72.3,159.2,73.3,158.9,73.4Z" fill="#010101"/><circle cx="49.6" cy="161.4" r="34.2" fill="#f7c451"/><path d="M82.9,159.8l-.1-.7a13.55,13.55,0,0,0-.2-2l-.2-1.5-.1-.8-.2-.9-.5-2c-.2-.7-.5-1.4-.8-2.2a33.19,33.19,0,0,0-17.3-18.2,32.52,32.52,0,0,0-15.7-2.8,30.06,30.06,0,0,0-4.2.5,14.62,14.62,0,0,0-2,.5l-2,.6a26.6,26.6,0,0,0-3.9,1.6,17.38,17.38,0,0,0-1.9,1L32,134a32.76,32.76,0,0,0-9,8.8,10.81,10.81,0,0,0-1.1,1.8,16.18,16.18,0,0,0-1,1.8,32.86,32.86,0,0,0,0,30.2,16.18,16.18,0,0,0,1,1.8c.4.6.7,1.2,1.1,1.8.8,1.1,1.7,2.2,2.6,3.3A30.54,30.54,0,0,0,32,189l1.8,1.1a11.4,11.4,0,0,0,1.9,1,32,32,0,0,0,3.9,1.6c.7.3,1.4.4,2,.6a12.91,12.91,0,0,0,2.1.5,33.25,33.25,0,0,0,19.9-2.3A34.15,34.15,0,0,0,75,183.1a33.71,33.71,0,0,0,5.9-9.8c.3-.8.6-1.5.8-2.2a19.45,19.45,0,0,0,.5-2l.2-.9.1-.8.2-1.5a13.55,13.55,0,0,0,.2-2l.1-.7c.1-2.1,1.6-2.1,1.6.1v.8a14.92,14.92,0,0,1-.2,2.1c-.1.5-.1,1-.2,1.6l-.1.9-.2,1c-.2.6-.3,1.4-.5,2.1s-.5,1.5-.8,2.3a33.58,33.58,0,0,1-6.1,10.5,36,36,0,0,1-12,9.2,35.81,35.81,0,0,1-21.3,2.8,14.19,14.19,0,0,1-2.2-.5c-.8-.2-1.5-.4-2.2-.6a32,32,0,0,1-4.3-1.7,20,20,0,0,1-2.1-1l-2-1.2a39.78,39.78,0,0,1-7-5.9,35.06,35.06,0,0,1-2.9-3.6,12.23,12.23,0,0,1-1.2-1.9,18.58,18.58,0,0,1-1.1-1.9,35.06,35.06,0,0,1,0-33,21.16,21.16,0,0,1,1.1-2.1c.4-.7.8-1.3,1.2-1.9a31.66,31.66,0,0,1,2.9-3.5,32.74,32.74,0,0,1,7-5.9l2-1.2a20,20,0,0,1,2.1-1,32,32,0,0,1,4.3-1.7,18,18,0,0,1,2.2-.6,17.42,17.42,0,0,1,2.2-.5,35.81,35.81,0,0,1,21.3,2.8,36,36,0,0,1,12,9.2,35.64,35.64,0,0,1,6.1,10.5c.3.8.6,1.6.8,2.3a16,16,0,0,1,.5,2.1l.2.9c0,.3.1.6.1.9l.2,1.6a14.92,14.92,0,0,1,.2,2.1v.7C84.4,162,83.1,161.9,82.9,159.8Z" fill="#010101"/><path d="M150,135.3a15.91,15.91,0,0,1,24.2-.9,20.64,20.64,0,0,1,.9,26.9,9,9,0,0,0-.9,1l-25.1,28.1c-2.2,2.5-3.4,6.6-8.1,0h0l-25.2-28.2a20.64,20.64,0,0,1-.9-26.9,15.91,15.91,0,0,1,24.2-.9l.9.9,5,5.6Z" fill="#ce3239"/><path d="M149.5,137l-4.5,5-2.7-2.9-2.3-2.4-1.4-1.5c-.5-.5-1-1-1.6-1.5a16.7,16.7,0,0,0-4.3-2.5,13.46,13.46,0,0,0-5.6-.9,15.56,15.56,0,0,0-11.4,5.8,19.69,19.69,0,0,0-4.1,14,17.78,17.78,0,0,0,2.3,7.4,15.05,15.05,0,0,0,1,1.7l.6.8c.2.3.4.5.6.8l2.8,3.1L140.6,188l.8.9.3.4a1.38,1.38,0,0,1,.3.4c.4.6.8,1,1.2,1.5l.6.6a2.65,2.65,0,0,0,.6.5.37.37,0,0,0,.3.1.35.35,0,0,1,.2.1h.2a1.76,1.76,0,0,0,.9-.8c.4-.4.8-1,1.3-1.6s1-1.1,1.5-1.7l2.9-3.2,11.8-13.1,5.9-6.6,3-3.3,1.4-1.6c.4-.5.8-1.1,1.2-1.6a19.59,19.59,0,0,0,2.9-14.9,18.05,18.05,0,0,0-7.3-11.3,14.67,14.67,0,0,0-10.4-2.5,15.09,15.09,0,0,0-6.7,2.7c-.5.4-1.1.8-1.5,1.2l-.4.3-.1.1c-1.5,1.5-2.6.6-1.1-1.1l.1-.1.4-.4a11.51,11.51,0,0,1,1.7-1.4,16.75,16.75,0,0,1,7.4-3.1,18.17,18.17,0,0,1,5.7.1,17.12,17.12,0,0,1,6.1,2.5,20.2,20.2,0,0,1,8.4,12.5,22.1,22.1,0,0,1-3,16.8c-.5.6-.9,1.3-1.4,1.8l-1.5,1.7-2.9,3.3-5.9,6.6L153.8,187l-2.7,3.2a15.26,15.26,0,0,0-1.3,1.5c-.3.4-.8,1.1-1.3,1.7a5.46,5.46,0,0,1-2.4,1.8,2.77,2.77,0,0,1-1.8,0,4.88,4.88,0,0,1-.7-.3,2.09,2.09,0,0,1-.6-.4,3.92,3.92,0,0,1-1-.8,6,6,0,0,1-.8-.8,10.92,10.92,0,0,1-1.3-1.7c-.3-.3-.8-.9-1.3-1.4l-21.5-24.2c-1-1.1-1.8-2.1-2.8-3.2-.2-.3-.5-.6-.7-.9l-.6-.9c-.4-.6-.8-1.3-1.2-1.9a20.94,20.94,0,0,1-2.5-8.5,21.33,21.33,0,0,1,4.9-15.7,20.28,20.28,0,0,1,6.1-4.8,17.05,17.05,0,0,1,7-1.6,16.81,16.81,0,0,1,6.3,1.2,19.83,19.83,0,0,1,4.8,2.9c.6.6,1.2,1.1,1.7,1.7l1.4,1.6,2.2,2.5,1.1,1.3.3.3,3.3-3.7C149.9,134.4,150.9,135.3,149.5,137Z" fill="#010101"/><path d="M31.9,175l28.3-33.2c-8.1-6.9-20.9-5-28.7,4.1S23.8,168.2,31.9,175Z" fill="#d1912a"/><path d="M30.9,174.9l-.3-.3a6,6,0,0,1-.8-.8l-1.1-1.3a17.37,17.37,0,0,1-1.3-2,20.18,20.18,0,0,1-2.1-5.8,22.1,22.1,0,0,1-.1-7.7,24.83,24.83,0,0,1,8.9-15.2,24.29,24.29,0,0,1,8.1-4.3,20.93,20.93,0,0,1,8.6-.9,18.81,18.81,0,0,1,8.2,2.9c.2.1.3.2.5.3l.6.4c.6.4,1.2.9,1.7,1.3l-2.2,2.6-2.9,3.4L45.4,160.6c-7,8-12.4,14.1-12.4,14.1-.7.8-1.6.1-.9-.8l12-14.5,11.1-13.3,2.9-3.4.6-.8h0l-.1-.1-.2-.1c-.1-.1-.3-.2-.4-.3a17.23,17.23,0,0,0-7.2-2.5,20,20,0,0,0-7.7.7,21.08,21.08,0,0,0-7.4,3.9,23.42,23.42,0,0,0-8.5,13.8,18.84,18.84,0,0,0-.1,7.1,17.19,17.19,0,0,0,1.8,5.4c.4.7.8,1.3,1.1,1.9l1,1.3a4.62,4.62,0,0,0,.7.7l.3.3C32.3,174.9,31.7,175.6,30.9,174.9Z" fill="#010101"/><path d="M67.7,148.1l-28,33.4c8.1,6.8,21,4.9,28.7-4.3S75.8,154.9,67.7,148.1Z" fill="#d1912a"/><path d="M68.7,148.2l.3.3a6,6,0,0,1,.8.8l1.1,1.3a17.37,17.37,0,0,1,1.3,2,19.34,19.34,0,0,1,2.2,5.8,22.09,22.09,0,0,1,.2,7.7,24.7,24.7,0,0,1-8.8,15.2,22.84,22.84,0,0,1-8.1,4.4,20.93,20.93,0,0,1-8.6.9,18.37,18.37,0,0,1-8.2-2.9c-.2-.1-.3-.2-.5-.3l-.6-.4c-.6-.4-1.2-.9-1.7-1.3l2.2-2.6,2.9-3.3,11.3-13.1,12.3-14.2c.7-.8,1.6-.1.9.8L55.8,163.9l-11,13.4L42,180.7l-.6.8h0l.1.1.2.1c.1.1.3.2.4.3a17.18,17.18,0,0,0,7.3,2.5,18.29,18.29,0,0,0,7.7-.8,21.08,21.08,0,0,0,7.4-3.9,23,23,0,0,0,8.4-13.9,21.15,21.15,0,0,0,0-7.1,17.19,17.19,0,0,0-1.8-5.4c-.4-.7-.8-1.3-1.1-1.8l-1-1.3a4.62,4.62,0,0,0-.7-.7l-.3-.3C67.2,148.3,67.8,147.5,68.7,148.2Z" fill="#010101"/><path d="M84,59.4c0-14.8-15.4-26.9-34.4-26.9S15.1,44.6,15.1,59.4c0,10.2,7.3,19.2,18.1,23.7h0s-3.4,11.3-8,15.4c-.1.1-.1.2,0,.2a.14.14,0,0,0,.2,0c6.1-3,22-13.6,22.3-13l4.1.5h0C70.1,85.5,84,73.8,84,59.4Z" fill="#ef6572"/><path d="M84.7,61.2v.6c-.1.7-.2,1.3-.3,1.9a22.31,22.31,0,0,1-3,7.9,15.1,15.1,0,0,1-1.8,2.6,6.89,6.89,0,0,1-1.1,1.3,17.41,17.41,0,0,0-1.2,1.4,37.57,37.57,0,0,1-6.7,5.2A42.06,42.06,0,0,1,61,86a39.47,39.47,0,0,1-5.8,1.1l-3.2.3-3.7-.5c.3,0,.3.1.1,0h-.5l-.4.2-.5.3-1.3.8-3.3,2.1c-2.5,1.6-5.4,3.5-8.8,5.5l-1.3.8-2,1.2c-.8.5-1.6.9-2.4,1.4a6.67,6.67,0,0,1-2.1.9,3.4,3.4,0,0,1-1-.1c-.1,0-.2-.1-.3-.1a1.44,1.44,0,0,1-.2-.3v-.4l-.1-.4v-.2a1.69,1.69,0,0,1,.2-.5l.4-1c.3-.3.5-.6.8-.9l.7-1,.8-1a10.91,10.91,0,0,0,.6-1.1l.4-.7.3-.6c.2-.4.4-.9.7-1.4.4-1,.9-2,1.4-3.2l.7-1.8.6-1.7h0c.1.1-.4-.2-.7-.3l-1-.5A11.25,11.25,0,0,1,28,81.7a22.63,22.63,0,0,0-2-1.3,29.67,29.67,0,0,1-7-6.7,26.23,26.23,0,0,1-4-7.8,35.83,35.83,0,0,1-.9-4.5c0-.8-.1-1.6-.1-2.3a21.16,21.16,0,0,1,.2-2.4,24.12,24.12,0,0,1,3.1-9,27.48,27.48,0,0,1,6.2-7.4c1.2-1,2.5-2,3.8-2.9a41.61,41.61,0,0,1,4.2-2.3,33.83,33.83,0,0,1,4.4-1.8c.7-.3,1.5-.4,2.3-.7s1.5-.4,2.3-.6a45.82,45.82,0,0,1,17.7-.2,39.83,39.83,0,0,1,14.5,5.8,30.2,30.2,0,0,1,8.9,8.9,24.41,24.41,0,0,1,2.1,4.3l.6,1.9a6.89,6.89,0,0,0,.3.8l.1.8a15.06,15.06,0,0,1,.4,2.2v.8c.1,2.4-1.4,2.2-1.6.1l-.1-.7a15.52,15.52,0,0,0-.4-2.1l-.1-.7c-.1-.3-.2-.5-.3-.8L82,51.4a24.19,24.19,0,0,0-2.1-3.9,28.54,28.54,0,0,0-8.4-8.2A40,40,0,0,0,57.7,34a42.7,42.7,0,0,0-16.7.4,8.3,8.3,0,0,0-2.1.6l-2.1.6c-1.4.5-2.7,1.1-4.1,1.7s-2.6,1.4-3.9,2.1a29.72,29.72,0,0,0-3.5,2.7,23.77,23.77,0,0,0-5.5,6.7,19.93,19.93,0,0,0-2.6,7.9,21,21,0,0,0,4.3,14.9,30.37,30.37,0,0,0,6.3,6.1l1.8,1.2A18.58,18.58,0,0,0,31.5,80l.9.5,1.3.6,1,.4.5.2.2.1c.1,0,.2.1.1.2l-.6,2a5,5,0,0,0-.4,1.3l-.4,1c-.2.7-.5,1.3-.7,1.9q-.75,1.8-1.5,3.3c-.2.5-.5,1-.7,1.4l-.3.7-.2.3-.1.1h0l-.1.2-.3.3s-.1.1,0,.1h.1l.1-.1.3-.2.6-.4,1.3-.8,8.7-5.4c1.3-.8,2.4-1.4,3.4-2l1.4-.8.6-.3a2.39,2.39,0,0,1,.7-.3,2.35,2.35,0,0,1,.8-.2h-.1c.1.1.2.1.3.2l.4.3c.1.1.2.2.3.2H49l2.9-.1,2.9-.2a54.82,54.82,0,0,0,5.6-1,38.24,38.24,0,0,0,9.2-3.6A29.76,29.76,0,0,0,76,75.1c.4-.4.8-.9,1.2-1.3s.7-.8,1.1-1.2c.6-.8,1.2-1.6,1.7-2.4a21.08,21.08,0,0,0,2.9-7.3l.3-1.8v-.6C83.4,58.9,84.7,58.8,84.7,61.2Z" fill="#010101"/><path d="M192.7,208.9l-.7-104L191.5,1.5l1.1,1.2-95.5.1L1.4,2.9,2.9,1.4,2.8,105.2l-.1,51.9L2.5,209l-1.1-1.1,95.4.4Zm0,0-95.4.6L1.4,210H.3v-1.1L.1,157.1V105.2L0,1.5V0H1.5L97.1.2l95.6.2h1.2V1.5l-.5,104Z" fill="#010101"/><path d="M119.4,165.9a15.68,15.68,0,0,1-3.1-3.2c-.3-.5-.6-.8,0-1.2s.5-.7,0-1.3-.8-.2-1.1.2c-.2.1-.3.3-.5.4a19.24,19.24,0,0,1-3.4-6.5,1.64,1.64,0,0,1,.1-1.9c1.2-1,.5-1.6-.3-2.2-1-.6-.6-1.5-.6-2.4,1.2.2,1.6-1.2,2.8-1.1a2.88,2.88,0,0,1,2.1.9c.2.2.3.4.5.6,1.8-1.9,2.6-1.9,4.3-.3.2.2.2.6.7.1,1.7-1.5,2.7-1.6,3.6-.5s.8,2.4-1,3.8a4.9,4.9,0,0,1,1.7,1.8c.7-1.1,1.4-1.9,2.7-1.7a2.12,2.12,0,0,1,1.8,1.8c.2,1.3-.4,2.1-1.8,2.7a3.76,3.76,0,0,1,2,2.1c.6-1.3,1.4-2,2.8-1.7a2.14,2.14,0,0,1,1.6,1.7,2.32,2.32,0,0,1-1.6,2.6c2.4,1.9,2.4,3,.2,4.8a5.19,5.19,0,0,1,1.7,1.9c.7-1.1,1.4-1.9,2.7-1.7a2.12,2.12,0,0,1,1.8,1.8,2.25,2.25,0,0,1-1.5,2.6c2.1,1.8,2.2,2.3.5,4.4-.5.6,0,.6.3.8,1.2,1.2,1.3,2.5.3,3.5s-2.2,1-3.4-.1c-.5-.5-.6-.6-1.1,0a6.42,6.42,0,0,1-1.3,1c.2.1.6.2.7.4.7.9,1.3.9,2.2.1a2,2,0,0,1,2.8.2c.1.1.1.2.2.2a2.17,2.17,0,0,1,.1,3c-.6.6-.8,1,0,1.6a2.14,2.14,0,0,1,.4,2.5c-1.9-1.4-3.1-3.5-4.8-5.1-1.5-1.4-2.7-3.1-4.1-4.7-3.4-3.7-6.8-7.4-10.1-11.2a6.89,6.89,0,0,1-.3-.8c.8.7,1.3,0,1.7-.5s-.4-1-.6-1C119.8,164.4,119.6,165.2,119.4,165.9Zm5.8-11.5c-1.6,1.2-1.9,2.3.1,3.3.2-.8,1-1,1.6-1.6A3.51,3.51,0,0,1,125.2,154.4Zm2.7,6.5c1.1.3,1.4,1.1,2.1,1.7.3-.9,1.1-1.3,1.8-1.8a3.4,3.4,0,0,1-1.9-2,4.1,4.1,0,0,1-2,2.1Zm5.1,9.2c1.2,2.3,2.2,1.2,3.2,0-.8-.2-1.3-.9-1.8-1.8a2.83,2.83,0,0,1-1.4,1.8Zm-12.6-20.6a3.31,3.31,0,0,1-1.4,1.9l1.6,1.7a4.09,4.09,0,0,1,1.6-1.6,3.89,3.89,0,0,1-1.8-2Zm9.5,14.3c-.6,1-2.2,1.6-.5,2.7,1.4.9,1.1-1.1,2-1a3.53,3.53,0,0,1-1.5-1.7Zm4.6,9.6c-.1.8-2.2.9-.6,2.3.9.9,1.1.1,1.4-.3,1.6-1.3-1-1.1-.8-2Zm-7.9-12.5a10.7,10.7,0,0,1-1.4-1.6c-1.4,1.5-1.3,1.5-.9,2.1,1.2,1.7,1.5-.3,2.3-.5Zm4.3,9.6-1.3-1.6c-.2.7-1.8,1.1-.3,2.2,1.4.9,1.1-.9,1.6-.6Zm-10.5-13c.5-.5,1.3-.9,1.3-1.4s-.8-.9-1.2-1.4c-.5.4-1.3.8-1.3,1.3s.8,1,1.2,1.5Zm-2.8-6.3c-1.2,0-1.3-1.1-1.9-1a2.13,2.13,0,0,0-1.1,1.2c.1.5.6,1.3,1.3,1.2.5,0,.9-.7,1.7-1.4Zm4.2,9.6c-.5-.4-.9-1-1.4-1.1a1.1,1.1,0,0,0,0,2.2c.5-.1.9-.7,1.4-1.1Zm9.4,14.1c-.5-.5-.9-1.1-1.4-1.2s-1,.6-1.1,1.1.6,1.1,1,1.1,1-.6,1.5-1Zm-4.9-9.2-1.1-1.5c-.4.4-1.2.8-1.2,1.2s.7,1.2,1.1,1.2.9-.6,1.2-.9Zm.2,4.4c-.5-.4-.9-1-1.3-1a1.57,1.57,0,0,0-1.1,1,1.09,1.09,0,0,0,1,1.1c.5,0,.8-.6,1.4-1.1Zm-9.4-13.9c-.4-.4-.7-1-1.1-1.1s-1,.6-1.1,1,.5,1.1,1,1.1S116.6,156.6,117.1,156.2Z"/><path d="M140.9,184.6c-1.6-1.6-1.8-2.8-.6-3.9s2.5-.8,4.1,1a2.31,2.31,0,0,1,2.6-1.5,2.23,2.23,0,0,1,1.8,1.8,2.2,2.2,0,0,1-1.5,2.5c-.1.3.1.4.3.5,1.8,1.3,1.9,2.2.2,3.6a28.77,28.77,0,0,0-2.2,2.7,2.16,2.16,0,0,1-2.7.6c-.9-.5-2.3-.8-2.1-2.3a1.27,1.27,0,0,0-.1-.6C139,186.6,139,186.4,140.9,184.6Zm3.4-1.8c-.5,1-2.4,1.7-.5,2.9.4.3.4.3,2.1-1.3A2.17,2.17,0,0,1,144.3,182.8Zm1,6.5c-.5.2-.2-2.4-1.6-.8-.5.6-.8.8-.1,1.6,1.4,1.4,1.2-.9,1.7-.8Z"/><path d="M118.4,141.7c1.2.8,2.3,1.5,1.9,2.9a2.27,2.27,0,0,1-2.7,1.7,2,2,0,0,1-1.3-.9c-.5-.5-.5-.6-1,0-1.2,1.4-2.5,1.4-3.6.3s-.9-2.2.3-3.5c.3-.3.8-.4.2-.9-.4-.4,1.2-3.7,1.8-3.8,1.1-.2,1.2.9,1.9,1.4.6-1.2,1.4-1.9,2.8-1.6a2.14,2.14,0,0,1,1.6,1.7A2.5,2.5,0,0,1,118.4,141.7Zm-2.6-2a3.57,3.57,0,0,1-1.9,2.1c1,.3,1.4,1,2,1.7.3-.9,1.1-1.2,1.7-1.8a3,3,0,0,1-1.8-2Z"/><path d="M141.5,174.9c-1.4-.6-2.1-1.5-1.7-2.9a2.16,2.16,0,0,1,2.6-1.5,2.32,2.32,0,0,1,1.5,1.4c.4,1.4-.3,2.3-1.6,3,1.1.8,2.3,1.4,1.8,3a2.14,2.14,0,0,1-2.2,1.6,2.25,2.25,0,0,1-2.1-1.6C139.3,176.4,140.2,175.6,141.5,174.9Z"/><path d="M146.6,175.2a2.15,2.15,0,1,1-.1,4.3h-.2a1.92,1.92,0,0,1-1.9-2v-.3a2,2,0,0,1,2-2Z"/><path d="M122.7,142a2,2,0,0,1,2.2,1.8v.2a2,2,0,0,1-1.8,2.2h-.2a2.12,2.12,0,0,1-2.2-2,2.05,2.05,0,0,1,2-2.2Z"/><path d="M134.7,163.1a2,2,0,0,1,2-2h.2a2.13,2.13,0,0,1,1.9,2.3,2.17,2.17,0,0,1-2.2,1.9,2,2,0,0,1-2-2C134.7,163.2,134.7,163.2,134.7,163.1Z"/><path d="M129.5,149.2c-.2,1.4-.9,2.1-2.2,2.1a2.1,2.1,0,0,1,.2-4.2h0a2,2,0,0,1,2,2C129.6,149.1,129.6,149.2,129.5,149.2Z"/><path d="M143.9,163.3a2,2,0,0,1-4-.2h0a1.9,1.9,0,0,1,1.9-1.9h.2A2,2,0,0,1,143.9,163.3Z"/><path d="M134.2,149.2a2,2,0,0,1-2,2,1.92,1.92,0,0,1-2-1.9v-.2a1.88,1.88,0,0,1,1.8-1.9h.3C133.4,147.2,134,148,134.2,149.2Z"/><path d="M129.5,143.9a2,2,0,0,1-1.7,2.3h-.4a1.89,1.89,0,0,1-2-1.8v-.2a2.08,2.08,0,0,1,1.9-2.1h.1a1.93,1.93,0,0,1,2.1,1.8Z"/><path d="M138.8,154a1.93,1.93,0,0,1-2.1,1.8h0a2,2,0,0,1,.2-4,2,2,0,0,1,1.9,2.2Z"/><path d="M134.2,153.8a2.1,2.1,0,1,1-4.2,0h0a1.91,1.91,0,0,1,1.8-2h.2a2,2,0,0,1,2.1,1.9A.1.1,0,0,1,134.2,153.8Z"/><path d="M146.8,174.6a2,2,0,0,1-2.3-1.7v-.4a1.89,1.89,0,0,1,1.8-2h.2a2,2,0,0,1,2.1,1.9v.2a1.91,1.91,0,0,1-1.8,2Z"/><path d="M143.9,167.9A2.08,2.08,0,0,1,142,170h-.2a2,2,0,0,1-2-2v-.2a1.91,1.91,0,0,1,1.8-2h.2a2,2,0,0,1,2.1,1.9Z"/><path d="M146.5,165.9a1.9,1.9,0,0,1,1.9,1.9v.1a2,2,0,0,1-4,0A2,2,0,0,1,146.5,165.9Z"/><path d="M137.1,156.5a2,2,0,0,1,1.8,2,2.08,2.08,0,0,1-1.9,2.1h-.2a2,2,0,0,1-2-2v-.2a2.1,2.1,0,0,1,2.2-1.9Z"/><path d="M122.7,136.8a2,2,0,1,1,0-4h.1a1.88,1.88,0,0,1,1.9,1.8v.2A1.94,1.94,0,0,1,122.7,136.8Z"/><path d="M153.2,177.4a1.9,1.9,0,0,1-1.9,1.9h0a2,2,0,0,1-2.1-1.9v-.1a1.89,1.89,0,0,1,1.8-2h.2a2.08,2.08,0,0,1,2.1,1.9C153.2,177.3,153.2,177.3,153.2,177.4Z"/><path d="M124.8,139.3c-.1,1.4-.8,2.2-2.1,2.2a2.05,2.05,0,1,1-.1-4.1,2,2,0,0,1,2.2,1.9Z"/><path d="M149.1,182.2a2,2,0,0,1,2-2h.2a1.88,1.88,0,0,1,2,1.7c.1.7-1.7,2.5-2.4,2.4A1.93,1.93,0,0,1,149.1,182.2Z"/><path d="M129.5,139.5c-.2,1.2-.8,2-2,2a2,2,0,0,1,0-4C128.7,137.5,129.3,138.3,129.5,139.5Z"/><path d="M134.1,144.2c-.2,1.2-.8,2-2.1,2a1.86,1.86,0,0,1-1.9-1.7v-.2a1.81,1.81,0,0,1,1.6-2h.4C133.3,142.2,134,143,134.1,144.2Z"/><path d="M151.2,166a2,2,0,0,1,1.9,2,1.9,1.9,0,1,1-1.9-2Z"/><path d="M143.8,158.6c-.2,1.2-.8,2-2.1,1.9a2,2,0,0,1,0-3.9,1.84,1.84,0,0,1,2,1.8C143.8,158.5,143.8,158.5,143.8,158.6Z"/><path d="M148.5,163.2c-.2,1.2-.9,2-2.1,1.9a1.79,1.79,0,0,1-1.8-1.8v-.2a1.88,1.88,0,0,1,1.8-1.9h.3A2,2,0,0,1,148.5,163.2Z"/><path d="M151.2,174.6c-1.2-.2-2-.8-2-2.1a2,2,0,0,1,2.3-1.6,2.17,2.17,0,0,1,1.6,1.6C153.2,173.8,152.4,174.4,151.2,174.6Z"/><path d="M127.6,132.8a2,2,0,1,1-.3,3.9,2,2,0,0,1-1.8-2A2.08,2.08,0,0,1,127.6,132.8Z"/><path d="M143.7,153.9a2,2,0,0,1-2,1.9,1.91,1.91,0,0,1,.1-3.8,1.84,1.84,0,0,1,1.9,1.9Z"/><path d="M138.8,149.2c-.2,1.3-.9,2-2.1,1.9a1.79,1.79,0,0,1-1.8-1.8v-.2a1.88,1.88,0,0,1,1.8-1.9h.3A2,2,0,0,1,138.8,149.2Z"/><path d="M118.1,136.9c-1.1-.1-1.8-.5-2-1.6-.1-.5,2.1-2.5,2.7-2.4a1.86,1.86,0,0,1,1.4,2,2.08,2.08,0,0,1-1.9,2.1A.31.31,0,0,0,118.1,136.9Z"/><path d="M157.8,176.9c0,.6-1.6,2.4-2.1,2.3a2,2,0,0,1-1.8-2v-.1a1.79,1.79,0,0,1,1.8-1.8h.2A2,2,0,0,1,157.8,176.9Z"/><path d="M155.9,174.5a2,2,0,0,1-1.9-2,1.9,1.9,0,0,1,3.8.2h0A2,2,0,0,1,155.9,174.5Z"/><path d="M146.5,160.4a1.82,1.82,0,0,1-1.8-1.9v-.1a1.86,1.86,0,1,1,3.7.3A1.85,1.85,0,0,1,146.5,160.4Z"/><path d="M151.2,161.4a1.71,1.71,0,0,1,1.8,1.7v.1a1.85,1.85,0,1,1-3.7-.1,1.94,1.94,0,0,1,1.9-1.7Z"/><path d="M136.8,142.3a1.94,1.94,0,0,1,1.9,1.7v.2a1.75,1.75,0,0,1-1.6,1.8h-.2a1.77,1.77,0,0,1-1.9-1.5v-.3A1.76,1.76,0,0,1,136.8,142.3Z"/><path d="M134,139.4a1.88,1.88,0,0,1-1.8,1.9h-.1a1.88,1.88,0,0,1-1.8-1.9,1.92,1.92,0,0,1,1.7-1.8C133.2,137.5,133.8,138.3,134,139.4Z"/><path d="M151.2,156.8a1.58,1.58,0,0,1,1.7,1.5v.2a1.7,1.7,0,0,1-3.4.2v-.3a1.73,1.73,0,0,1,1.5-1.7C151.1,156.8,151.1,156.8,151.2,156.8Z"/><path d="M148.3,153.8a1.67,1.67,0,0,1-1.5,1.8h-.3a1.45,1.45,0,0,1-1.7-1.4v-.4a1.57,1.57,0,0,1,1.4-1.7h.2a1.59,1.59,0,0,1,1.8,1.4A.37.37,0,0,1,148.3,153.8Z"/><path d="M157.6,163.3a1.58,1.58,0,0,1-1.6,1.6h-.2a1.7,1.7,0,0,1-.2-3.4h.2A1.73,1.73,0,0,1,157.6,163.3Z"/><path d="M136.7,137.7q1.8.15,1.8,1.8a1.58,1.58,0,0,1-1.5,1.7h-.4a1.5,1.5,0,0,1-1.6-1.5v-.2a1.67,1.67,0,0,1,1.5-1.8Z"/><path d="M146.5,147.5a1.58,1.58,0,0,1,1.7,1.5v.2a1.7,1.7,0,0,1-3.4.2v-.3a1.73,1.73,0,0,1,1.6-1.7C146.4,147.5,146.4,147.5,146.5,147.5Z"/><path d="M143.6,149.2a1.69,1.69,0,0,1-1.7,1.7h-.2a1.67,1.67,0,0,1-1.8-1.5V149a1.61,1.61,0,0,1,1.7-1.6h.2a1.75,1.75,0,0,1,1.7,1.7A.1.1,0,0,1,143.6,149.2Z"/><path d="M157.7,167.9a1.67,1.67,0,0,1-1.5,1.8H156a1.75,1.75,0,0,1-.1-3.5h0a1.67,1.67,0,0,1,1.8,1.5C157.6,167.7,157.7,167.8,157.7,167.9Z"/><path d="M133.9,134.7a1.67,1.67,0,0,1-1.5,1.8h-.2a1.75,1.75,0,1,1-.1-3.5,1.77,1.77,0,0,1,1.9,1.5A.31.31,0,0,0,133.9,134.7Z"/><path d="M143.5,144.2a1.58,1.58,0,0,1-1.5,1.7h-.3a1.48,1.48,0,0,1-1.6-1.4v-.3a1.5,1.5,0,0,1,1.4-1.7h.4a1.73,1.73,0,0,1,1.7,1.6C143.5,144.1,143.5,144.1,143.5,144.2Z"/><path d="M155.9,160.2c-1-.1-1.7-.7-1.6-1.7a1.62,1.62,0,0,1,1.4-1.6h.2a1.56,1.56,0,0,1,1.7,1.4v.3A1.73,1.73,0,0,1,155.9,160.2Z"/><path d="M152.9,153.9a1.69,1.69,0,0,1-1.8,1.6,1.56,1.56,0,0,1-1.6-1.5v-.3a1.54,1.54,0,0,1,1.5-1.5h.1A1.66,1.66,0,0,1,152.9,153.9Z"/><path d="M162.2,168a1.67,1.67,0,0,1-1.7,1.6h-.1a1.67,1.67,0,0,1-1.5-1.8,1.71,1.71,0,0,1,1.6-1.5,1.58,1.58,0,0,1,1.6,1.6C162.3,167.9,162.3,167.9,162.2,168Z"/><path d="M162.2,163.3a1.6,1.6,0,1,1-1.6-1.6A1.58,1.58,0,0,1,162.2,163.3Z"/><path d="M149.6,149.1c.2-.9.7-1.6,1.7-1.6a1.49,1.49,0,0,1,1.5,1.6,1.62,1.62,0,0,1-1.6,1.5,1.4,1.4,0,0,1-1.6-1.5Z"/><path d="M160.5,170.8c.9.1,1.6.4,1.7,1.3.1.5-1.8,2.2-2.2,2.1a1.52,1.52,0,0,1-1.2-1.6,1.67,1.67,0,0,1,1.5-1.8Z"/><path d="M148.2,144.2c-.2,1-.7,1.6-1.8,1.5a1.54,1.54,0,0,1-1.5-1.5V144a1.62,1.62,0,0,1,1.5-1.6h.3A1.92,1.92,0,0,1,148.2,144.2Z"/><path d="M152.7,144.1a1.37,1.37,0,0,1-1.3,1.5h-.1a1.46,1.46,0,1,1-.3-2.9h.2a1.51,1.51,0,0,1,1.5,1.3Z"/><path d="M157.5,153.8a1.56,1.56,0,0,1-1.5,1.6h-.1a1.55,1.55,0,0,1-.1-3.1,1.65,1.65,0,0,1,1.7,1.5Z"/><path d="M160.5,160.1a1.47,1.47,0,0,1-1.5-1.5,1.32,1.32,0,0,1,1.3-1.5h.3a1.37,1.37,0,0,1,1.4,1.4v.2a1.45,1.45,0,0,1-1.5,1.4Z"/><path d="M135.1,134.7c.1-.6.2-1.3,1-1.3.4,0,2.2,1.9,2.1,2.2a1.41,1.41,0,0,1-1.5.8,1.61,1.61,0,0,1-1.6-1.7Z"/><path d="M148.1,139.4a1.56,1.56,0,0,1-1.5,1.6h-.1c-.7,0-1.4-.3-1.4-1.1a2,2,0,0,1,1.6-1.9C147.5,137.8,147.9,138.6,148.1,139.4Z"/><path d="M160.5,152.5c.9.1,1.5.5,1.5,1.4a1.4,1.4,0,0,1-2.8,0h0a1.24,1.24,0,0,1,1.3-1.4Z"/><path d="M165.2,161.8q1.5.15,1.5,1.5a1.4,1.4,0,1,1-2.8,0,1.42,1.42,0,0,1,1.2-1.5Z"/><path d="M155.9,147.7a1.42,1.42,0,0,1,1.4,1.3v.2a1.45,1.45,0,0,1-2.9-.1h0a1.27,1.27,0,0,1,1.2-1.4Z"/><path d="M164.7,169.3a1.27,1.27,0,0,1-1-1.2,1.62,1.62,0,0,1,1-1.7,1.25,1.25,0,0,1,1.6.4c.6.6-.1.9-.4,1.2S165.5,169.3,164.7,169.3Z"/><path d="M160.6,150.5a1.4,1.4,0,0,1-1.4-1.2v-.1a1.22,1.22,0,0,1,1.1-1.3h.1a1.25,1.25,0,0,1,1.4,1v.3A1.18,1.18,0,0,1,160.6,150.5Z"/><path d="M157.2,144.1c-.1.8-.5,1.4-1.3,1.4a1.34,1.34,0,0,1-1.4-1.3,1.29,1.29,0,0,1,1.3-1.4h0a1.28,1.28,0,0,1,1.4,1.3Z"/><path d="M157.2,139.5c-.1.8-.6,1.3-1.3,1.2a1.24,1.24,0,0,1-1.1-1.4,1.28,1.28,0,0,1,1.2-1.1A1.31,1.31,0,0,1,157.2,139.5Z"/><path d="M165.3,155.2a1.4,1.4,0,0,1-1.4-1.2,1.25,1.25,0,0,1,1-1.4h.3a1.3,1.3,0,0,1,1.3,1.1v.1A1.32,1.32,0,0,1,165.3,155.2Z"/><path d="M152.6,139.3c0,.9-.4,1.5-1.3,1.5a1.33,1.33,0,0,1-1.5-1v-.4a1.11,1.11,0,0,1,1.1-1.3h.2a1.29,1.29,0,0,1,1.5,1.2Z"/><path d="M166.6,158.6a1.32,1.32,0,0,1-1.3,1.3h-.1a1.35,1.35,0,0,1,.1-2.7h0C166.1,157.2,166.5,157.7,166.6,158.6Z"/><path d="M152.5,134.8a1.32,1.32,0,0,1-1.3,1.3h0a1.2,1.2,0,0,1-1.3-1v-.2a1.42,1.42,0,0,1,1.4-1.3C152,133.4,152.5,134.1,152.5,134.8Z"/><path d="M169.9,159.8c-.8-.2-1.3-.6-1.2-1.4a1.24,1.24,0,0,1,1.4-1.1,1.28,1.28,0,0,1,1.1,1.2A1.4,1.4,0,0,1,169.9,159.8Z"/><path d="M160.6,145.4c-.8-.1-1.3-.5-1.2-1.3a1.11,1.11,0,0,1,1.1-1.1h.1a1.2,1.2,0,0,1,1.2,1.1v.2A1.28,1.28,0,0,1,160.6,145.4Z"/><path d="M166.4,149.1a1.19,1.19,0,0,1-1,1.2h-.1a1.15,1.15,0,0,1-.1-2.3h0a1.19,1.19,0,0,1,1.2,1Z"/><path d="M142.8,140.3a.76.76,0,0,1-.6.8h0a1.58,1.58,0,0,1-1.9-1,1.21,1.21,0,0,1,.2-1.5c.6-.4.8.3,1.1.6A12,12,0,0,1,142.8,140.3Z"/><path d="M127.5,130.3c.5.4,1.5-.5,1.5.6,0,.7-.8,1-1.5,1s-1.7-.3-1.6-1.1S126.9,130.7,127.5,130.3Z"/><path d="M169.8,161.9c.6.1,1.2.2,1.1.7a2.8,2.8,0,0,1-1.6,1.6c-.5.2-.7-.4-.7-.9A1.27,1.27,0,0,1,169.8,161.9Z"/><path d="M155.8,135.9a.94.94,0,0,1-1-1v-.3a1,1,0,0,1,1-1h.1a.94.94,0,0,1,1,1v.3a1,1,0,0,1-1,1Z"/><path d="M160.5,135.8a1,1,0,0,1-.1-1.9h.2a.9.9,0,0,1,.9.9v.1A1.32,1.32,0,0,1,160.5,135.8Z"/><path d="M171,153.9a1.09,1.09,0,0,1-.9,1.1h-.2a.94.94,0,0,1-1-1v-.1a1.19,1.19,0,0,1,1.2-1,1.07,1.07,0,0,1,.9,1Z"/><path d="M160.5,138.4c.7,0,1.1.3,1.1,1a1,1,0,0,1-.9,1.1h-.2a1,1,0,0,1-1-.9v-.2a1.07,1.07,0,0,1,1-1Z"/><path d="M169.9,148.2c.6.1,1,.4,1,.9a.89.89,0,0,1-.8,1h-.2a.9.9,0,0,1-.9-.9v-.1Q169,148.35,169.9,148.2Z"/><path d="M165.2,143.1c.7,0,1.1.3,1.1,1a.92.92,0,0,1-.9,1h-.1a.89.89,0,0,1-1-.8v-.1a1,1,0,0,1,.9-1.1Z"/><path d="M121.5,131.6a3.6,3.6,0,0,1,3-.7C123.6,132.2,122.7,132.4,121.5,131.6Z"/><path d="M175,152.9c.6.1,1,.4.9,1a.9.9,0,0,1-.9.9h-.1a.82.82,0,0,1-.8-.9C174,153.3,174.4,153,175,152.9Z"/><path d="M165.2,138.6a.91.91,0,0,1,.2,1.8h-.1a.82.82,0,0,1-.9-.8h0C164.3,139,164.7,138.7,165.2,138.6Z"/><path d="M179.5,6c1.4,1.3,2.8,2.5,4.2,3.8a18.88,18.88,0,0,1,2,2c.6.7,1.2,1.4,1.8,2.2h0a12.39,12.39,0,0,1-2.2-1.8c-.7-.6-1.3-1.3-2-2-1.3-1.4-2.6-2.8-3.8-4.2Z" fill="#010101"/><path d="M187.2,6c-1.3,1.4-2.5,2.8-3.8,4.2a18.88,18.88,0,0,1-2,2c-.7.6-1.4,1.2-2.2,1.8h0a12.39,12.39,0,0,1,1.8-2.2c.6-.7,1.4-1.3,2-2,1.4-1.3,2.8-2.6,4.2-3.8Z" fill="#010101"/></g></g></svg>