<svg xmlns="http://www.w3.org/2000/svg" width="600" height="600"><defs><style>.cls-1{fill:#313131}.cls-2{fill:#4378af}</style></defs><g id="Layer_2" data-name="Layer 2"><g id="Swatch_Pattern" data-name="Swatch Pattern"><path class="cls-1" d="M285.494 580.592c.082-.19-.152-.929-1.502-1.612l-14.34-4.63a6.297 6.297 0 01-4.033-3.165 6.063 6.063 0 01.12-4.95c1.2-2.966 2.46-5.965 3.68-8.864q1.297-3.08 2.577-6.163c2.592-6.22 6.895-16.686 11.203-27.156 4.321-10.507 8.645-21.02 11.244-27.26q5.1-12.286 10.213-24.555a20.654 20.654 0 011.137-2.281l.164-.3c1.06-1.874 4.514-1.494 8.264-.903.405.064.76.12 1.04.157.557.068 3.614.865 9.428 2.41 1.867.496 3.48.924 3.778.991l.107.03 17.15 5.946c4.369 2.153 7.145 4.44 8.251 6.802a4.126 4.126 0 01.258 3.49c-1.932 4.926-25.4 42.055-26.762 44.208-.833 1.683-2.186 3.967-3.617 6.383-2.805 4.734-6.297 10.627-6.658 13.454a.945.945 0 00.685 1.018c5.922 1.67 19.915 5.655 21.946 6.579.297.134.598.248.895.36 1.228.464 2.756 1.042 3.268 2.959a5.45 5.45 0 01-2.128 5.95c-.977.81-4.855 4.9-6.51 6.646l-.768.808c-4.423 4.63-9.033 9.426-13.766 14.351-2.724 2.835-5.526 5.753-8.357 8.704h264.405c3.74-9.093 7.313-17.773 9.577-23.207q5.1-12.288 10.213-24.556a20.654 20.654 0 011.137-2.281l.164-.3a2.79 2.79 0 012.043-1.25V415.764a1435.939 1435.939 0 00-17.988 19.547 718.518 718.518 0 00-6.424 7.24c-4.77 5.428-7.921 9.014-11.577 11.975-2.086 1.69-3.95 2.542-5.55 2.542a4.172 4.172 0 01-.544-.034 3.242 3.242 0 01-2.03-1.003 3.763 3.763 0 01-.848-3.88l.08-.216 15.188-29.688c3.08-5.623 6.623-12.514 10.048-19.178 4.88-9.493 9.926-19.309 13.916-26.03l3.223-6.448c.082-.19-.152-.929-1.502-1.612l-14.34-4.63a6.297 6.297 0 01-4.033-3.165 6.063 6.063 0 01.12-4.949c1.2-2.967 2.462-5.967 3.683-8.868.863-2.052 1.726-4.104 2.574-6.159 2.594-6.225 6.902-16.702 11.213-27.181l4.79-11.644V84.655c-12.456 13.018-25.583 26.897-37.988 40.657-2.468 2.737-4.567 5.127-6.421 7.237-4.77 5.429-7.922 9.016-11.58 11.977-2.084 1.69-3.948 2.542-5.548 2.542a4.282 4.282 0 01-.545-.034 3.244 3.244 0 01-2.03-1.004 3.761 3.761 0 01-.848-3.88l.08-.216 15.187-29.688c3.082-5.623 6.624-12.515 10.051-19.18 4.879-9.492 9.925-19.307 13.914-26.027l3.223-6.448c.082-.19-.153-.929-1.502-1.612l-14.34-4.63a6.297 6.297 0 01-4.033-3.165 6.063 6.063 0 01.12-4.949c1.199-2.967 2.462-5.967 3.682-8.868.864-2.052 1.727-4.104 2.574-6.159 2.594-6.225 6.903-16.702 11.213-27.181L576.865 0H312.46c-13.753 14.337-28.548 29.892-42.45 45.311-2.468 2.737-4.567 5.127-6.421 7.237-4.771 5.43-7.922 9.017-11.58 11.978-2.084 1.689-3.948 2.542-5.548 2.542a4.282 4.282 0 01-.545-.034 3.244 3.244 0 01-2.03-1.004 3.761 3.761 0 01-.848-3.88l.08-.216 15.187-29.688c3.082-5.624 6.624-12.515 10.051-19.18 2.262-4.4 4.56-8.867 6.771-13.066H27.5a2639.36 2639.36 0 01-8.028 12.788c-.833 1.684-2.187 3.968-3.618 6.385-2.805 4.734-6.296 10.626-6.658 13.452a.945.945 0 00.686 1.018c4.614 1.3 19.833 5.618 21.945 6.579.297.135.6.248.896.36 1.227.464 2.756 1.042 3.267 2.958a5.448 5.448 0 01-2.129 5.95c-.978.813-4.865 4.913-6.524 6.663l-.753.793c-4.417 4.624-9.02 9.414-13.749 14.333A8433.328 8433.328 0 000 84.655v217.728a4545.408 4545.408 0 016.443-15.59q5.1-12.287 10.213-24.555a20.67 20.67 0 011.137-2.282l.164-.299c1.06-1.873 4.515-1.495 8.265-.903.403.064.758.12 1.039.157.558.068 3.619.866 9.442 2.413 1.86.494 3.467.92 3.764.988l.107.03 17.15 5.947c4.369 2.151 7.145 4.44 8.252 6.801a4.125 4.125 0 01.257 3.49c-1.933 4.927-25.402 42.06-26.761 44.209-.833 1.683-2.187 3.967-3.619 6.384-2.804 4.734-6.295 10.626-6.657 13.453a.945.945 0 00.686 1.017c4.614 1.3 19.833 5.618 21.945 6.58.297.134.6.248.896.36 1.227.464 2.756 1.041 3.267 2.957a5.448 5.448 0 01-2.129 5.95c-.978.813-4.865 4.914-6.524 6.664l-.753.792c-4.419 4.627-9.025 9.419-13.756 14.34C22.468 392.066 11.21 403.784 0 415.764v132.641a20.147 20.147 0 016.222.348c.404.064.758.12 1.039.157.557.068 3.614.865 9.428 2.41 1.868.496 3.48.924 3.778.991l.107.03 17.15 5.947c4.369 2.152 7.145 4.44 8.252 6.801a4.126 4.126 0 01.257 3.49C44.996 571.733 34.94 588.076 27.5 600h247.628c2.559-4.858 5.004-9.356 7.144-12.96zM268.04 358.15l.08-.216 15.188-29.688c3.082-5.624 6.624-12.515 10.05-19.18 4.88-9.492 9.925-19.307 13.914-26.027l3.223-6.448c.082-.19-.152-.93-1.502-1.612l-14.34-4.63a6.297 6.297 0 01-4.033-3.165 6.063 6.063 0 01.12-4.95c1.2-2.966 2.462-5.966 3.683-8.867.863-2.053 1.726-4.104 2.574-6.16 2.594-6.224 6.902-16.7 11.213-27.18 4.318-10.5 8.637-21.001 11.234-27.235q5.1-12.287 10.213-24.555a20.67 20.67 0 011.137-2.282l.164-.299c1.06-1.873 4.514-1.496 8.264-.903.404.064.76.12 1.04.157.558.068 3.619.866 9.442 2.413 1.86.494 3.467.92 3.764.988l.107.03 17.15 5.947c4.369 2.151 7.145 4.44 8.251 6.801a4.125 4.125 0 01.258 3.49c-1.934 4.927-25.402 42.06-26.762 44.209-.833 1.683-2.186 3.967-3.618 6.384-2.805 4.734-6.296 10.626-6.657 13.453a.945.945 0 00.685 1.017c4.615 1.3 19.833 5.618 21.946 6.58.297.134.6.248.895.36 1.228.464 2.756 1.041 3.268 2.957a5.448 5.448 0 01-2.129 5.95c-.979.813-4.865 4.914-6.524 6.664l-.753.792c-4.417 4.625-9.02 9.415-13.75 14.334-15.962 16.608-34.055 35.433-50.823 54.032-2.468 2.737-4.567 5.127-6.422 7.237-4.77 5.43-7.921 9.016-11.579 11.978-2.085 1.689-3.948 2.542-5.548 2.542a4.282 4.282 0 01-.545-.035 3.244 3.244 0 01-2.03-1.003 3.761 3.761 0 01-.848-3.88z"/><path class="cls-1" d="M565.844 31.975c-.849 2.056-1.714 4.111-2.58 6.169-1.217 2.894-2.477 5.887-3.673 8.846a4.1 4.1 0 00-.161 3.345 4.394 4.394 0 002.83 2.11l14.552 4.709c2.483 1.222 3.04 3.033 2.493 4.285l-3.296 6.59c-3.96 6.669-9 16.472-13.873 25.952-3.432 6.676-6.98 13.58-10.062 19.2l-15.119 29.557c-.25 1.085-.073 1.502.314 1.846l.143.155c.436.5 2.15.814 5.34-1.767 3.525-2.855 6.632-6.39 11.335-11.743a737.259 737.259 0 016.438-7.257c12.907-14.314 26.581-28.745 39.475-42.209V0h-20.972c-.653 1.587-1.31 3.187-1.97 4.788-4.31 10.483-8.621 20.962-11.214 27.187zM45.139 365.565l.746-.787c2.924-3.084 5.759-6.045 6.7-6.827 1.43-1.181 1.883-2.38 1.475-3.891-.239-.889-.832-1.148-2.044-1.607a16.62 16.62 0 01-1.017-.411c-1.577-.718-12.654-3.936-21.66-6.475a2.958 2.958 0 01-2.127-3.196c.415-3.236 3.871-9.07 6.92-14.218 1.426-2.405 2.772-4.678 3.57-6.297l.052-.093c.247-.39 24.738-39.124 26.651-43.991.033-.078 1.234-3.34-7.51-7.662l-16.926-5.861a298.42 298.42 0 01-3.78-.992c-3.213-.854-8.592-2.283-9.18-2.363-.301-.039-.675-.098-1.1-.165-4.997-.79-6.034-.401-6.205-.1l-.16.29a18.853 18.853 0 00-1.037 2.075Q13.38 275.27 8.29 287.561A5721.932 5721.932 0 000 307.637v105.196c10.734-11.444 21.47-22.616 31.387-32.933 4.728-4.92 9.333-9.71 13.752-14.335zM260.074 33.182l-15.119 29.556c-.25 1.085-.073 1.502.314 1.846l.143.156c.437.499 2.15.814 5.34-1.768 3.525-2.854 6.632-6.39 11.335-11.743a737.259 737.259 0 016.438-7.256C282 29.027 296.305 13.964 309.691 0h-32.302c-2.357 4.456-4.826 9.258-7.253 13.981-3.432 6.676-6.98 13.58-10.062 19.201zM333.139 575.564l.761-.802c2.917-3.077 5.747-6.032 6.686-6.81 1.429-1.183 1.882-2.382 1.474-3.892-.239-.89-.833-1.149-2.045-1.607a16.61 16.61 0 01-1.016-.411c-1.558-.708-12.21-3.81-21.66-6.475a2.959 2.959 0 01-2.127-3.196c.415-3.237 3.871-9.071 6.922-14.22 1.425-2.405 2.77-4.677 3.567-6.296l.053-.092c.247-.391 24.738-39.125 26.651-43.992.033-.078 1.234-3.339-7.51-7.66l-16.926-5.862c-.398-.095-1.664-.43-3.793-.996-3.21-.853-8.582-2.28-9.168-2.36-.3-.039-.673-.097-1.099-.165-4.997-.789-6.032-.4-6.205-.1l-.16.291a18.936 18.936 0 00-1.036 2.074q-5.128 12.277-10.218 24.567c-2.599 6.239-6.92 16.749-11.241 27.252-4.309 10.475-8.614 20.943-11.205 27.163a929.144 929.144 0 01-2.58 6.171 685.44 685.44 0 00-3.673 8.844 4.1 4.1 0 00-.161 3.346 4.396 4.396 0 002.83 2.108l14.554 4.71c2.48 1.222 3.039 3.033 2.49 4.285l-3.295 6.59c-1.988 3.347-4.247 7.483-6.62 11.971h32.301c3.288-3.43 6.537-6.812 9.686-10.089 4.732-4.924 9.34-9.718 13.763-14.346zM25.139 55.565l.746-.787c2.924-3.084 5.759-6.045 6.7-6.827 1.43-1.181 1.883-2.381 1.475-3.891-.238-.888-.831-1.148-2.044-1.607a16.62 16.62 0 01-1.017-.41c-1.577-.718-12.654-3.937-21.66-6.475a2.958 2.958 0 01-2.127-3.196c.416-3.237 3.872-9.07 6.921-14.218 1.425-2.406 2.772-4.678 3.569-6.298l.052-.092c.088-.14 3.26-5.156 7.385-11.764H0v81.763c3.88-4.051 7.698-8.025 11.393-11.869 4.727-4.918 9.329-9.706 13.746-14.33zM585.844 341.975c-.849 2.056-1.714 4.111-2.58 6.169-1.217 2.894-2.477 5.887-3.673 8.846a4.1 4.1 0 00-.161 3.345 4.394 4.394 0 002.83 2.11l14.552 4.709c2.483 1.222 3.04 3.033 2.493 4.285l-3.296 6.59c-3.961 6.67-9.001 16.473-13.874 25.954-3.432 6.676-6.98 13.578-10.06 19.2l-15.12 29.555c-.25 1.085-.073 1.502.314 1.847l.143.155c.436.498 2.15.814 5.34-1.769 3.524-2.853 6.63-6.39 11.333-11.74 1.86-2.117 3.966-4.514 6.44-7.26a1464.3 1464.3 0 0119.474-21.139V307.637l-2.94 7.151c-4.312 10.483-8.622 20.962-11.215 27.187zM599.704 550.629l-.16.29a18.936 18.936 0 00-1.036 2.075q-5.129 12.276-10.218 24.567c-2.2 5.282-5.637 13.629-9.262 22.439H600v-49.576a.546.546 0 00-.296.205zM270.27 360.584l.143.156c.436.499 2.15.814 5.34-1.768 3.525-2.854 6.631-6.39 11.334-11.743a737.259 737.259 0 016.439-7.256c16.79-18.623 34.894-37.46 50.867-54.079a6482.89 6482.89 0 0013.746-14.33l.746-.786c2.924-3.084 5.76-6.045 6.701-6.827 1.43-1.181 1.882-2.38 1.474-3.891-.238-.889-.831-1.148-2.044-1.607a16.62 16.62 0 01-1.016-.411c-1.578-.718-12.655-3.936-21.66-6.475a2.958 2.958 0 01-2.127-3.196c.415-3.236 3.87-9.07 6.92-14.218 1.425-2.405 2.772-4.678 3.569-6.297l.053-.093c.247-.39 24.738-39.124 26.65-43.991.033-.078 1.234-3.34-7.51-7.662l-16.926-5.861a298.42 298.42 0 01-3.78-.992c-3.213-.854-8.592-2.283-9.18-2.363-.3-.039-.675-.098-1.1-.165-4.997-.79-6.034-.401-6.205-.1l-.16.29a18.853 18.853 0 00-1.036 2.075q-5.128 12.275-10.218 24.567c-2.597 6.232-6.915 16.731-11.231 27.227-4.312 10.483-8.622 20.962-11.215 27.186-.849 2.056-1.714 4.112-2.58 6.17-1.217 2.894-2.477 5.887-3.673 8.846a4.1 4.1 0 00-.161 3.345 4.394 4.394 0 002.83 2.109l14.552 4.71c2.483 1.222 3.04 3.033 2.493 4.285l-3.296 6.59c-3.96 6.669-9 16.471-13.873 25.951-3.432 6.677-6.98 13.58-10.062 19.201l-15.119 29.557c-.25 1.085-.073 1.502.315 1.846zM36.895 560.11l-16.926-5.861c-.398-.095-1.664-.43-3.793-.996-3.21-.853-8.582-2.28-9.168-2.36-.3-.038-.673-.097-1.099-.164-3.852-.609-5.346-.517-5.909-.305V600h25.139c7.453-11.939 18.035-29.096 19.266-32.228.032-.079 1.234-3.34-7.51-7.662z"/><path class="cls-2" d="M270.917 363.034a4.282 4.282 0 00.545.034c1.6 0 3.464-.853 5.549-2.542 3.657-2.961 6.808-6.548 11.579-11.977 1.854-2.11 3.953-4.5 6.422-7.237 16.767-18.6 34.86-37.424 50.823-54.032 4.728-4.92 9.332-9.71 13.749-14.334l.753-.792c1.66-1.75 5.546-5.85 6.524-6.663a5.448 5.448 0 002.129-5.951c-.512-1.916-2.04-2.494-3.268-2.958-.295-.112-.598-.225-.895-.36-2.112-.961-17.331-5.279-21.945-6.58a.945.945 0 01-.686-1.017c.361-2.826 3.853-8.718 6.657-13.452 1.432-2.417 2.786-4.701 3.619-6.385 1.359-2.149 24.828-39.28 26.761-44.208a4.125 4.125 0 00-.258-3.49c-1.106-2.362-3.882-4.65-8.252-6.801l-17.149-5.947-.107-.03c-.297-.067-1.904-.494-3.764-.988-5.823-1.547-8.884-2.345-9.442-2.414-.28-.036-.636-.093-1.04-.157-3.75-.592-7.205-.97-8.264.904l-.164.299a20.67 20.67 0 00-1.137 2.282q-5.12 12.255-10.213 24.555c-2.596 6.233-6.916 16.735-11.234 27.234-4.31 10.48-8.62 20.956-11.213 27.182-.848 2.055-1.711 4.106-2.574 6.159-1.221 2.9-2.484 5.9-3.683 8.867a6.063 6.063 0 00-.12 4.95 6.297 6.297 0 004.033 3.165l14.34 4.63c1.35.683 1.584 1.421 1.502 1.611l-3.222 6.449c-3.99 6.72-9.036 16.534-13.914 26.026-3.427 6.665-6.97 13.557-10.051 19.18l-15.188 29.688-.08.217a3.761 3.761 0 00.849 3.88 3.244 3.244 0 002.029 1.003zm-.962-4.296l15.12-29.556c3.08-5.622 6.63-12.525 10.06-19.201 4.874-9.48 9.914-19.283 13.874-25.951l3.296-6.59c.548-1.253-.01-3.064-2.492-4.286l-14.553-4.71a4.394 4.394 0 01-2.83-2.109 4.1 4.1 0 01.161-3.345c1.196-2.959 2.456-5.952 3.674-8.846.865-2.058 1.73-4.113 2.58-6.17 2.592-6.223 6.902-16.703 11.214-27.186 4.316-10.495 8.635-20.994 11.231-27.227q5.098-12.288 10.218-24.566a18.853 18.853 0 011.037-2.075l.16-.29c.17-.302 1.207-.69 6.205.1.424.067.798.125 1.1.164.587.08 5.966 1.51 9.18 2.363 2.121.563 3.383.898 3.78.992l16.926 5.861c8.743 4.323 7.542 7.584 7.51 7.662-1.913 4.867-26.404 43.601-26.651 43.992l-.053.092c-.797 1.62-2.143 3.892-3.568 6.298-3.05 5.147-6.506 10.981-6.921 14.217a2.958 2.958 0 002.127 3.197c9.006 2.538 20.083 5.757 21.66 6.474.337.154.68.284 1.016.412 1.213.458 1.806.718 2.044 1.606.409 1.51-.045 2.71-1.473 3.891-.943.782-3.778 3.744-6.701 6.827l-.747.787a6482.89 6482.89 0 01-13.746 14.33c-15.972 16.619-34.077 35.455-50.867 54.078a736.106 736.106 0 00-6.438 7.256c-4.703 5.353-7.81 8.89-11.334 11.744-3.19 2.582-4.905 2.266-5.341 1.767l-.143-.156c-.388-.344-.565-.761-.315-1.846zM46.584 366.946l.753-.792c1.66-1.75 5.546-5.85 6.524-6.663a5.448 5.448 0 002.129-5.951c-.512-1.916-2.04-2.494-3.268-2.958-.295-.112-.598-.225-.895-.36-2.112-.961-17.331-5.279-21.945-6.58a.945.945 0 01-.686-1.017c.361-2.826 3.853-8.718 6.657-13.452 1.432-2.417 2.786-4.701 3.619-6.385 1.36-2.149 24.828-39.281 26.761-44.208a4.125 4.125 0 00-.257-3.49c-1.107-2.362-3.883-4.65-8.252-6.801l-17.15-5.947-.107-.03c-.297-.067-1.903-.494-3.764-.988-5.823-1.547-8.884-2.345-9.442-2.414-.28-.036-.636-.092-1.04-.156-3.75-.592-7.204-.97-8.264.903l-.164.299a20.67 20.67 0 00-1.137 2.282q-5.12 12.256-10.213 24.555A4596.523 4596.523 0 000 302.383v5.254c3.26-7.923 6.288-15.27 8.29-20.076q5.098-12.288 10.218-24.566a18.853 18.853 0 011.037-2.075l.16-.29c.17-.302 1.207-.69 6.204.1.425.067.799.125 1.1.164.588.08 5.967 1.51 9.18 2.363 2.122.563 3.384.898 3.78.992l16.926 5.861c8.744 4.323 7.542 7.584 7.51 7.662-1.913 4.867-26.404 43.6-26.65 43.991l-.054.093c-.796 1.62-2.143 3.892-3.568 6.297-3.05 5.148-6.506 10.982-6.92 14.218a2.958 2.958 0 002.126 3.197c9.006 2.538 20.083 5.756 21.66 6.474.337.153.68.284 1.017.411 1.213.459 1.805.719 2.044 1.607.408 1.51-.045 2.71-1.474 3.89-.942.783-3.777 3.744-6.701 6.828l-.746.787c-4.419 4.625-9.024 9.415-13.752 14.335C21.47 390.217 10.734 401.39 0 412.833v2.93c11.21-11.98 22.467-23.697 32.828-34.476 4.73-4.922 9.337-9.714 13.756-14.34zM583.996 341.209c-.848 2.055-1.71 4.106-2.574 6.159-1.22 2.9-2.484 5.9-3.683 8.867a6.063 6.063 0 00-.12 4.95 6.297 6.297 0 004.033 3.165l14.34 4.63c1.35.683 1.584 1.42 1.502 1.611l-3.222 6.449c-3.99 6.72-9.036 16.536-13.916 26.03-3.426 6.664-6.968 13.554-10.05 19.177l-15.187 29.688-.08.216a3.763 3.763 0 00.849 3.88 3.242 3.242 0 002.03 1.004 4.172 4.172 0 00.544.034c1.6 0 3.463-.853 5.549-2.542 3.656-2.961 6.808-6.547 11.577-11.976a718.518 718.518 0 016.424-7.24A1435.939 1435.939 0 01600 415.765v-2.93a1465.355 1465.355 0 00-19.474 21.138c-2.475 2.746-4.58 5.143-6.44 7.259-4.703 5.351-7.809 8.888-11.332 11.741-3.19 2.583-4.905 2.267-5.341 1.769l-.143-.156c-.388-.344-.564-.761-.314-1.846l15.119-29.556c3.08-5.621 6.629-12.523 10.06-19.2 4.873-9.48 9.914-19.284 13.874-25.953l3.296-6.59c.548-1.252-.01-3.063-2.492-4.286l-14.553-4.71a4.394 4.394 0 01-2.83-2.109 4.1 4.1 0 01.161-3.345c1.196-2.959 2.456-5.952 3.674-8.846.865-2.058 1.73-4.113 2.58-6.17 2.592-6.223 6.902-16.703 11.214-27.186l2.941-7.15v-5.255l-4.79 11.644c-4.312 10.48-8.62 20.956-11.214 27.182zM258.307 32.246l-15.188 29.688-.08.216a3.761 3.761 0 00.849 3.88 3.244 3.244 0 002.029 1.004 4.282 4.282 0 00.545.034c1.6 0 3.464-.853 5.549-2.541 3.657-2.962 6.808-6.549 11.579-11.978 1.854-2.11 3.953-4.5 6.422-7.237 13.9-15.42 28.696-30.974 42.45-45.312h-2.771C296.304 13.964 282 29.027 268.525 43.973a736.106 736.106 0 00-6.438 7.256c-4.703 5.353-7.81 8.889-11.334 11.743-3.19 2.582-4.904 2.267-5.34 1.768l-.144-.156c-.387-.344-.564-.761-.314-1.846l15.12-29.556c3.08-5.621 6.63-12.525 10.06-19.201 2.429-4.723 4.898-9.525 7.254-13.981h-2.26a1491.158 1491.158 0 00-6.772 13.066c-3.426 6.665-6.968 13.557-10.05 19.18zM320.818 591.297c4.734-4.926 9.343-9.72 13.766-14.352l.768-.807c1.656-1.747 5.534-5.837 6.51-6.647a5.45 5.45 0 002.128-5.95c-.511-1.917-2.04-2.495-3.267-2.959-.297-.112-.599-.225-.896-.36-2.031-.924-16.023-4.909-21.945-6.579a.945.945 0 01-.686-1.017c.362-2.828 3.853-8.72 6.659-13.455 1.43-2.416 2.784-4.7 3.617-6.382 1.362-2.154 24.829-39.283 26.761-44.208a4.126 4.126 0 00-.257-3.49c-1.107-2.362-3.883-4.65-8.252-6.802l-17.15-5.946-.107-.03a285.46 285.46 0 01-3.777-.992c-5.815-1.544-8.872-2.341-9.43-2.41-.28-.037-.634-.092-1.038-.157-3.75-.59-7.205-.97-8.265.904l-.164.3a20.654 20.654 0 00-1.137 2.28q-5.12 12.257-10.213 24.556c-2.598 6.239-6.922 16.752-11.244 27.26-4.307 10.47-8.611 20.936-11.203 27.155q-1.273 3.085-2.576 6.164c-1.22 2.899-2.481 5.898-3.68 8.864a6.063 6.063 0 00-.12 4.949 6.297 6.297 0 004.033 3.165l14.34 4.63c1.35.684 1.584 1.422 1.501 1.612l-3.222 6.448c-2.14 3.604-4.585 8.103-7.144 12.96h2.26c2.374-4.487 4.633-8.624 6.62-11.97l3.296-6.59c.548-1.252-.01-3.064-2.491-4.286l-14.554-4.71a4.396 4.396 0 01-2.83-2.108 4.1 4.1 0 01.161-3.345 686.621 686.621 0 013.673-8.844 918.586 918.586 0 002.58-6.172c2.591-6.22 6.897-16.688 11.205-27.162 4.32-10.504 8.643-21.014 11.241-27.252q5.098-12.287 10.218-24.567a18.936 18.936 0 011.037-2.074l.16-.29c.172-.302 1.208-.69 6.205.1.425.067.798.125 1.098.164.586.08 5.958 1.507 9.168 2.36 2.13.565 3.396.901 3.793.996l16.927 5.861c8.743 4.322 7.542 7.583 7.51 7.661-1.913 4.867-26.404 43.6-26.651 43.992l-.053.092c-.797 1.62-2.143 3.89-3.568 6.296-3.05 5.149-6.506 10.983-6.921 14.22a2.959 2.959 0 002.127 3.196c9.45 2.665 20.102 5.767 21.66 6.475.336.153.68.284 1.015.411 1.213.458 1.807.718 2.045 1.608.408 1.51-.045 2.709-1.474 3.89-.939.78-3.768 3.734-6.685 6.81l-.762.804c-4.422 4.628-9.03 9.422-13.762 14.346a11069.46 11069.46 0 00-9.686 10.089h2.77c2.832-2.953 5.635-5.87 8.358-8.705zM563.996 31.209c-.848 2.055-1.71 4.106-2.574 6.159-1.22 2.9-2.484 5.9-3.683 8.867a6.063 6.063 0 00-.12 4.95 6.297 6.297 0 004.033 3.165l14.34 4.63c1.35.683 1.584 1.42 1.502 1.611l-3.223 6.449c-3.989 6.72-9.035 16.535-13.914 26.027-3.426 6.664-6.968 13.556-10.05 19.18l-15.188 29.688-.08.216a3.761 3.761 0 00.849 3.88 3.244 3.244 0 002.029 1.004 4.282 4.282 0 00.545.034c1.6 0 3.464-.853 5.549-2.542 3.657-2.961 6.808-6.548 11.579-11.977 1.854-2.11 3.953-4.5 6.422-7.238 12.405-13.76 25.532-27.638 37.988-40.656v-2.893c-12.894 13.464-26.568 27.894-39.475 42.21a736.106 736.106 0 00-6.438 7.256c-4.703 5.353-7.81 8.89-11.334 11.744-3.19 2.581-4.904 2.266-5.34 1.767l-.143-.155c-.388-.344-.565-.762-.315-1.846l15.12-29.556c3.08-5.622 6.63-12.525 10.06-19.201 4.874-9.48 9.914-19.283 13.874-25.952l3.296-6.59c.548-1.252-.01-3.063-2.492-4.285l-14.553-4.71a4.394 4.394 0 01-2.83-2.11 4.1 4.1 0 01.161-3.345c1.196-2.959 2.456-5.952 3.674-8.846.865-2.058 1.73-4.113 2.58-6.17 2.592-6.224 6.902-16.703 11.214-27.186L579.029 0h-2.163l-1.657 4.027c-4.31 10.48-8.619 20.956-11.213 27.181zM597.957 549.656l-.164.3a20.654 20.654 0 00-1.137 2.281q-5.12 12.257-10.213 24.556A6689.044 6689.044 0 00576.866 600h2.162c3.625-8.81 7.062-17.157 9.262-22.44q5.098-12.286 10.218-24.566a18.936 18.936 0 011.037-2.074l.16-.29a.546.546 0 01.295-.206v-2.018a2.79 2.79 0 00-2.043 1.25zM26.584 56.946l.753-.792c1.66-1.75 5.546-5.85 6.524-6.663a5.448 5.448 0 002.129-5.951c-.512-1.916-2.04-2.494-3.268-2.958-.295-.112-.598-.225-.895-.36-2.112-.961-17.331-5.279-21.945-6.58a.945.945 0 01-.686-1.017c.361-2.826 3.853-8.718 6.657-13.452 1.432-2.417 2.786-4.701 3.619-6.385C19.96 12.015 23.318 6.703 27.5 0h-2.361c-4.126 6.608-7.297 11.624-7.385 11.763l-.053.093c-.797 1.62-2.143 3.892-3.568 6.297-3.05 5.148-6.506 10.982-6.921 14.218a2.958 2.958 0 002.127 3.196c9.006 2.538 20.083 5.757 21.66 6.475.337.153.68.284 1.017.411 1.212.459 1.805.718 2.043 1.607.409 1.51-.045 2.71-1.473 3.89-.943.783-3.778 3.744-6.701 6.828l-.746.787a6593.296 6593.296 0 01-13.747 14.33A8949.836 8949.836 0 000 81.763v2.892c4.38-4.578 8.682-9.054 12.835-13.375 4.729-4.92 9.332-9.71 13.749-14.334zM45.976 565.09c-1.107-2.361-3.883-4.65-8.252-6.802l-17.15-5.946-.107-.03a285.46 285.46 0 01-3.777-.991c-5.815-1.545-8.872-2.342-9.43-2.41-.28-.037-.634-.093-1.038-.157A20.147 20.147 0 000 548.405v2.019c.563-.212 2.057-.304 5.91.304.425.068.798.126 1.098.166.586.08 5.958 1.506 9.168 2.359 2.129.565 3.395.901 3.793.996l16.926 5.861c8.744 4.322 7.542 7.583 7.51 7.661-1.231 3.133-11.813 20.29-19.266 32.229H27.5c7.439-11.924 17.496-28.267 18.733-31.42a4.126 4.126 0 00-.257-3.49z"/></g></g></svg>