<svg xmlns="http://www.w3.org/2000/svg" width="287" height="74" viewBox="0 0 286.149 73.271" fill="#e0e8f9"><path d="M72.28 14.044a2.5 2.5 0 0 1 .188-1.038 1.77 1.77 0 0 1 .515-.667c.227-.173.5-.294.77-.354a4.13 4.13 0 0 1 .936-.1c.312-.003.624.03.93.1a1.95 1.95 0 0 1 .76.354 1.8 1.8 0 0 1 .522.667c.26.664.26 1.403 0 2.067a1.8 1.8 0 0 1-.522.675 2.01 2.01 0 0 1-.761.361 3.78 3.78 0 0 1-.929.109 3.85 3.85 0 0 1-.935-.109 2.01 2.01 0 0 1-.769-.361c-.225-.18-.4-.4-.515-.675-.134-.326-.2-.677-.2-1.03zm4.612 20.407h-4.424V18.235h4.424V34.45zm18.126-.001h-4.42v-9.47a5.2 5.2 0 0 0-.53-2.633 1.83 1.83 0 0 0-1.69-.877 2.76 2.76 0 0 0-1.45.35c-.4.247-.72.605-.92 1.03-.25.53-.415 1.1-.486 1.682a16.22 16.22 0 0 0-.145 2.291v7.63H80.95v-16.22h3.38l.6 2.074h.246a4.18 4.18 0 0 1 .848-1.073 4.73 4.73 0 0 1 1.1-.74 5.29 5.29 0 0 1 1.261-.428 6.71 6.71 0 0 1 1.363-.14 6.46 6.46 0 0 1 2.161.342 4.21 4.21 0 0 1 1.668 1.065 4.85 4.85 0 0 1 1.073 1.849 8.5 8.5 0 0 1 .377 2.691zm10.776.3a9.67 9.67 0 0 1-3.14-.478c-.904-.3-1.724-.8-2.394-1.486a6.61 6.61 0 0 1-1.522-2.581 11.85 11.85 0 0 1-.53-3.764c-.034-1.372.15-2.74.544-4.055a6.54 6.54 0 0 1 1.538-2.618 5.63 5.63 0 0 1 2.394-1.407 10.78 10.78 0 0 1 3.111-.421 10.31 10.31 0 0 1 2.48.3c.804.196 1.582.483 2.32.855l-1.276 3.364a16.69 16.69 0 0 0-1.842-.689 5.82 5.82 0 0 0-1.682-.268 2.51 2.51 0 0 0-2.335 1.225 7.38 7.38 0 0 0-.725 3.677 6.96 6.96 0 0 0 .725 3.6 2.49 2.49 0 0 0 2.277 1.16 7.58 7.58 0 0 0 2.291-.326c.718-.23 1.42-.5 2.1-.835v3.684q-.536.26-1.045.464c-.333.134-.675.245-1.023.334a8.08 8.08 0 0 1-1.073.2 10.13 10.13 0 0 1-1.194.065zm12.03-.3H113.4V11.882h4.424zm14.667 0l-.6-2.074h-.232c-.23.4-.52.76-.862 1.066a4.92 4.92 0 0 1-1.1.732 5.36 5.36 0 0 1-1.26.43 6.79 6.79 0 0 1-1.363.138c-.734.01-1.465-.106-2.16-.34a4.22 4.22 0 0 1-1.668-1.066 4.85 4.85 0 0 1-1.073-1.842 8.41 8.41 0 0 1-.377-2.683V18.235h4.424v9.47a5.19 5.19 0 0 0 .53 2.633 1.83 1.83 0 0 0 1.69.877 2.76 2.76 0 0 0 1.45-.35c.4-.247.72-.605.92-1.03.25-.53.415-1.1.486-1.682a16.23 16.23 0 0 0 .145-2.291v-7.63h4.424V34.45zm18.503-4.816a5.06 5.06 0 0 1-.464 2.234 4.3 4.3 0 0 1-1.32 1.6 5.96 5.96 0 0 1-2.074.957c-.892.222-1.808.33-2.727.32a21.06 21.06 0 0 1-1.479-.05 11.66 11.66 0 0 1-1.291-.167 11.01 11.01 0 0 1-1.175-.29 9.91 9.91 0 0 1-1.146-.435v-3.655a12.28 12.28 0 0 0 1.284.552q.673.247 1.34.43a12.69 12.69 0 0 0 1.3.282c.386.064.776.097 1.167.1a4.03 4.03 0 0 0 1.015-.11 2.04 2.04 0 0 0 .69-.3c.168-.12.302-.28.4-.464.082-.18.125-.375.124-.573a1.47 1.47 0 0 0-.1-.545 1.34 1.34 0 0 0-.428-.507 6.21 6.21 0 0 0-.978-.609q-.647-.342-1.734-.835a17 17 0 0 1-1.835-.951 5.23 5.23 0 0 1-1.276-1.052c-.335-.388-.6-.84-.748-1.328-.176-.575-.26-1.175-.247-1.776-.016-.685.134-1.364.435-1.98a3.89 3.89 0 0 1 1.233-1.415 5.66 5.66 0 0 1 1.921-.848c.82-.197 1.658-.292 2.5-.283a11.07 11.07 0 0 1 2.756.334 14.36 14.36 0 0 1 2.683 1l-1.335 3.133a18.67 18.67 0 0 0-2.1-.855c-.644-.218-1.32-.33-2-.334a2.08 2.08 0 0 0-1.3.32 1.05 1.05 0 0 0-.4.87 1.24 1.24 0 0 0 .1.516c.098.184.237.343.406.464.27.2.555.374.855.522l1.436.688q1.03.45 1.857.9a6.53 6.53 0 0 1 1.422 1.009 3.9 3.9 0 0 1 .914 1.32c.23.58.34 1.198.328 1.82zm2.83-15.6c-.012-.355.052-.7.188-1.038a1.77 1.77 0 0 1 .515-.667c.227-.173.5-.294.77-.354a4.18 4.18 0 0 1 .935-.1c.312-.003.624.03.93.1a1.95 1.95 0 0 1 .76.354 1.8 1.8 0 0 1 .522.667 2.82 2.82 0 0 1 0 2.067 1.8 1.8 0 0 1-.522.675 2.01 2.01 0 0 1-.761.361 3.78 3.78 0 0 1-.929.109 3.85 3.85 0 0 1-.935-.109 2.01 2.01 0 0 1-.769-.361c-.225-.18-.4-.4-.515-.675a2.52 2.52 0 0 1-.188-1.03zm4.613 20.407h-4.424V18.235h4.424zm7.9-.001l-5.73-16.215h4.627l2.683 9.24q.246.827.428 1.718a12.15 12.15 0 0 1 .226 1.6h.087a10.7 10.7 0 0 1 .226-1.632q.18-.86.428-1.7l2.668-9.24h4.642l-5.73 16.215zm19.028.3c-1.1.01-2.173-.16-3.205-.508a6.76 6.76 0 0 1-2.524-1.531c-.735-.726-1.298-1.608-1.646-2.58a10.35 10.35 0 0 1-.588-3.662c-.023-1.263.158-2.522.537-3.728a7.4 7.4 0 0 1 1.5-2.661 6.09 6.09 0 0 1 2.321-1.6c.96-.368 1.98-.55 3-.537a8.24 8.24 0 0 1 2.909.486 5.88 5.88 0 0 1 2.205 1.428 6.37 6.37 0 0 1 1.392 2.314 9.4 9.4 0 0 1 .485 3.14v2.147h-9.9a5.42 5.42 0 0 0 .3 1.675c.16.468.418.898.755 1.26a3.23 3.23 0 0 0 1.174.791 4.23 4.23 0 0 0 1.574.275 11.43 11.43 0 0 0 1.4-.08c.432-.052.86-.132 1.283-.24a10.19 10.19 0 0 0 1.233-.4l1.248-.557V33.6a9.21 9.21 0 0 1-1.168.516 9.71 9.71 0 0 1-1.24.354c-.464.1-.934.17-1.407.2q-.762.07-1.656.07zm-.565-13.663a2.56 2.56 0 0 0-1.952.827 4.11 4.11 0 0 0-.89 2.6h5.642c-.005-.46-.068-.918-.188-1.363a3.07 3.07 0 0 0-.522-1.08 2.45 2.45 0 0 0-.87-.718c-.38-.183-.798-.273-1.22-.265zM204.03 34.74a4.86 4.86 0 0 1-2.277-.537 4.96 4.96 0 0 1-1.769-1.588c-.537-.797-.927-1.684-1.152-2.618-.293-1.186-.432-2.405-.414-3.626a14.45 14.45 0 0 1 .414-3.662 7.97 7.97 0 0 1 1.174-2.64 5.02 5.02 0 0 1 1.821-1.6 5.1 5.1 0 0 1 2.335-.537 5.4 5.4 0 0 1 1.436.181c.414.112.8.284 1.175.5a4.89 4.89 0 0 1 .936.754 5.79 5.79 0 0 1 .732.935h.145q-.088-.566-.16-1.146-.073-.493-.124-1.052l-.05-1.037v-5.194h4.424V34.45h-3.38l-.856-2.1h-.188a6.84 6.84 0 0 1-.7.935 4.04 4.04 0 0 1-.907.762 4.74 4.74 0 0 1-1.16.508 5.2 5.2 0 0 1-1.455.185zm1.6-3.525a3.05 3.05 0 0 0 1.335-.268 2.16 2.16 0 0 0 .891-.812 4.15 4.15 0 0 0 .509-1.356 10.36 10.36 0 0 0 .181-1.9v-.48a13.51 13.51 0 0 0-.145-2.088c-.072-.534-.234-1.05-.478-1.53-.204-.4-.517-.716-.9-.935a2.86 2.86 0 0 0-1.422-.319 2.16 2.16 0 0 0-2.045 1.255 8.11 8.11 0 0 0-.652 3.65c-.073 1.232.153 2.464.66 3.6a2.2 2.2 0 0 0 2.067 1.194zm18.294 3.525a9.72 9.72 0 0 1-3.205-.508 6.76 6.76 0 0 1-2.524-1.531c-.735-.726-1.298-1.608-1.646-2.58a10.35 10.35 0 0 1-.588-3.662c-.023-1.263.158-2.522.537-3.728.3-.982.82-1.888 1.5-2.66a6.09 6.09 0 0 1 2.321-1.6c.96-.368 1.98-.55 3-.537a8.24 8.24 0 0 1 2.909.486 5.88 5.88 0 0 1 2.205 1.428 6.37 6.37 0 0 1 1.392 2.314 9.4 9.4 0 0 1 .485 3.14v2.147h-9.9a5.42 5.42 0 0 0 .3 1.675 3.53 3.53 0 0 0 .754 1.26 3.23 3.23 0 0 0 1.174.79 4.23 4.23 0 0 0 1.574.275 11.43 11.43 0 0 0 1.4-.08 10.02 10.02 0 0 0 1.283-.239 10.2 10.2 0 0 0 1.233-.4l1.248-.557V33.6a9.3 9.3 0 0 1-1.168.516 10.24 10.24 0 0 1-1.24.354 10.74 10.74 0 0 1-1.407.21c-.504.048-1.055.07-1.655.07zm-.565-13.663a2.56 2.56 0 0 0-1.952.827 4.1 4.1 0 0 0-.89 2.6h5.642c-.005-.46-.068-.918-.188-1.363a3.07 3.07 0 0 0-.522-1.08 2.45 2.45 0 0 0-.87-.718 2.69 2.69 0 0 0-1.219-.265zm21.23 8.557a5.06 5.06 0 0 1-.464 2.234 4.3 4.3 0 0 1-1.32 1.6 5.96 5.96 0 0 1-2.074.957c-.892.222-1.808.33-2.727.32a21.06 21.06 0 0 1-1.479-.05c-.433-.032-.864-.087-1.3-.167a11.02 11.02 0 0 1-1.175-.29 9.67 9.67 0 0 1-1.146-.435v-3.655c.417.208.846.393 1.284.552q.673.247 1.34.43c.428.117.862.2 1.3.282.386.064.776.097 1.167.1a4.03 4.03 0 0 0 1.015-.11 2.04 2.04 0 0 0 .69-.3c.168-.12.302-.28.4-.464.082-.18.125-.375.124-.573a1.47 1.47 0 0 0-.1-.545 1.34 1.34 0 0 0-.428-.507 6.25 6.25 0 0 0-.978-.61q-.647-.342-1.734-.835a17.31 17.31 0 0 1-1.835-.95c-.478-.28-.9-.636-1.276-1.052a3.84 3.84 0 0 1-.748-1.328c-.176-.575-.26-1.175-.247-1.776-.016-.685.134-1.364.435-1.98a3.89 3.89 0 0 1 1.233-1.415 5.66 5.66 0 0 1 1.921-.848c.82-.197 1.658-.292 2.5-.283a11.07 11.07 0 0 1 2.756.334 14.36 14.36 0 0 1 2.683 1l-1.335 3.133a18.66 18.66 0 0 0-2.1-.855c-.644-.218-1.32-.33-2-.334a2.08 2.08 0 0 0-1.3.32 1.05 1.05 0 0 0-.4.87 1.24 1.24 0 0 0 .1.516c.098.184.237.343.406.464.27.2.555.374.855.522l1.436.688q1.03.45 1.856.9a6.53 6.53 0 0 1 1.422 1.009 3.9 3.9 0 0 1 .914 1.32 4.69 4.69 0 0 1 .33 1.82zm2.832-15.6c-.012-.355.052-.7.188-1.038a1.77 1.77 0 0 1 .515-.667 1.96 1.96 0 0 1 .769-.354 4.18 4.18 0 0 1 .935-.1c.312-.003.624.03.93.1a1.95 1.95 0 0 1 .76.354 1.8 1.8 0 0 1 .522.667c.26.664.26 1.403 0 2.067a1.8 1.8 0 0 1-.522.675 2.01 2.01 0 0 1-.761.361 3.88 3.88 0 0 1-.93.11 3.85 3.85 0 0 1-.935-.109 2.01 2.01 0 0 1-.769-.361c-.225-.18-.4-.4-.515-.675a2.52 2.52 0 0 1-.188-1.03zm4.612 20.407h-4.424V18.235h4.424zM269.6 18.263v2.408l-2.365.74c.188.317.325.662.406 1.022.08.374.118.756.116 1.14a6.24 6.24 0 0 1-.392 2.255 4.66 4.66 0 0 1-1.161 1.749 5.24 5.24 0 0 1-1.929 1.124c-.872.282-1.784.417-2.7.4l-.725-.036a4.93 4.93 0 0 1-.58-.08 2.18 2.18 0 0 0-.456.516 1.19 1.19 0 0 0-.167.645.64.64 0 0 0 .188.486 1.39 1.39 0 0 0 .493.29 2.96 2.96 0 0 0 .711.145l.842.036h2.524a7.6 7.6 0 0 1 2.1.268 4.2 4.2 0 0 1 1.574.82 3.6 3.6 0 0 1 .993 1.4 5.32 5.32 0 0 1 .348 2.023 5.53 5.53 0 0 1-.55 2.487 5.04 5.04 0 0 1-1.647 1.885 8.09 8.09 0 0 1-2.719 1.189 15.28 15.28 0 0 1-3.757.414c-.97.014-1.94-.1-2.886-.3a6.17 6.17 0 0 1-2.059-.9 3.82 3.82 0 0 1-1.24-1.415 4.12 4.12 0 0 1-.414-1.871 3.61 3.61 0 0 1 .305-1.538c.194-.422.47-.802.812-1.117a4.29 4.29 0 0 1 1.153-.755c.427-.193.87-.343 1.327-.45a2.71 2.71 0 0 1-.6-.362c-.2-.157-.38-.337-.538-.537a2.84 2.84 0 0 1-.39-.675c-.098-.242-.154-.5-.153-.775a2.44 2.44 0 0 1 .138-.842 2.52 2.52 0 0 1 .4-.7c.2-.232.4-.44.653-.616l.885-.6a4.36 4.36 0 0 1-2.024-1.769 5.39 5.39 0 0 1-.746-2.87 6.33 6.33 0 0 1 .406-2.335 4.65 4.65 0 0 1 1.19-1.748 5.2 5.2 0 0 1 1.944-1.1 8.66 8.66 0 0 1 2.668-.377c.193 0 .4.013.652.036l.72.087.66.1.478.1h5.512zM258 36.74a1.74 1.74 0 0 0 .152.7 1.55 1.55 0 0 0 .5.6 2.72 2.72 0 0 0 .914.414 6.03 6.03 0 0 0 1.392.152 7.15 7.15 0 0 0 3.408-.64 1.92 1.92 0 0 0 1.146-1.712 1.19 1.19 0 0 0-.711-1.218 5.95 5.95 0 0 0-2.2-.3h-2.045c-.283.004-.566.037-.842.1a2.54 2.54 0 0 0-.827.326 2.01 2.01 0 0 0-.631.616c-.18.288-.27.622-.26.96zm1.6-13.2a3.61 3.61 0 0 0 .493 2.045c.336.487.903.763 1.494.725a1.65 1.65 0 0 0 1.508-.725 3.79 3.79 0 0 0 .464-2.045 4.05 4.05 0 0 0-.457-2.074c-.32-.52-.906-.818-1.516-.768q-1.994.001-1.993 2.844zm26.55 10.9h-4.424v-9.47a5.2 5.2 0 0 0-.53-2.633 1.83 1.83 0 0 0-1.69-.877 2.76 2.76 0 0 0-1.45.35c-.4.247-.72.605-.92 1.03a5.51 5.51 0 0 0-.486 1.682 16.22 16.22 0 0 0-.145 2.291v7.63h-4.424v-16.22h3.38l.6 2.074h.247a4.17 4.17 0 0 1 .848-1.073c.33-.296.697-.546 1.095-.74a5.3 5.3 0 0 1 1.261-.428 6.73 6.73 0 0 1 1.364-.14 6.46 6.46 0 0 1 2.161.342 4.21 4.21 0 0 1 1.668 1.065c.5.53.857 1.16 1.073 1.85a8.5 8.5 0 0 1 .377 2.691zM79.317 51.814l.943.037a7.57 7.57 0 0 1 .9.108l-.35 2.437-.834-.124a7.13 7.13 0 0 0-.8-.051 3.66 3.66 0 0 0-2.966 1.429 5 5 0 0 0-.842 1.654 7.2 7.2 0 0 0-.3 2.139v8.586h-2.64V52.104h2.147l.32 2.915h.116q.362-.624.775-1.2a5.75 5.75 0 0 1 .929-1.023 4.34 4.34 0 0 1 1.153-.71 3.73 3.73 0 0 1 1.449-.272z"/><path d="M89.835 68.32c-.997.012-1.987-.17-2.915-.537a6.25 6.25 0 0 1-2.269-1.566 7.08 7.08 0 0 1-1.472-2.553c-.365-1.124-.54-2.3-.522-3.48-.017-1.192.144-2.38.478-3.525a7.8 7.8 0 0 1 1.349-2.632c.557-.703 1.27-1.267 2.082-1.647a6.67 6.67 0 0 1 5.257-.051 5.49 5.49 0 0 1 1.944 1.451c.552.662.968 1.426 1.225 2.25.296.94.44 1.922.43 2.908v1.64h-10.04a6.6 6.6 0 0 0 1.182 4.119c.84.923 2.056 1.4 3.3 1.32a12.04 12.04 0 0 0 1.37-.072 10.47 10.47 0 0 0 1.218-.211l1.138-.35q.55-.2 1.117-.47v2.35q-.58.276-1.14.478a9.38 9.38 0 0 1-1.145.334 10.01 10.01 0 0 1-1.218.188l-1.372.06zm-.652-14.315a3.26 3.26 0 0 0-2.618 1.132 5.61 5.61 0 0 0-1.125 3.292h7.136a7.72 7.72 0 0 0-.2-1.806c-.1-.502-.317-.977-.6-1.4-.27-.383-.632-.693-1.052-.9a3.4 3.4 0 0 0-1.532-.32zm19.337 9.66a4.62 4.62 0 0 1-.421 2.031c-.278.578-.694 1.08-1.2 1.458a5.48 5.48 0 0 1-1.908.878 9.96 9.96 0 0 1-2.509.289 12.61 12.61 0 0 1-2.712-.253c-.696-.148-1.366-.4-1.987-.748V64.9q.45.232 1 .457a11.55 11.55 0 0 0 1.16.4 11.14 11.14 0 0 0 1.254.282 7.64 7.64 0 0 0 1.284.109 6.95 6.95 0 0 0 1.6-.159 3.09 3.09 0 0 0 1.073-.456 1.78 1.78 0 0 0 .6-.725 2.3 2.3 0 0 0 .188-.95 2.18 2.18 0 0 0-.145-.812 2.05 2.05 0 0 0-.529-.719 5.45 5.45 0 0 0-1.05-.718q-.667-.364-1.712-.812-1.045-.448-1.877-.885a6.5 6.5 0 0 1-1.415-.971 3.74 3.74 0 0 1-.892-1.24c-.22-.53-.325-1.1-.3-1.675a3.97 3.97 0 0 1 .4-1.805 3.72 3.72 0 0 1 1.125-1.328 5.15 5.15 0 0 1 1.741-.812c.74-.2 1.5-.283 2.262-.275.868-.01 1.733.1 2.575.3.76.197 1.5.465 2.2.8l-.914 2.132c-.63-.28-1.277-.526-1.936-.732a6.7 6.7 0 0 0-2.024-.312 3.97 3.97 0 0 0-2.2.486c-.464.304-.734.83-.7 1.384-.007.303.05.605.167.885a1.96 1.96 0 0 0 .572.711 5.9 5.9 0 0 0 1.088.675q.682.34 1.7.76 1.044.435 1.864.87c.508.263.98.592 1.4.98a3.74 3.74 0 0 1 .885 1.24c.217.53.32 1.097.306 1.67zm9.723 4.656c-.997.012-1.987-.17-2.915-.537a6.25 6.25 0 0 1-2.269-1.566 7.08 7.08 0 0 1-1.472-2.553c-.365-1.124-.54-2.3-.522-3.48-.017-1.192.144-2.38.478-3.525a7.8 7.8 0 0 1 1.349-2.632c.557-.703 1.27-1.267 2.082-1.647a6.67 6.67 0 0 1 5.257-.051 5.49 5.49 0 0 1 1.944 1.451 6.53 6.53 0 0 1 1.225 2.25 9.34 9.34 0 0 1 .429 2.908v1.64H113.8a6.6 6.6 0 0 0 1.182 4.119c.84.923 2.056 1.4 3.3 1.32a12.03 12.03 0 0 0 1.371-.072 10.47 10.47 0 0 0 1.218-.211l1.138-.35q.55-.2 1.117-.47v2.35q-.58.276-1.14.478c-.374.136-.757.247-1.145.334a10.01 10.01 0 0 1-1.218.188q-.633.06-1.372.06zm-.653-14.315a3.26 3.26 0 0 0-2.618 1.132 5.61 5.61 0 0 0-1.125 3.292h7.136a7.72 7.72 0 0 0-.2-1.806 3.96 3.96 0 0 0-.609-1.4c-.27-.383-.632-.693-1.052-.9a3.4 3.4 0 0 0-1.531-.32zm18.584 14.025l-.535-2.208h-.116a9.28 9.28 0 0 1-.957 1.124c-.3.307-.66.57-1.045.776-.397.2-.82.36-1.26.45a7.93 7.93 0 0 1-1.61.146c-.625.006-1.247-.1-1.842-.282a3.88 3.88 0 0 1-1.457-.87 4.03 4.03 0 0 1-.965-1.48 5.84 5.84 0 0 1-.35-2.11 4.32 4.32 0 0 1 1.674-3.655 8.9 8.9 0 0 1 5.1-1.392l2.668-.1v-1a5.39 5.39 0 0 0-.21-1.625 2.6 2.6 0 0 0-.609-1.052 2.3 2.3 0 0 0-.986-.573 4.74 4.74 0 0 0-1.342-.174 6.99 6.99 0 0 0-2.242.349 14.31 14.31 0 0 0-1.994.842l-.93-1.987a13.1 13.1 0 0 1 2.393-.986 9.38 9.38 0 0 1 2.77-.406 9.7 9.7 0 0 1 2.56.3c.66.167 1.273.5 1.783.942a3.95 3.95 0 0 1 1.052 1.647c.25.783.367 1.6.348 2.422v10.907h-1.9zm-4.844-1.842c.558.005 1.113-.088 1.64-.275a3.5 3.5 0 0 0 1.3-.834c.385-.402.68-.882.862-1.408a5.77 5.77 0 0 0 .312-1.994V60.24l-2.074.1a10.67 10.67 0 0 0-2.19.29 3.87 3.87 0 0 0-1.415.646c-.34.258-.603.604-.76 1a3.6 3.6 0 0 0-.232 1.328 2.49 2.49 0 0 0 .7 1.958 2.69 2.69 0 0 0 1.859.625zm17.882-14.374l.943.037a7.57 7.57 0 0 1 .9.108l-.35 2.437-.834-.124a6.7 6.7 0 0 0-.8-.05 3.66 3.66 0 0 0-2.966 1.429 5 5 0 0 0-.842 1.654c-.207.694-.308 1.415-.3 2.14v8.586h-2.64V52.104h2.147l.32 2.915h.116q.362-.624.775-1.2a5.75 5.75 0 0 1 .93-1.023 4.34 4.34 0 0 1 1.154-.71c.46-.186.952-.28 1.448-.272zm10.348 16.502a8.1 8.1 0 0 1-2.742-.456 5.67 5.67 0 0 1-2.219-1.451 6.93 6.93 0 0 1-1.479-2.539 11.39 11.39 0 0 1-.537-3.72 11.95 11.95 0 0 1 .55-3.865 6.87 6.87 0 0 1 1.515-2.581 5.72 5.72 0 0 1 2.255-1.444 8.36 8.36 0 0 1 2.771-.449 9.92 9.92 0 0 1 2.212.247c.624.13 1.23.336 1.805.6l-.783 2.234c-.223-.1-.47-.2-.74-.283l-.842-.246-.855-.174a5.09 5.09 0 0 0-.8-.065 3.8 3.8 0 0 0-3.321 1.458c-.798 1.37-1.163 2.95-1.045 4.532a7.56 7.56 0 0 0 1.052 4.474c.765.974 1.964 1.505 3.2 1.415a7.84 7.84 0 0 0 2.125-.268 11.85 11.85 0 0 0 1.733-.632v2.35a7.1 7.1 0 0 1-1.674.639c-.717.156-1.45.228-2.182.215zm17.016-.286V57.776c.074-1.002-.194-2-.762-2.828a2.88 2.88 0 0 0-2.385-.943 4.6 4.6 0 0 0-1.972.377 3.08 3.08 0 0 0-1.283 1.117 5 5 0 0 0-.7 1.813 12.8 12.8 0 0 0-.211 2.465v8.253h-2.64V45.46h2.64v6.7l-.116 2.088h.145a4.59 4.59 0 0 1 .862-1.081 5.05 5.05 0 0 1 2.357-1.211c.448-.097.905-.146 1.363-.145a5.37 5.37 0 0 1 4 1.384 6.2 6.2 0 0 1 1.342 4.432v10.4zm18.874.357a8.1 8.1 0 0 1-2.742-.456 5.67 5.67 0 0 1-2.219-1.451c-.67-.73-1.173-1.597-1.48-2.54a11.39 11.39 0 0 1-.537-3.72c-.03-1.3.156-2.616.552-3.865a6.87 6.87 0 0 1 1.515-2.581 5.72 5.72 0 0 1 2.256-1.444 8.36 8.36 0 0 1 2.77-.45 9.92 9.92 0 0 1 2.212.247 8.06 8.06 0 0 1 1.8.61l-.783 2.234c-.223-.1-.47-.2-.74-.283l-.842-.246-.855-.174a5.08 5.08 0 0 0-.8-.065 3.8 3.8 0 0 0-3.321 1.458 7.85 7.85 0 0 0-1.045 4.532 7.56 7.56 0 0 0 1.052 4.474c.765.974 1.964 1.505 3.2 1.415a7.84 7.84 0 0 0 2.125-.268 11.86 11.86 0 0 0 1.733-.632v2.35a7.11 7.11 0 0 1-1.674.639 9.38 9.38 0 0 1-2.178.216zm13.147 0c-.997.012-1.987-.17-2.915-.537a6.25 6.25 0 0 1-2.269-1.566 7.08 7.08 0 0 1-1.472-2.553c-.365-1.124-.54-2.3-.522-3.48-.017-1.192.144-2.38.478-3.525a7.8 7.8 0 0 1 1.349-2.632c.557-.703 1.27-1.267 2.082-1.647a6.67 6.67 0 0 1 5.257-.05 5.49 5.49 0 0 1 1.944 1.451 6.53 6.53 0 0 1 1.225 2.25 9.34 9.34 0 0 1 .429 2.908v1.64h-10.037a6.6 6.6 0 0 0 1.182 4.119c.84.923 2.056 1.4 3.3 1.32a12.04 12.04 0 0 0 1.371-.072c.4-.046.816-.117 1.218-.2l1.138-.35q.55-.2 1.117-.47v2.35q-.58.276-1.14.478a9.37 9.37 0 0 1-1.145.334 10.01 10.01 0 0 1-1.218.188l-1.373.058zm-.652-14.315a3.26 3.26 0 0 0-2.618 1.132 5.61 5.61 0 0 0-1.125 3.292h7.136c.005-.608-.062-1.214-.2-1.806a3.96 3.96 0 0 0-.609-1.4c-.27-.383-.632-.693-1.052-.9a3.4 3.4 0 0 0-1.533-.319zm19.675 14.024V57.843c.074-1.002-.194-2-.762-2.828a2.88 2.88 0 0 0-2.385-.943 4.6 4.6 0 0 0-1.972.377 3.08 3.08 0 0 0-1.283 1.117 5.01 5.01 0 0 0-.7 1.813 12.81 12.81 0 0 0-.211 2.465v8.253h-2.64V52.17h2.146l.377 2.147h.145a4.59 4.59 0 0 1 .862-1.081 5.05 5.05 0 0 1 2.357-1.21c.448-.097.905-.146 1.363-.145a5.37 5.37 0 0 1 4 1.384 6.2 6.2 0 0 1 1.342 4.432v10.4h-2.638zm11.854-1.868l.588-.03.63-.072.558-.1.384-.1v2c-.155.07-.315.127-.478.174a6.31 6.31 0 0 1-.639.152l-.725.1-.74.037c-.564.005-1.126-.073-1.668-.232a3.08 3.08 0 0 1-1.327-.8 3.86 3.86 0 0 1-.878-1.53 7.89 7.89 0 0 1-.32-2.43v-9.24h-2.25v-1.175l2.25-1.132 1.132-3.336h1.523v3.655h4v1.987h-4v9.24a3.95 3.95 0 0 0 .458 2.118 1.65 1.65 0 0 0 1.5.713zm11.76-14.348l.943.037a7.57 7.57 0 0 1 .9.108l-.35 2.437-.834-.124a7.13 7.13 0 0 0-.805-.051 3.66 3.66 0 0 0-2.966 1.429 5 5 0 0 0-.842 1.654 7.2 7.2 0 0 0-.3 2.139v8.586h-2.64V52.17h2.147l.32 2.915h.116q.363-.624.775-1.2a5.75 5.75 0 0 1 .93-1.023 4.34 4.34 0 0 1 1.154-.71c.46-.187.955-.28 1.453-.272zm10.52 16.507c-.997.012-1.987-.17-2.915-.537a6.25 6.25 0 0 1-2.269-1.566 7.08 7.08 0 0 1-1.472-2.553c-.365-1.124-.54-2.3-.522-3.48a11.96 11.96 0 0 1 .478-3.525 7.77 7.77 0 0 1 1.35-2.632c.557-.703 1.27-1.267 2.082-1.647a6.67 6.67 0 0 1 5.257-.05 5.49 5.49 0 0 1 1.944 1.451c.552.662.968 1.426 1.225 2.25.296.94.44 1.922.43 2.908v1.64H257.3a6.6 6.6 0 0 0 1.182 4.119c.84.923 2.056 1.4 3.3 1.32a12.04 12.04 0 0 0 1.371-.072 10.5 10.5 0 0 0 1.218-.211l1.138-.35q.55-.2 1.117-.47v2.35q-.58.276-1.14.478a9.36 9.36 0 0 1-1.145.334 10.01 10.01 0 0 1-1.218.188l-1.373.058zm-.652-14.315a3.26 3.26 0 0 0-2.618 1.132 5.61 5.61 0 0 0-1.125 3.292h7.136c.005-.608-.062-1.214-.2-1.806-.1-.502-.317-.977-.6-1.4a2.81 2.81 0 0 0-1.05-.9 3.4 3.4 0 0 0-1.533-.319zM20.113 11.532c6.3 10.326 14.2 23.27 19.047 34.278 2.6-3.04 6.716-7.556 10.346-11.226V8.9h-31zm20.34 37.355c1.406 3.314 2.4 6.786 2.988 10.34.45 3.423-.193 6.413-1.764 8.2-.882 1.056-2.187 1.666-3.563 1.667a4.96 4.96 0 0 1-3.541-1.77 9.58 9.58 0 0 1-2.277-7.255 22.66 22.66 0 0 1 4.759-11.682c-4.653-11.024-12.938-24.6-19.475-35.3l-2.54-4.17H0v64.36h49.507V38.845c-3.5 3.66-7.083 7.66-9.054 10.042zm-3.706 16.42a2.2 2.2 0 0 0 1.364.821 1.71 1.71 0 0 0 1.33-.654c.976-1.116 1.38-3.36 1.052-5.86a37.94 37.94 0 0 0-2.132-7.918c-1.733 2.565-2.8 5.52-3.106 8.6a6.72 6.72 0 0 0 1.491 5.01z"/><circle cx="54.952" cy="34.157" r="2.475"/><path d="M17.822 2.97a2.97 2.97 0 1 1-5.94.002A2.97 2.97 0 0 1 14.851.001c1.64.002 2.968 1.33 2.97 2.97z"/></svg>