<svg xmlns="http://www.w3.org/2000/svg" width="287.799" height="68.589" viewBox="0 0 287.799 68.589"><path d="M153.773,1.2H164.23V22.114H153.773Zm-18.1,10.457-.6.2s3.62,3.016,3.62,3.218c.2.2.4.2.2.8l-.4,1.207s3.218-.6,3.62-.8c.4,0,.6,0,.6.4s-.2,3.821-.2,3.821h1.005s-.2-3.62-.2-3.821c0-.4.2-.4.6-.4s3.62.8,3.62.8a7.909,7.909,0,0,0-.4-1.207c-.2-.6,0-.6.2-.8s3.62-3.218,3.62-3.218l-.6-.2c-.4-.2-.2-.4-.2-.6s.6-2.212.6-2.212-1.609.4-1.81.4-.4,0-.4-.2a5.161,5.161,0,0,0-.4-1.005s-1.81,2.011-2.011,2.212c-.4.4-.8,0-.6-.4,0-.4,1.005-4.625,1.005-4.625s-1.005.6-1.408.8-.6.2-.6-.2c-.2-.4-1.408-2.614-1.408-2.815l-1.408,2.815c-.2.4-.4.4-.6.2-.4-.2-1.408-.8-1.408-.8S140.7,9.445,140.7,9.847s-.2.6-.6.4l-2.011-2.212a2.865,2.865,0,0,1-.4.8c0,.2-.2.4-.4.2a17.419,17.419,0,0,1-2.011-.4,15.279,15.279,0,0,0,.8,2.212A.8.8,0,0,1,135.674,11.657ZM122.2,1.2h10.457V22.114H122.2Z" transform="translate(119.729 -0.786)" fill="#e0e8f9"/><path d="M288.067,64.151a3.883,3.883,0,0,1-3.419,2.413c-1.207,0-4.826-.2-4.826-9.653V36.6c0-6.234-4.826-11.262-17.295-11.262-13.474,0-13.675,6.636-13.675,8.245-.2,1.81.8,3.821,4.223,3.821,3.017,0,3.821-3.419,4.223-4.625.4-1.408.6-5.43,6.033-5.43,4.625,0,7.441,4.022,7.642,9.854v3.218h0v.2a4.834,4.834,0,0,1-3.218,3.821c-2.413,1.207-9.452,2.212-10.256,2.413-2.815.6-10.658,2.614-10.457,10.859.2,8.044,8.245,10.859,13.876,10.658a16.013,16.013,0,0,0,10.055-3.62c.8-.6.8-.6,1.408.2.8.8,3.419,3.419,9.653,3.419,6.435,0,7.24-3.016,7.642-4.022C289.877,63.749,288.469,63.146,288.067,64.151ZM262.93,66.363c-5.631,0-7.038-4.625-7.038-7.038,0-2.212,1.207-6.837,6.837-10.055a54.931,54.931,0,0,1,7.642-3.62h.4a.7.7,0,0,1,.2.4h0v.2h0v.2h0V54.9C270.974,61.537,267.756,66.363,262.93,66.363Zm-18.5-.2c-.8-.2-5.832.4-5.832-14.881V3.218c0-.6,0-2.212-1.81-2.212s-13.876.6-14.68.8c-.8,0-1.408,1.005,0,1.005,1.408.2,7.843.6,7.843,11.262v14.68c0,.4,0,.6-.2.8v.2h0c-.2.2-.4,0-1.006-.4a20.568,20.568,0,0,0-11.463-3.62c-9.452,0-21.115,6.837-21.115,20.914,0,15.082,10.658,22.322,21.719,22.322a20.518,20.518,0,0,0,10.658-3.218c1.609-1.005,1.408-.8,1.609.6.2,1.006,0,3.016,2.815,2.815,3.016-.4,10.256-1.207,11.664-1.408C246.038,67.168,245.635,66.363,244.429,66.162Zm-24.936.6c-8.848,0-13.474-10.457-13.474-20.512,0-11.06,6.234-18.5,12.87-18.1,8.647.6,10.859,7.441,11.06,19.708v2.614C229.749,62.542,224.721,66.765,219.492,66.765Zm-23.529-2.614a3.883,3.883,0,0,1-3.419,2.413c-1.207,0-4.826-.2-4.826-9.653V36.6c0-6.234-4.826-11.262-17.295-11.262-13.474,0-13.675,6.636-13.675,8.245-.2,1.81.8,3.821,4.223,3.821,3.016,0,3.821-3.419,4.223-4.625.4-1.408.6-5.43,6.033-5.43,4.625,0,7.642,4.022,7.642,10.055v2.011c-.2,3.016-1.006,4.022-3.419,5.229S166,46.857,165.2,47.058c-2.815.6-10.658,2.614-10.457,10.859.2,8.044,8.245,10.859,13.876,10.658a16.013,16.013,0,0,0,10.055-3.62c.8-.6.8-.6,1.408.2.8.8,3.419,3.419,9.653,3.419,6.435,0,7.24-3.016,7.642-4.022C197.774,63.749,196.567,63.146,195.964,64.151Zm-24.936,2.212c-5.631,0-7.038-4.625-7.038-7.038,0-2.212,1.207-6.837,6.837-10.055a54.931,54.931,0,0,1,7.642-3.62h.4v.2h0V55.1C178.87,61.537,175.653,66.363,171.028,66.363Zm-19.305-.2c-1.609-.4-4.424-2.212-4.424-11.06V39.014c0-3.821.4-13.675-14.68-13.675a20.41,20.41,0,0,0-12.669,4.223c-.6.6-1.005.8-1.207-.2-.2-.8-.6-2.011-.8-2.815-.2-.6-.6-1.207-2.011-1.005s-10.256,1.609-11.865,2.011c-1.408.4-1.006,1.005,0,1.207s5.832.6,5.832,8.848V54.9c0,10.055-2.011,10.859-3.821,11.463-2.413.6-1.207,1.408-.2,1.408h18.3c1.207,0,1.81-1.207-.6-1.609s-4.625-1.81-4.625-9.653V45.449c0-4.223-1.005-17.093,10.658-17.295,8.245-.2,9.049,6.636,9.049,11.06V56.308c0,7.038-2.011,9.251-4.424,9.653-2.212.4-1.81,1.408-.6,1.408h18.7C153.331,67.771,154.336,66.765,151.722,66.162Zm-48.867-2.011a3.883,3.883,0,0,1-3.419,2.413c-1.207,0-4.826-.2-4.826-9.653V36.6c0-6.234-4.826-11.262-17.295-11.262-13.474,0-13.675,6.636-13.675,8.245-.2,1.81.8,3.821,4.223,3.821,3.016,0,3.821-3.419,4.223-4.625.4-1.408.6-5.43,6.033-5.43,4.625,0,7.441,4.022,7.642,9.854v2.212a1.507,1.507,0,0,1-.2,1.005v.2h0a4.834,4.834,0,0,1-3.218,3.821c-2.413,1.207-9.452,2.212-10.256,2.413-2.815.6-10.658,2.614-10.457,10.859.2,8.044,8.245,10.859,13.876,10.658a16.013,16.013,0,0,0,10.055-3.62c.8-.6.8-.6,1.408.2.8.8,3.419,3.419,9.653,3.419,6.435,0,7.24-3.016,7.642-4.022C104.665,63.749,103.257,63.146,102.855,64.151ZM77.718,66.363c-5.631,0-7.038-4.625-7.038-7.038s1.207-6.837,6.837-10.055a54.932,54.932,0,0,1,7.642-3.62h.4a.7.7,0,0,1,.2.4h0v.4h0v.2h0V55.1C85.762,61.537,82.544,66.363,77.718,66.363Zm-19.305-17.5C56.4,55.3,52.58,65.76,38.7,66.162c-14.479.2-23.126-9.653-23.529-27.953C14.573,18.7,23.019,3.821,36.09,3.419,50.77,3.218,56,20.714,56.2,23.328a1.415,1.415,0,1,0,2.815-.2c0-1.005-1.207-18.3-1.609-20.311s-2.011-1.207-2.413-.4c-.2.6.2-.6-.6,1.207s-3.016.8-3.821.6A31.017,31.017,0,0,0,36.09,1.006C19,1.408,1.5,14.077,1.9,36.2c.4,21.518,17.7,33.584,33.785,33.382,14.68-.2,22.925-9.452,25.338-20.11C61.831,46.857,59.217,46.253,58.412,48.868Z" transform="translate(-1.897 -0.994)" fill="#e0e8f9"/></svg>