<svg xmlns="http://www.w3.org/2000/svg" width="286.56" height="59.746" viewBox="0 0 286.56 59.746"><path d="M36.264,53.528A14.242,14.242,0,1,1,24.238,37.366a14.53,14.53,0,0,1,7.608,3.611,25.112,25.112,0,0,1,10.1.351A22.251,22.251,0,1,0,43.8,56.473,11.654,11.654,0,0,0,36.264,53.528Z" transform="translate(0.035 -28.105)" fill="#e0e8f9"/><path d="M36.264,53.528A14.242,14.242,0,1,1,24.238,37.366a14.53,14.53,0,0,1,7.608,3.611,25.112,25.112,0,0,1,10.1.351A22.251,22.251,0,1,0,43.8,56.473,11.654,11.654,0,0,0,36.264,53.528Z" transform="translate(0.035 -28.105)" fill="#e0e8f9"/><path d="M62.732,68.8A22.2,22.2,0,0,0,41.1,85.979a11.654,11.654,0,0,0,7.538,2.945,14.245,14.245,0,1,1,12.025,16.162,14.53,14.53,0,0,1-7.608-3.611,25.111,25.111,0,0,1-10.1-.351A22.195,22.195,0,1,0,62.732,68.8Z" transform="translate(-26.679 -53.79)" fill="#e0e8f9"/><path d="M62.732,68.8A22.2,22.2,0,0,0,41.1,85.979a11.654,11.654,0,0,0,7.538,2.945,14.245,14.245,0,1,1,12.025,16.162,14.53,14.53,0,0,1-7.608-3.611,25.111,25.111,0,0,1-10.1-.351A22.195,22.195,0,1,0,62.732,68.8Z" transform="translate(-26.679 -53.79)" fill="#e0e8f9"/><path d="M206.047,47.842a8.724,8.724,0,0,0-3.261-1.788,5.8,5.8,0,0,0-1.122-.245.863.863,0,0,0-.421-.035,9.308,9.308,0,0,0,6.1-6.1,9.765,9.765,0,0,0,0-4.032c-1.472-5.785-7.4-6.942-9.115-6.942H184.1V64.636h14.444a10.823,10.823,0,0,0,10.413-7.853,12.066,12.066,0,0,0,.175-1.578A9.1,9.1,0,0,0,206.047,47.842Zm-17.074-9.291V33.012h8.344a5.366,5.366,0,0,1,0,10.728h-8.344Zm9.186,21.877h-9.186V47.983h9.221a6.06,6.06,0,0,1,5.715,6.205A6.146,6.146,0,0,1,198.159,60.429Z" transform="translate(-119.544 -27.748)" fill="#e0e8f9"/><path d="M298.221,48.263h0a9.678,9.678,0,0,0,8.87-9.746c-.175-4.733-2.77-9.326-10.027-9.817H282.9V64.671h4.8V48.824h5.469l9.115,15.812h6.205Zm-10.553-3.716V33.012h8.8a5.775,5.775,0,0,1,0,11.534h-8.8Z" transform="translate(-183.705 -27.748)" fill="#e0e8f9"/><path d="M464.3,122.2" transform="translate(-301.508 -88.468)" fill="none" stroke="#231f20" stroke-miterlimit="10" stroke-width="1"/><path d="M437.743,28.9H424V64.766h13.673a18,18,0,0,0,17.74-17.915C455.413,34.965,446.613,28.9,437.743,28.9Zm.386,31.413H428.8V33.388h9.361c4.8,0,12.025,4.523,12.025,13.463C450.189,54.739,444.9,59.261,438.129,60.313Z" transform="translate(-275.337 -27.878)" fill="#e0e8f9"/><rect width="4.908" height="35.866" transform="translate(132.676 1.022)" fill="#e0e8f9"/><path d="M567.515,60.594a28.613,28.613,0,0,1-12.9,3.261c-13.217,0-19.914-8.449-19.914-18.9s7.538-19.212,19.318-18.967c4.908.105,8.975,1.192,12.762,4.7L563.343,34.3a14.363,14.363,0,0,0-9.536-3.821c-8.239,0-13.989,6.451-13.989,14.409S545.568,59.3,554.228,59.3a18.116,18.116,0,0,0,8.344-1.823V47.307h-7.923V42.679H567.48V60.594Z" transform="translate(-347.226 -25.986)" fill="#e0e8f9"/><path d="M684.409,33.393V28.8H661.2V64.841h24.051V60.178H666.073V48.644h17.144V44.016H666.073V33.288Z" transform="translate(-429.376 -27.813)" fill="#e0e8f9"/><path d="M768.7,33.878a8.337,8.337,0,0,0-6.591-3.19c-4.733,0-7.012,3.05-7.012,5.82,0,3.12,2.735,4.8,6.977,6.1.421.14.876.175,1.262.28a18.522,18.522,0,0,1,2.98.982,15.349,15.349,0,0,1,3.4,1.893,8.245,8.245,0,0,1,2.559,3.12,11.569,11.569,0,0,1,.526,6.451,10.5,10.5,0,0,1-4.558,6.591,16.159,16.159,0,0,1-8.589,2.1c-.876,0-1.087-.035-1.613-.07,0,0-6.135-.6-8.94-4.908l3.892-3.4a9.046,9.046,0,0,0,7.292,3.786c4.137,0,7.468-2.594,7.468-5.75s-1.928-4.523-7.608-6.241c0,0-4.628-1.367-6.451-2.91a9.809,9.809,0,0,1-3.576-5.574,12.678,12.678,0,0,1,.105-5.119,10.95,10.95,0,0,1,4.418-5.75,14.438,14.438,0,0,1,6.1-1.893h3.155s6.241.28,8.59,4.172Z" transform="translate(-486.459 -26.125)" fill="#e0e8f9"/><path d="M190.19,166.015h-1.823a5.957,5.957,0,0,1-5.294-5.68,9.49,9.49,0,0,1,0-2.139,6.284,6.284,0,0,1,1.543-3.436,5.8,5.8,0,0,1,4.733-2.1,4.474,4.474,0,0,1,4,2.1l1.192-.947a6.2,6.2,0,0,0-4.1-2.314h-2.209a7.585,7.585,0,0,0-6.626,6.7v1.753c0,6.17,6.241,7.292,6.241,7.292h2.1c2.945.035,4.908-2.629,4.908-2.629l-1.087-.876A5.435,5.435,0,0,1,190.19,166.015Z" transform="translate(-117.92 -107.496)" fill="#e0e8f9"/><path d="M304.021,152.7,297.5,167.6h1.4l1.753-3.927h7.853l1.683,3.927H311.8l-6.311-14.9Zm-2.8,9.711,3.4-8.1,3.4,8.1Z" transform="translate(-193.187 -108.275)" fill="#e0e8f9"/><path d="M431.138,165.642,422.093,152.6H420.2v14.935h1.4V154.458l9.115,13.077h1.858V152.6h-1.437Z" transform="translate(-272.869 -108.21)" fill="#e0e8f9"/><path d="M545.758,152.8h-1.437L537.8,167.665h1.4l1.753-3.927h7.853l1.683,3.927H552.1Zm-4.242,9.676,3.436-8.1,3.4,8.1Z" transform="translate(-349.239 -108.34)" fill="#e0e8f9"/><path d="M665.389,152.793c-3.892.105-5.189,0-5.189,0v14.865h5.013c.526.035,6.836,0,7.573-6.591v-1.683C672.821,158.788,671.91,152.618,665.389,152.793Zm6.276,8.169c-.736,5.294-6.1,5.539-6.1,5.539h-4.032V153.95s1.157-.035,4.137,0c5.049.07,5.96,5.574,5.96,5.574Z" transform="translate(-428.727 -108.333)" fill="#e0e8f9"/><path d="M783.958,152.8h-1.437L776,167.665h1.4l1.753-3.927h7.853l1.683,3.927H790.3Zm-4.242,9.676,3.4-8.1,3.4,8.1Z" transform="translate(-503.928 -108.34)" fill="#e0e8f9"/></svg>