<?xml version="1.0" encoding="utf-8"?>
<!-- Generator: Adobe Illustrator 23.0.3, SVG Export Plug-In . SVG Version: 6.00 Build 0)  -->
<svg version="1.1" id="Layer_1" xmlns="http://www.w3.org/2000/svg" xmlns:xlink="http://www.w3.org/1999/xlink" x="0px" y="0px"
	 viewBox="0 0 287 74" style="enable-background:new 0 0 287 74;" xml:space="preserve">
<style type="text/css">
	.st0{fill:#EDEDED;}
</style>
<path class="st0" d="M72.5,14.3c0-0.4,0.1-0.7,0.2-1c0.1-0.3,0.3-0.5,0.5-0.7c0.2-0.2,0.5-0.3,0.8-0.4c0.3-0.1,0.6-0.1,0.9-0.1
	c0.3,0,0.6,0,0.9,0.1c0.3,0.1,0.5,0.2,0.8,0.4c0.2,0.2,0.4,0.4,0.5,0.7c0.3,0.7,0.3,1.4,0,2.1c-0.1,0.3-0.3,0.5-0.5,0.7
	c-0.2,0.2-0.5,0.3-0.8,0.4c-0.3,0.1-0.6,0.1-0.9,0.1c-0.3,0-0.6,0-0.9-0.1c-0.3-0.1-0.5-0.2-0.8-0.4c-0.2-0.2-0.4-0.4-0.5-0.7
	C72.6,15,72.5,14.7,72.5,14.3L72.5,14.3z M77.1,34.8h-4.4V18.5h4.4V34.8L77.1,34.8z M95.3,34.8h-4.4v-9.5c0.1-0.9-0.1-1.8-0.5-2.6
	c-0.4-0.6-1-0.9-1.7-0.9c-0.5,0-1,0.1-1.5,0.4c-0.4,0.2-0.7,0.6-0.9,1c-0.3,0.5-0.4,1.1-0.5,1.7c-0.1,0.8-0.2,1.5-0.1,2.3v7.7h-4.4
	V18.5h3.4l0.6,2.1h0.2c0.2-0.4,0.5-0.8,0.9-1.1c0.3-0.3,0.7-0.5,1.1-0.7c0.4-0.2,0.8-0.3,1.3-0.4c0.4-0.1,0.9-0.1,1.4-0.1
	c0.7,0,1.5,0.1,2.2,0.3c0.6,0.2,1.2,0.6,1.7,1.1c0.5,0.5,0.9,1.2,1.1,1.9c0.3,0.9,0.4,1.8,0.4,2.7L95.3,34.8z M106.1,35.1
	c-1.1,0-2.1-0.1-3.1-0.5c-0.9-0.3-1.7-0.8-2.4-1.5c-0.7-0.7-1.2-1.6-1.5-2.6c-0.4-1.2-0.6-2.5-0.5-3.8c0-1.4,0.2-2.7,0.5-4.1
	c0.3-1,0.8-1.9,1.5-2.6c0.7-0.7,1.5-1.1,2.4-1.4c1-0.3,2.1-0.4,3.1-0.4c0.8,0,1.7,0.1,2.5,0.3c0.8,0.2,1.6,0.5,2.3,0.9l-1.3,3.4
	c-0.6-0.3-1.2-0.5-1.8-0.7c-0.5-0.2-1.1-0.3-1.7-0.3c-1-0.1-1.9,0.4-2.3,1.2c-0.6,1.1-0.8,2.4-0.7,3.7c-0.1,1.2,0.2,2.5,0.7,3.6
	c0.5,0.8,1.4,1.2,2.3,1.2c0.8,0,1.6-0.1,2.3-0.3c0.7-0.2,1.4-0.5,2.1-0.8V34c-0.4,0.2-0.7,0.3-1,0.5c-0.3,0.1-0.7,0.2-1,0.3
	c-0.4,0.1-0.7,0.2-1.1,0.2C106.9,35.1,106.5,35.1,106.1,35.1L106.1,35.1z M118.2,34.8h-4.4V12.2h4.4L118.2,34.8z M132.9,34.8
	l-0.6-2.1h-0.2c-0.2,0.4-0.5,0.8-0.9,1.1c-0.3,0.3-0.7,0.5-1.1,0.7c-0.4,0.2-0.8,0.3-1.3,0.4c-0.4,0.1-0.9,0.1-1.4,0.1
	c-0.7,0-1.5-0.1-2.2-0.3c-0.6-0.2-1.2-0.6-1.7-1.1c-0.5-0.5-0.9-1.2-1.1-1.8c-0.3-0.9-0.4-1.8-0.4-2.7V18.5h4.4V28
	c-0.1,0.9,0.1,1.8,0.5,2.6c0.4,0.6,1,0.9,1.7,0.9c0.5,0,1-0.1,1.5-0.4c0.4-0.2,0.7-0.6,0.9-1c0.3-0.5,0.4-1.1,0.5-1.7
	c0.1-0.8,0.2-1.5,0.1-2.3v-7.7h4.4v16.3H132.9z M151.4,30c0,0.8-0.1,1.5-0.5,2.2c-0.3,0.6-0.8,1.2-1.3,1.6c-0.6,0.5-1.3,0.8-2.1,1
	c-0.9,0.2-1.8,0.3-2.7,0.3c-0.5,0-1,0-1.5-0.1c-0.4,0-0.9-0.1-1.3-0.2c-0.4-0.1-0.8-0.2-1.2-0.3c-0.4-0.1-0.8-0.3-1.1-0.4v-3.7
	c0.4,0.2,0.8,0.4,1.3,0.6c0.5,0.2,0.9,0.3,1.3,0.4c0.4,0.1,0.9,0.2,1.3,0.3c0.4,0.1,0.8,0.1,1.2,0.1c0.3,0,0.7,0,1-0.1
	c0.2-0.1,0.5-0.2,0.7-0.3c0.2-0.1,0.3-0.3,0.4-0.5c0.1-0.2,0.1-0.4,0.1-0.6c0-0.2,0-0.4-0.1-0.5c-0.1-0.2-0.2-0.4-0.4-0.5
	c-0.3-0.2-0.6-0.4-1-0.6c-0.4-0.2-1-0.5-1.7-0.8c-0.6-0.3-1.2-0.6-1.8-1c-0.5-0.3-0.9-0.6-1.3-1.1c-0.3-0.4-0.6-0.8-0.8-1.3
	c-0.2-0.6-0.3-1.2-0.2-1.8c0-0.7,0.1-1.4,0.4-2c0.3-0.6,0.7-1.1,1.2-1.4c0.6-0.4,1.2-0.7,1.9-0.9c0.8-0.2,1.7-0.3,2.5-0.3
	c0.9,0,1.9,0.1,2.8,0.3c0.9,0.2,1.8,0.6,2.7,1l-1.3,3.1c-0.7-0.3-1.4-0.6-2.1-0.9c-0.6-0.2-1.3-0.3-2-0.3c-0.5,0-0.9,0.1-1.3,0.3
	c-0.3,0.2-0.4,0.5-0.4,0.9c0,0.2,0,0.4,0.1,0.5c0.1,0.2,0.2,0.3,0.4,0.5c0.3,0.2,0.6,0.4,0.9,0.5l1.4,0.7c0.7,0.3,1.3,0.6,1.9,0.9
	c0.5,0.3,1,0.6,1.4,1c0.4,0.4,0.7,0.8,0.9,1.3C151.4,28.7,151.5,29.4,151.4,30L151.4,30z M154.3,14.3c0-0.4,0.1-0.7,0.2-1
	c0.1-0.3,0.3-0.5,0.5-0.7c0.2-0.2,0.5-0.3,0.8-0.4c0.3-0.1,0.6-0.1,0.9-0.1c0.3,0,0.6,0,0.9,0.1c0.3,0.1,0.5,0.2,0.8,0.4
	c0.2,0.2,0.4,0.4,0.5,0.7c0.3,0.7,0.3,1.4,0,2.1c-0.1,0.3-0.3,0.5-0.5,0.7c-0.2,0.2-0.5,0.3-0.8,0.4c-0.3,0.1-0.6,0.1-0.9,0.1
	c-0.3,0-0.6,0-0.9-0.1c-0.3-0.1-0.5-0.2-0.8-0.4c-0.2-0.2-0.4-0.4-0.5-0.7C154.3,15,154.3,14.7,154.3,14.3L154.3,14.3z M158.9,34.8
	h-4.4V18.5h4.4V34.8z M166.8,34.8l-5.7-16.3h4.6l2.7,9.3c0.2,0.6,0.3,1.1,0.4,1.7c0.1,0.5,0.2,1.1,0.2,1.6h0.1
	c0-0.6,0.1-1.1,0.2-1.6c0.1-0.6,0.3-1.1,0.4-1.7l2.7-9.3h4.7l-5.7,16.3L166.8,34.8z M185.9,35.1c-1.1,0-2.2-0.2-3.2-0.5
	c-0.9-0.3-1.8-0.8-2.5-1.5c-0.7-0.7-1.3-1.6-1.7-2.6c-0.4-1.2-0.6-2.4-0.6-3.7c0-1.3,0.2-2.5,0.5-3.7c0.3-1,0.8-1.9,1.5-2.7
	c0.6-0.7,1.4-1.3,2.3-1.6c1-0.4,2-0.6,3-0.5c1,0,2,0.2,2.9,0.5c0.8,0.3,1.6,0.8,2.2,1.4c0.6,0.7,1.1,1.5,1.4,2.3
	c0.3,1,0.5,2.1,0.5,3.1v2.2h-9.9c0,0.6,0.1,1.1,0.3,1.7c0.2,0.5,0.4,0.9,0.8,1.3c0.3,0.3,0.7,0.6,1.2,0.8c0.5,0.2,1,0.3,1.6,0.3
	c0.5,0,0.9,0,1.4-0.1c0.4-0.1,0.9-0.1,1.3-0.2c0.4-0.1,0.8-0.2,1.2-0.4l1.3-0.6V34c-0.4,0.2-0.8,0.4-1.2,0.5
	c-0.4,0.1-0.8,0.3-1.2,0.4c-0.5,0.1-0.9,0.2-1.4,0.2C187,35.1,186.5,35.1,185.9,35.1L185.9,35.1z M185.3,21.4c-0.7,0-1.5,0.3-2,0.8
	c-0.6,0.7-0.9,1.7-0.9,2.6h5.7c0-0.5-0.1-0.9-0.2-1.4c-0.1-0.4-0.3-0.8-0.5-1.1c-0.2-0.3-0.5-0.6-0.9-0.7
	C186.2,21.5,185.8,21.4,185.3,21.4L185.3,21.4z M204.6,35.1c-0.8,0-1.6-0.2-2.3-0.5c-0.7-0.4-1.3-0.9-1.8-1.6
	c-0.5-0.8-0.9-1.7-1.2-2.6c-0.3-1.2-0.4-2.4-0.4-3.6c0-1.2,0.1-2.5,0.4-3.7c0.2-0.9,0.6-1.8,1.2-2.6c0.5-0.7,1.1-1.2,1.8-1.6
	c0.7-0.4,1.5-0.5,2.3-0.5c0.5,0,1,0.1,1.4,0.2c0.4,0.1,0.8,0.3,1.2,0.5c0.3,0.2,0.7,0.5,0.9,0.8c0.3,0.3,0.5,0.6,0.7,0.9h0.1
	c-0.1-0.4-0.1-0.8-0.2-1.1c0-0.3-0.1-0.7-0.1-1.1l-0.1-1v-5.2h4.4v22.6h-3.4l-0.9-2.1h-0.2c-0.2,0.3-0.4,0.6-0.7,0.9
	c-0.3,0.3-0.6,0.6-0.9,0.8c-0.4,0.2-0.8,0.4-1.2,0.5C205.6,35,205.1,35.1,204.6,35.1L204.6,35.1z M206.2,31.6c0.5,0,0.9-0.1,1.3-0.3
	c0.4-0.2,0.7-0.5,0.9-0.8c0.2-0.4,0.4-0.9,0.5-1.4c0.1-0.6,0.2-1.3,0.2-1.9v-0.5c0-0.7,0-1.4-0.1-2.1c-0.1-0.5-0.2-1.1-0.5-1.5
	c-0.2-0.4-0.5-0.7-0.9-0.9c-0.4-0.2-0.9-0.3-1.4-0.3c-0.9,0-1.7,0.5-2.1,1.3c-0.5,1.2-0.7,2.4-0.7,3.7c-0.1,1.2,0.2,2.5,0.7,3.6
	C204.6,31.1,205.4,31.6,206.2,31.6L206.2,31.6z M224.6,35.1c-1.1,0-2.2-0.2-3.2-0.5c-0.9-0.3-1.8-0.8-2.5-1.5
	c-0.7-0.7-1.3-1.6-1.7-2.6c-0.4-1.2-0.6-2.4-0.6-3.7c0-1.3,0.2-2.5,0.5-3.7c0.3-1,0.8-1.9,1.5-2.7c0.6-0.7,1.4-1.3,2.3-1.6
	c1-0.4,2-0.6,3-0.5c1,0,2,0.2,2.9,0.5c0.8,0.3,1.6,0.8,2.2,1.4c0.6,0.7,1.1,1.5,1.4,2.3c0.3,1,0.5,2.1,0.5,3.1v2.2h-9.9
	c0,0.6,0.1,1.1,0.3,1.7c0.2,0.5,0.4,0.9,0.8,1.3c0.3,0.3,0.7,0.6,1.2,0.8c0.5,0.2,1,0.3,1.6,0.3c0.5,0,0.9,0,1.4-0.1
	c0.4-0.1,0.9-0.1,1.3-0.2c0.4-0.1,0.8-0.2,1.2-0.4l1.3-0.6V34c-0.4,0.2-0.8,0.4-1.2,0.5c-0.4,0.1-0.8,0.3-1.2,0.4
	c-0.5,0.1-0.9,0.2-1.4,0.2C225.7,35.1,225.2,35.1,224.6,35.1L224.6,35.1z M224,21.4c-0.7,0-1.5,0.3-2,0.8c-0.6,0.7-0.9,1.7-0.9,2.6
	h5.7c0-0.5-0.1-0.9-0.2-1.4c-0.1-0.4-0.3-0.8-0.5-1.1c-0.2-0.3-0.5-0.6-0.9-0.7C224.9,21.5,224.4,21.4,224,21.4L224,21.4z M245.3,30
	c0,0.8-0.1,1.5-0.5,2.2c-0.3,0.6-0.8,1.2-1.3,1.6c-0.6,0.5-1.3,0.8-2.1,1c-0.9,0.2-1.8,0.3-2.7,0.3c-0.5,0-1,0-1.5-0.1
	c-0.4,0-0.9-0.1-1.3-0.2c-0.4-0.1-0.8-0.2-1.2-0.3c-0.4-0.1-0.8-0.3-1.1-0.4v-3.7c0.4,0.2,0.8,0.4,1.3,0.6c0.4,0.2,0.9,0.3,1.3,0.4
	c0.4,0.1,0.9,0.2,1.3,0.3c0.4,0.1,0.8,0.1,1.2,0.1c0.3,0,0.7,0,1-0.1c0.2-0.1,0.5-0.2,0.7-0.3c0.2-0.1,0.3-0.3,0.4-0.5
	c0.1-0.2,0.1-0.4,0.1-0.6c0-0.2,0-0.4-0.1-0.5c-0.1-0.2-0.2-0.4-0.4-0.5c-0.3-0.2-0.6-0.4-1-0.6c-0.4-0.2-1-0.5-1.7-0.8
	c-0.6-0.3-1.2-0.6-1.8-1c-0.5-0.3-0.9-0.6-1.3-1.1c-0.3-0.4-0.6-0.8-0.8-1.3c-0.2-0.6-0.3-1.2-0.2-1.8c0-0.7,0.1-1.4,0.4-2
	c0.3-0.6,0.7-1.1,1.2-1.4c0.6-0.4,1.2-0.7,1.9-0.9c0.8-0.2,1.7-0.3,2.5-0.3c0.9,0,1.9,0.1,2.8,0.3c0.9,0.2,1.8,0.6,2.7,1l-1.3,3.1
	c-0.7-0.3-1.4-0.6-2.1-0.9c-0.6-0.2-1.3-0.3-2-0.3c-0.5,0-0.9,0.1-1.3,0.3c-0.3,0.2-0.4,0.5-0.4,0.9c0,0.2,0,0.4,0.1,0.5
	c0.1,0.2,0.2,0.3,0.4,0.5c0.3,0.2,0.6,0.4,0.9,0.5l1.4,0.7c0.7,0.3,1.3,0.6,1.9,0.9c0.5,0.3,1,0.6,1.4,1c0.4,0.4,0.7,0.8,0.9,1.3
	C245.2,28.7,245.3,29.4,245.3,30L245.3,30z M248.2,14.3c0-0.4,0.1-0.7,0.2-1c0.1-0.3,0.3-0.5,0.5-0.7c0.2-0.2,0.5-0.3,0.8-0.4
	c0.3-0.1,0.6-0.1,0.9-0.1c0.3,0,0.6,0,0.9,0.1c0.3,0.1,0.5,0.2,0.8,0.4c0.2,0.2,0.4,0.4,0.5,0.7c0.3,0.7,0.3,1.4,0,2.1
	c-0.1,0.3-0.3,0.5-0.5,0.7c-0.2,0.2-0.5,0.3-0.8,0.4c-0.3,0.1-0.6,0.1-0.9,0.1c-0.3,0-0.6,0-0.9-0.1c-0.3-0.1-0.5-0.2-0.8-0.4
	c-0.2-0.2-0.4-0.4-0.5-0.7C248.2,15,248.1,14.7,248.2,14.3L248.2,14.3z M252.8,34.8h-4.4V18.5h4.4V34.8z M270.4,18.6V21l-2.4,0.7
	c0.2,0.3,0.3,0.7,0.4,1c0.1,0.4,0.1,0.8,0.1,1.1c0,0.8-0.1,1.5-0.4,2.3c-0.2,0.7-0.6,1.3-1.2,1.8c-0.6,0.5-1.2,0.9-1.9,1.1
	c-0.9,0.3-1.8,0.4-2.7,0.4l-0.7,0c-0.2,0-0.4,0-0.6-0.1c-0.2,0.1-0.3,0.3-0.5,0.5c-0.1,0.2-0.2,0.4-0.2,0.6c0,0.2,0.1,0.4,0.2,0.5
	c0.1,0.1,0.3,0.2,0.5,0.3c0.2,0.1,0.5,0.1,0.7,0.1l0.8,0h2.5c0.7,0,1.4,0.1,2.1,0.3c0.6,0.2,1.1,0.4,1.6,0.8c0.4,0.4,0.8,0.9,1,1.4
	c0.2,0.6,0.4,1.3,0.3,2c0,0.9-0.2,1.7-0.6,2.5c-0.4,0.8-1,1.4-1.7,1.9c-0.8,0.6-1.8,1-2.7,1.2c-1.2,0.3-2.5,0.4-3.8,0.4
	c-1,0-1.9-0.1-2.9-0.3c-0.7-0.2-1.4-0.5-2.1-0.9c-0.5-0.4-1-0.8-1.2-1.4c-0.3-0.6-0.4-1.2-0.4-1.9c0-0.5,0.1-1.1,0.3-1.5
	c0.2-0.4,0.5-0.8,0.8-1.1c0.3-0.3,0.7-0.6,1.2-0.8c0.4-0.2,0.9-0.3,1.3-0.5c-0.2-0.1-0.4-0.2-0.6-0.4c-0.2-0.2-0.4-0.3-0.5-0.5
	c-0.2-0.2-0.3-0.4-0.4-0.7c-0.1-0.2-0.2-0.5-0.2-0.8c0-0.3,0-0.6,0.1-0.8c0.1-0.3,0.2-0.5,0.4-0.7c0.2-0.2,0.4-0.4,0.7-0.6l0.9-0.6
	c-0.8-0.4-1.6-1-2-1.8c-0.5-0.9-0.8-1.9-0.7-2.9c0-0.8,0.1-1.6,0.4-2.3c0.3-0.7,0.7-1.3,1.2-1.8c0.6-0.5,1.2-0.9,1.9-1.1
	c0.9-0.3,1.8-0.4,2.7-0.4c0.2,0,0.4,0,0.7,0l0.7,0.1l0.7,0.1l0.5,0.1L270.4,18.6L270.4,18.6z M258.8,37.1c0,0.2,0.1,0.5,0.2,0.7
	c0.1,0.2,0.3,0.4,0.5,0.6c0.3,0.2,0.6,0.3,0.9,0.4c0.5,0.1,0.9,0.2,1.4,0.2c1.2,0.1,2.3-0.2,3.4-0.6c0.7-0.3,1.1-1,1.1-1.7
	c0.1-0.5-0.2-1-0.7-1.2c-0.7-0.2-1.5-0.3-2.2-0.3h-2.1c-0.3,0-0.6,0-0.8,0.1c-0.3,0.1-0.6,0.2-0.8,0.3c-0.3,0.2-0.5,0.4-0.6,0.6
	C258.8,36.4,258.8,36.8,258.8,37.1L258.8,37.1z M260.4,23.9c0,0.7,0.1,1.4,0.5,2.1c0.3,0.5,0.9,0.8,1.5,0.7c0.6,0.1,1.2-0.2,1.5-0.7
	c0.3-0.6,0.5-1.3,0.5-2.1c0-0.7-0.1-1.4-0.5-2.1c-0.3-0.5-0.9-0.8-1.5-0.8C261,21,260.4,22,260.4,23.9L260.4,23.9z M287,34.8h-4.4
	v-9.5c0.1-0.9-0.1-1.8-0.5-2.6c-0.4-0.6-1-0.9-1.7-0.9c-0.5,0-1,0.1-1.5,0.4c-0.4,0.2-0.7,0.6-0.9,1c-0.3,0.5-0.4,1.1-0.5,1.7
	c-0.1,0.8-0.2,1.5-0.1,2.3v7.7h-4.4V18.5h3.4l0.6,2.1h0.2c0.2-0.4,0.5-0.8,0.9-1.1c0.3-0.3,0.7-0.5,1.1-0.7c0.4-0.2,0.8-0.3,1.3-0.4
	c0.5-0.1,0.9-0.1,1.4-0.1c0.7,0,1.5,0.1,2.2,0.3c0.6,0.2,1.2,0.6,1.7,1.1c0.5,0.5,0.9,1.2,1.1,1.9c0.3,0.9,0.4,1.8,0.4,2.7L287,34.8
	z M79.6,52.2l0.9,0c0.3,0,0.6,0.1,0.9,0.1l-0.4,2.4l-0.8-0.1c-0.3,0-0.5,0-0.8-0.1c-1.2,0-2.3,0.5-3,1.4c-0.4,0.5-0.7,1.1-0.8,1.7
	c-0.2,0.7-0.3,1.4-0.3,2.1v8.6h-2.6v-16h2.2l0.3,2.9h0.1c0.2-0.4,0.5-0.8,0.8-1.2c0.3-0.4,0.6-0.7,0.9-1c0.3-0.3,0.7-0.5,1.2-0.7
	C78.6,52.3,79.1,52.2,79.6,52.2z"/>
<path class="st0" d="M90.1,68.8c-1,0-2-0.2-2.9-0.5c-0.9-0.3-1.6-0.9-2.3-1.6c-0.7-0.7-1.2-1.6-1.5-2.6c-0.4-1.1-0.5-2.3-0.5-3.5
	c0-1.2,0.1-2.4,0.5-3.5c0.3-1,0.7-1.9,1.4-2.6c0.6-0.7,1.3-1.3,2.1-1.7c1.7-0.7,3.6-0.8,5.3-0.1c0.8,0.3,1.4,0.8,1.9,1.5
	c0.6,0.7,1,1.4,1.2,2.3c0.3,0.9,0.4,1.9,0.4,2.9V61H85.6c-0.1,1.5,0.3,2.9,1.2,4.1c0.8,0.9,2.1,1.4,3.3,1.3c0.5,0,0.9,0,1.4-0.1
	c0.4,0,0.8-0.1,1.2-0.2l1.1-0.4c0.4-0.1,0.7-0.3,1.1-0.5v2.4c-0.4,0.2-0.8,0.3-1.1,0.5c-0.4,0.1-0.8,0.2-1.1,0.3
	c-0.4,0.1-0.8,0.2-1.2,0.2L90.1,68.8L90.1,68.8z M89.4,54.4c-1,0-2,0.4-2.6,1.1c-0.7,1-1.1,2.1-1.1,3.3h7.2c0-0.6-0.1-1.2-0.2-1.8
	c-0.1-0.5-0.3-1-0.6-1.4c-0.3-0.4-0.6-0.7-1.1-0.9C90.5,54.5,90,54.4,89.4,54.4L89.4,54.4z M108.8,64.1c0,0.7-0.1,1.4-0.4,2
	c-0.3,0.6-0.7,1.1-1.2,1.5c-0.6,0.4-1.2,0.7-1.9,0.9c-0.8,0.2-1.7,0.3-2.5,0.3c-0.9,0-1.8-0.1-2.7-0.3c-0.7-0.1-1.4-0.4-2-0.8v-2.4
	c0.3,0.2,0.6,0.3,1,0.5c0.4,0.2,0.8,0.3,1.2,0.4c0.4,0.1,0.8,0.2,1.3,0.3c0.4,0.1,0.9,0.1,1.3,0.1c0.5,0,1.1,0,1.6-0.2
	c0.4-0.1,0.7-0.2,1.1-0.5c0.3-0.2,0.5-0.4,0.6-0.7c0.1-0.3,0.2-0.6,0.2-1c0-0.3,0-0.6-0.1-0.8c-0.1-0.3-0.3-0.5-0.5-0.7
	c-0.3-0.3-0.7-0.5-1.1-0.7c-0.4-0.2-1-0.5-1.7-0.8s-1.3-0.6-1.9-0.9c-0.5-0.3-1-0.6-1.4-1c-0.4-0.3-0.7-0.8-0.9-1.2
	c-0.2-0.5-0.3-1.1-0.3-1.7c0-0.6,0.1-1.2,0.4-1.8c0.3-0.5,0.7-1,1.1-1.3c0.5-0.4,1.1-0.7,1.7-0.8c0.7-0.2,1.5-0.3,2.3-0.3
	c0.9,0,1.7,0.1,2.6,0.3c0.8,0.2,1.5,0.5,2.2,0.8l-0.9,2.1c-0.6-0.3-1.3-0.5-1.9-0.7c-0.7-0.2-1.3-0.3-2-0.3
	c-0.8-0.1-1.5,0.1-2.2,0.5c-0.5,0.3-0.7,0.8-0.7,1.4c0,0.3,0.1,0.6,0.2,0.9c0.1,0.3,0.3,0.5,0.6,0.7c0.3,0.3,0.7,0.5,1.1,0.7
	c0.5,0.2,1,0.5,1.7,0.8c0.7,0.3,1.3,0.6,1.9,0.9c0.5,0.3,1,0.6,1.4,1c0.4,0.3,0.7,0.8,0.9,1.2C108.8,63,108.9,63.5,108.8,64.1
	L108.8,64.1z M118.6,68.8c-1,0-2-0.2-2.9-0.5c-0.9-0.3-1.6-0.9-2.3-1.6c-0.7-0.7-1.2-1.6-1.5-2.6c-0.4-1.1-0.5-2.3-0.5-3.5
	c0-1.2,0.1-2.4,0.5-3.5c0.3-1,0.7-1.9,1.4-2.6c0.6-0.7,1.3-1.3,2.1-1.7c1.7-0.7,3.6-0.8,5.3-0.1c0.8,0.3,1.4,0.8,1.9,1.5
	c0.6,0.7,1,1.4,1.2,2.3c0.3,0.9,0.4,1.9,0.4,2.9V61h-10.1c-0.1,1.5,0.3,2.9,1.2,4.1c0.8,0.9,2.1,1.4,3.3,1.3c0.5,0,0.9,0,1.4-0.1
	c0.4,0,0.8-0.1,1.2-0.2l1.1-0.4c0.4-0.1,0.7-0.3,1.1-0.5v2.4c-0.4,0.2-0.8,0.3-1.1,0.5c-0.4,0.1-0.8,0.2-1.1,0.3
	c-0.4,0.1-0.8,0.2-1.2,0.2C119.6,68.8,119.1,68.8,118.6,68.8L118.6,68.8z M117.9,54.4c-1,0-2,0.4-2.6,1.1c-0.7,1-1.1,2.1-1.1,3.3
	h7.2c0-0.6-0.1-1.2-0.2-1.8c-0.1-0.5-0.3-1-0.6-1.4c-0.3-0.4-0.6-0.7-1.1-0.9C119,54.5,118.5,54.4,117.9,54.4L117.9,54.4z
	 M136.6,68.5l-0.5-2.2h-0.1c-0.3,0.4-0.6,0.8-1,1.1c-0.3,0.3-0.7,0.6-1,0.8c-0.4,0.2-0.8,0.4-1.3,0.5c-0.5,0.1-1.1,0.2-1.6,0.1
	c-0.6,0-1.3-0.1-1.8-0.3c-0.5-0.2-1-0.5-1.5-0.9c-0.4-0.4-0.8-0.9-1-1.5c-0.2-0.7-0.4-1.4-0.4-2.1c-0.1-1.4,0.6-2.8,1.7-3.7
	c1.5-1,3.3-1.5,5.1-1.4l2.7-0.1v-1c0-0.6-0.1-1.1-0.2-1.6c-0.1-0.4-0.3-0.8-0.6-1.1c-0.3-0.3-0.6-0.5-1-0.6
	c-0.4-0.1-0.9-0.2-1.3-0.2c-0.8,0-1.5,0.1-2.2,0.4c-0.7,0.2-1.4,0.5-2,0.8l-0.9-2c0.8-0.4,1.6-0.7,2.4-1c0.9-0.3,1.8-0.4,2.8-0.4
	c0.9,0,1.7,0.1,2.6,0.3c0.7,0.2,1.3,0.5,1.8,0.9c0.5,0.5,0.8,1,1.1,1.7c0.3,0.8,0.4,1.6,0.3,2.4v10.9L136.6,68.5L136.6,68.5z
	 M131.7,66.6c0.6,0,1.1-0.1,1.6-0.3c0.5-0.2,0.9-0.5,1.3-0.8c0.4-0.4,0.7-0.9,0.9-1.4c0.2-0.6,0.3-1.3,0.3-2v-1.4l-2.1,0.1
	c-0.7,0-1.5,0.1-2.2,0.3c-0.5,0.1-1,0.3-1.4,0.6c-0.3,0.3-0.6,0.6-0.8,1c-0.2,0.4-0.2,0.9-0.2,1.3c-0.1,0.7,0.2,1.4,0.7,2
	C130.4,66.4,131,66.7,131.7,66.6L131.7,66.6z M149.7,52.2l0.9,0c0.3,0,0.6,0.1,0.9,0.1l-0.4,2.4l-0.8-0.1c-0.3,0-0.5,0-0.8-0.1
	c-1.2,0-2.3,0.5-3,1.4c-0.4,0.5-0.7,1.1-0.8,1.7c-0.2,0.7-0.3,1.4-0.3,2.1v8.6h-2.6v-16h2.2l0.3,2.9h0.1c0.2-0.4,0.5-0.8,0.8-1.2
	c0.3-0.4,0.6-0.7,0.9-1c0.3-0.3,0.7-0.5,1.2-0.7C148.7,52.3,149.2,52.2,149.7,52.2L149.7,52.2z M160,68.8c-0.9,0-1.9-0.1-2.8-0.5
	c-0.8-0.3-1.6-0.8-2.2-1.5c-0.7-0.7-1.2-1.6-1.5-2.5c-0.4-1.2-0.6-2.5-0.5-3.7c0-1.3,0.2-2.6,0.6-3.9c0.3-1,0.8-1.8,1.5-2.6
	c0.6-0.7,1.4-1.2,2.3-1.4c0.9-0.3,1.8-0.5,2.8-0.5c0.7,0,1.5,0.1,2.2,0.2c0.6,0.1,1.2,0.3,1.8,0.6l-0.8,2.2
	c-0.2-0.1-0.5-0.2-0.7-0.3l-0.8-0.2l-0.9-0.2c-0.3,0-0.5-0.1-0.8-0.1c-1.3-0.1-2.5,0.4-3.3,1.5c-0.8,1.4-1.2,3-1,4.5
	c-0.1,1.6,0.2,3.1,1.1,4.5c0.8,1,2,1.5,3.2,1.4c0.7,0,1.4-0.1,2.1-0.3c0.6-0.2,1.2-0.4,1.7-0.6v2.4c-0.5,0.3-1.1,0.5-1.7,0.6
	C161.5,68.7,160.8,68.8,160,68.8L160,68.8z M177.1,68.5V58.2c0.1-1-0.2-2-0.8-2.8c-0.6-0.7-1.5-1-2.4-0.9c-0.7,0-1.4,0.1-2,0.4
	c-0.5,0.2-1,0.6-1.3,1.1c-0.4,0.6-0.6,1.2-0.7,1.8c-0.2,0.8-0.2,1.6-0.2,2.5v8.3h-2.6V45.9h2.6v6.7l-0.1,2.1h0.1
	c0.2-0.4,0.5-0.8,0.9-1.1c0.7-0.6,1.5-1,2.4-1.2c0.4-0.1,0.9-0.1,1.4-0.1c1.5-0.1,2.9,0.4,4,1.4c1,1.3,1.5,2.8,1.3,4.4v10.4
	L177.1,68.5z M196,68.8c-0.9,0-1.9-0.1-2.8-0.5c-0.8-0.3-1.6-0.8-2.2-1.5c-0.7-0.7-1.2-1.6-1.5-2.5c-0.4-1.2-0.6-2.5-0.5-3.7
	c0-1.3,0.2-2.6,0.6-3.9c0.3-1,0.8-1.8,1.5-2.6c0.6-0.7,1.4-1.2,2.3-1.4c0.9-0.3,1.8-0.5,2.8-0.5c0.7,0,1.5,0.1,2.2,0.2
	c0.6,0.1,1.2,0.3,1.8,0.6l-0.8,2.2c-0.2-0.1-0.5-0.2-0.7-0.3l-0.8-0.2l-0.9-0.2c-0.3,0-0.5-0.1-0.8-0.1c-1.3-0.1-2.5,0.4-3.3,1.5
	c-0.8,1.4-1.2,3-1,4.5c-0.1,1.6,0.2,3.1,1.1,4.5c0.8,1,2,1.5,3.2,1.4c0.7,0,1.4-0.1,2.1-0.3c0.6-0.2,1.2-0.4,1.7-0.6V68
	c-0.5,0.3-1.1,0.5-1.7,0.6C197.5,68.8,196.8,68.9,196,68.8L196,68.8z M209.2,68.8c-1,0-2-0.2-2.9-0.5c-0.9-0.3-1.6-0.9-2.3-1.6
	c-0.7-0.7-1.2-1.6-1.5-2.6c-0.4-1.1-0.5-2.3-0.5-3.5c0-1.2,0.1-2.4,0.5-3.5c0.3-1,0.7-1.9,1.4-2.6c0.6-0.7,1.3-1.3,2.1-1.7
	c1.7-0.7,3.6-0.8,5.3-0.1c0.8,0.3,1.4,0.8,1.9,1.5c0.6,0.7,1,1.4,1.2,2.3c0.3,0.9,0.4,1.9,0.4,2.9v1.6h-10.1
	c-0.1,1.5,0.3,2.9,1.2,4.1c0.8,0.9,2.1,1.4,3.3,1.3c0.5,0,0.9,0,1.4-0.1c0.4,0,0.8-0.1,1.2-0.2l1.1-0.4c0.4-0.1,0.7-0.3,1.1-0.5v2.4
	c-0.4,0.2-0.8,0.3-1.1,0.5c-0.4,0.1-0.8,0.2-1.1,0.3c-0.4,0.1-0.8,0.2-1.2,0.2L209.2,68.8L209.2,68.8z M208.6,54.5
	c-1,0-2,0.4-2.6,1.1c-0.7,1-1.1,2.1-1.1,3.3h7.2c0-0.6-0.1-1.2-0.2-1.8c-0.1-0.5-0.3-1-0.6-1.4c-0.3-0.4-0.6-0.7-1.1-0.9
	C209.6,54.6,209.1,54.5,208.6,54.5L208.6,54.5z M228.3,68.6V58.3c0.1-1-0.2-2-0.8-2.8c-0.6-0.7-1.5-1-2.4-0.9c-0.7,0-1.4,0.1-2,0.4
	c-0.5,0.2-1,0.6-1.3,1.1c-0.4,0.6-0.6,1.2-0.7,1.8c-0.2,0.8-0.2,1.6-0.2,2.5v8.3h-2.6v-16h2.2l0.4,2.2h0.1c0.2-0.4,0.5-0.8,0.9-1.1
	c0.7-0.6,1.5-1,2.4-1.2c0.4-0.1,0.9-0.1,1.4-0.1c1.5-0.1,2.9,0.4,4,1.4c1,1.3,1.5,2.8,1.3,4.4v10.4H228.3L228.3,68.6z M240.2,66.7
	l0.6,0l0.6-0.1l0.6-0.1l0.4-0.1v2c-0.2,0.1-0.3,0.1-0.5,0.2c-0.2,0.1-0.4,0.1-0.6,0.2l-0.7,0.1l-0.7,0c-0.6,0-1.1-0.1-1.7-0.2
	c-0.5-0.1-1-0.4-1.3-0.8c-0.4-0.4-0.7-1-0.9-1.5c-0.2-0.8-0.3-1.6-0.3-2.4v-9.3h-2.3v-1.2l2.3-1.1l1.1-3.3h1.5v3.7h4v2h-4v9.3
	c0,0.7,0.1,1.5,0.5,2.1C239,66.5,239.6,66.7,240.2,66.7L240.2,66.7z M252,52.3l0.9,0c0.3,0,0.6,0.1,0.9,0.1l-0.4,2.4l-0.8-0.1
	c-0.3,0-0.5,0-0.8-0.1c-1.2,0-2.3,0.5-3,1.4c-0.4,0.5-0.7,1.1-0.8,1.7c-0.2,0.7-0.3,1.4-0.3,2.1v8.6h-2.6v-16h2.2l0.3,2.9h0.1
	c0.2-0.4,0.5-0.8,0.8-1.2c0.3-0.4,0.6-0.7,0.9-1c0.3-0.3,0.7-0.5,1.2-0.7C251,52.4,251.5,52.3,252,52.3L252,52.3z M262.5,68.8
	c-1,0-2-0.2-2.9-0.5c-0.9-0.3-1.6-0.9-2.3-1.6c-0.7-0.7-1.2-1.6-1.5-2.6c-0.4-1.1-0.5-2.3-0.5-3.5c0-1.2,0.1-2.4,0.5-3.5
	c0.3-1,0.7-1.9,1.4-2.6c0.6-0.7,1.3-1.3,2.1-1.7c1.7-0.7,3.6-0.8,5.3-0.1c0.8,0.3,1.4,0.8,1.9,1.5c0.6,0.7,1,1.4,1.2,2.3
	c0.3,0.9,0.4,1.9,0.4,2.9v1.6h-10.1c-0.1,1.5,0.3,2.9,1.2,4.1c0.8,0.9,2.1,1.4,3.3,1.3c0.5,0,0.9,0,1.4-0.1c0.4,0,0.8-0.1,1.2-0.2
	l1.1-0.4c0.4-0.1,0.7-0.3,1.1-0.5v2.4c-0.4,0.2-0.8,0.3-1.1,0.5c-0.4,0.1-0.8,0.2-1.1,0.3c-0.4,0.1-0.8,0.2-1.2,0.2L262.5,68.8
	L262.5,68.8z M261.9,54.5c-1,0-2,0.4-2.6,1.1c-0.7,1-1.1,2.1-1.1,3.3h7.2c0-0.6-0.1-1.2-0.2-1.8c-0.1-0.5-0.3-1-0.6-1.4
	c-0.3-0.4-0.6-0.7-1.1-0.9C262.9,54.6,262.4,54.5,261.9,54.5L261.9,54.5z M20.2,11.8c6.3,10.4,14.2,23.3,19.1,34.4
	c2.6-3,6.7-7.6,10.4-11.3V9.2H18.6L20.2,11.8z M40.6,49.3c1.4,3.3,2.4,6.8,3,10.4c0.5,3.4-0.2,6.4-1.8,8.2c-0.9,1.1-2.2,1.7-3.6,1.7
	c-1.4-0.1-2.7-0.7-3.6-1.8c-1.7-2-2.6-4.6-2.3-7.3c0.5-4.3,2.1-8.3,4.8-11.7c-4.7-11.1-13-24.7-19.5-35.4l-2.5-4.2H0v64.6h49.7V39.2
	C46.1,42.9,42.6,46.9,40.6,49.3z M36.9,65.8c0.3,0.4,0.8,0.7,1.4,0.8c0.5,0,1-0.2,1.3-0.7c1-1.1,1.4-3.4,1.1-5.9
	c-0.4-2.7-1.1-5.4-2.1-7.9c-1.7,2.6-2.8,5.5-3.1,8.6C35.2,62.5,35.7,64.4,36.9,65.8L36.9,65.8z"/>
<circle class="st0" cx="55.1" cy="34.5" r="2.5"/>
<path class="st0" d="M17.9,3.2c0,1.6-1.3,3-3,3s-3-1.3-3-3s1.3-3,3-3c0,0,0,0,0,0C16.5,0.3,17.9,1.6,17.9,3.2L17.9,3.2z"/>
</svg>
