<svg xmlns="http://www.w3.org/2000/svg" width="159.457" height="132.876" viewBox="0 0 159.457 132.876"><g transform="translate(74.132 12.228)"><path d="M347.7,64.618a4.241,4.241,0,0,1-1.636-.311,4.021,4.021,0,0,1-1.3-.845,3.908,3.908,0,0,1-.857-1.254,3.843,3.843,0,0,1-.311-1.538v-.022a3.891,3.891,0,0,1,1.178-2.809,4.112,4.112,0,0,1,1.309-.851,4.458,4.458,0,0,1,3.272,0,4.026,4.026,0,0,1,1.3.845,3.9,3.9,0,0,1,.857,1.254,3.846,3.846,0,0,1,.311,1.538v.022a3.889,3.889,0,0,1-1.178,2.809,4.1,4.1,0,0,1-1.309.85A4.246,4.246,0,0,1,347.7,64.618Zm.016-1.909a1.907,1.907,0,0,0,.8-.164,1.824,1.824,0,0,0,.612-.442,2.042,2.042,0,0,0,.394-.649,2.17,2.17,0,0,0,.142-.785v-.022a2.171,2.171,0,0,0-.142-.785,2.013,2.013,0,0,0-.4-.655,1.989,1.989,0,0,0-.623-.452,1.855,1.855,0,0,0-.8-.169,1.875,1.875,0,0,0-.793.164A1.9,1.9,0,0,0,345.9,59.84a2.253,2.253,0,0,0-.137.786v.022a2.179,2.179,0,0,0,.142.785,2.063,2.063,0,0,0,.4.655,1.919,1.919,0,0,0,.618.452A1.848,1.848,0,0,0,347.719,62.709Z" transform="translate(-343.601 -56.677)" fill="#e0e8f9"/><path d="M391.6,64.617a4.022,4.022,0,0,1-1.538-.295,3.761,3.761,0,0,1-1.249-.824,3.968,3.968,0,0,1-1.151-2.831v-.022a3.986,3.986,0,0,1,1.145-2.82,3.834,3.834,0,0,1,1.271-.845,4.164,4.164,0,0,1,1.609-.306,4.6,4.6,0,0,1,1.069.115,3.654,3.654,0,0,1,.878.327,3.52,3.52,0,0,1,.72.507,4.209,4.209,0,0,1,.573.644L393.331,59.5a2.757,2.757,0,0,0-.72-.655,1.789,1.789,0,0,0-.949-.24,1.694,1.694,0,0,0-.736.158,1.753,1.753,0,0,0-.573.431,2.006,2.006,0,0,0-.377.643,2.253,2.253,0,0,0-.136.786v.022a2.334,2.334,0,0,0,.136.8,2,2,0,0,0,.377.649,1.76,1.76,0,0,0,.573.431,1.7,1.7,0,0,0,.736.158,2.094,2.094,0,0,0,.54-.065,1.659,1.659,0,0,0,.447-.191,2.426,2.426,0,0,0,.382-.295,4.366,4.366,0,0,0,.355-.376l1.592,1.135a5.65,5.65,0,0,1-.594.687,3.416,3.416,0,0,1-.731.545,3.8,3.8,0,0,1-.916.36A4.574,4.574,0,0,1,391.6,64.617Z" transform="translate(-378.153 -56.675)" fill="#e0e8f9"/><path d="M428.013,57.132h2.04l3.251,7.69h-2.269l-.556-1.364h-2.945l-.545,1.364h-2.225Zm1.854,4.691-.851-2.171-.862,2.171Z" transform="translate(-407.252 -57.033)" fill="#e0e8f9"/><path d="M469.912,57.385h2.945a5.547,5.547,0,0,1,1.827.278,3.856,3.856,0,0,1,1.352.779,3.335,3.335,0,0,1,.84,1.195,3.91,3.91,0,0,1,.289,1.522v.022a3.927,3.927,0,0,1-.295,1.532,3.446,3.446,0,0,1-.851,1.217,3.935,3.935,0,0,1-1.369.8,5.459,5.459,0,0,1-1.838.289h-2.9Zm2.981,5.76a2.26,2.26,0,0,0,1.533-.5,1.787,1.787,0,0,0,.58-1.429v-.022a1.79,1.79,0,0,0-.58-1.424,2.247,2.247,0,0,0-1.533-.507h-.865v3.884h.865Z" transform="translate(-442.66 -57.232)" fill="#e0e8f9"/><path d="M347.893,121.045a4.872,4.872,0,0,1-1.473-.207,2.856,2.856,0,0,1-1.113-.638,2.815,2.815,0,0,1-.7-1.091,4.461,4.461,0,0,1-.245-1.555v-4.287h2.16v4.243a1.728,1.728,0,0,0,.378,1.227,1.339,1.339,0,0,0,1.018.4,1.368,1.368,0,0,0,1.017-.382,1.631,1.631,0,0,0,.379-1.189v-4.3h2.16V117.5a4.476,4.476,0,0,1-.256,1.6,2.769,2.769,0,0,1-1.843,1.74A4.93,4.93,0,0,1,347.893,121.045Z" transform="translate(-344.195 -101.058)" fill="#e0e8f9"/><path d="M386.2,113.267h1.979l3.148,4.036v-4.036h2.084V120.9h-1.858l-3.269-4.189V120.9H386.2Z" transform="translate(-377.01 -101.057)" fill="#e0e8f9"/><path d="M428.97,113.267H431.1V120.9H428.97Z" transform="translate(-410.552 -101.057)" fill="#e0e8f9"/><path d="M444.466,113.267h2.367l1.734,4.832,1.734-4.832h2.323l-3.1,7.69h-1.964Z" transform="translate(-422.704 -101.057)" fill="#e0e8f9"/><path d="M487.819,113.267h6.13v1.8H489.9v1.156h3.665v1.669H489.9V119.1H494v1.8h-6.185v-7.635Z" transform="translate(-456.704 -101.057)" fill="#e0e8f9"/><path d="M524.756,113.267h3.611a4.466,4.466,0,0,1,1.494.218,2.557,2.557,0,0,1,.993.611,2.36,2.36,0,0,1,.676,1.778v.022a2.4,2.4,0,0,1-.425,1.461,2.684,2.684,0,0,1-1.145.883l1.822,2.662h-2.443L527.8,118.59h-.927V120.9h-2.116v-7.636Zm3.512,3.665a1.279,1.279,0,0,0,.84-.245.815.815,0,0,0,.294-.66V116a.791.791,0,0,0-.305-.682,1.4,1.4,0,0,0-.84-.224h-1.385v1.832h1.4Z" transform="translate(-485.672 -101.057)" fill="#e0e8f9"/><path d="M564.626,120.557a5.921,5.921,0,0,1-1.947-.319,4.715,4.715,0,0,1-1.631-.955l1.178-1.41a3.888,3.888,0,0,0,2.476.917,1.261,1.261,0,0,0,.649-.136.428.428,0,0,0,.224-.387v-.022a.41.41,0,0,0-.055-.212.554.554,0,0,0-.2-.18,2.111,2.111,0,0,0-.393-.169q-.245-.081-.638-.169-.611-.141-1.134-.31a3.463,3.463,0,0,1-.911-.436,1.858,1.858,0,0,1-.835-1.649V115.1a2.354,2.354,0,0,1,.2-.98,2.175,2.175,0,0,1,.589-.773,2.769,2.769,0,0,1,.933-.506,3.925,3.925,0,0,1,1.233-.18,5.488,5.488,0,0,1,1.751.258,4.412,4.412,0,0,1,1.391.763l-1.058,1.5a4.281,4.281,0,0,0-1.074-.562,3.243,3.243,0,0,0-1.063-.191.957.957,0,0,0-.573.142.42.42,0,0,0-.191.348v.022a.43.43,0,0,0,.06.229.543.543,0,0,0,.207.18,2.319,2.319,0,0,0,.4.164q.256.081.649.169a9.254,9.254,0,0,1,1.184.332,3.535,3.535,0,0,1,.9.463,1.851,1.851,0,0,1,.567.658,2.013,2.013,0,0,1,.2.92v.022a2.354,2.354,0,0,1-.224,1.046,2.24,2.24,0,0,1-.627.778,2.849,2.849,0,0,1-.971.49A4.441,4.441,0,0,1,564.626,120.557Z" transform="translate(-514.134 -100.58)" fill="#e0e8f9"/><path d="M599.58,113.267h2.127V120.9H599.58Z" transform="translate(-544.352 -101.057)" fill="#e0e8f9"/><path d="M617.79,115.121H615.5v-1.854h6.7v1.854h-2.291V120.9h-2.116v-5.781Z" transform="translate(-556.837 -101.057)" fill="#e0e8f9"/><path d="M653.807,118.045l-2.9-4.778h2.411l1.571,2.781,1.582-2.781h2.367l-2.9,4.745V120.9h-2.127v-2.858Z" transform="translate(-584.604 -101.057)" fill="#e0e8f9"/></g><path d="M159.457,0H62.087V31.3H0V97.412H62.087v35.464h39.535V97.412h57.835ZM62.087,93.339H3.969V35.377H62.087ZM97.654,128.8h-31.6V97.412h31.6V128.8Zm57.73-35.463H66.056V4.072h89.327Z" fill="#e0e8f9"/><path d="M73.768,213.235a7.943,7.943,0,0,0,.638-3.16v-.046a7.912,7.912,0,0,0-.638-3.152,8.04,8.04,0,0,0-1.754-2.568,8.27,8.27,0,0,0-2.659-1.733,9.19,9.19,0,0,0-6.715,0,8.382,8.382,0,0,0-2.684,1.743,7.992,7.992,0,0,0-2.416,5.756v.045a7.855,7.855,0,0,0,.639,3.148,7.97,7.97,0,0,0,1.753,2.572,8.289,8.289,0,0,0,2.662,1.734,9.151,9.151,0,0,0,6.712,0,8.5,8.5,0,0,0,2.687-1.746A7.942,7.942,0,0,0,73.768,213.235Zm-3.589-3.115a4.661,4.661,0,0,1-.307,1.684,4.439,4.439,0,0,1-.845,1.4,4.009,4.009,0,0,1-1.323.954,4.171,4.171,0,0,1-1.718.352,4.028,4.028,0,0,1-1.722-.364,4.163,4.163,0,0,1-1.33-.976,4.443,4.443,0,0,1-.858-1.4,4.749,4.749,0,0,1-.306-1.686v-.046a4.87,4.87,0,0,1,.295-1.683A4.1,4.1,0,0,1,64.229,206a4.084,4.084,0,0,1,1.712-.353,4.024,4.024,0,0,1,1.718.364,4.271,4.271,0,0,1,2.213,2.381,4.677,4.677,0,0,1,.307,1.686Z" transform="translate(-45.126 -158.371)" fill="#e0e8f9"/><path d="M189.282,216.091a11.668,11.668,0,0,0,1.142-1.305l-3.1-2.212a9.4,9.4,0,0,1-.669.7,5.027,5.027,0,0,1-.819.631,3.557,3.557,0,0,1-.966.415,4.473,4.473,0,0,1-1.159.14,3.662,3.662,0,0,1-1.592-.341,3.788,3.788,0,0,1-1.238-.934,4.414,4.414,0,0,1-.811-1.393,5.1,5.1,0,0,1-.292-1.717v-.046a4.951,4.951,0,0,1,.291-1.683,4.453,4.453,0,0,1,.812-1.384,3.77,3.77,0,0,1,1.239-.932,3.649,3.649,0,0,1,1.591-.342,3.916,3.916,0,0,1,2.047.518,5.863,5.863,0,0,1,1.45,1.294l3.109-2.408a8.794,8.794,0,0,0-1.1-1.216,7.242,7.242,0,0,0-3.27-1.7,9.392,9.392,0,0,0-2.2-.234,8.561,8.561,0,0,0-3.3.625,7.838,7.838,0,0,0-2.6,1.731,8.159,8.159,0,0,0-2.349,5.779v.045a8.163,8.163,0,0,0,2.359,5.8,7.733,7.733,0,0,0,2.558,1.685,8.291,8.291,0,0,0,3.153.606,9.477,9.477,0,0,0,2.341-.27,7.809,7.809,0,0,0,1.878-.737A7.1,7.1,0,0,0,189.282,216.091Z" transform="translate(-137.636 -158.37)" fill="#e0e8f9"/><path d="M193.495,329.755a8.026,8.026,0,0,0,.6-3.14v-.046a8.132,8.132,0,0,0-.59-3.12,6.858,6.858,0,0,0-1.717-2.44,7.929,7.929,0,0,0-2.77-1.6,11.529,11.529,0,0,0-3.764-.572h-6V334.48h5.908a11.307,11.307,0,0,0,3.784-.594,8.105,8.105,0,0,0,2.8-1.647A7.037,7.037,0,0,0,193.495,329.755Zm-3.626-3.071a3.844,3.844,0,0,1-1.258,3.077,4.85,4.85,0,0,1-3.281,1.08h-1.938v-8.364h1.938a4.816,4.816,0,0,1,3.282,1.093,3.864,3.864,0,0,1,1.257,3.067Z" transform="translate(-140.582 -250.051)" fill="#e0e8f9"/><path d="M360.809,502.266a8.712,8.712,0,0,0,.5-3.093v-8.2h-3.978V499.3a3.342,3.342,0,0,1-.786,2.434,2.844,2.844,0,0,1-2.1.792,2.769,2.769,0,0,1-2.1-.827,3.54,3.54,0,0,1-.784-2.508v-8.217h-3.979v8.3a8.648,8.648,0,0,0,.476,3.013,5.411,5.411,0,0,0,1.349,2.1,5.519,5.519,0,0,0,2.139,1.225,10.409,10.409,0,0,0,5.725,0,5.3,5.3,0,0,0,3.544-3.344Z" transform="translate(-272.587 -385.047)" fill="#e0e8f9"/><path d="M68.249,331.784l1.041,2.55h4.432l-6.658-15.749H62.995l-6.661,15.749h4.342l1.019-2.55Zm-3.256-8.457,2.1,5.314H62.873Z" transform="translate(-44.18 -249.85)" fill="#e0e8f9"/></svg>