<svg id="Layer_1" xmlns="http://www.w3.org/2000/svg" viewBox="0 0 286.6 59.7"><style>.st0{fill:#e0e8f9}.st1{fill:#ededed}</style><path class="st0" d="M36.3 25.4c-1.1 7.8-8.4 13.2-16.2 12S7 29.1 8.1 21.3c1.1-7.8 8.4-13.2 16.2-12 2.8.4 5.5 1.7 7.6 3.6 3.4-.6 6.8-.4 10.1.4-5.6-11-19-15.4-30-9.8s-15.3 19-9.7 29.9 19 15.3 29.9 9.7c5.8-3 10.1-8.4 11.6-14.8-2-1.8-4.7-2.8-7.5-2.9z"/><path class="st1" d="M36.3 25.4c-1.1 7.8-8.4 13.2-16.2 12S7 29.1 8.1 21.3c1.1-7.8 8.4-13.2 16.2-12 2.8.4 5.5 1.7 7.6 3.6 3.4-.6 6.8-.4 10.1.4-5.6-11-19-15.4-30-9.8s-15.3 19-9.7 29.9 19 15.3 29.9 9.7c5.8-3 10.1-8.4 11.6-14.8-2-1.8-4.7-2.8-7.5-2.9z"/><path class="st0" d="M36.1 15c-10.3 0-19.3 7.1-21.6 17.2 2.1 1.9 4.8 2.9 7.5 2.9 1.1-7.8 8.4-13.2 16.2-12 7.8 1.1 13.2 8.4 12 16.2-1.1 7.8-8.4 13.2-16.2 12-2.8-.4-5.5-1.7-7.6-3.6-3.4.6-6.8.4-10.1-.4 5.6 10.9 19 15.2 29.9 9.6s15.2-19 9.6-29.9C52 19.7 44.4 15 36.1 15z"/><path class="st1" d="M36.1 15c-10.3 0-19.3 7.1-21.6 17.2 2.1 1.9 4.8 2.9 7.5 2.9 1.1-7.8 8.4-13.2 16.2-12 7.8 1.1 13.2 8.4 12 16.2-1.1 7.8-8.4 13.2-16.2 12-2.8-.4-5.5-1.7-7.6-3.6-3.4.6-6.8.4-10.1-.4 5.6 10.9 19 15.2 29.9 9.6s15.2-19 9.6-29.9C52 19.7 44.4 15 36.1 15zM86.5 20.1c-.9-.8-2.1-1.4-3.3-1.8-.4-.1-.7-.2-1.1-.2-.1 0-.3-.1-.4 0 2.9-.9 5.2-3.2 6.1-6.1.3-1.3.3-2.7 0-4-1.5-5.9-7.4-7-9.1-7H64.6v35.9H79c4.8 0 9.1-3.2 10.4-7.9.1-.5.2-1 .2-1.6.1-2.7-1-5.5-3.1-7.3zm-17.1-9.3V5.3h8.3c3 .1 5.3 2.5 5.2 5.5-.1 2.8-2.4 5.1-5.2 5.2h-8.3v-5.2zm9.2 21.9h-9.2V20.2h9.2c3.3.2 5.8 2.9 5.7 6.2.1 3.3-2.4 6.1-5.7 6.3zM114.5 20.5c5.1-.4 8.9-4.7 8.9-9.7-.2-4.7-2.8-9.3-10-9.8H99.2v36h4.8V21.1h5.5l9.1 15.8h6.2l-10.3-16.4zM104 16.8V5.3h8.8c3.2.2 5.6 2.9 5.5 6.1-.2 3-2.5 5.3-5.5 5.5l-8.8-.1zM162.4 1h-13.7v35.9h13.7c9.8-.1 17.7-8.1 17.7-17.9 0-11.9-8.8-18-17.7-18zm.4 31.4h-9.3V5.5h9.4c4.8 0 12 4.5 12 13.5 0 7.9-5.3 12.4-12.1 13.4zM132.7 1h4.9v35.9h-4.9zM220.3 34.6c-4 2.1-8.4 3.2-12.9 3.3-13.2 0-19.9-8.4-19.9-18.9S195-.2 206.8 0c4.9.1 9 1.2 12.8 4.7l-3.4 3.6c-2.6-2.4-6-3.8-9.5-3.8-8.2 0-14 6.5-14 14.4s5.8 14.4 14.4 14.4c2.9.1 5.7-.6 8.3-1.8V21.3h-7.9v-4.6h12.8v17.9zM255 5.6V1h-23.2v36h24.1v-4.7h-19.2V20.8h17.1v-4.6h-17.1V5.5l18.3.1zM282.2 7.8c-1.6-2-4-3.2-6.6-3.2-4.7 0-7 3.1-7 5.8 0 3.1 2.7 4.8 7 6.1.4.1.9.2 1.3.3 1 .2 2 .6 3 1 1.2.5 2.4 1.1 3.4 1.9 1.1.8 2 1.9 2.6 3.1.8 2.1 1 4.3.5 6.5-.6 2.7-2.2 5.1-4.6 6.6-2.6 1.5-5.6 2.2-8.6 2.1-.9 0-1.1 0-1.6-.1 0 0-6.1-.6-8.9-4.9l3.9-3.4c1.7 2.4 4.4 3.8 7.3 3.8 4.1 0 7.5-2.6 7.5-5.8s-1.9-4.5-7.6-6.2c0 0-4.6-1.4-6.5-2.9-1.8-1.4-3.1-3.4-3.6-5.6-.3-1.7-.3-3.4.1-5.1.8-2.4 2.3-4.4 4.4-5.8 1.9-1.1 4-1.7 6.1-1.9h3.2s6.2.3 8.6 4.2l-3.9 3.5zM72.3 58.5h-1.8c-2.9-.3-5.2-2.7-5.3-5.7-.1-.7-.1-1.4 0-2.1.2-1.3.7-2.5 1.5-3.4 1.2-1.4 2.9-2.2 4.7-2.1 1.6-.1 3.1.7 4 2.1l1.2-.9c-1-1.3-2.5-2.1-4.1-2.3h-2.2c-3.5.4-6.2 3.2-6.6 6.7v1.8c0 6.2 6.2 7.3 6.2 7.3H72c2.9 0 4.9-2.6 4.9-2.6l-1.1-.9c-.8 1.1-2.1 1.9-3.5 2.1zM110.8 44.4l-6.5 14.9h1.4l1.8-3.9h7.9l1.7 3.9h1.6l-6.3-14.9h-1.6zm-2.8 9.7l3.4-8.1 3.4 8.1H108zM158.3 57.4l-9-13h-1.9v14.9h1.4V46.2l9.1 13.1h1.9V44.4h-1.4l-.1 13zM196.5 44.5h-1.4l-6.5 14.9h1.4l1.8-3.9h7.9l1.7 3.9h1.6l-6.5-14.9zm-4.2 9.6l3.4-8.1 3.4 8.1h-6.8zM236.7 44.5c-3.9.1-5.2 0-5.2 0v14.9h5c.5 0 6.8 0 7.6-6.6v-1.7c0-.6-.9-6.8-7.4-6.6zm6.2 8.1c-.7 5.3-6.1 5.5-6.1 5.5h-4V45.6h4.1c5 .1 6 5.6 6 5.6v1.4zM280 44.5h-1.4l-6.5 14.9h1.4l1.8-3.9h7.9l1.7 3.9h1.6L280 44.5zm-4.2 9.6l3.4-8.1 3.4 8.1h-6.8z"/></svg>