<?xml version="1.0" encoding="utf-8"?>
<!-- Generator: Adobe Illustrator 23.0.3, SVG Export Plug-In . SVG Version: 6.00 Build 0)  -->
<svg version="1.1" id="Layer_1" xmlns="http://www.w3.org/2000/svg" xmlns:xlink="http://www.w3.org/1999/xlink" x="0px" y="0px"
	 viewBox="0 0 892.4 212.7" style="enable-background:new 0 0 892.4 212.7;" xml:space="preserve">
<style type="text/css">
	.st0{fill:#EDEDED;}
</style>
<path class="st0" d="M177.9,71.4L173.6,3c-0.6-1.6-3.2-1.7-3.3,0C170,17.7,144,5.3,134.8,3.2C54.3-15.2,0.1,49.3,0,102.9
	c-0.1,69.5,45.8,107.3,105,107.4c47,0.1,70.9-30,78.6-62.6c1-4.1-3.6-3.2-4.6,0c-14.3,45.4-49.6,56.8-67.1,56.6
	c-38-0.6-73.4-31.3-74.7-101.3c-1.5-89.2,99.3-147.5,137.4-32.7C175.4,72.7,177.4,73.3,177.9,71.4L177.9,71.4z"/>
<path class="st0" d="M209.5,82.4c20.8-8.7,77.2-5.9,77.1,19.8l-0.1,79.1c0,21.6,21.3,29,27.3,14.5c1.9-1.9,5.2-0.6,3.6,2.8
	c-3.8,15.3-41.6,17.7-54.7-2.8c-72.6,52.7-118.7-51.3-32-52.9c27.1-4.1,30.1-19.7,30.1-30.6c0-27.1-14.2-29.6-22.7-29.6
	c-9,0-16.4,2.7-21.4,16.7C209.2,127.2,167.3,102.3,209.5,82.4L209.5,82.4z M229.2,204.1c17.2,2.2,32.6-13.4,32.6-28.7v-37.2
	C188.2,165.2,211.1,203,229.2,204.1z"/>
<path class="st0" d="M357.1,79.8l-35.3,4.6c-2.2,0.6-2.2,1.7,1.9,2.7c7.7,0.3,12.6,5.5,12.5,16.7l-0.1,82.4
	c0,9.9-13.8,18.5-16.7,19.7c-6.6,2.7,3.3,2.2,3.3,2.2l57.7,0.1c1.9,0,7.9,0.6,0.3-3c-8.8-3.3-18.3-10.4-18.3-18.9s0.1-61.9,0.1-61.9
	c0-26,17-40.2,33.7-40.2c17.5,0,32,3.9,32,40l-0.1,62.1c0,9-11.8,17.2-18.1,19.4c-4.1,1.1-5.8,2.5-2.2,2.5l61.6,0.1
	c3.3,0.3,4.7-0.8,1.7-1.6c-14.8-5.8-16.7-16.7-16.7-20.3l0.1-72.3c0-41.3-39.6-35.9-53.6-35.9c-17.5,0.3-36.1,11.2-38,16.1
	C362.3,80.9,360.7,79.5,357.1,79.8z M708.1,198.4c-6,10.4-20.8,12.8-39.2,12.8c-34.8,0-63.2-26.9-63.1-63.6
	c0-32.6,18.4-69.2,65.2-69.2c42.1,0,41.8,28.2,41.8,4.7l0-41.3c0-21.3-8.5-27.6-15-29.6c-9.6-3.3-21.9-3.9-2.2-3.8l36.7-0.8
	c2.1,0.1,2.5,0.6,2.5,3.8l-0.2,161.4c0,11.2,4.1,28.5,22.1,33.4c1.6,0.3,3.6,1.4,1.6,1.9l-39.9,4.3c-5.8,0.6-8.2-2.2-10.7-13.4
	 M672.5,204.7c21.8,0,36.4-8.4,36.4-59.3c0-48.4-14.5-60.2-36.3-60.2s-39.5,28.2-39.5,60.7S650.7,204.6,672.5,204.7z"/>
<path class="st0" d="M499.7,82.5c20.8-8.7,77.1-5.9,77.1,19.8l-0.1,79.1c0,21.6,21.3,29,27.4,14.5c1.9-1.9,5.2-0.5,3.5,2.7
	c-3.8,15.3-41.6,17.7-54.7-2.8c-72.5,52.7-118.7-51.3-32-52.9C548,139,551,123.4,551,112.4c0-27.1-14.2-29.6-22.7-29.6
	c-9,0-16.4,2.7-21.4,16.7C499.4,127.4,457.5,102.5,499.7,82.5L499.7,82.5z M518.2,204.3c17.2,2.2,32.6-13.4,32.6-28.7v-37.2
	C477.2,165.4,500.1,203.2,518.2,204.3z M784,83.1c20.8-8.7,77.2-5.9,77.2,19.8l-0.1,79.1c0,21.6,21.3,29,27.3,14.5
	c1.9-1.9,5.2-0.5,3.6,2.7c-3.8,15.3-41.6,17.8-54.7-2.8c-72.6,52.7-118.7-51.3-31.9-52.9c27.1-4.1,30.1-19.7,30.1-30.6
	c0-27.1-14.2-29.5-22.7-29.6c-9,0-16.4,2.7-21.3,16.7C783.7,128,741.8,103,784,83.1L784,83.1z M802.5,204.9
	c17.2,2.2,32.6-13.4,32.6-28.7V139C761.5,166,784.4,203.8,802.5,204.9z M751.9,69L752,7.7l30.1,0L782,69L751.9,69z M848.8,69.1
	l0.1-61.3l30.1,0l-0.1,61.3L848.8,69.1z M811.4,20.5l4.3-8.7l4.3,8.4c0.5,0.9,0.9,0.8,1.8,0.4l3.7-1.8L823,30.5
	c-0.5,2.3,0.8,3,2.2,1.4l5.3-5.6l1.4,3.2c0.5,1,1.2,0.8,2.1,0.6l5.4-1.1l-1.8,6.8V36c-0.2,0.9-0.7,1.6,0.3,2.1l1.9,1l-11.1,9.4
	c-1.2,1.2-0.8,1.5-0.3,2.9l1,3.2L819,52.6c-1.3-0.3-2.2-0.3-2.2,0.7l0.4,11.9h-3.1l0.4-11.9c0-1.2-0.9-1.1-3-0.7l-9.6,1.8l1.3-3.2
	c0.4-1.2,0.5-2-0.4-2.8l-11.4-9.3l2.1-1.3c0.6-0.5,0.6-1,0.3-2l-2.1-6.9l5.5,1.2c1.5,0.3,2,0,2.3-0.9l1.5-3.1l5.4,6.1
	c1,1.1,2.3,0.4,1.9-1.3l-2.6-12.8l4,2.3c0.6,0.4,1.3,0.5,1.7-0.3"/>
</svg>
