<svg data-name="Layer 1" xmlns="http://www.w3.org/2000/svg" width="892.41" height="212.67"><path d="M177.9 71.38l-4.32-68.42c-.55-1.64-3.24-1.66-3.26 0-.31 14.78-26.33 2.35-35.57.25C54.29-15.22.06 49.3 0 102.94c-.08 69.5 45.85 107.31 105 107.37 47 .05 70.89-30 78.59-62.58 1-4.08-3.63-3.24-4.65 0-14.27 45.41-49.61 56.83-67.08 56.58-38.04-.64-73.43-31.29-74.65-101.33-1.54-89.21 99.26-147.49 137.42-32.69.79 2.46 2.72 3 3.27 1.09z" fill="#ededed"/><path d="M209.51 82.36c20.79-8.74 77.15-5.94 77.13 19.78l-.09 79.09c0 21.62 21.31 29 27.33 14.53 1.92-1.92 5.22-.55 3.57 2.75-3.84 15.32-41.62 17.74-54.72-2.8-72.55 52.73-118.71-51.31-32-52.85 27.09-4.07 30.14-19.68 30.15-30.62 0-27.09-14.21-29.57-22.69-29.58-9 0-16.41 2.73-21.37 16.67-7.65 27.9-49.5 2.95-7.31-16.97zm19.7 121.79c17.22 2.23 32.58-13.37 32.6-28.7v-37.21c-73.62 27-50.67 64.79-32.6 65.91z" fill="#ededed"/><path d="M357.11 79.78l-35.29 4.61c-2.2.55-2.2 1.65 1.9 2.74 7.66.29 12.57 5.49 12.55 16.7l-.08 82.38c0 9.85-13.81 18.47-16.69 19.69-6.59 2.72 3.27 2.18 3.27 2.18l57.74.06c1.9 0 7.93.55.28-3-8.75-3.31-18.33-10.42-18.31-18.9s.06-61.86.06-61.86c0-26 17-40.19 33.7-40.18 17.51 0 32 3.87 32 40l-.06 62.13c0 9-11.79 17.22-18.07 19.39-4.1 1.08-5.77 2.46-2.21 2.46l61.57.07c3.29.29 4.68-.82 1.66-1.63-14.77-5.78-16.69-16.71-16.68-20.27l.07-72.26c.05-41.31-39.64-35.88-53.59-35.89-17.51.25-36.13 11.17-38 16.09-.61-13.4-2.25-14.78-5.82-14.51zM708.09 198.37c-6 10.41-20.8 12.83-39.16 12.82-34.75 0-63.18-26.9-63.14-63.55 0-32.57 18.44-69.21 65.22-69.16 42.12 0 41.81 28.23 41.83 4.7l.05-41.33c0-21.34-8.47-27.64-15-29.56-9.62-3.29-21.94-3.86-2.22-3.84l36.7-.78c2.06.11 2.45.55 2.45 3.84l-.18 161.44c0 11.23 4.1 28.46 22.14 33.41 1.64.28 3.57 1.36 1.63 1.91l-39.93 4.33c-5.77.57-8.21-2.18-10.67-13.42m-35.3 5.49c21.8 0 36.39-8.44 36.44-59.34 0-48.43-14.51-60.2-36.32-60.23s-39.52 28.22-39.55 60.7 17.63 58.8 39.43 58.87z" fill="#ededed"/><path d="M499.68 82.54c20.82-8.74 77.14-5.94 77.14 19.78l-.08 79.08c0 21.62 21.32 29 27.36 14.53 1.92-1.92 5.18-.54 3.54 2.74-3.84 15.33-41.6 17.74-54.74-2.8-72.54 52.74-118.7-51.29-32-52.85 27.1-4.06 30.14-19.66 30.15-30.62 0-27.08-14.19-29.56-22.69-29.57-9 0-16.41 2.73-21.36 16.68-7.62 27.9-49.47 2.95-7.32-16.97zm18.49 121.78c17.24 2.22 32.58-13.37 32.59-28.7v-37.2c-73.58 27-50.65 64.78-32.59 65.9zM783.99 83.1c20.83-8.72 77.18-5.93 77.16 19.79l-.09 79.08c0 21.62 21.34 29 27.35 14.54 1.92-1.92 5.2-.54 3.56 2.73-3.85 15.33-41.61 17.75-54.72-2.78-72.57 52.73-118.7-51.31-31.94-52.85 27.07-4.08 30.09-19.67 30.1-30.63 0-27.07-14.19-29.55-22.7-29.57-9 0-16.39 2.72-21.34 16.68-7.69 27.89-49.55 2.95-7.38-16.99zm18.51 121.8c17.23 2.2 32.56-13.37 32.58-28.7v-37.21c-73.63 27-50.67 64.8-32.58 65.91zM751.9323883 68.98714085l.0641932-61.29996639 30.0999835.03152064-.0641932 61.2999664zM848.8238512 69.08730917l.06418272-61.2899664 30.0899835.03151017-.06418273 61.2899664zM811.36 20.49l4.32-8.74 4.28 8.44c.5.89.93.81 1.79.4l3.67-1.81-2.4 11.76c-.5 2.31.84 3 2.23 1.42l5.25-5.58 1.38 3.17c.45 1 1.17.83 2.08.65l5.41-1.13-1.8 6.82v.14c-.21.89-.65 1.64.34 2.07l1.93 1-11.13 9.4c-1.15 1.19-.77 1.55-.34 2.86l1 3.16L819 52.63c-1.29-.32-2.17-.32-2.2.7l.42 11.92h-3.13l.44-11.88c0-1.17-.88-1.14-3-.71l-9.62 1.83 1.26-3.16c.42-1.21.52-2-.43-2.85l-11.38-9.29 2.11-1.28c.6-.46.63-1 .3-2l-2.13-6.94 5.5 1.19c1.54.34 2 0 2.34-.86l1.53-3.13 5.42 6.13c.95 1.14 2.32.38 1.86-1.25l-2.57-12.78 4 2.33c.64.39 1.3.49 1.69-.25" fill="#ededed"/></svg>