<?xml version="1.0" encoding="utf-8"?>
<!-- Generator: Adobe Illustrator 23.0.3, SVG Export Plug-In . SVG Version: 6.00 Build 0)  -->
<svg version="1.1" id="Layer_1" xmlns="http://www.w3.org/2000/svg" xmlns:xlink="http://www.w3.org/1999/xlink" x="0px" y="0px"
	 viewBox="0 0 286.6 59.7" style="enable-background:new 0 0 286.6 59.7;" xml:space="preserve">
<style type="text/css">
	.st0{fill:#E0E8F9;}
	.st1{fill:#EDEDED;}
	.st2{fill:none;stroke:#231F20;stroke-miterlimit:10;}
</style>
<path class="st0" d="M36.3,25.4c-1.1,7.8-8.4,13.2-16.2,12S7,29.1,8.1,21.3c1.1-7.8,8.4-13.2,16.2-12c2.8,0.4,5.5,1.7,7.6,3.6
	c3.4-0.6,6.8-0.4,10.1,0.4C36.4,2.3,23-2.1,12,3.5s-15.3,19-9.7,29.9s19,15.3,29.9,9.7c5.8-3,10.1-8.4,11.6-14.8
	C41.8,26.5,39.1,25.5,36.3,25.4z"/>
<path class="st1" d="M36.3,25.4c-1.1,7.8-8.4,13.2-16.2,12S7,29.1,8.1,21.3c1.1-7.8,8.4-13.2,16.2-12c2.8,0.4,5.5,1.7,7.6,3.6
	c3.4-0.6,6.8-0.4,10.1,0.4C36.4,2.3,23-2.1,12,3.5s-15.3,19-9.7,29.9s19,15.3,29.9,9.7c5.8-3,10.1-8.4,11.6-14.8
	C41.8,26.5,39.1,25.5,36.3,25.4z"/>
<path class="st0" d="M36.1,15c-10.3,0-19.3,7.1-21.6,17.2c2.1,1.9,4.8,2.9,7.5,2.9c1.1-7.8,8.4-13.2,16.2-12
	c7.8,1.1,13.2,8.4,12,16.2c-1.1,7.8-8.4,13.2-16.2,12c0,0,0,0,0,0c-2.8-0.4-5.5-1.7-7.6-3.6c-3.4,0.6-6.8,0.4-10.1-0.4
	c5.6,10.9,19,15.2,29.9,9.6s15.2-19,9.6-29.9C52,19.7,44.4,15,36.1,15z"/>
<path class="st1" d="M36.1,15c-10.3,0-19.3,7.1-21.6,17.2c2.1,1.9,4.8,2.9,7.5,2.9c1.1-7.8,8.4-13.2,16.2-12
	c7.8,1.1,13.2,8.4,12,16.2c-1.1,7.8-8.4,13.2-16.2,12c0,0,0,0,0,0c-2.8-0.4-5.5-1.7-7.6-3.6c-3.4,0.6-6.8,0.4-10.1-0.4
	c5.6,10.9,19,15.2,29.9,9.6s15.2-19,9.6-29.9C52,19.7,44.4,15,36.1,15z"/>
<path class="st1" d="M86.5,20.1c-0.9-0.8-2.1-1.4-3.3-1.8c-0.4-0.1-0.7-0.2-1.1-0.2c-0.1,0-0.3-0.1-0.4,0c2.9-0.9,5.2-3.2,6.1-6.1
	c0.3-1.3,0.3-2.7,0-4C86.3,2.1,80.4,1,78.7,1H64.6v35.9H79c4.8,0,9.1-3.2,10.4-7.9c0.1-0.5,0.2-1,0.2-1.6
	C89.7,24.7,88.6,21.9,86.5,20.1z M69.4,10.8V5.3h8.3c3,0.1,5.3,2.5,5.2,5.5c-0.1,2.8-2.4,5.1-5.2,5.2h-8.3V10.8z M78.6,32.7h-9.2
	V20.2h9.2c3.3,0.2,5.8,2.9,5.7,6.2C84.4,29.7,81.9,32.5,78.6,32.7L78.6,32.7z"/>
<path class="st1" d="M114.5,20.5L114.5,20.5c5.1-0.4,8.9-4.7,8.9-9.7c-0.2-4.7-2.8-9.3-10-9.8H99.2v36h4.8V21.1h5.5l9.1,15.8h6.2
	L114.5,20.5z M104,16.8V5.3h8.8c3.2,0.2,5.6,2.9,5.5,6.1c-0.2,3-2.5,5.3-5.5,5.5L104,16.8L104,16.8z"/>
<path class="st2" d="M162.8,33.7"/>
<path class="st1" d="M162.4,1h-13.7v35.9h13.7c9.8-0.1,17.7-8.1,17.7-17.9C180.1,7.1,171.3,1,162.4,1z M162.8,32.4h-9.3V5.5h9.4
	c4.8,0,12,4.5,12,13.5C174.9,26.9,169.6,31.4,162.8,32.4z"/>
<rect x="132.7" y="1" class="st1" width="4.9" height="35.9"/>
<path class="st1" d="M220.3,34.6c-4,2.1-8.4,3.2-12.9,3.3c-13.2,0-19.9-8.4-19.9-18.9S195-0.2,206.8,0c4.9,0.1,9,1.2,12.8,4.7
	l-3.4,3.6c-2.6-2.4-6-3.8-9.5-3.8c-8.2,0-14,6.5-14,14.4s5.8,14.4,14.4,14.4c2.9,0.1,5.7-0.6,8.3-1.8V21.3h-7.9v-4.6h12.8
	L220.3,34.6L220.3,34.6z"/>
<path class="st1" d="M255,5.6V1h-23.2v36h24.1v-4.7h-19.2V20.8h17.1v-4.6h-17.1V5.5L255,5.6z"/>
<path class="st1" d="M282.2,7.8c-1.6-2-4-3.2-6.6-3.2c-4.7,0-7,3.1-7,5.8c0,3.1,2.7,4.8,7,6.1c0.4,0.1,0.9,0.2,1.3,0.3
	c1,0.2,2,0.6,3,1c1.2,0.5,2.4,1.1,3.4,1.9c1.1,0.8,2,1.9,2.6,3.1c0.8,2.1,1,4.3,0.5,6.5c-0.6,2.7-2.2,5.1-4.6,6.6
	c-2.6,1.5-5.6,2.2-8.6,2.1c-0.9,0-1.1,0-1.6-0.1c0,0-6.1-0.6-8.9-4.9l3.9-3.4c1.7,2.4,4.4,3.8,7.3,3.8c4.1,0,7.5-2.6,7.5-5.8
	s-1.9-4.5-7.6-6.2c0,0-4.6-1.4-6.5-2.9c-1.8-1.4-3.1-3.4-3.6-5.6c-0.3-1.7-0.3-3.4,0.1-5.1c0.8-2.4,2.3-4.4,4.4-5.8
	c1.9-1.1,4-1.7,6.1-1.9h3.2c0,0,6.2,0.3,8.6,4.2L282.2,7.8z"/>
<path class="st1" d="M72.3,58.5h-1.8c-2.9-0.3-5.2-2.7-5.3-5.7c-0.1-0.7-0.1-1.4,0-2.1c0.2-1.3,0.7-2.5,1.5-3.4
	c1.2-1.4,2.9-2.2,4.7-2.1c1.6-0.1,3.1,0.7,4,2.1l1.2-0.9c-1-1.3-2.5-2.1-4.1-2.3h-2.2c-3.5,0.4-6.2,3.2-6.6,6.7v1.8
	c0,6.2,6.2,7.3,6.2,7.3H72c2.9,0,4.9-2.6,4.9-2.6l-1.1-0.9C75,57.5,73.7,58.3,72.3,58.5z"/>
<path class="st1" d="M110.8,44.4l-6.5,14.9h1.4l1.8-3.9h7.9l1.7,3.9h1.6l-6.3-14.9L110.8,44.4z M108,54.1l3.4-8.1l3.4,8.1H108z"/>
<path class="st1" d="M158.3,57.4l-9-13h-1.9v14.9h1.4V46.2l9.1,13.1h1.9V44.4h-1.4L158.3,57.4z"/>
<path class="st1" d="M196.5,44.5h-1.4l-6.5,14.9h1.4l1.8-3.9h7.9l1.7,3.9h1.6L196.5,44.5z M192.3,54.1l3.4-8.1l3.4,8.1H192.3z"/>
<path class="st1" d="M236.7,44.5c-3.9,0.1-5.2,0-5.2,0v14.9h5c0.5,0,6.8,0,7.6-6.6v-1.7C244.1,50.5,243.2,44.3,236.7,44.5z
	 M242.9,52.6c-0.7,5.3-6.1,5.5-6.1,5.5h-4V45.6c0,0,1.2,0,4.1,0c5,0.1,6,5.6,6,5.6L242.9,52.6z"/>
<path class="st1" d="M280,44.5h-1.4l-6.5,14.9h1.4l1.8-3.9h7.9l1.7,3.9h1.6L280,44.5z M275.8,54.1l3.4-8.1l3.4,8.1H275.8z"/>
</svg>
