<?xml version="1.0" encoding="utf-8"?>
<!-- Generator: Adobe Illustrator 23.0.3, SVG Export Plug-In . SVG Version: 6.00 Build 0)  -->
<svg version="1.1" id="Layer_1" xmlns="http://www.w3.org/2000/svg" xmlns:xlink="http://www.w3.org/1999/xlink" x="0px" y="0px"
	 viewBox="0 0 159.5 132.9" style="enable-background:new 0 0 159.5 132.9;" xml:space="preserve">
<style type="text/css">
	.st0{fill:#EDEDED;}
</style>
<g transform="translate(74.132 12.228)">
	<path class="st0" d="M4.1,7.9C3.5,7.9,3,7.8,2.5,7.6C2,7.4,1.5,7.1,1.2,6.8C0.8,6.4,0.5,6,0.3,5.5C0.1,5,0,4.5,0,4v0
		c0-1.1,0.4-2.1,1.2-2.8C1.6,0.8,2,0.5,2.5,0.3c1.1-0.4,2.2-0.4,3.3,0c0.5,0.2,0.9,0.5,1.3,0.8c0.4,0.4,0.7,0.8,0.9,1.3
		c0.2,0.5,0.3,1,0.3,1.5v0C8.2,5,7.8,6,7,6.8C6.7,7.1,6.2,7.4,5.7,7.6C5.2,7.8,4.7,7.9,4.1,7.9z M4.1,6C4.4,6,4.7,6,4.9,5.9
		c0.2-0.1,0.4-0.3,0.6-0.4C5.7,5.2,5.8,5,5.9,4.8C6,4.5,6.1,4.3,6.1,4v0c0-0.3,0-0.5-0.1-0.8C5.8,2.9,5.7,2.7,5.5,2.5
		C5.3,2.3,5.1,2.2,4.9,2.1C4.6,2,4.4,1.9,4.1,1.9C3.8,1.9,3.6,2,3.3,2.1c-0.5,0.2-0.8,0.6-1,1.1C2.2,3.4,2.2,3.7,2.2,3.9v0
		c0,0.3,0,0.5,0.1,0.8C2.4,5,2.5,5.2,2.7,5.4c0.2,0.2,0.4,0.3,0.6,0.5C3.6,6,3.8,6,4.1,6L4.1,6z"/>
	<path class="st0" d="M13.4,7.9c-0.5,0-1-0.1-1.5-0.3c-0.5-0.2-0.9-0.5-1.2-0.8C9.9,6.1,9.5,5.1,9.5,4v0c0-1.1,0.4-2.1,1.1-2.8
		c0.4-0.4,0.8-0.7,1.3-0.8C12.4,0.1,13,0,13.5,0c0.4,0,0.7,0,1.1,0.1c0.3,0.1,0.6,0.2,0.9,0.3c0.3,0.1,0.5,0.3,0.7,0.5
		c0.2,0.2,0.4,0.4,0.6,0.6l-1.6,1.2c-0.2-0.3-0.4-0.5-0.7-0.7c-0.3-0.2-0.6-0.2-0.9-0.2c-0.3,0-0.5,0.1-0.7,0.2
		c-0.2,0.1-0.4,0.2-0.6,0.4c-0.2,0.2-0.3,0.4-0.4,0.6c-0.1,0.3-0.1,0.5-0.1,0.8v0c0,0.3,0,0.5,0.1,0.8C11.9,5,12,5.2,12.2,5.4
		c0.2,0.2,0.4,0.3,0.6,0.4C13,6,13.3,6,13.5,6c0.2,0,0.4,0,0.5-0.1c0.2,0,0.3-0.1,0.4-0.2c0.1-0.1,0.3-0.2,0.4-0.3
		c0.1-0.1,0.2-0.2,0.4-0.4l1.6,1.1c-0.2,0.2-0.4,0.5-0.6,0.7c-0.2,0.2-0.5,0.4-0.7,0.5c-0.3,0.2-0.6,0.3-0.9,0.4
		C14.2,7.9,13.8,7.9,13.4,7.9z"/>
	<path class="st0" d="M20.8,0.1h2l3.3,7.7h-2.3l-0.6-1.4h-2.9l-0.5,1.4h-2.2L20.8,0.1z M22.6,4.8l-0.9-2.2l-0.9,2.2H22.6z"/>
	<path class="st0" d="M27.3,0.2h2.9c0.6,0,1.2,0.1,1.8,0.3c0.5,0.2,1,0.4,1.4,0.8c0.4,0.3,0.7,0.7,0.8,1.2c0.2,0.5,0.3,1,0.3,1.5v0
		c0,0.5-0.1,1-0.3,1.5c-0.2,0.5-0.5,0.9-0.9,1.2C33,7.1,32.5,7.3,32,7.5c-0.6,0.2-1.2,0.3-1.8,0.3h-2.9L27.3,0.2z M30.2,5.9
		c0.6,0,1.1-0.2,1.5-0.5C32.2,5,32.4,4.5,32.3,4v0c0-0.5-0.2-1.1-0.6-1.4c-0.4-0.4-1-0.5-1.5-0.5h-0.9v3.9L30.2,5.9L30.2,5.9z"/>
	<path class="st0" d="M3.7,20c-0.5,0-1-0.1-1.5-0.2c-0.4-0.1-0.8-0.3-1.1-0.6c-0.3-0.3-0.6-0.7-0.7-1.1c-0.2-0.5-0.3-1-0.2-1.6v-4.3
		h2.2v4.2c0,0.4,0.1,0.9,0.4,1.2c0.3,0.3,0.6,0.4,1,0.4c0.4,0,0.7-0.1,1-0.4c0.3-0.3,0.4-0.8,0.4-1.2v-4.3h2.2v4.2
		C7.3,17,7.2,17.5,7,18c-0.3,0.8-1,1.5-1.8,1.7C4.7,19.9,4.2,20,3.7,20z"/>
	<path class="st0" d="M9.2,12.2h2l3.1,4v-4h2.1v7.6h-1.9l-3.3-4.2v4.2H9.2V12.2z"/>
	<path class="st0" d="M18.4,12.2h2.1v7.6h-2.1V12.2z"/>
	<path class="st0" d="M21.8,12.2h2.4l1.7,4.8l1.7-4.8h2.3l-3.1,7.7h-2L21.8,12.2z"/>
	<path class="st0" d="M31.1,12.2h6.1V14h-4v1.2h3.7v1.7h-3.7V18h4.1v1.8h-6.2L31.1,12.2L31.1,12.2z"/>
	<path class="st0" d="M39.1,12.2h3.6c0.5,0,1,0.1,1.5,0.2c0.4,0.1,0.7,0.3,1,0.6c0.5,0.5,0.7,1.1,0.7,1.8v0c0,0.5-0.1,1-0.4,1.5
		c-0.3,0.4-0.7,0.7-1.1,0.9l1.8,2.7h-2.4l-1.5-2.3h-0.9v2.3h-2.1L39.1,12.2L39.1,12.2z M42.6,15.9c0.3,0,0.6-0.1,0.8-0.2
		c0.2-0.2,0.3-0.4,0.3-0.7v0c0-0.3-0.1-0.5-0.3-0.7c-0.2-0.2-0.5-0.2-0.8-0.2h-1.4v1.8L42.6,15.9L42.6,15.9z"/>
	<path class="st0" d="M50.5,20c-0.7,0-1.3-0.1-1.9-0.3c-0.6-0.2-1.2-0.5-1.6-1l1.2-1.4c0.7,0.6,1.6,0.9,2.5,0.9c0.2,0,0.4,0,0.6-0.1
		c0.1-0.1,0.2-0.2,0.2-0.4v0c0-0.1,0-0.1-0.1-0.2c-0.1-0.1-0.1-0.1-0.2-0.2c-0.1-0.1-0.3-0.1-0.4-0.2c-0.2-0.1-0.4-0.1-0.6-0.2
		c-0.4-0.1-0.8-0.2-1.1-0.3c-0.3-0.1-0.6-0.2-0.9-0.4c-0.6-0.4-0.9-1-0.8-1.6v0c0-0.3,0.1-0.7,0.2-1c0.1-0.3,0.3-0.6,0.6-0.8
		c0.3-0.2,0.6-0.4,0.9-0.5c0.4-0.1,0.8-0.2,1.2-0.2c0.6,0,1.2,0.1,1.8,0.3c0.5,0.2,1,0.4,1.4,0.8l-1.1,1.5c-0.3-0.2-0.7-0.4-1.1-0.6
		c-0.3-0.1-0.7-0.2-1.1-0.2c-0.2,0-0.4,0-0.6,0.1c-0.1,0.1-0.2,0.2-0.2,0.3v0c0,0.1,0,0.2,0.1,0.2c0.1,0.1,0.1,0.1,0.2,0.2
		c0.1,0.1,0.3,0.1,0.4,0.2c0.2,0.1,0.4,0.1,0.6,0.2c0.4,0.1,0.8,0.2,1.2,0.3c0.3,0.1,0.6,0.3,0.9,0.5c0.2,0.2,0.4,0.4,0.6,0.7
		c0.1,0.3,0.2,0.6,0.2,0.9v0c0,0.4-0.1,0.7-0.2,1c-0.1,0.3-0.4,0.6-0.6,0.8c-0.3,0.2-0.6,0.4-1,0.5C51.3,19.9,50.9,20,50.5,20z"/>
	<path class="st0" d="M55.2,12.2h2.1v7.6h-2.1V12.2z"/>
	<path class="st0" d="M61,14.1h-2.3v-1.9h6.7v1.9h-2.3v5.8H61L61,14.1L61,14.1z"/>
	<path class="st0" d="M69.2,17l-2.9-4.8h2.4l1.6,2.8l1.6-2.8h2.4L71.3,17v2.9h-2.1L69.2,17L69.2,17z"/>
</g>
<path class="st0" d="M159.5,0H62.1v31.3H0v66.1h62.1v35.5h39.5V97.4h57.8V0z M62.1,93.3H4v-58h58.1V93.3z M97.7,128.8H66.1V97.4
	h31.6V128.8z M155.4,93.3H66.1V4.1h89.3L155.4,93.3z"/>
<path class="st0" d="M28.6,54.9c0.4-1,0.6-2.1,0.6-3.2v0c0-1.1-0.2-2.2-0.6-3.2c-0.4-1-1-1.8-1.8-2.6c-0.8-0.7-1.7-1.3-2.7-1.7
	c-2.2-0.8-4.6-0.8-6.7,0c-1,0.4-1.9,1-2.7,1.7c-1.6,1.5-2.4,3.6-2.4,5.8v0c0,1.1,0.2,2.2,0.6,3.1c0.4,1,1,1.8,1.8,2.6
	c0.8,0.7,1.7,1.3,2.7,1.7c2.2,0.9,4.6,0.9,6.7,0c1-0.4,1.9-1,2.7-1.7C27.6,56.7,28.2,55.8,28.6,54.9z M25.1,51.7
	c0,0.6-0.1,1.1-0.3,1.7c-0.2,0.5-0.5,1-0.8,1.4c-0.4,0.4-0.8,0.7-1.3,1c-0.5,0.2-1.1,0.4-1.7,0.4c-0.6,0-1.2-0.1-1.7-0.4
	c-0.5-0.2-1-0.6-1.3-1c-0.4-0.4-0.7-0.9-0.9-1.4c-0.2-0.5-0.3-1.1-0.3-1.7v0c0-0.6,0.1-1.1,0.3-1.7c0.4-1,1.2-1.9,2.2-2.4
	c0.5-0.2,1.1-0.4,1.7-0.4c0.6,0,1.2,0.1,1.7,0.4c1,0.5,1.8,1.3,2.2,2.4C25,50.6,25.1,51.1,25.1,51.7L25.1,51.7z"/>
<path class="st0" d="M51.6,57.7c0.4-0.4,0.8-0.8,1.1-1.3l-3.1-2.2c-0.2,0.2-0.4,0.5-0.7,0.7c-0.3,0.2-0.5,0.4-0.8,0.6
	c-0.3,0.2-0.6,0.3-1,0.4c-0.4,0.1-0.8,0.1-1.2,0.1c-0.5,0-1.1-0.1-1.6-0.3c-0.5-0.2-0.9-0.5-1.2-0.9c-0.4-0.4-0.6-0.9-0.8-1.4
	c-0.2-0.6-0.3-1.1-0.3-1.7v0c0-0.6,0.1-1.1,0.3-1.7c0.2-0.5,0.5-1,0.8-1.4c0.3-0.4,0.8-0.7,1.2-0.9c0.5-0.2,1-0.3,1.6-0.3
	c0.7,0,1.4,0.2,2,0.5c0.6,0.3,1,0.8,1.4,1.3l3.1-2.4c-0.3-0.4-0.7-0.8-1.1-1.2c-0.9-0.8-2.1-1.4-3.3-1.7c-0.7-0.2-1.5-0.2-2.2-0.2
	c-1.1,0-2.3,0.2-3.3,0.6c-1,0.4-1.9,1-2.6,1.7c-1.5,1.5-2.4,3.6-2.3,5.8v0c0,2.2,0.8,4.3,2.4,5.8c0.7,0.7,1.6,1.3,2.6,1.7
	c1,0.4,2.1,0.6,3.2,0.6c0.8,0,1.6-0.1,2.3-0.3c0.7-0.2,1.3-0.4,1.9-0.7C50.7,58.5,51.2,58.2,51.6,57.7z"/>
<path class="st0" d="M52.9,79.7c0.4-1,0.6-2.1,0.6-3.1v0c0-1.1-0.2-2.1-0.6-3.1c-0.4-0.9-1-1.8-1.7-2.4c-0.8-0.7-1.7-1.3-2.8-1.6
	c-1.2-0.4-2.5-0.6-3.8-0.6h-6v15.6h5.9c1.3,0,2.6-0.2,3.8-0.6c1-0.4,2-0.9,2.8-1.6C51.9,81.5,52.5,80.6,52.9,79.7z M49.3,76.6
	c0.1,1.2-0.4,2.3-1.3,3.1c-0.9,0.8-2.1,1.1-3.3,1.1h-1.9v-8.4h1.9c1.2-0.1,2.4,0.3,3.3,1.1C48.9,74.3,49.4,75.4,49.3,76.6L49.3,76.6
	z"/>
<path class="st0" d="M88.2,117.2c0.4-1,0.5-2,0.5-3.1v-8.2h-4v8.3c0.1,0.9-0.2,1.8-0.8,2.4c-0.6,0.5-1.3,0.8-2.1,0.8
	c-0.8,0-1.5-0.3-2.1-0.8c-0.6-0.7-0.9-1.6-0.8-2.5v-8.2h-4v8.3c0,1,0.1,2,0.5,3c0.3,0.8,0.7,1.5,1.3,2.1c0.6,0.6,1.3,1,2.1,1.2
	c1.9,0.5,3.9,0.5,5.7,0C86.3,120.1,87.7,118.8,88.2,117.2L88.2,117.2z"/>
<path class="st0" d="M24.1,81.9l1,2.5h4.4l-6.7-15.7h-4.1l-6.7,15.7h4.3l1-2.5H24.1z M20.8,73.5l2.1,5.3h-4.2L20.8,73.5z"/>
</svg>
