<svg id="Layer_1" xmlns="http://www.w3.org/2000/svg" viewBox="0 0 892.4 212.7"><style>.st0{fill:#ededed}</style><path class="st0" d="M177.9 71.4L173.6 3c-.6-1.6-3.2-1.7-3.3 0-.3 14.7-26.3 2.3-35.5.2C54.3-15.2.1 49.3 0 102.9c-.1 69.5 45.8 107.3 105 107.4 47 .1 70.9-30 78.6-62.6 1-4.1-3.6-3.2-4.6 0-14.3 45.4-49.6 56.8-67.1 56.6-38-.6-73.4-31.3-74.7-101.3-1.5-89.2 99.3-147.5 137.4-32.7.8 2.4 2.8 3 3.3 1.1z"/><path class="st0" d="M209.5 82.4c20.8-8.7 77.2-5.9 77.1 19.8l-.1 79.1c0 21.6 21.3 29 27.3 14.5 1.9-1.9 5.2-.6 3.6 2.8-3.8 15.3-41.6 17.7-54.7-2.8-72.6 52.7-118.7-51.3-32-52.9 27.1-4.1 30.1-19.7 30.1-30.6 0-27.1-14.2-29.6-22.7-29.6-9 0-16.4 2.7-21.4 16.7-7.5 27.8-49.4 2.9-7.2-17zm19.7 121.7c17.2 2.2 32.6-13.4 32.6-28.7v-37.2c-73.6 27-50.7 64.8-32.6 65.9z"/><path class="st0" d="M357.1 79.8l-35.3 4.6c-2.2.6-2.2 1.7 1.9 2.7 7.7.3 12.6 5.5 12.5 16.7l-.1 82.4c0 9.9-13.8 18.5-16.7 19.7-6.6 2.7 3.3 2.2 3.3 2.2l57.7.1c1.9 0 7.9.6.3-3-8.8-3.3-18.3-10.4-18.3-18.9s.1-61.9.1-61.9c0-26 17-40.2 33.7-40.2 17.5 0 32 3.9 32 40l-.1 62.1c0 9-11.8 17.2-18.1 19.4-4.1 1.1-5.8 2.5-2.2 2.5l61.6.1c3.3.3 4.7-.8 1.7-1.6-14.8-5.8-16.7-16.7-16.7-20.3l.1-72.3c0-41.3-39.6-35.9-53.6-35.9-17.5.3-36.1 11.2-38 16.1-.6-13.4-2.2-14.8-5.8-14.5zm351 118.6c-6 10.4-20.8 12.8-39.2 12.8-34.8 0-63.2-26.9-63.1-63.6 0-32.6 18.4-69.2 65.2-69.2 42.1 0 41.8 28.2 41.8 4.7V41.8c0-21.3-8.5-27.6-15-29.6-9.6-3.3-21.9-3.9-2.2-3.8l36.7-.8c2.1.1 2.5.6 2.5 3.8l-.2 161.4c0 11.2 4.1 28.5 22.1 33.4 1.6.3 3.6 1.4 1.6 1.9l-39.9 4.3c-5.8.6-8.2-2.2-10.7-13.4m-35.2 5.7c21.8 0 36.4-8.4 36.4-59.3 0-48.4-14.5-60.2-36.3-60.2s-39.5 28.2-39.5 60.7 17.6 58.7 39.4 58.8z"/><path class="st0" d="M499.7 82.5c20.8-8.7 77.1-5.9 77.1 19.8l-.1 79.1c0 21.6 21.3 29 27.4 14.5 1.9-1.9 5.2-.5 3.5 2.7-3.8 15.3-41.6 17.7-54.7-2.8-72.5 52.7-118.7-51.3-32-52.9C548 139 551 123.4 551 112.4c0-27.1-14.2-29.6-22.7-29.6-9 0-16.4 2.7-21.4 16.7-7.5 27.9-49.4 3-7.2-17zm18.5 121.8c17.2 2.2 32.6-13.4 32.6-28.7v-37.2c-73.6 27-50.7 64.8-32.6 65.9zM784 83.1c20.8-8.7 77.2-5.9 77.2 19.8l-.1 79.1c0 21.6 21.3 29 27.3 14.5 1.9-1.9 5.2-.5 3.6 2.7-3.8 15.3-41.6 17.8-54.7-2.8-72.6 52.7-118.7-51.3-31.9-52.9 27.1-4.1 30.1-19.7 30.1-30.6 0-27.1-14.2-29.5-22.7-29.6-9 0-16.4 2.7-21.3 16.7-7.8 28-49.7 3-7.5-16.9zm18.5 121.8c17.2 2.2 32.6-13.4 32.6-28.7V139c-73.6 27-50.7 64.8-32.6 65.9zM751.9 69l.1-61.3h30.1L782 69h-30.1zm96.9.1l.1-61.3H879l-.1 61.3h-30.1zm-37.4-48.6l4.3-8.7 4.3 8.4c.5.9.9.8 1.8.4l3.7-1.8-2.5 11.7c-.5 2.3.8 3 2.2 1.4l5.3-5.6 1.4 3.2c.5 1 1.2.8 2.1.6l5.4-1.1-1.8 6.8v.2c-.2.9-.7 1.6.3 2.1l1.9 1-11.1 9.4c-1.2 1.2-.8 1.5-.3 2.9l1 3.2-10.4-2c-1.3-.3-2.2-.3-2.2.7l.4 11.9h-3.1l.4-11.9c0-1.2-.9-1.1-3-.7l-9.6 1.8 1.3-3.2c.4-1.2.5-2-.4-2.8l-11.4-9.3 2.1-1.3c.6-.5.6-1 .3-2l-2.1-6.9 5.5 1.2c1.5.3 2 0 2.3-.9l1.5-3.1 5.4 6.1c1 1.1 2.3.4 1.9-1.3l-2.6-12.8 4 2.3c.6.4 1.3.5 1.7-.3"/></svg>