<svg id="Layer_1" xmlns="http://www.w3.org/2000/svg" viewBox="0 0 159.5 132.9"><style>.st0{fill:#ededed}</style><path class="st0" d="M4.1 7.9c-.6 0-1.1-.1-1.6-.3-.5-.2-1-.5-1.3-.8C.8 6.4.5 6 .3 5.5.1 5 0 4.5 0 4c0-1.1.4-2.1 1.2-2.8.4-.4.8-.7 1.3-.9 1.1-.4 2.2-.4 3.3 0 .5.2.9.5 1.3.8.4.4.7.8.9 1.3.2.5.3 1 .3 1.5C8.2 5 7.8 6 7 6.8c-.3.3-.8.6-1.3.8-.5.2-1 .3-1.6.3zm0-1.9c.3 0 .6 0 .8-.1.2-.1.4-.3.6-.4.2-.3.3-.5.4-.7.1-.3.2-.5.2-.8 0-.3 0-.5-.1-.8-.2-.3-.3-.5-.5-.7-.2-.2-.4-.3-.6-.4-.3-.1-.5-.2-.8-.2-.3 0-.5.1-.8.2-.5.2-.8.6-1 1.1-.1.2-.1.5-.1.7 0 .3 0 .5.1.8.1.3.2.5.4.7.2.2.4.3.6.5.3.1.5.1.8.1zM13.4 7.9c-.5 0-1-.1-1.5-.3-.5-.2-.9-.5-1.2-.8-.8-.7-1.2-1.7-1.2-2.8 0-1.1.4-2.1 1.1-2.8.4-.4.8-.7 1.3-.8.5-.3 1.1-.4 1.6-.4.4 0 .7 0 1.1.1l.9.3c.3.1.5.3.7.5l.6.6-1.6 1.2c-.2-.3-.4-.5-.7-.7-.3-.2-.6-.2-.9-.2-.3 0-.5.1-.7.2-.2.1-.4.2-.6.4-.2.2-.3.4-.4.6-.1.3-.1.5-.1.8 0 .3 0 .5.1.8 0 .4.1.6.3.8.2.2.4.3.6.4.2.2.5.2.7.2.2 0 .4 0 .5-.1.2 0 .3-.1.4-.2.1-.1.3-.2.4-.3l.4-.4 1.6 1.1c-.2.2-.4.5-.6.7-.2.2-.5.4-.7.5-.3.2-.6.3-.9.4-.4.2-.8.2-1.2.2zM20.8.1h2l3.3 7.7h-2.3l-.6-1.4h-2.9l-.5 1.4h-2.2L20.8.1zm1.8 4.7l-.9-2.2-.9 2.2h1.8zM27.3.2h2.9c.6 0 1.2.1 1.8.3.5.2 1 .4 1.4.8.4.3.7.7.8 1.2.2.5.3 1 .3 1.5s-.1 1-.3 1.5c-.2.5-.5.9-.9 1.2-.3.4-.8.6-1.3.8-.6.2-1.2.3-1.8.3h-2.9V.2zm2.9 5.7c.6 0 1.1-.2 1.5-.5.5-.4.7-.9.6-1.4 0-.5-.2-1.1-.6-1.4-.4-.4-1-.5-1.5-.5h-.9V6l.9-.1zM3.7 20c-.5 0-1-.1-1.5-.2-.4-.1-.8-.3-1.1-.6-.3-.3-.6-.7-.7-1.1-.2-.5-.3-1-.2-1.6v-4.3h2.2v4.2c0 .4.1.9.4 1.2.3.3.6.4 1 .4s.7-.1 1-.4c.3-.3.4-.8.4-1.2v-4.3h2.2v4.2c-.1.7-.2 1.2-.4 1.7-.3.8-1 1.5-1.8 1.7-.5.2-1 .3-1.5.3zM9.2 12.2h2l3.1 4v-4h2.1v7.6h-1.9l-3.3-4.2v4.2h-2v-7.6zM18.4 12.2h2.1v7.6h-2.1v-7.6zM21.8 12.2h2.4l1.7 4.8 1.7-4.8h2.3l-3.1 7.7h-2l-3-7.7zM31.1 12.2h6.1V14h-4v1.2h3.7v1.7h-3.7V18h4.1v1.8h-6.2v-7.6zM39.1 12.2h3.6c.5 0 1 .1 1.5.2.4.1.7.3 1 .6.5.5.7 1.1.7 1.8 0 .5-.1 1-.4 1.5-.3.4-.7.7-1.1.9l1.8 2.7h-2.4l-1.5-2.3h-.9v2.3h-2.1l-.2-7.7zm3.5 3.7c.3 0 .6-.1.8-.2.2-.2.3-.4.3-.7 0-.3-.1-.5-.3-.7-.2-.2-.5-.2-.8-.2h-1.4v1.8h1.4zM50.5 20c-.7 0-1.3-.1-1.9-.3-.6-.2-1.2-.5-1.6-1l1.2-1.4c.7.6 1.6.9 2.5.9.2 0 .4 0 .6-.1.1-.1.2-.2.2-.4 0-.1 0-.1-.1-.2l-.2-.2c-.1-.1-.3-.1-.4-.2-.2-.1-.4-.1-.6-.2-.4-.1-.8-.2-1.1-.3-.3-.1-.6-.2-.9-.4-.6-.4-.9-1-.8-1.6 0-.3.1-.7.2-1 .1-.3.3-.6.6-.8.3-.2.6-.4.9-.5.4-.1.8-.2 1.2-.2.6 0 1.2.1 1.8.3.5.2 1 .4 1.4.8l-1.1 1.5c-.3-.2-.7-.4-1.1-.6-.3-.1-.7-.2-1.1-.2-.2 0-.4 0-.6.1-.1.1-.2.2-.2.3 0 .1 0 .2.1.2l.2.2c.1.1.3.1.4.2.2.1.4.1.6.2l1.2.3c.3.1.6.3.9.5.2.2.4.4.6.7.1.3.2.6.2.9 0 .4-.1.7-.2 1-.1.3-.4.6-.6.8-.3.2-.6.4-1 .5-.5.1-.9.2-1.3.2zM55.2 12.2h2.1v7.6h-2.1v-7.6zM61 14.1h-2.3v-1.9h6.7v1.9h-2.3v5.8H61v-5.8zM69.2 17l-2.9-4.8h2.4l1.6 2.8 1.6-2.8h2.4l-3 4.8v2.9h-2.1V17z" transform="translate(74.132 12.228)"/><path class="st0" d="M159.5 0H62.1v31.3H0v66.1h62.1v35.5h39.5V97.4h57.8V0zM62.1 93.3H4v-58h58.1v58zm35.6 35.5H66.1V97.4h31.6v31.4zm57.7-35.5H66.1V4.1h89.3v89.2z"/><path class="st0" d="M28.6 54.9c.4-1 .6-2.1.6-3.2s-.2-2.2-.6-3.2c-.4-1-1-1.8-1.8-2.6-.8-.7-1.7-1.3-2.7-1.7-2.2-.8-4.6-.8-6.7 0-1 .4-1.9 1-2.7 1.7-1.6 1.5-2.4 3.6-2.4 5.8 0 1.1.2 2.2.6 3.1.4 1 1 1.8 1.8 2.6.8.7 1.7 1.3 2.7 1.7 2.2.9 4.6.9 6.7 0 1-.4 1.9-1 2.7-1.7.8-.7 1.4-1.6 1.8-2.5zm-3.5-3.2c0 .6-.1 1.1-.3 1.7-.2.5-.5 1-.8 1.4-.4.4-.8.7-1.3 1-.5.2-1.1.4-1.7.4-.6 0-1.2-.1-1.7-.4-.5-.2-1-.6-1.3-1-.4-.4-.7-.9-.9-1.4-.2-.5-.3-1.1-.3-1.7 0-.6.1-1.1.3-1.7.4-1 1.2-1.9 2.2-2.4.5-.2 1.1-.4 1.7-.4.6 0 1.2.1 1.7.4 1 .5 1.8 1.3 2.2 2.4.1.6.2 1.1.2 1.7zM51.6 57.7c.4-.4.8-.8 1.1-1.3l-3.1-2.2c-.2.2-.4.5-.7.7-.3.2-.5.4-.8.6-.3.2-.6.3-1 .4-.4.1-.8.1-1.2.1-.5 0-1.1-.1-1.6-.3-.5-.2-.9-.5-1.2-.9-.4-.4-.6-.9-.8-1.4-.2-.6-.3-1.1-.3-1.7 0-.6.1-1.1.3-1.7.2-.5.5-1 .8-1.4.3-.4.8-.7 1.2-.9.5-.2 1-.3 1.6-.3.7 0 1.4.2 2 .5.6.3 1 .8 1.4 1.3l3.1-2.4c-.3-.4-.7-.8-1.1-1.2-.9-.8-2.1-1.4-3.3-1.7-.7-.2-1.5-.2-2.2-.2-1.1 0-2.3.2-3.3.6-1 .4-1.9 1-2.6 1.7-1.5 1.5-2.4 3.6-2.3 5.8 0 2.2.8 4.3 2.4 5.8.7.7 1.6 1.3 2.6 1.7 1 .4 2.1.6 3.2.6.8 0 1.6-.1 2.3-.3.7-.2 1.3-.4 1.9-.7.7-.4 1.2-.7 1.6-1.2zM52.9 79.7c.4-1 .6-2.1.6-3.1 0-1.1-.2-2.1-.6-3.1-.4-.9-1-1.8-1.7-2.4-.8-.7-1.7-1.3-2.8-1.6-1.2-.4-2.5-.6-3.8-.6h-6v15.6h5.9c1.3 0 2.6-.2 3.8-.6 1-.4 2-.9 2.8-1.6.8-.8 1.4-1.7 1.8-2.6zm-3.6-3.1c.1 1.2-.4 2.3-1.3 3.1-.9.8-2.1 1.1-3.3 1.1h-1.9v-8.4h1.9c1.2-.1 2.4.3 3.3 1.1.9.8 1.4 1.9 1.3 3.1zM88.2 117.2c.4-1 .5-2 .5-3.1v-8.2h-4v8.3c.1.9-.2 1.8-.8 2.4-.6.5-1.3.8-2.1.8s-1.5-.3-2.1-.8c-.6-.7-.9-1.6-.8-2.5v-8.2h-4v8.3c0 1 .1 2 .5 3 .3.8.7 1.5 1.3 2.1.6.6 1.3 1 2.1 1.2 1.9.5 3.9.5 5.7 0 1.8-.4 3.2-1.7 3.7-3.3zM24.1 81.9l1 2.5h4.4l-6.7-15.7h-4.1L12 84.4h4.3l1-2.5h6.8zm-3.3-8.4l2.1 5.3h-4.2l2.1-5.3z"/></svg>