<svg id="Layer_1" xmlns="http://www.w3.org/2000/svg" viewBox="0 0 287 74"><style>.st0{fill:#ededed}</style><path class="st0" d="M72.5 14.3c0-.4.1-.7.2-1 .1-.3.3-.5.5-.7.2-.2.5-.3.8-.4.3-.1.6-.1.9-.1.3 0 .6 0 .9.1.3.1.5.2.8.4.2.2.4.4.5.7.3.7.3 1.4 0 2.1-.1.3-.3.5-.5.7-.2.2-.5.3-.8.4-.3.1-.6.1-.9.1-.3 0-.6 0-.9-.1-.3-.1-.5-.2-.8-.4-.2-.2-.4-.4-.5-.7-.1-.4-.2-.7-.2-1.1zm4.6 20.5h-4.4V18.5h4.4v16.3zm18.2 0h-4.4v-9.5c.1-.9-.1-1.8-.5-2.6-.4-.6-1-.9-1.7-.9-.5 0-1 .1-1.5.4-.4.2-.7.6-.9 1-.3.5-.4 1.1-.5 1.7-.1.8-.2 1.5-.1 2.3v7.7h-4.4V18.5h3.4l.6 2.1h.2c.2-.4.5-.8.9-1.1.3-.3.7-.5 1.1-.7.4-.2.8-.3 1.3-.4.4-.1.9-.1 1.4-.1.7 0 1.5.1 2.2.3.6.2 1.2.6 1.7 1.1.5.5.9 1.2 1.1 1.9.3.9.4 1.8.4 2.7l-.3 10.5zm10.8.3c-1.1 0-2.1-.1-3.1-.5-.9-.3-1.7-.8-2.4-1.5s-1.2-1.6-1.5-2.6c-.4-1.2-.6-2.5-.5-3.8 0-1.4.2-2.7.5-4.1.3-1 .8-1.9 1.5-2.6.7-.7 1.5-1.1 2.4-1.4 1-.3 2.1-.4 3.1-.4.8 0 1.7.1 2.5.3.8.2 1.6.5 2.3.9l-1.3 3.4c-.6-.3-1.2-.5-1.8-.7-.5-.2-1.1-.3-1.7-.3-1-.1-1.9.4-2.3 1.2-.6 1.1-.8 2.4-.7 3.7-.1 1.2.2 2.5.7 3.6.5.8 1.4 1.2 2.3 1.2.8 0 1.6-.1 2.3-.3.7-.2 1.4-.5 2.1-.8V34c-.4.2-.7.3-1 .5-.3.1-.7.2-1 .3-.4.1-.7.2-1.1.2-.5.1-.9.1-1.3.1zm12.1-.3h-4.4V12.2h4.4v22.6zm14.7 0l-.6-2.1h-.2c-.2.4-.5.8-.9 1.1-.3.3-.7.5-1.1.7-.4.2-.8.3-1.3.4-.4.1-.9.1-1.4.1-.7 0-1.5-.1-2.2-.3-.6-.2-1.2-.6-1.7-1.1-.5-.5-.9-1.2-1.1-1.8-.3-.9-.4-1.8-.4-2.7V18.5h4.4V28c-.1.9.1 1.8.5 2.6.4.6 1 .9 1.7.9.5 0 1-.1 1.5-.4.4-.2.7-.6.9-1 .3-.5.4-1.1.5-1.7.1-.8.2-1.5.1-2.3v-7.7h4.4v16.3h-3.1zm18.5-4.8c0 .8-.1 1.5-.5 2.2-.3.6-.8 1.2-1.3 1.6-.6.5-1.3.8-2.1 1-.9.2-1.8.3-2.7.3-.5 0-1 0-1.5-.1-.4 0-.9-.1-1.3-.2l-1.2-.3c-.4-.1-.8-.3-1.1-.4v-3.7c.4.2.8.4 1.3.6.5.2.9.3 1.3.4.4.1.9.2 1.3.3.4.1.8.1 1.2.1.3 0 .7 0 1-.1.2-.1.5-.2.7-.3.2-.1.3-.3.4-.5.1-.2.1-.4.1-.6 0-.2 0-.4-.1-.5-.1-.2-.2-.4-.4-.5-.3-.2-.6-.4-1-.6-.4-.2-1-.5-1.7-.8-.6-.3-1.2-.6-1.8-1-.5-.3-.9-.6-1.3-1.1-.3-.4-.6-.8-.8-1.3-.2-.6-.3-1.2-.2-1.8 0-.7.1-1.4.4-2 .3-.6.7-1.1 1.2-1.4.6-.4 1.2-.7 1.9-.9.8-.2 1.7-.3 2.5-.3.9 0 1.9.1 2.8.3.9.2 1.8.6 2.7 1l-1.3 3.1-2.1-.9c-.6-.2-1.3-.3-2-.3-.5 0-.9.1-1.3.3-.3.2-.4.5-.4.9 0 .2 0 .4.1.5.1.2.2.3.4.5.3.2.6.4.9.5l1.4.7c.7.3 1.3.6 1.9.9.5.3 1 .6 1.4 1 .4.4.7.8.9 1.3.3.8.4 1.5.3 2.1zm2.9-15.7c0-.4.1-.7.2-1 .1-.3.3-.5.5-.7.2-.2.5-.3.8-.4.3-.1.6-.1.9-.1.3 0 .6 0 .9.1.3.1.5.2.8.4.2.2.4.4.5.7.3.7.3 1.4 0 2.1-.1.3-.3.5-.5.7-.2.2-.5.3-.8.4-.3.1-.6.1-.9.1-.3 0-.6 0-.9-.1-.3-.1-.5-.2-.8-.4-.2-.2-.4-.4-.5-.7-.2-.4-.2-.7-.2-1.1zm4.6 20.5h-4.4V18.5h4.4v16.3zm7.9 0l-5.7-16.3h4.6l2.7 9.3c.2.6.3 1.1.4 1.7.1.5.2 1.1.2 1.6h.1c0-.6.1-1.1.2-1.6.1-.6.3-1.1.4-1.7l2.7-9.3h4.7l-5.7 16.3h-4.6zm19.1.3c-1.1 0-2.2-.2-3.2-.5-.9-.3-1.8-.8-2.5-1.5s-1.3-1.6-1.7-2.6c-.4-1.2-.6-2.4-.6-3.7 0-1.3.2-2.5.5-3.7.3-1 .8-1.9 1.5-2.7.6-.7 1.4-1.3 2.3-1.6 1-.4 2-.6 3-.5 1 0 2 .2 2.9.5.8.3 1.6.8 2.2 1.4.6.7 1.1 1.5 1.4 2.3.3 1 .5 2.1.5 3.1v2.2h-9.9c0 .6.1 1.1.3 1.7.2.5.4.9.8 1.3.3.3.7.6 1.2.8.5.2 1 .3 1.6.3.5 0 .9 0 1.4-.1.4-.1.9-.1 1.3-.2s.8-.2 1.2-.4l1.3-.6V34c-.4.2-.8.4-1.2.5-.4.1-.8.3-1.2.4-.5.1-.9.2-1.4.2h-1.7zm-.6-13.7c-.7 0-1.5.3-2 .8-.6.7-.9 1.7-.9 2.6h5.7c0-.5-.1-.9-.2-1.4-.1-.4-.3-.8-.5-1.1-.2-.3-.5-.6-.9-.7-.3-.1-.7-.2-1.2-.2zm19.3 13.7c-.8 0-1.6-.2-2.3-.5-.7-.4-1.3-.9-1.8-1.6-.5-.8-.9-1.7-1.2-2.6-.3-1.2-.4-2.4-.4-3.6 0-1.2.1-2.5.4-3.7.2-.9.6-1.8 1.2-2.6.5-.7 1.1-1.2 1.8-1.6.7-.4 1.5-.5 2.3-.5.5 0 1 .1 1.4.2.4.1.8.3 1.2.5.3.2.7.5.9.8.3.3.5.6.7.9h.1c-.1-.4-.1-.8-.2-1.1 0-.3-.1-.7-.1-1.1l-.1-1v-5.2h4.4V35h-3.4l-.9-2.1h-.2c-.2.3-.4.6-.7.9-.3.3-.6.6-.9.8-.4.2-.8.4-1.2.5 0-.1-.5 0-1 0zm1.6-3.5c.5 0 .9-.1 1.3-.3.4-.2.7-.5.9-.8.2-.4.4-.9.5-1.4.1-.6.2-1.3.2-1.9v-.5c0-.7 0-1.4-.1-2.1-.1-.5-.2-1.1-.5-1.5-.2-.4-.5-.7-.9-.9-.4-.2-.9-.3-1.4-.3-.9 0-1.7.5-2.1 1.3-.5 1.2-.7 2.4-.7 3.7-.1 1.2.2 2.5.7 3.6.5.6 1.3 1.1 2.1 1.1zm18.4 3.5c-1.1 0-2.2-.2-3.2-.5-.9-.3-1.8-.8-2.5-1.5s-1.3-1.6-1.7-2.6c-.4-1.2-.6-2.4-.6-3.7 0-1.3.2-2.5.5-3.7.3-1 .8-1.9 1.5-2.7.6-.7 1.4-1.3 2.3-1.6 1-.4 2-.6 3-.5 1 0 2 .2 2.9.5.8.3 1.6.8 2.2 1.4.6.7 1.1 1.5 1.4 2.3.3 1 .5 2.1.5 3.1v2.2H221c0 .6.1 1.1.3 1.7.2.5.4.9.8 1.3.3.3.7.6 1.2.8.5.2 1 .3 1.6.3.5 0 .9 0 1.4-.1.4-.1.9-.1 1.3-.2s.8-.2 1.2-.4l1.3-.6V34c-.4.2-.8.4-1.2.5-.4.1-.8.3-1.2.4-.5.1-.9.2-1.4.2h-1.7zm-.6-13.7c-.7 0-1.5.3-2 .8-.6.7-.9 1.7-.9 2.6h5.7c0-.5-.1-.9-.2-1.4-.1-.4-.3-.8-.5-1.1-.2-.3-.5-.6-.9-.7-.3-.1-.8-.2-1.2-.2zm21.3 8.6c0 .8-.1 1.5-.5 2.2-.3.6-.8 1.2-1.3 1.6-.6.5-1.3.8-2.1 1-.9.2-1.8.3-2.7.3-.5 0-1 0-1.5-.1-.4 0-.9-.1-1.3-.2l-1.2-.3c-.4-.1-.8-.3-1.1-.4v-3.7c.4.2.8.4 1.3.6.4.2.9.3 1.3.4.4.1.9.2 1.3.3.4.1.8.1 1.2.1.3 0 .7 0 1-.1.2-.1.5-.2.7-.3.2-.1.3-.3.4-.5.1-.2.1-.4.1-.6 0-.2 0-.4-.1-.5-.1-.2-.2-.4-.4-.5-.3-.2-.6-.4-1-.6-.4-.2-1-.5-1.7-.8-.6-.3-1.2-.6-1.8-1-.5-.3-.9-.6-1.3-1.1-.3-.4-.6-.8-.8-1.3-.2-.6-.3-1.2-.2-1.8 0-.7.1-1.4.4-2 .3-.6.7-1.1 1.2-1.4.6-.4 1.2-.7 1.9-.9.8-.2 1.7-.3 2.5-.3.9 0 1.9.1 2.8.3.9.2 1.8.6 2.7 1l-1.3 3.1-2.1-.9c-.6-.2-1.3-.3-2-.3-.5 0-.9.1-1.3.3-.3.2-.4.5-.4.9 0 .2 0 .4.1.5.1.2.2.3.4.5.3.2.6.4.9.5l1.4.7c.7.3 1.3.6 1.9.9.5.3 1 .6 1.4 1 .4.4.7.8.9 1.3.2.8.3 1.5.3 2.1zm2.9-15.7c0-.4.1-.7.2-1 .1-.3.3-.5.5-.7.2-.2.5-.3.8-.4.3-.1.6-.1.9-.1.3 0 .6 0 .9.1.3.1.5.2.8.4.2.2.4.4.5.7.3.7.3 1.4 0 2.1-.1.3-.3.5-.5.7-.2.2-.5.3-.8.4-.3.1-.6.1-.9.1-.3 0-.6 0-.9-.1-.3-.1-.5-.2-.8-.4-.2-.2-.4-.4-.5-.7-.2-.4-.3-.7-.2-1.1zm4.6 20.5h-4.4V18.5h4.4v16.3zm17.6-16.2V21l-2.4.7c.2.3.3.7.4 1 .1.4.1.8.1 1.1 0 .8-.1 1.5-.4 2.3-.2.7-.6 1.3-1.2 1.8s-1.2.9-1.9 1.1c-.9.3-1.8.4-2.7.4h-.7c-.2 0-.4 0-.6-.1-.2.1-.3.3-.5.5-.1.2-.2.4-.2.6 0 .2.1.4.2.5.1.1.3.2.5.3.2.1.5.1.7.1h3.3c.7 0 1.4.1 2.1.3.6.2 1.1.4 1.6.8.4.4.8.9 1 1.4.2.6.4 1.3.3 2 0 .9-.2 1.7-.6 2.5-.4.8-1 1.4-1.7 1.9-.8.6-1.8 1-2.7 1.2-1.2.3-2.5.4-3.8.4-1 0-1.9-.1-2.9-.3-.7-.2-1.4-.5-2.1-.9-.5-.4-1-.8-1.2-1.4-.3-.6-.4-1.2-.4-1.9 0-.5.1-1.1.3-1.5.2-.4.5-.8.8-1.1.3-.3.7-.6 1.2-.8.4-.2.9-.3 1.3-.5-.2-.1-.4-.2-.6-.4-.2-.2-.4-.3-.5-.5-.2-.2-.3-.4-.4-.7-.1-.2-.2-.5-.2-.8 0-.3 0-.6.1-.8.1-.3.2-.5.4-.7.2-.2.4-.4.7-.6l.9-.6c-.8-.4-1.6-1-2-1.8-.5-.9-.8-1.9-.7-2.9 0-.8.1-1.6.4-2.3.3-.7.7-1.3 1.2-1.8.6-.5 1.2-.9 1.9-1.1.9-.3 1.8-.4 2.7-.4h.7l.7.1.7.1.5.1 5.7.3zm-11.6 18.5c0 .2.1.5.2.7.1.2.3.4.5.6.3.2.6.3.9.4.5.1.9.2 1.4.2 1.2.1 2.3-.2 3.4-.6.7-.3 1.1-1 1.1-1.7.1-.5-.2-1-.7-1.2-.7-.2-1.5-.3-2.2-.3h-2.1c-.3 0-.6 0-.8.1-.3.1-.6.2-.8.3-.3.2-.5.4-.6.6-.3.2-.3.6-.3.9zm1.6-13.2c0 .7.1 1.4.5 2.1.3.5.9.8 1.5.7.6.1 1.2-.2 1.5-.7.3-.6.5-1.3.5-2.1 0-.7-.1-1.4-.5-2.1-.3-.5-.9-.8-1.5-.8-1.4 0-2 1-2 2.9zM287 34.8h-4.4v-9.5c.1-.9-.1-1.8-.5-2.6-.4-.6-1-.9-1.7-.9-.5 0-1 .1-1.5.4-.4.2-.7.6-.9 1-.3.5-.4 1.1-.5 1.7-.1.8-.2 1.5-.1 2.3v7.7H273V18.5h3.4l.6 2.1h.2c.2-.4.5-.8.9-1.1.3-.3.7-.5 1.1-.7.4-.2.8-.3 1.3-.4.5-.1.9-.1 1.4-.1.7 0 1.5.1 2.2.3.6.2 1.2.6 1.7 1.1.5.5.9 1.2 1.1 1.9.3.9.4 1.8.4 2.7l-.3 10.5zM79.6 52.2h.9c.3 0 .6.1.9.1l-.4 2.4-.8-.1c-.3 0-.5 0-.8-.1-1.2 0-2.3.5-3 1.4-.4.5-.7 1.1-.8 1.7-.2.7-.3 1.4-.3 2.1v8.6h-2.6v-16h2.2l.3 2.9h.1c.2-.4.5-.8.8-1.2.3-.4.6-.7.9-1 .3-.3.7-.5 1.2-.7.4 0 .9-.1 1.4-.1zM90.1 68.8c-1 0-2-.2-2.9-.5-.9-.3-1.6-.9-2.3-1.6-.7-.7-1.2-1.6-1.5-2.6-.4-1.1-.5-2.3-.5-3.5 0-1.2.1-2.4.5-3.5.3-1 .7-1.9 1.4-2.6.6-.7 1.3-1.3 2.1-1.7 1.7-.7 3.6-.8 5.3-.1.8.3 1.4.8 1.9 1.5.6.7 1 1.4 1.2 2.3.3.9.4 1.9.4 2.9V61H85.6c-.1 1.5.3 2.9 1.2 4.1.8.9 2.1 1.4 3.3 1.3.5 0 .9 0 1.4-.1.4 0 .8-.1 1.2-.2l1.1-.4c.4-.1.7-.3 1.1-.5v2.4c-.4.2-.8.3-1.1.5-.4.1-.8.2-1.1.3-.4.1-.8.2-1.2.2l-1.4.2zm-.7-14.4c-1 0-2 .4-2.6 1.1-.7 1-1.1 2.1-1.1 3.3h7.2c0-.6-.1-1.2-.2-1.8-.1-.5-.3-1-.6-1.4-.3-.4-.6-.7-1.1-.9-.5-.2-1-.3-1.6-.3zm19.4 9.7c0 .7-.1 1.4-.4 2-.3.6-.7 1.1-1.2 1.5-.6.4-1.2.7-1.9.9-.8.2-1.7.3-2.5.3-.9 0-1.8-.1-2.7-.3-.7-.1-1.4-.4-2-.8v-2.4c.3.2.6.3 1 .5s.8.3 1.2.4c.4.1.8.2 1.3.3.4.1.9.1 1.3.1.5 0 1.1 0 1.6-.2.4-.1.7-.2 1.1-.5.3-.2.5-.4.6-.7.1-.3.2-.6.2-1 0-.3 0-.6-.1-.8-.1-.3-.3-.5-.5-.7-.3-.3-.7-.5-1.1-.7-.4-.2-1-.5-1.7-.8s-1.3-.6-1.9-.9c-.5-.3-1-.6-1.4-1-.4-.3-.7-.8-.9-1.2-.2-.5-.3-1.1-.3-1.7 0-.6.1-1.2.4-1.8.3-.5.7-1 1.1-1.3.5-.4 1.1-.7 1.7-.8.7-.2 1.5-.3 2.3-.3.9 0 1.7.1 2.6.3.8.2 1.5.5 2.2.8l-.9 2.1c-.6-.3-1.3-.5-1.9-.7-.7-.2-1.3-.3-2-.3-.8-.1-1.5.1-2.2.5-.5.3-.7.8-.7 1.4 0 .3.1.6.2.9.1.3.3.5.6.7.3.3.7.5 1.1.7.5.2 1 .5 1.7.8.7.3 1.3.6 1.9.9.5.3 1 .6 1.4 1 .4.3.7.8.9 1.2-.1.5 0 1-.1 1.6zm9.8 4.7c-1 0-2-.2-2.9-.5-.9-.3-1.6-.9-2.3-1.6-.7-.7-1.2-1.6-1.5-2.6-.4-1.1-.5-2.3-.5-3.5 0-1.2.1-2.4.5-3.5.3-1 .7-1.9 1.4-2.6.6-.7 1.3-1.3 2.1-1.7 1.7-.7 3.6-.8 5.3-.1.8.3 1.4.8 1.9 1.5.6.7 1 1.4 1.2 2.3.3.9.4 1.9.4 2.9V61h-10.1c-.1 1.5.3 2.9 1.2 4.1.8.9 2.1 1.4 3.3 1.3.5 0 .9 0 1.4-.1.4 0 .8-.1 1.2-.2l1.1-.4c.4-.1.7-.3 1.1-.5v2.4c-.4.2-.8.3-1.1.5-.4.1-.8.2-1.1.3-.4.1-.8.2-1.2.2-.4.2-.9.2-1.4.2zm-.7-14.4c-1 0-2 .4-2.6 1.1-.7 1-1.1 2.1-1.1 3.3h7.2c0-.6-.1-1.2-.2-1.8-.1-.5-.3-1-.6-1.4-.3-.4-.6-.7-1.1-.9-.5-.2-1-.3-1.6-.3zm18.7 14.1l-.5-2.2h-.1c-.3.4-.6.8-1 1.1-.3.3-.7.6-1 .8-.4.2-.8.4-1.3.5-.5.1-1.1.2-1.6.1-.6 0-1.3-.1-1.8-.3-.5-.2-1-.5-1.5-.9-.4-.4-.8-.9-1-1.5-.2-.7-.4-1.4-.4-2.1-.1-1.4.6-2.8 1.7-3.7 1.5-1 3.3-1.5 5.1-1.4l2.7-.1v-1c0-.6-.1-1.1-.2-1.6-.1-.4-.3-.8-.6-1.1-.3-.3-.6-.5-1-.6-.4-.1-.9-.2-1.3-.2-.8 0-1.5.1-2.2.4-.7.2-1.4.5-2 .8l-.9-2c.8-.4 1.6-.7 2.4-1 .9-.3 1.8-.4 2.8-.4.9 0 1.7.1 2.6.3.7.2 1.3.5 1.8.9.5.5.8 1 1.1 1.7.3.8.4 1.6.3 2.4v10.9l-2.1.2zm-4.9-1.9c.6 0 1.1-.1 1.6-.3.5-.2.9-.5 1.3-.8.4-.4.7-.9.9-1.4.2-.6.3-1.3.3-2v-1.4l-2.1.1c-.7 0-1.5.1-2.2.3-.5.1-1 .3-1.4.6-.3.3-.6.6-.8 1-.2.4-.2.9-.2 1.3-.1.7.2 1.4.7 2 .6.4 1.2.7 1.9.6zm18-14.4h.9c.3 0 .6.1.9.1l-.4 2.4-.8-.1c-.3 0-.5 0-.8-.1-1.2 0-2.3.5-3 1.4-.4.5-.7 1.1-.8 1.7-.2.7-.3 1.4-.3 2.1v8.6h-2.6v-16h2.2l.3 2.9h.1c.2-.4.5-.8.8-1.2.3-.4.6-.7.9-1 .3-.3.7-.5 1.2-.7.4 0 .9-.1 1.4-.1zM160 68.8c-.9 0-1.9-.1-2.8-.5-.8-.3-1.6-.8-2.2-1.5-.7-.7-1.2-1.6-1.5-2.5-.4-1.2-.6-2.5-.5-3.7 0-1.3.2-2.6.6-3.9.3-1 .8-1.8 1.5-2.6.6-.7 1.4-1.2 2.3-1.4.9-.3 1.8-.5 2.8-.5.7 0 1.5.1 2.2.2.6.1 1.2.3 1.8.6l-.8 2.2c-.2-.1-.5-.2-.7-.3l-.8-.2-.9-.2c-.3 0-.5-.1-.8-.1-1.3-.1-2.5.4-3.3 1.5-.8 1.4-1.2 3-1 4.5-.1 1.6.2 3.1 1.1 4.5.8 1 2 1.5 3.2 1.4.7 0 1.4-.1 2.1-.3.6-.2 1.2-.4 1.7-.6v2.4c-.5.3-1.1.5-1.7.6-.8.3-1.5.4-2.3.4zm17.1-.3V58.2c.1-1-.2-2-.8-2.8-.6-.7-1.5-1-2.4-.9-.7 0-1.4.1-2 .4-.5.2-1 .6-1.3 1.1-.4.6-.6 1.2-.7 1.8-.2.8-.2 1.6-.2 2.5v8.3h-2.6V45.9h2.6v6.7l-.1 2.1h.1c.2-.4.5-.8.9-1.1.7-.6 1.5-1 2.4-1.2.4-.1.9-.1 1.4-.1 1.5-.1 2.9.4 4 1.4 1 1.3 1.5 2.8 1.3 4.4v10.4h-2.6zm18.9.3c-.9 0-1.9-.1-2.8-.5-.8-.3-1.6-.8-2.2-1.5-.7-.7-1.2-1.6-1.5-2.5-.4-1.2-.6-2.5-.5-3.7 0-1.3.2-2.6.6-3.9.3-1 .8-1.8 1.5-2.6.6-.7 1.4-1.2 2.3-1.4.9-.3 1.8-.5 2.8-.5.7 0 1.5.1 2.2.2.6.1 1.2.3 1.8.6l-.8 2.2c-.2-.1-.5-.2-.7-.3l-.8-.2-.9-.2c-.3 0-.5-.1-.8-.1-1.3-.1-2.5.4-3.3 1.5-.8 1.4-1.2 3-1 4.5-.1 1.6.2 3.1 1.1 4.5.8 1 2 1.5 3.2 1.4.7 0 1.4-.1 2.1-.3.6-.2 1.2-.4 1.7-.6V68c-.5.3-1.1.5-1.7.6-.8.2-1.5.3-2.3.2zm13.2 0c-1 0-2-.2-2.9-.5-.9-.3-1.6-.9-2.3-1.6-.7-.7-1.2-1.6-1.5-2.6-.4-1.1-.5-2.3-.5-3.5 0-1.2.1-2.4.5-3.5.3-1 .7-1.9 1.4-2.6.6-.7 1.3-1.3 2.1-1.7 1.7-.7 3.6-.8 5.3-.1.8.3 1.4.8 1.9 1.5.6.7 1 1.4 1.2 2.3.3.9.4 1.9.4 2.9V61h-10.1c-.1 1.5.3 2.9 1.2 4.1.8.9 2.1 1.4 3.3 1.3.5 0 .9 0 1.4-.1.4 0 .8-.1 1.2-.2l1.1-.4c.4-.1.7-.3 1.1-.5v2.4c-.4.2-.8.3-1.1.5-.4.1-.8.2-1.1.3-.4.1-.8.2-1.2.2l-1.4.2zm-.6-14.3c-1 0-2 .4-2.6 1.1-.7 1-1.1 2.1-1.1 3.3h7.2c0-.6-.1-1.2-.2-1.8-.1-.5-.3-1-.6-1.4-.3-.4-.6-.7-1.1-.9-.6-.2-1.1-.3-1.6-.3zm19.7 14.1V58.3c.1-1-.2-2-.8-2.8-.6-.7-1.5-1-2.4-.9-.7 0-1.4.1-2 .4-.5.2-1 .6-1.3 1.1-.4.6-.6 1.2-.7 1.8-.2.8-.2 1.6-.2 2.5v8.3h-2.6v-16h2.2l.4 2.2h.1c.2-.4.5-.8.9-1.1.7-.6 1.5-1 2.4-1.2.4-.1.9-.1 1.4-.1 1.5-.1 2.9.4 4 1.4 1 1.3 1.5 2.8 1.3 4.4v10.4h-2.7v-.1zm11.9-1.9h.6l.6-.1.6-.1.4-.1v2c-.2.1-.3.1-.5.2s-.4.1-.6.2l-.7.1h-.7c-.6 0-1.1-.1-1.7-.2-.5-.1-1-.4-1.3-.8-.4-.4-.7-1-.9-1.5-.2-.8-.3-1.6-.3-2.4v-9.3h-2.3v-1.2l2.3-1.1 1.1-3.3h1.5v3.7h4v2h-4v9.3c0 .7.1 1.5.5 2.1.2.3.8.5 1.4.5zM252 52.3h.9c.3 0 .6.1.9.1l-.4 2.4-.8-.1c-.3 0-.5 0-.8-.1-1.2 0-2.3.5-3 1.4-.4.5-.7 1.1-.8 1.7-.2.7-.3 1.4-.3 2.1v8.6h-2.6v-16h2.2l.3 2.9h.1c.2-.4.5-.8.8-1.2.3-.4.6-.7.9-1 .3-.3.7-.5 1.2-.7.4 0 .9-.1 1.4-.1zm10.5 16.5c-1 0-2-.2-2.9-.5-.9-.3-1.6-.9-2.3-1.6-.7-.7-1.2-1.6-1.5-2.6-.4-1.1-.5-2.3-.5-3.5 0-1.2.1-2.4.5-3.5.3-1 .7-1.9 1.4-2.6.6-.7 1.3-1.3 2.1-1.7 1.7-.7 3.6-.8 5.3-.1.8.3 1.4.8 1.9 1.5.6.7 1 1.4 1.2 2.3.3.9.4 1.9.4 2.9V61H258c-.1 1.5.3 2.9 1.2 4.1.8.9 2.1 1.4 3.3 1.3.5 0 .9 0 1.4-.1.4 0 .8-.1 1.2-.2l1.1-.4c.4-.1.7-.3 1.1-.5v2.4c-.4.2-.8.3-1.1.5-.4.1-.8.2-1.1.3-.4.1-.8.2-1.2.2l-1.4.2zm-.6-14.3c-1 0-2 .4-2.6 1.1-.7 1-1.1 2.1-1.1 3.3h7.2c0-.6-.1-1.2-.2-1.8-.1-.5-.3-1-.6-1.4-.3-.4-.6-.7-1.1-.9-.6-.2-1.1-.3-1.6-.3zM20.2 11.8c6.3 10.4 14.2 23.3 19.1 34.4 2.6-3 6.7-7.6 10.4-11.3V9.2H18.6l1.6 2.6zm20.4 37.5c1.4 3.3 2.4 6.8 3 10.4.5 3.4-.2 6.4-1.8 8.2-.9 1.1-2.2 1.7-3.6 1.7-1.4-.1-2.7-.7-3.6-1.8-1.7-2-2.6-4.6-2.3-7.3.5-4.3 2.1-8.3 4.8-11.7-4.7-11.1-13-24.7-19.5-35.4l-2.5-4.2H0v64.6h49.7V39.2c-3.6 3.7-7.1 7.7-9.1 10.1zm-3.7 16.5c.3.4.8.7 1.4.8.5 0 1-.2 1.3-.7 1-1.1 1.4-3.4 1.1-5.9-.4-2.7-1.1-5.4-2.1-7.9-1.7 2.6-2.8 5.5-3.1 8.6-.3 1.8.2 3.7 1.4 5.1z"/><circle class="st0" cx="55.1" cy="34.5" r="2.5"/><path class="st0" d="M17.9 3.2c0 1.6-1.3 3-3 3s-3-1.3-3-3 1.3-3 3-3c1.6.1 3 1.4 3 3z"/></svg>