<?xml version="1.0" encoding="utf-8"?>
<!-- Generator: Adobe Illustrator 23.0.3, SVG Export Plug-In . SVG Version: 6.00 Build 0)  -->
<svg version="1.1" id="Layer_1" xmlns="http://www.w3.org/2000/svg" xmlns:xlink="http://www.w3.org/1999/xlink" x="0px" y="0px"
	 viewBox="0 0 976 1190.6" style="enable-background:new 0 0 976 1190.6;" xml:space="preserve">
<style type="text/css">
	.st0{fill:#FFFFFF;}
	.st1{fill:#FFFFFF;stroke:#FFFFFF;stroke-width:8.3;stroke-miterlimit:10;}
</style>
<title>C2LC_Lettered Name logo</title>
<g id="Black_on_White">
	<path class="st0" d="M530.3,993.6c0.3,0.1,0.7,0.3,0.7,0.7s-0.3,0.5-0.6,0.6c-0.7,0.3-1.5,0.7-2.2,1c-9.7,4.3-15.8,11.6-19.1,21.5
		c-0.5,1.6-0.9,3.3-1.2,5c-0.1,0.5-0.2,1-0.3,1.5c-0.1,0.2-0.3,0.4-0.5,0.4c-0.3,0-0.5-0.2-0.6-0.4c-0.1-0.3-0.2-0.7-0.3-1.1
		c-0.3-1.4-0.6-2.8-0.9-4.2c-1.2-6.2-4-12-8.3-16.7c-2.8-3-6.3-5.1-10.1-6.2c-0.6-0.2-1.2-0.3-1.8-0.3c-0.5,0-1.1,0-1.2-0.6
		s0.6-0.8,1-0.9c4.8-1.5,8.4-4.6,11.5-8.4c4.6-5.7,7.8-12.5,9.2-19.8c0.1-0.7,0.3-1.3,0.6-1.9c0.1-0.2,0.4-0.4,0.6-0.4
		c0.1,0.1,0.3,0.1,0.4,0.3c0.3,0.5,0.4,1,0.4,1.6c0.6,8.1,4.2,15.8,10,21.5c2.8,2.9,6.3,4.9,10.1,6
		C528.7,993,529.5,993.3,530.3,993.6z"/>
	<path class="st0" d="M830.7,859.6c0,1.5,0,4.3-0.1,4.3c-0.5,13.6-1,27.2-1.5,40.7c-0.1,3.6-1.2,4.8-4.9,5.4
		c-8.6,1.6-17.2,3.1-25.8,4.7c-16.7,3-33.4,6-50.1,9l-50.9,9.1c-6,1.1-12.1,2-18.1,3.2c-3.1,0.7-5.2-0.3-7.2-2.5
		c-7-8-14.1-15.8-21-23.8c-1.9-2.3-4.7-3.7-7.7-3.7c-7.7-0.4-15.4-1.3-23-2c-7.4-0.7-14.8-1.2-22.3-1.9l-22.3-1.9l-23-2
		c-7.4-0.6-14.8-1.3-22.3-1.9c-0.9-0.1-1.8-0.2-2.7-0.4c-1.9-0.4-2.6-1.2-2.8-2.8c-0.2-1.6,0.7-3.2,2.2-3.8c0.8-0.4,1.7-0.6,2.6-0.8
		l43.1-8l52.7-9.8c16.4-3,32.9-6,49.3-9.2c3.3-0.6,5.4,0.3,7.4,2.9c4.5,6.1,9.3,11.9,13.9,18c1.7,2.3,3.3,3,6.2,2.3
		c39.3-9.7,78.7-19.4,118.2-28.9c1.5-0.4,3-0.8,4.6-1.1C829,854.4,830.7,855.9,830.7,859.6z"/>
	<path class="st0" d="M458.6,873.8c0.1,2,0.1,3.9,0,5.9c-0.5,13.4-1,26.9-1.5,40.4c-0.1,3.6-1.1,4.8-4.8,5.5
		c-4.9,1-9.8,1.8-14.6,2.7l-50.9,9.1l-50.1,9c-9.5,1.7-19,3.3-28.5,5.2c-3.7,0.7-6.1-0.2-8.6-3c-6.7-7.8-13.7-15.4-20.5-23.2
		c-1.7-2.2-4.2-3.5-7-3.7c-7.4-0.5-14.8-1.2-22.3-1.9l-24.2-2.1l-22.3-1.9c-7.3-0.6-14.6-1.2-21.9-1.9c-7.7-0.7-15.3-1.3-23-2
		c-1-0.1-2.1-0.2-3.1-0.4c-1.4-0.2-2.3-1.4-2.4-2.8c-0.2-1.5,0.5-2.9,1.9-3.6c0.9-0.4,2-0.7,3-0.8c15-2.8,30-5.6,45.1-8.5
		c17.6-3.3,35.2-6.6,52.8-9.8c15.7-2.9,31.3-5.9,47-8.8c3.2-0.6,5.7,0.1,7.7,3c4.2,5.8,8.8,11.4,13.2,17.1c0.6,0.8,1.3,1.6,2,2.5
		c0.7,1,2,1.4,3.1,1c2.8-0.7,5.6-1.3,8.4-2c37.7-9.2,75.4-18.4,113.1-27.6c1.8-0.5,3.6-0.7,5.4-0.5
		C457.5,870.8,458.5,871.7,458.6,873.8z"/>
	<path class="st0" d="M700.3,313.1c-0.2-44.4-0.4-88.8-0.6-133.2c0-1.9,0-3.8,0-5.8c-0.1-3.3-0.9-4.2-4.2-4.2
		c-10.7,0.1-21.4,1.1-32.1,1c-2.4,0-3.5,1.1-3.7,3.5c-0.1,1-0.1,1.9,0,2.9c0.2,7.2,0.5,14.3,0.7,21.4c0.1,4.3,0,8.5,0.3,12.8
		c0.5,7.4,0.5,14.8,0.6,22.3c0,0.9,0.4,1.9-0.8,2.7c-1.2-1-1.7-2.4-2.3-3.7l-26.8-51.5c-1-1.8-1.9-3.6-2.9-5.5
		c-0.9-1.7-2.6-2.9-4.5-3.2c-1.1-0.2-2.2-0.2-3.3-0.2c-8.5,0-17-0.1-25.6-0.1c-5.9,0-6.4,0.5-6.4,6.3c0,46.2,0,92.4,0,138.6
		c0,1.1,0,2.2,0,3.3c0,1.8,1.1,2.7,2.7,3.2c0.7,0.2,1.3,0.3,2,0.3c9.5,0,19,0,28.5,0c1,0,1.9-0.2,2.8-0.6c2.5-1.3,3.4-3.2,3.3-6
		c-0.7-11.9-1.3-23.9-1.9-35.8c-0.4-6.5-0.9-12.9-1.3-19.3c-0.1-1.3-0.4-2.7,0.4-4.2c1.7,0.9,2.2,2.5,3,3.9c10.8,19,21.6,38,32.3,57
		c2,3.5,4.5,5.2,8.6,5c5.1-0.2,10.2-0.1,15.2-0.3c3.6-0.1,7.2-0.3,10.7-0.6c4-0.3,5.3-1.8,5.4-5.8
		C700.4,315.8,700.3,314.4,700.3,313.1z"/>
	<path class="st0" d="M194.1,292.4c0.1-5.6-1.2-8.2-8.7-7.2c-12.3,1.7-25.5-3.8-31.8-17.2c-1.8-4.2-2.9-8.6-3.3-13.1
		c-1.2-11.1,0.9-21.4,7.1-30.7c6-9.1,14.3-15.1,25.2-17c2.4-0.4,4.9-0.4,7.4-0.7c3.3-0.5,3.7-1,3.7-4.3c0.1-5.8,0.2-11.6,0.6-17.3
		c0.3-3.8,0.3-7.7,0.2-11.5c-0.1-4.3-1.8-5.9-6-6.5c-0.5-0.1-1.1-0.1-1.6-0.1c-15.7-0.6-31.1,3.9-43.9,12.9
		c-31.3,21.5-43.5,62.6-30.8,97.7c7.8,21.6,22.3,37,43.9,45.3c10.6,4.1,21.6,5,32.9,3.6c5.7-0.6,5.6-2.1,5.5-6.2
		C194.5,315.4,194.1,297,194.1,292.4z"/>
	<path class="st0" d="M562.7,238.6c-0.9-1.7-2.6-1.8-4.3-1.8c-4.4,0-8.8,0-13.2,0l0,0c-4,0-8,0-11.9,0c-5.1,0-5.2,0-4.3-5
		c3.2-18.1,6.3-36.2,9.5-54.3c0.3-1.8,0.5-3.5,0.5-5.3c0.1-1.9-1.3-3.5-3.2-3.7c-0.7-0.1-1.4-0.2-2.1-0.1
		c-8.9,0.1-17.8,0.2-26.8,0.3c-1,0-1.9,0.1-2.9,0.2c-1.9,0.1-3.4,1.5-3.8,3.3c-0.3,0.9-0.5,1.9-0.6,2.8c-1.4,9.1-2.8,18.2-4.2,27.3
		c-2.1,13.8-4.2,27.7-6.4,41.5c-0.8,5.6-1.8,11.1-2.6,16.7c-0.5,3.6,1.4,5.8,5,6c1.2,0.1,2.5-0.1,3.7-0.1c4.8-0.1,9.6-0.2,14.4-0.3
		c1.9,0,2.2,0.5,1.7,2.3c-0.5,1.6-1,3.1-1.6,4.7c-4,13.2-10.1,37.1-15.7,56.7c-2.5,8.8-4.9,16.7-6.9,22.4c-0.6,1.4-1,2.8-1.1,4.3
		c-0.2,1.6,0.9,3,2.4,3.2c0.9,0.1,1.7-0.2,2.3-0.8c1.1-1.1,2-2.2,2.9-3.4c4-5.4,8.1-11.5,12.2-18.3c17.6-28.5,36.4-66.5,53.3-89.2
		c1-1.3,1.9-2.7,2.9-4C563.5,242.6,563.7,240.4,562.7,238.6z"/>
	<path class="st0" d="M327.5,223.8c-2.7-13.2-7.5-25.6-15.7-36.4c-5.2-7.2-12.1-12.9-20-16.9c-9.6-4.8-20.7-5.6-30.9-2.4
		c-10.2,3.1-18.4,9.2-25.1,17.3c-13.6,16.4-19.5,35.8-20.8,56.7c-0.5,8.6,0,17.3,1.6,25.8c2.3,12.3,6.4,23.9,13.3,34.4
		c4.5,7,10.3,13,17.2,17.6c5.8,4,12.5,6.4,19.5,7.2c12.1,1.2,22.8-2.4,32.3-9.7c9.9-7.7,16.9-17.6,21.9-29c6-13.7,8.9-28.5,8.6-43.5
		C329.5,237.9,328.9,230.8,327.5,223.8z M289,273.8c-1.4,3.4-3.2,6.7-5.4,9.7c-1.6,2.2-3.7,4.1-6,5.6c-5.3,3.3-10.8,3-15.7-0.9
		c-2.3-1.9-4.3-4.3-5.7-6.9c-2.6-4.7-4.4-9.8-5.2-15.1c-2.6-14.9-2.1-29.5,2.9-43.9c1.5-4.7,3.9-9.1,6.9-13c1.3-1.6,2.8-3.1,4.4-4.3
		c5.4-4,11.4-3.9,16.7,0.3c2.6,2.2,4.8,4.9,6.3,8c3.1,6,5,12.5,5.6,19.2c0.5,3.7,0.6,7.4,0.9,10.4C294.2,253.9,293,264.1,289,273.8z
		"/>
	<path class="st0" d="M460.4,235.3c-2.3-17.8-10.8-34.2-24.1-46.2c-17.9-16.4-39.1-22.9-63.1-19.8c-4,0.5-7.9,1.4-11.6,2.8
		c-1.5,0.4-2.5,1.8-2.5,3.4c0,1.2,0,2.5,0,3.7c0.1,11.7,0.1,23.4,0.2,35c0,11,0.5,45.1,0.5,51.1c0.1,17.5,0.2,34.9,0.3,52.4
		c0,4.9,0.9,6,5.6,7.1c9.1,2.2,18.6,2.6,27.9,1.2c18.1-2.7,33.7-10.7,46.1-24.3C457,282.9,463.9,260.6,460.4,235.3z M407.1,289.7
		c-2.3,2.1-5.1,3.8-8,5c-1.3,0.5-2.6,0.8-4,1c-3.1,0.3-4-0.5-4.3-3.5c0-0.5,0-1.1,0-1.6c0-13.2,0.3-39.5,0.5-39.5
		c0-12.7,0-25.3,0-37.9c0-6,1-6.8,7-6.7c7.4,0.1,13.2,3.3,17.7,9c4.2,5.3,7,11.6,8,18.3c2.5,13.9,0.6,28.2-5.7,40.9
		C415.7,280.4,411.9,285.5,407.1,289.7z M366.6,317.9c0.1,0.2,0.2,0.3,0.3,0.5C366.8,318.2,366.7,318.1,366.6,317.9L366.6,317.9z"/>
	<path class="st0" d="M872.7,218.5c-1.9-0.5-3.8-0.6-5.7-0.5c-6.3,0.3-12.6,1.4-18.6,3.5c-0.8,0.3-1.5,0.6-2.3,0.9
		c-1,0.3-1.7,0-1.8-1c-0.1-1.2-0.2-2.5-0.2-3.7c-0.3-15.1-0.5-30.2-0.8-45.3c-0.1-4.1-0.7-4.9-4.8-4.9c-9.2,0-18.4,0-27.6,0.1
		c-3.7,0-4.9,1.3-5.1,4.9c0,0.7,0,1.4,0,2.1c-0.1,2.3-0.5,2.5-2.4,1.5c-0.6-0.3-1.2-0.7-1.8-1c-24.5-13.9-55.6-5.3-69.5,19.2
		c-13.9,24.5-5.3,55.6,19.2,69.5c4.2,2.4,8.7,4.1,13.4,5.3c3,0.7,6.2,1.1,9.5,1.7c-0.2,0.9-0.7,1.8-1.5,2.4c-2.5,2.6-4.5,5.6-6,8.8
		c-2.6,5.3-4.1,11.1-4.5,17c-0.6,7,0.6,13.6,4.7,19.6c4.8,7,11.9,12,20,14.4c7.6,2.4,15.7,3,23.6,1.8c8.1-1.2,15.3-4.1,21.1-10.1
		c5.3-5.3,9.1-11.8,11.3-19c2.4-8,3.7-16.4,3.8-24.8c0.2-8.7,0.5-17.3,0.6-25.9c0.1-5.8,1.9-10.8,6.1-14.8c0.3-0.3,0.6-0.6,0.8-0.9
		c5.6-5.8,11.7-10.9,19.3-13.9c1.6-0.6,3-1.4,2.9-3.5C876.2,220.1,875.2,219.1,872.7,218.5z M803.3,306.5c-4.4,0-7.3-2.5-7.6-6.9
		c-0.1-0.7,0-1.4,0-2c0.5-8.5,3.8-15.3,11.2-19.9c1.6-1,3.5-1.7,5.4-1.9c3.6-0.3,5.8,1.4,6.2,5c0.2,1.5,0.2,3,0,4.5
		c-0.7,6.6-3.5,12.8-8.1,17.7C808.6,304.9,806.3,306.4,803.3,306.5L803.3,306.5z M762.2,204.1c8.6-11,23.1-9.8,31.2-0.6
		c3.6,4.1,5.5,9.3,5.4,14.7c0.5,10-7.1,19.9-18.1,20.9c-5.5,0.6-11.1-1.2-15.2-4.9C756.7,226.7,755.1,213.2,762.2,204.1z"/>
	<path class="st0" d="M484.1,562.1c-2.8,0-5.6,0.2-8.4,0.3c-11.1,0.1-22.2,1.1-33.3,1.2l-39.8,1.2c-1.3,0-2.6,0-3.8,0.2
		c-3.6,0.5-4.7,1.7-4.3,5.4c0.9,9.7,0.6,19.4,1.1,29.1c0.7,16,1.1,32.1,1.6,48.2c0.5,15.8,1,31.6,1.5,47.4
		c0.5,15.9,0.9,31.9,1.5,47.8c0.4,11,0.7,21.9,1,32.9c0.1,1.9,0,3.8,0.1,5.7c0.2,3.8,1.5,4.8,5.1,4.1c21.7-4.6,43.4-9.1,65.1-13.7
		c3.9-0.8,7.8-1.5,11.6-2.4c2.7-0.6,3.3-1.5,3.5-4.2c0-0.5,0-1,0-1.5c-0.1-7-0.1-14-0.2-21.1c-0.1-5.5,0-11-0.6-16.4
		c-0.4-3.3-0.8-3.6-4-3.7c-4.8,0.1-9.7,0.5-14.5,1.2c-5.1,0.6-10.1,1.2-15.2,1.8c-2.3,0.2-2.9-0.3-3.1-2.7c-0.2-3.3-0.4-6.6-0.6-9.9
		c-0.3-4.7,0-9.4-0.5-14.2c-0.6-5.6-0.2-6,5.6-6.2c5.6-0.2,11.2-0.5,16.8-0.8c3.2-0.2,4-1,4.2-4.2c0-1.1,0-2.3,0-3.5
		c-0.3-10.4-0.7-20.9-1-31.4c-0.1-1.1-0.2-2.3-0.5-3.4c-0.7-2.9-1.1-3.4-4.1-3.3c-5.4,0-10.7,0.2-16.1,0.4c-2,0.1-4.1,0-6.1-0.2
		c-2.2-0.3-2.5-0.6-2.7-2.8c-0.1-0.8,0-1.5-0.1-2.3c-0.3-5.5-0.1-11-0.7-16.5c-0.3-2.5-0.2-5.1-0.2-7.7c0-3.1,0.2-3.3,3.5-3.6
		c0.1,0,0.3,0,0.4,0c8.7-0.5,17.3-1,26-1.5c3.8-0.3,7.6-0.5,11.4-1c3.5-0.5,4-1.2,4.2-4.8c0.5-13,0.6-26,0.6-39
		C489,563.2,487.8,562.1,484.1,562.1z"/>
	<path class="st0" d="M234.7,810.5c-0.4-10.2-1.9-20.3-2.7-30.5c-0.1-1.3-0.2-2.5-0.4-3.8c-0.2-1.7-0.4-3.3-0.7-5
		c-0.3-2.1-1.2-2.9-3.3-3.2c-1-0.1-2-0.2-3.1-0.1c-8.3,0-16.5-1.7-24.2-4.9c-14.1-6-24.7-16-32.3-29.4
		c-15.5-27.9-14.1-62.1,3.8-88.5c9.8-14.2,22.9-23.8,39.8-28c1-0.3,2-0.4,3-0.7c1.5-0.3,2.7-1.5,3.2-3c0.5-1.6,0.7-3.2,0.7-4.9
		c0.4-9.3-1.1-18.6-1.1-27.9V570c0-5.3-1.1-6.5-6.4-7c-0.6-0.1-1.3-0.1-1.9-0.1c-6.6-0.2-13.3,0.5-19.8,1.9
		c-16.9,3.7-31.4,11.9-44,23.6c-13.2,12.3-22.9,27-29.8,43.6c-14.5,35.4-15.9,74.8-3.9,111.1c6.9,20.1,17.4,38,33.1,52.6
		c19.5,18.1,42.6,26.6,69.3,24.8c4.8-0.4,9.6-1,14.4-2C234.4,817.4,234.9,816.5,234.7,810.5z"/>
	<path class="st0" d="M760.3,565.5c0-0.9,0-1.8,0-2.7c-0.1-2.3-1.3-3.5-3.3-4.2c-1.5-0.4-3-0.5-4.6-0.3c-18.8,0-37.5,0-56.3,0
		c0,0.2-37.5,0.6-56.3,0.6c-1.1,0-2.3,0-3.4,0.1c-3,0.2-5.5,2.6-5.8,5.6c-0.1,0.8-0.1,1.5-0.1,2.3c0,13.1,0.1,26.3,0.2,39.4
		c0,2.3,0.2,4.6,0.5,6.8c0.3,2.4,1,3.2,3.3,3.4c1.8,0.1,3.6,0.2,5.3,0.1c9.2-0.2,18.4-0.4,27.6-0.5c3,0,3.3,0.3,3.6,3.2
		c0,0.4,0,0.8,0,1.2c0.2,8.7,0.3,17.3,0.7,26s0.4,17.1,0.7,25.6c0.7,18.2,1.1,36.5,1.6,54.7c0.3,8.5,0.3,17.1,0.7,25.6
		c0.6,13.4,0.8,26.8,1.1,40.2c0.1,5.7,1.3,6.7,7,5.5c5.8-1.3,11.7-2.5,17.6-3.8c6.3-1.4,12.7-2.8,19-4.4c2.8-0.7,3.3-1.5,3.3-4.3
		c0-0.9,0-1.8,0-2.7c-0.2-13.9-0.3-27.8-0.5-41.7c-0.4-40.1,0.1-80.2-0.7-120.2c-0.1-6.5,0.2-5.6,5.6-5.7c9.2-0.2,18.4-0.2,27.6-0.5
		c5.7-0.2,6-0.8,6-6.4C760.5,594.1,760.4,579.8,760.3,565.5z"/>
	<path class="st0" d="M856.5,563.5c0-0.6,0-1.3-0.1-1.9c0-1.7-1.3-3.2-3-3.4c-0.8-0.1-1.5-0.2-2.3-0.1c-4.8,0.1-9.7,0.2-14.5,0.4
		c-19.8,0.7-39.5,1.5-59.3,2.1c-4,0.1-5.5,1.9-5.5,5.2c0,0.5,0,1,0,1.5c-0.1,9.8-0.3,19.6-0.5,29.5c-0.4,24.8-0.1,49.5-0.9,75.4
		c0,4.5,0,10.1,0,15.7c-0.1,15.7-0.3,31.4-0.5,47.1c-0.1,13.9-0.3,27.8-0.4,41.7c0,0.3,0,0.5,0,0.8c0.2,3,1.3,3.8,4.3,3.1l76-15.9
		c3.7-0.8,4.5-1.6,4.4-5.5c-0.2-11.7-0.4-23.5-0.7-35.2c-0.1-1.4-0.3-2.8-0.5-4.2c-0.1-1.3-1.1-2.2-2.4-2.2c-0.1,0-0.2,0-0.2,0
		c-2,0.1-4.1,0.1-6.1,0.3c-7.9,0.8-15.7,1.7-23.6,2.6c-3.2,0.4-3.6,0.1-3.7-3.1s-0.1-6.4-0.1-9.6c0-5.5-0.1-11-0.1-16.5
		c0-3,0.2-3.1,2.9-3.3c4.1-0.3,8.1-0.5,12.2-0.7c1-0.1,2,0,3.1-0.2c3.1-0.5,4.4-2,4.6-5.2c0-0.8,0-1.5,0-2.3
		c0.2-6.4,0.2-12.8,0.6-19.1c0.3-5,0.3-10,0.3-14.9c0-3.5-1.2-4.5-4.7-4.5c-0.6,0-1.3,0.1-1.9,0.1c-4.7,0.2-9.4,0.4-14.2,0.5
		c-3,0-3.2,0-3.2-2.8c-0.2-8.8-0.3-17.6-0.4-26.4c0-3.2,0.6-3.7,3.8-4c5.3-0.3,10.7-0.6,16.1-0.9c5.4-0.1,10.7-0.6,16-1.3
		c3.3-0.5,3.8-1.2,3.9-4.6C856,589,856.7,576.3,856.5,563.5z"/>
	<path class="st0" d="M666.2,798c-0.2-1-0.6-2-0.8-2.9C646,729,626.7,662.9,607.4,596.8c-3-10.4-6.1-20.8-9.3-31.2
		c-1.3-4.3-3-5.9-8.1-5.7c-15.6,0.5-31.1,0.8-46.7,1.1c-1,0-2,0.1-3.1,0.1c-1.7,0-3.2,1.2-3.6,2.9c-0.3,1.1-0.6,2.2-0.8,3.3
		c-0.4,2.3-0.7,4.5-1.1,6.8c-2.2,13.6-4.4,27.2-6.5,40.8c-1.9,11.9-3.8,23.9-5.7,35.9c-2.2,13.6-4.3,27.2-6.5,40.8
		c-2.2,13.5-4.3,26.9-6.4,40.4c-2.4,15.1-4.9,30.2-7.3,45.3c-2.2,14-4.5,28-6.7,41.9c-0.6,3.9-1.2,7.8-1.8,11.5
		c-0.1,3.4,1.3,4.7,4.4,4.3c0.4-0.1,0.8-0.2,1.1-0.3l29.3-5.7c5.1-1,10.3-2,15.4-2.9c2.9-0.5,4.3-2.2,4.6-5.2
		c0.4-4.2,1.2-8.3,1.8-12.5c1.7-11.5,3.4-22.9,5.1-34.4c1-6.7,2-13.3,3-20c0.4-2.7,0.5-2.7,3.1-3c3.2-0.4,6.3-0.8,9.5-1.2
		c7.8-0.9,15.7-1.8,23.6-2.7c4.1-0.5,4.1-0.9,5.3,3.8c3.9,15.3,7.9,30.6,11.8,45.9c0.9,3.6,1.8,7.2,2.8,10.7
		c0.7,2.6,1.5,3.1,4.2,2.7c0.4,0,0.7-0.2,1.1-0.2c12.3-2.2,24.6-4.3,36.9-6.5c2.7-0.3,5.3-1,7.8-1.9
		C666.3,800.8,666.6,800,666.2,798z M553.8,702.2c0.3-3.4,0.8-6.8,1.3-10.2c2.2-15,4.5-30,6.8-45c0.4-2.8,0.8-5.5,1.4-8.3
		s1.8-3.9,4.3-4s3.6,0.8,4.5,3.7c0.8,2.8,1.5,5.7,2.3,8.5c4.2,16,8.4,32,12.7,48c0.5,1.5,0.7,3,0.7,4.5c0.2,1.5-0.9,2.8-2.4,2.9
		c0,0,0,0,0,0c-1.6,0.3-3.3,0.6-4.9,0.7c-6.8,0.6-13.7,1.2-20.6,1.8c0,0,0-0.1,0-0.1c-1.2,0.1-2.3,0.2-3.4,0.1
		C554.3,705,553.6,704.4,553.8,702.2z M619.3,803.1c0-0.1,0-0.1-0.1-0.2S619.3,803,619.3,803.1z"/>
	<path class="st0" d="M567.4,650.1c-0.2,0.4-0.3,0.8-0.5,1.2C567,650.9,567.2,650.5,567.4,650.1z"/>
	<path class="st0" d="M580.1,695.5c0.1,0.5,0.2,0.9,0.3,1.4C580.3,696.4,580.2,696,580.1,695.5z"/>
	<path class="st0" d="M390.4,783.8c-0.3-1.2-0.8-2.4-1.4-3.5c-2.4-4.4-4.8-8.7-7.1-13.1c-14-26.9-28-53.9-42-80.8
		c-2.8-5.3-2.6-3.9,0.6-8.3c5.5-7.3,10.3-15.2,14.3-23.5c5.5-11.9,8.9-24.1,8.3-37.3c-0.4-12.6-5.5-24.7-14.4-33.7
		c-7.5-7.8-16.6-13-26.7-16.6c-13.7-5-28-6.5-42.9-6.6c-7.3,0-14.5,0.5-21.8,1.3c-5.4,0.7-10.8,1.6-16.2,2.6
		c-2.9,0.5-3.4,1.2-3.5,4.1c0,0.5,0,1,0,1.5c0.4,10.3,0.9,20.6,1.4,31c0.6,13,1.1,26,1.6,39c0.5,11.3,1,22.7,1.5,34
		c0.6,13.3,1.1,26.5,1.6,39.8c0.5,11,1,21.9,1.4,32.9c0.5,12.9,1.1,25.8,1.6,38.6c0.4,8.4,0.7,16.8,1,25.3c0,0.8,0.1,1.5,0.3,2.3
		c0.6,2.3,1.8,3.2,4.2,3.1c1.2-0.1,2.3-0.2,3.4-0.4c12.2-2.3,24.3-4.5,36.5-6.8c3.5-0.7,4.3-1.5,4.6-5c0.1-0.8,0.1-1.5,0-2.3
		c-0.3-7.4-0.7-14.8-1-22.2c-0.4-8.2-0.6-16.3-1-24.5c-0.6-12.6-1.3-25.2-2-37.8c0-1.2-0.6-3.2,0.4-3.5c1.7-0.5,1.9,1.6,2.6,2.7
		c10.4,17.3,20.7,34.6,30.9,52c4.7,7.9,9.7,15.6,13.8,23.8c3.1,6.1,3.7,6.3,10.4,5c8.2-1.7,16.5-3.4,24.7-5.1
		c3.9-0.8,7.8-1.5,11.6-2.4C390.1,788.3,390.9,786.9,390.4,783.8z M283.8,660.7c-3.5,0-3.9-0.5-4.1-4c-0.6-8.7-1.1-17.3-1.7-25.9
		c-0.2-3.5-0.8-7.1-0.5-10.3c0-2.4-0.1-4.5,0-6.5c0.3-3.6,1.9-5.1,5.5-4.9c11.4,0.6,21.5,4.1,29.1,13c1.4,1.7,2.6,3.5,3.5,5.5
		c1.1,2.5,1.4,5.2,0.9,7.8c-1,6.1-4.1,11.7-8.7,15.7C300.9,657.1,293.1,660.8,283.8,660.7z"/>
	<path class="st1" d="M656,490.4c0.9-2.6,0.6-4.7,0.6-6.7c-0.3-33.2-0.7-66.5-1.1-99.7c-0.1-1.8,0-3.5,0.2-5.3
		c0.3-2.2,1.5-3.4,3.3-3.6s3.1,0.8,3.9,2.9c0.6,2.2,0.9,4.5,0.7,6.8c0.1,14,0.1,27.9,0.3,41.9c0.3,27.9,0.6,55.9,1,83.8
		c0.1,1.8,0,3.5-0.1,5.3c-0.1,1.8-1.5,3.4-3.3,3.7c-1.6,0.3-3.2-0.5-4-2c-1-1.9-1.9-3.8-2.6-5.8c-13.3-34.7-26.6-69.3-39.9-103.9
		c-0.8-2.2-1.3-4.7-3-6.4c-0.8,0.2-1.4,1-1.2,1.9c-0.1,1.9-0.1,3.9-0.1,5.8c-0.2,34.3-0.5,68.6-0.8,102.9c0,1.6-0.1,3.2-0.3,4.8
		c-0.2,1.7-1.6,2.9-3.3,3c-1.8,0.2-2.9-0.9-3.7-2.5c-0.6-1.7-0.9-3.4-0.7-5.2c0.1-8.7,0.3-17.3,0.4-26c0.2-34.1,0.4-68.3,0.6-102.4
		c0-1.6,0-3.2,0.1-4.8c0.3-2.4,1.5-3.7,3.5-4.2c2.1-0.6,4.4,0.5,5.2,2.6c0.8,1.8,1.6,3.5,2.2,5.4c13,34,26.1,68,39.1,101.9
		C653.6,486.5,653.9,488.5,656,490.4z"/>
	<path class="st1" d="M521.5,512.5c0,1.8,0.2,3.5-0.8,5.2c-0.7,1.5-2.3,2.3-3.9,2.1c-1.5-0.1-2.7-1.2-3-2.7
		c-0.3-1.2-0.4-2.5-0.3-3.7c-0.4-43.6-0.7-87.2-1.1-130.9c0-6.6,1.6-8.2,8.2-7.9c11.2,0.5,21.7,3.3,30.7,10.4
		c9.3,7.4,14.6,16.8,13.9,28.9c-0.5,7-3.1,13.6-7.7,18.9c-6.2,7.7-14.7,13.1-24.3,15.4c-6.1,1.5-4.9,2.3-2.3,6.5
		c10.9,18,21.8,36.1,32.7,54.1c1.1,1.8,2.2,3.7,3.1,5.6c0.9,1.9,0.1,4.1-1.8,5c-1.5,0.7-3.3,0.4-4.4-0.9c-1.3-1.5-2.4-3.1-3.3-4.8
		c-10.7-17.6-21.3-35.2-32-52.8c-1-1.6-1.6-4.6-3.5-4.1c-2.1,0.5-0.9,3.4-1,5.1c-0.1,8.3,0,16.7,0,25C521,487,521.5,504,521.5,512.5
		z M520.4,411.6L520.4,411.6c0.1,2,0.1,3.9,0.1,5.9c0.1,6.5,0,13.1,0.2,19.7c0.1,4.4,0.8,5,5.1,4.5c4.6-0.6,9-2,13.1-4.1
		c6-3,11.1-7,14.6-12.8c3.7-6.2,4.9-12.8,2.7-19.9c-3.8-12.1-21-23.2-33.5-21.7c-1.2,0.1-2,0.7-2.1,1.9c-0.1,1.4-0.1,2.8-0.1,4.3
		C520.4,396.8,520.4,404.2,520.4,411.6L520.4,411.6z"/>
	<path class="st1" d="M432.5,452.7c-4,0.1-4.3,0.3-5.3,4.3c-2,8-3.8,16-5.7,23.9c-2.5,10.7-5,21.4-7.6,32.1c-0.3,1.5-0.8,3-1.4,4.5
		c-0.7,1.7-2.5,2.7-4.3,2.2c-1.8-0.3-3.1-2-2.9-3.8c0.1-1.4,0.4-2.8,0.7-4.1c9.3-39.4,18.7-78.7,28-118.1c1.1-4.6,2.1-9.2,3.4-13.7
		c0.9-3.2,2.3-4.3,5-4.5c2.3-0.1,3.6,0.6,4.5,2.8c0.6,1.5,1,3,1.3,4.5c9.7,43.4,19.4,86.8,29.1,130.2c0.4,1.2,0.6,2.4,0.4,3.6
		c-0.2,1.6-1.4,2.9-3,3.2c-1.6,0.4-3.3-0.4-3.9-1.9c-0.7-1.6-1.2-3.3-1.6-5c-4-17.7-7.8-35.4-11.9-53.1c-1.7-7.2-0.3-7.2-8.7-7.2
		c-2.3,0-4.5,0-6.8,0C442,452.6,435.7,452.6,432.5,452.7z M442.3,396.4c-1.1,0.9-1.1,2-1.3,3c-3.3,13.6-6.5,27.1-9.7,40.7
		c-0.2,0.7-0.3,1.4-0.3,2.1c-0.2,2,0.1,2.5,2.2,2.6c5.8,0.1,11.5,0.1,17.3,0c2.9,0,3.3-0.7,2.9-3.5c-0.1-0.7-0.3-1.4-0.5-2
		c-2.9-13.1-5.8-26.2-8.7-39.3C443.8,398.6,443.7,397.4,442.3,396.4L442.3,396.4z"/>
	<path class="st1" d="M327.4,446.4c0-20.7,0-41.3,0-62c0-7.7,1.1-8.9,8.7-8.9c10.3,0,20.7,0,31,0c1.2-0.1,2.5,0,3.7,0.1
		c1.8,0.1,3.3,1.5,3.5,3.4c0.2,2-1.2,3.8-3.3,4.1c-1.4,0.2-2.8,0.3-4.2,0.3c-8.2,0-16.5,0-24.7,0c-1.4,0-2.8,0-4.2,0.1
		c-1.3-0.1-2.4,0.9-2.4,2.2c0,0,0,0,0,0.1c-0.1,1.2-0.2,2.4-0.2,3.7c0,16.3,0,32.6,0,48.9c0,0.9,0,1.8,0.1,2.6
		c0.2,2.6,0.6,3.1,3.2,3.1c3.5,0,7-0.1,10.5-0.2c1.2-0.1,2.5,0,3.7,0.1c1.8,0.3,3.1,1.8,3.3,3.6c0,1.8-1.1,2.9-2.6,3.6
		s-3.1,0.5-4.6,0.5c-3.5,0.2-7,0.4-10.5,0.6c-1.5,0-2.8,1.2-2.8,2.7c0,0.1,0,0.3,0,0.4c0,1-0.1,2.1-0.1,3.1c0,15.1,0,30.1,0,45.2
		c0,6.1,0.2,6.2,6.2,6.1c8.2-0.1,16.5-0.3,24.7-0.4c1.7,0,3.5,0.1,5.2,0.5c1.6,0.2,2.8,1.7,2.7,3.4c0.2,1.7-1,3.2-2.6,3.5
		c-1.5,0.3-3.1,0.5-4.7,0.5c-10.3,0.2-20.7,0.3-31,0.5c-1.1,0.1-2.1,0-3.1-0.1c-2.7-0.3-4.9-2.4-5.2-5.1c-0.2-1.6-0.2-3.1-0.1-4.7
		C327.4,487.4,327.4,466.9,327.4,446.4L327.4,446.4z"/>
	<path class="st1" d="M265,517.9c-4-0.1-5.6-1.7-6.1-5.7c-0.1-1-0.1-2.1-0.1-3.1c-0.3-41-0.7-81.9-1-122.9c0-2.1,0-4.2,0.1-6.3
		c0-1.1,0.4-2.1,1-2.9c1-1.5,3-2,4.6-1c0.5,0.3,0.8,0.7,1.1,1.2c0.7,1.1,1,2.3,1,3.5c0,1.6,0,3.1,0.1,4.7
		c0.1,27.3,0.2,54.6,0.4,81.9c0.1,12.6,0.4,25.2,0.6,37.8c0,0.7,0.1,1.4,0.1,2.1c0,2,1,2.8,2.9,2.8c3,0,6,0,8.9,0
		c5.4-0.1,10.9-0.3,16.3-0.3c1.7,0,3.5,0.1,5.2,0.4c1.6,0.3,2.8,1.8,2.6,3.4c0.1,1.5-0.8,2.8-2.2,3.3c-1.6,0.6-3.4,0.9-5.2,0.8
		C290.4,517.6,270.1,518,265,517.9z"/>
	<path class="st0" d="M167.8,443.5l-5.6,26.5c-1.1,5.3,0.4,7,2.8,7c3.5,0,7.6-2.4,9.9-4.7c0.9,0.4,1.6,1.3,1.6,2.3
		c0,0.8-0.3,1.5-0.9,2.1c-4.4,5-11.6,9.4-17.9,9.4c-5.8,0-9.5-3.6-7.4-14l6-28.5h-4.7c-0.5-3,1-5.5,4-5.5h1.9l1.7-7.8
		c0.9-4.4,4.5-6,7.9-6c1.6,0,3.1,0.4,4.4,1.2L169,438h6.9c0.5,3-1,5.5-4,5.5L167.8,443.5z"/>
	<path class="st0" d="M212.7,454.1c0,14.1-10.1,31.9-24.9,31.9c-9.7,0-13.9-7.8-13.9-16.7c0-14.3,9.9-32.1,24.2-32.1
		C208.3,437.2,212.7,444.8,212.7,454.1z M185.9,466.3c0,8.3,2.8,11.5,6.1,11.5c7.5,0,13.5-14.5,13.5-24.5c0-5.1-1.6-9-5.5-9
		C191.5,444.4,185.9,457,185.9,466.3L185.9,466.3z"/>
	<path class="st0" d="M734,444.2c1.5-1.7,3.7-2.6,6-2.6c1.5,0,2.9,0.4,4.2,1.2l-6.2,29.4c-1.1,5,0.3,6.6,2.7,6.6
		c3.3,0,7.1-2.2,9.3-4.5c0.9,0.3,1.5,1.2,1.5,2.1c0,0.7-0.3,1.5-0.8,2c-4.2,4.7-10.6,8.8-15.4,8.8c-4.2,0-8.4-2-8.3-9
		c-3.7,5.3-8.5,9-13.5,9c-9.3,0-11.1-9.3-11.1-15c0-15.6,10-31,22.4-31C728.8,441.3,731.7,442.3,734,444.2z M732.2,448.7
		c-1.4-0.5-2.8-0.7-4.2-0.7c-10.8,0-14.6,14-14.6,23.8c0,4.5,2,6.4,4.8,6.4s6.6-2.3,9-5.6L732.2,448.7z"/>
	<path class="st0" d="M751.2,445.9c3-2.4,6.2-4.3,10-4.3c3.2,0,5.1,1.5,4.3,4.9l-0.9,4c3.7-5.3,9.4-8.9,14.6-8.9
		c4.7,0,8.1,3.7,6,13.1l-4.4,20.5c-0.5,2.6,0.6,3.6,2.4,3.6c3.3,0,7.1-2.2,9.3-4.5c0.9,0.3,1.5,1.2,1.5,2.1c0,0.7-0.3,1.5-0.8,2
		c-4.2,4.7-10.1,8.8-16.1,8.8c-4.5,0-9.2-2.2-6.9-12.6L774,457c0.8-3.7-0.4-5.2-2.4-5.2c-2.4,0-6,2.2-7.9,4.6l-5.4,25.4
		c-0.9,4.1-4.3,5.6-7.5,5.6c-1.5,0-2.9-0.4-4.2-1.2l7.3-34.2c0.4-1.4-0.1-2.2-0.9-2.2c-0.4,0-1,0.4-1.8,1.1
		c-1.4-1.2-1.5-3.2-0.3-4.6C751,446.1,751.1,446,751.2,445.9z"/>
	<path class="st0" d="M816.3,478.3c-3.7,5.3-8.5,9-13.5,9c-9.3,0-11.1-9.3-11.1-15c0-15.6,10-31,22.4-31c3.7,0,6.4,0.8,8.5,2.5
		l2.2-10.4c0.5-2.4-1.2-2.9-2.6-1.2c-0.9-0.7-1.4-1.7-1.3-2.8c0-2,6.4-6.3,11.2-6.3c3.2,0,5,1.5,4.3,4.9l-9.3,44.3
		c-1,4.5,0.2,6.5,2,6.5c1.6,0,3.7-1.1,5-4.3c1.7,0,2.7,0.9,2.7,2.4c0,6.2-7.3,10.4-12.3,10.4C820.2,487.3,816.2,485.3,816.3,478.3z
		 M816.4,472.6l5.1-23.8c-1.4-0.5-2.8-0.8-4.3-0.8c-10.8,0-14.6,14-14.6,23.8c0,4.5,2,6.4,4.8,6.4S814,475.8,816.4,472.6
		L816.4,472.6z"/>
</g>
</svg>
