<svg xmlns="http://www.w3.org/2000/svg" width="265.16" height="214.93"><defs><pattern id="a" data-name="a" width="47.23" height="47.23" patternTransform="matrix(.12 0 0 -.12 40.46 746.26)" patternUnits="userSpaceOnUse"><path fill="none" d="M0 0h47.23v47.23H0z"/><path fill="none" d="M0 0h47.23v47.23H0z"/><path d="M47.23 0v4.06A6.07 6.07 0 0 1 43.17 0zM29.4 0A6 6 0 0 1 22 4.19 6 6 0 0 1 17.83 0zM4.07 0A6.07 6.07 0 0 1 0 4.06V0zm25.59 23.61a6 6 0 1 1-6-6 6 6 0 0 1 6 6zm17.57 5.79a6 6 0 0 1 0-11.57zM0 17.83a6 6 0 0 1 4.32 5.78A6 6 0 0 1 0 29.4zm29.4 29.4H17.83a6 6 0 0 1 11.57 0zm17.83 0h-4.06a6.07 6.07 0 0 1 4.06-4.07zM0 43.16a6 6 0 0 1 4.07 4.07H0z" fill="#010101"/></pattern></defs><g data-name="Layer 2"><g data-name="Layer 1"><path d="M260.81 210.45l-57.94.38-58.18.28-58.3.14c-19.46 0-38.91 0-58.34-.15h-.72v-.71l.26-46.85.14-46.85V69.85L27.54 23v-.54h.55l58.17-.25 58.13-.15 58.17-.06h59.17v1q0 23.52-.15 47l-.24 46.94zm-.15-.14l-.55-93.88-.23-46.76c-.08-15.57-.16-31.12-.15-46.68l1 1h-58.17l-58.17-.09-58.17-.18-58.17-.24.55-.55-.19 46.85v46.84l.14 46.85.26 46.85-.72-.72c19.35-.14 38.68-.13 58-.16l58 .15 58.16.27z" fill="#010101"/><path d="M264.42 214.13l-240.06.8h-.8v-.81L23.36 5V4h1l240.06.26h.74V5zm0 0L263.69 5l.73.73L24.36 6l1-1-.19 209.13-.81-.8z" fill="#010101"/><path d="M251.32 9.86c1.41 1.26 2.8 2.54 4.17 3.82a24.08 24.08 0 0 1 2.05 2 21 21 0 0 1 1.77 2.22l-.05.05a18.91 18.91 0 0 1-2.21-1.78c-.7-.63-1.31-1.35-2-2.05-1.29-1.37-2.56-2.76-3.83-4.16z" fill="#010101"/><path d="M259 9.91q-1.89 2.16-3.83 4.15c-.64.7-1.25 1.42-2 2a19.78 19.78 0 0 1-2.17 1.83l-.05-.05a18.73 18.73 0 0 1 1.77-2.22c.64-.7 1.36-1.31 2-2 1.38-1.29 2.76-2.56 4.17-3.82z" fill="#010101"/><path d="M195.88 107.9c2.44 3.76 2.36 10.25 2.44 15.47s-1 10.6-4.09 14.95c-.78 1.11-2.07 2.26-3.4 1.83-.84-.27-1.32-1.07-1.89-1.71s-1.57-1.16-2.31-.69a2 2 0 0 0-.67.91l-3.42 7.1a7.64 7.64 0 0 1-2.71 3.55c-1.33.79-3.47.53-4-.85-2.1 4.12-5.16 7.73-8.19 11.3a2.8 2.8 0 0 1-2.19 1.32c-.94-.08-1.51-1-1.92-1.79-1.38-2.69-2.79-5.5-2.75-8.48 0-2.72 1.27-5.28 2.63-7.68 7.31-12.89 18.67-23.27 29.84-33.43a8.86 8.86 0 0 1 2.71-1.57zM122 25.83c7-5.83 14.2-11.37 22.23-15.52s17-6.89 26-6.74a5 5 0 0 1 3.59 1.07c1.52 1.58.54 4.17-.52 6.1l-2.61 4.77a2.65 2.65 0 0 0-.34.84 1.87 1.87 0 0 0 1.31 1.9 5.43 5.43 0 0 0 2.47.13c8.09-.8 16.76-1.38 23.87 2.62a5.89 5.89 0 0 1 3.09 3.28c.45 1.69-.47 3.45-1.62 4.76A27.31 27.31 0 0 0 196 33a2.85 2.85 0 0 0-.16 3 3.27 3.27 0 0 0 1.81 1c3.8 1.11 7.88 1.58 11.25 3.66s5.76 6.58 3.85 10.06c-1.13 2.06-3.41 3.17-5.55 4.16l-8.71 4c-7.16 3.31-14.36 6.63-22 8.75s-15.68 3-23.4 1.37c-8.14-1.72-15.43-6.13-22.54-10.47a22.79 22.79 0 0 1-4-2.83c-2.36-2.21-3.7-5.26-5-8.22-1.71-3.92-3.44-8-3.53-12.26s1.86-8.89 5.75-10.67" fill="#ffe8ca"/><path d="M122 26.59a10.6 10.6 0 0 0-2.78 5.09 14 14 0 0 0-.13 5.88c.69 4 2.55 7.7 4.25 11.46a20.76 20.76 0 0 0 3.11 5 17.89 17.89 0 0 0 4.71 3.53c3.57 2.13 7.14 4.24 10.82 6a47.35 47.35 0 0 0 11.43 4.07 40.93 40.93 0 0 0 12 .55c8.09-.74 15.9-3.47 23.45-6.76 3.79-1.64 7.55-3.42 11.33-5.18l5.68-2.58a15 15 0 0 0 4.76-2.87 4.18 4.18 0 0 0 .88-4.22 8.26 8.26 0 0 0-3-4.12 16.47 16.47 0 0 0-5.15-2.26c-1.92-.55-4-1-6.06-1.55a6.4 6.4 0 0 1-1.89-.78 3.5 3.5 0 0 1-1.54-2.34 4.65 4.65 0 0 1 .24-2.39 6.38 6.38 0 0 1 .45-1c.16-.27.33-.54.52-.8 1.49-2 3.22-3.16 4-4.58a3.15 3.15 0 0 0 .5-1.94 2.77 2.77 0 0 0-1.07-1.62 12.33 12.33 0 0 0-2.34-1.41c-.88-.41-1.78-.78-2.69-1.1a35.34 35.34 0 0 0-11.83-1.4c-2 0-4.09.19-6.15.37l-1.56.14a7.79 7.79 0 0 1-1.93 0 3.73 3.73 0 0 1-2.14-1.1 3 3 0 0 1-.88-2.61 3.35 3.35 0 0 1 .32-.92c.11-.22.2-.37.28-.52l.52-.94 1-1.86 1-1.86a11.93 11.93 0 0 0 .8-1.74 4.67 4.67 0 0 0 .32-1.62 1.67 1.67 0 0 0-.36-1.09c-.45-.56-1.69-.76-3.07-.74a49.88 49.88 0 0 0-16.38 2.72c-10.67 3.53-20.14 10.05-29 17.11-2.69 2.16-3.51 1.36-.79-1a135.42 135.42 0 0 1 13.68-10.37 72.92 72.92 0 0 1 15.41-7.8 51.51 51.51 0 0 1 17.16-3.12 12.54 12.54 0 0 1 2.37.16 4.89 4.89 0 0 1 2.56 1.31 4.3 4.3 0 0 1 1.07 2.79 7.4 7.4 0 0 1-.43 2.56 14.52 14.52 0 0 1-1 2.15l-1 1.89-1 1.88-.45.94-.22.41v.09a.24.24 0 0 0 .1.24.93.93 0 0 0 .61.27 14.89 14.89 0 0 0 2.75-.17c2.09-.21 4.2-.39 6.33-.47a38.12 38.12 0 0 1 12.88 1.41 29.35 29.35 0 0 1 3.13 1.28 15.25 15.25 0 0 1 3 1.81 5.9 5.9 0 0 1 2.2 3.55 6.28 6.28 0 0 1-.85 4 12.32 12.32 0 0 1-2.2 2.77 18.38 18.38 0 0 0-1.92 2.13c-.12.17-.23.35-.33.51a3 3 0 0 0-.2.45 1.37 1.37 0 0 0-.1.69c0 .11 0 .06.14.18a3.87 3.87 0 0 0 1 .37c1.92.54 4 .93 6.06 1.52a19.39 19.39 0 0 1 6.23 2.78 11.56 11.56 0 0 1 4.19 5.86 8.31 8.31 0 0 1 .2 3.9 7.35 7.35 0 0 1-1.84 3.48 17.53 17.53 0 0 1-5.82 3.62l-5.68 2.62c-3.79 1.73-7.57 3.5-11.44 5.15-7.72 3.29-15.89 6.08-24.48 6.75a43.38 43.38 0 0 1-12.86-.78 49.5 49.5 0 0 1-12-4.5c-3.78-1.93-7.35-4.15-10.88-6.36a19.94 19.94 0 0 1-5.14-4.09 22.77 22.77 0 0 1-3.31-5.63c-.84-2-1.64-3.85-2.39-5.84a29.54 29.54 0 0 1-1.68-6.21c-.67-4.26.36-9.09 3.69-12.17a4.9 4.9 0 0 1 1.83-1.14c.48-.11.74-.07.79.08.21.36-.6.89-1.79 2.03zM194.09 104.06c-11.46 11.69-23.21 23.47-31.35 37.47-2 3.51-4.11 7.09-4.66 10.56s.83 6.91 2.62 10.56a11.31 11.31 0 0 0 .59 1.15l.12.17.21-.21c.12-.13.25-.28.39-.46l.49-.61.95-1.2 1.88-2.41c1.22-1.61 2.39-3.24 3.46-4.91l.78-1.26.37-.63.28-.5.37-.68 2.88-5.7 1.14 3.14.39 1.06a2.43 2.43 0 0 0 .19.47l.15.12a1 1 0 0 0 .39.08 1.65 1.65 0 0 0 .87-.18 5.24 5.24 0 0 0 1.83-2.28c.56-1.12 1.16-2.48 1.75-3.73l1.77-3.81.89-1.91a6.39 6.39 0 0 1 1-1.68 3.37 3.37 0 0 1 1.51-1 4 4 0 0 1 3.52.77 9.24 9.24 0 0 1 .73.66c.11.13.21.24.31.37l.19.24c.23.3.42.56.58.75a1.77 1.77 0 0 0 .33.34.21.21 0 0 0 .13.05.28.28 0 0 0 .18 0 1.65 1.65 0 0 0 .44-.26 4.82 4.82 0 0 0 1-1.11 17.91 17.91 0 0 0 1-1.64 31.9 31.9 0 0 0 3.77-15.34c0-2.78.08-5.58 0-8.32a31.84 31.84 0 0 0-1.12-8c-.52-1.73-.62-2.72-.16-3s1.49.34 2.25 2.31a34.08 34.08 0 0 1 1.65 8.53c.24 2.86.31 5.66.4 8.48A34.5 34.5 0 0 1 197 137.6c-.35.67-.73 1.3-1.15 2a8.68 8.68 0 0 1-1.77 2 5.21 5.21 0 0 1-1.36.81 4.13 4.13 0 0 1-1.87.31 3.74 3.74 0 0 1-1.84-.59 5.19 5.19 0 0 1-1.23-1.06c-.3-.34-.53-.64-.73-.89l-.14-.17h-.05a.23.23 0 0 0-.2 0c-.07 0-.08.11-.11.18l-.84 1.93L184 146c-.59 1.3-1.09 2.51-1.76 3.91a9.28 9.28 0 0 1-3.47 4.09 5.73 5.73 0 0 1-3.18.76 5.2 5.2 0 0 1-1.66-.32h-.06l-.09.18-.41.7c-.27.47-.55.92-.84 1.38-1.14 1.81-2.38 3.54-3.65 5.22l-2 2.28-1 1.22-.48.61c-.18.22-.38.46-.61.71a7.35 7.35 0 0 1-.93.84 4.72 4.72 0 0 1-1.35.71 3.85 3.85 0 0 1-2.92-.2 4 4 0 0 1-1.21-.9 3.6 3.6 0 0 1-.51-.59c-.14-.19-.22-.32-.32-.47a13.33 13.33 0 0 1-.83-1.59 36.82 36.82 0 0 1-2.43-6.09 15.61 15.61 0 0 1-.44-7.06 23.16 23.16 0 0 1 2.25-6.39c.48-1 1-1.9 1.53-2.81s1-1.84 1.6-2.73a119.91 119.91 0 0 1 15.44-19.77c5.72-6.07 11.74-11.66 17.89-17.29 2.07-1.63 3.6-1.44 3.72-1 .07.25-.11.56-.49 1s-.98.96-1.7 1.66z" fill="#010101"/><ellipse cx="134.32" cy="187.12" rx="19.51" ry="35.23" transform="rotate(-80.31 134.326 187.127)" fill="#ce3339"/><path d="M117.66 200.64a57.46 57.46 0 0 0 13.22 3.8 58.31 58.31 0 0 0 13.71.7 39.82 39.82 0 0 0 13.08-3 20.42 20.42 0 0 0 5.42-3.37 10.92 10.92 0 0 0 3.3-4.78 1.42 1.42 0 0 1 1-.81 4.16 4.16 0 0 1 1.65-.13 2.56 2.56 0 0 1 1.48.65 1.52 1.52 0 0 1 .34 1.56 15.4 15.4 0 0 1-4.63 6.81 24.63 24.63 0 0 1-6.65 4.09A44 44 0 0 1 145 209.4a62.17 62.17 0 0 1-14.73-.92 61.16 61.16 0 0 1-14.14-4.25c-1.43-.62.29-4.17 1.53-3.59zM108.3 195.06a36.44 36.44 0 0 0 5.65 3.71c1.26.68-.5 4.27-2 3.46a40.3 40.3 0 0 1-6.15-4.13c-1.17-1.04 1.49-3.9 2.5-3.04zM101.49 185.69a16 16 0 0 0 3.9 6.54c.46.52 0 1.47-.69 2.17s-1.73 1.12-2.31.47a20 20 0 0 1-4.69-8.17c-.39-1.7 3.54-2.13 3.79-1.01zM119.68 169.23a31.92 31.92 0 0 0-12.59 4.44c-.57.38-1.45-.22-2-1s-.83-1.86-.1-2.35a35.93 35.93 0 0 1 14.15-5c1.45-.18 1.86 3.74.54 3.91zM104.06 176.11a10.66 10.66 0 0 0-2.74 5.34c-.13 1.16-4.18 1.23-3.91-.76a14.6 14.6 0 0 1 3.78-7.26c1.2-1.2 3.69 1.83 2.87 2.68zM125.88 168.7a24.86 24.86 0 0 0-2.72.19c-1.43.12-1.9-3.85-.24-4 1-.08 1.91-.11 2.86-.13 1.47-.01 1.43 3.92.1 3.94zM138.24 169.72a65.28 65.28 0 0 0-6.83-.83c-1.45-.1-1.31-4.09.35-4 2.41.21 4.82.55 7.2 1 1.46.25.63 4.11-.72 3.83zM153.88 175a53.16 53.16 0 0 0-8.91-3.58c-1.39-.42-.35-4.28 1.23-3.79a56.92 56.92 0 0 1 9.5 3.89c1.3.71-.62 4.11-1.82 3.48zM169.32 193.06c1.7.32 2.22-.38 2.24-1.43a15.94 15.94 0 0 0-.37-3.15 19.13 19.13 0 0 0-4.45-8.61 33.73 33.73 0 0 0-7-6c-1.42-.93-3.46 2.51-2.27 3.28a30.17 30.17 0 0 1 6.31 5.4 15 15 0 0 1 3.59 6.94 7.48 7.48 0 0 1-.27 2c.01.66.48 1.28 2.22 1.57z" fill="#010101"/><path d="M14.88 29.06c-1.8 2.17-8.28 13.31-6 25.61a5 5 0 0 1-1.51 4.56C3.93 62.42-1.79 69.87 3.6 81a13.37 13.37 0 0 0 5.92 6c5.61 2.9 9.58 5.12 18.48 3.44a4.13 4.13 0 0 1 3.47.92c9.64 8.29 76.8 47.34 77.27 62 .07 2.16 1.43 5.32 1.54 11.86a108.66 108.66 0 0 1-.41 13.14c-.19 1.82.5 4.69 1.92 5.85 6.47 5.3 25.37 17.3 44 7.08a6.59 6.59 0 0 0 3.42-5.1c1.28-12.25 7.93-57.2 38.12-79.47 0 0 39.33-35.49 34.39-65.61a1.6 1.6 0 0 0-1.83-1.33 1.45 1.45 0 0 0-.46.14c-10.34 5.22-60.07 30.81-62.05 41.08l-37.67-5.41-68-46.2c-4.06-3.57-33.22-16.48-46.83-.33z" fill="#f7c451"/><path d="M26.38 20.89a38.75 38.75 0 0 1 15.21-.33 62.28 62.28 0 0 1 14.53 4.24 36 36 0 0 1 3.45 1.64 18.68 18.68 0 0 1 1.69 1c.28.17.57.37.85.57l.38.29.32.22L69 32.67 81.31 41l49 33 35.81 5v-.13l.29-.54a7.59 7.59 0 0 1 .63-1c.21-.3.43-.6.67-.89a32.31 32.31 0 0 1 2.91-3.06 75.75 75.75 0 0 1 6.29-5.14c4.32-3.18 8.78-6.09 13.3-8.88 9-5.59 18.29-10.73 27.63-15.71l7-3.69 1.77-.91.88-.45.79-.4a4.31 4.31 0 0 1 .87-.32 3.68 3.68 0 0 1 3.32.84 3.93 3.93 0 0 1 1 1.45 8.92 8.92 0 0 1 .32 1.76 37.21 37.21 0 0 1 .16 8.37 49.66 49.66 0 0 1-1.5 8.14c-2.93 10.61-8.53 20-14.82 28.67a157.19 157.19 0 0 1-10.18 12.41q-2.69 3-5.53 5.81c-1 1-1.9 1.88-2.9 2.81a11.3 11.3 0 0 1-.93.78l-.76.59-1.45 1.1a80.75 80.75 0 0 0-19.14 23.91 129.66 129.66 0 0 0-11.21 29c-1.33 5-2.4 10.14-3.24 15.27-.41 2.58-.76 5.14-1 7.74a8.79 8.79 0 0 1-4 6.43 4.29 4.29 0 0 1-.55.31l-.47.23-1 .45a34.21 34.21 0 0 1-16.33 3.47 44 44 0 0 1-16-4 57.17 57.17 0 0 1-7.23-3.89c-1.15-.74-2.29-1.5-3.38-2.33-.56-.39-1.09-.84-1.64-1.26l-.21-.17-.3-.28a3.53 3.53 0 0 1-.51-.58 5.54 5.54 0 0 1-.73-1.16 10.79 10.79 0 0 1-1.12-4.74c0-1 .13-1.48.17-2.14l.14-1.93c.15-2.57.2-5.17.19-7.78a48.34 48.34 0 0 0-.48-7.6c-.19-1.25-.45-2.46-.72-3.8a14.29 14.29 0 0 1-.31-2.26 5.13 5.13 0 0 0-.28-1.39 20.4 20.4 0 0 0-3.88-6 75.45 75.45 0 0 0-5.41-5.47c-3.82-3.51-7.91-6.79-12.06-10s-8.41-6.28-12.71-9.31c-8.59-6.06-17.37-11.89-26.14-17.74-4.39-2.94-8.79-5.84-13.12-9-.54-.4-1.08-.8-1.62-1.22-.27-.22-.54-.42-.81-.66l-.36-.3-.25-.19a2.71 2.71 0 0 0-1.17-.39 3.21 3.21 0 0 0-.62 0l-1 .16a26.29 26.29 0 0 1-8.35.17 25.55 25.55 0 0 1-7.85-2.78 40.13 40.13 0 0 1-3.6-2 14.61 14.61 0 0 1-3.32-2.88A14 14 0 0 1 2 80.81a23.62 23.62 0 0 1-1.39-3.94 18.75 18.75 0 0 1-.24-8.43A18.6 18.6 0 0 1 4 60.85c.44-.55.89-1.09 1.37-1.59.24-.26.49-.5.74-.74l.37-.35.26-.27a3.74 3.74 0 0 0 .92-2.76 2.28 2.28 0 0 0 0-.37l-.07-.51-.13-1a16.7 16.7 0 0 1-.18-2 15.55 15.55 0 0 1 0-2 14.51 14.51 0 0 1 .09-2 35.87 35.87 0 0 1 1.51-8 28.87 28.87 0 0 1 3.86-8.1c1.2-1.62 2.06-2.23 2.2-2.05s-.23 1-1 2.79a60.69 60.69 0 0 0-3 8 33.8 33.8 0 0 0-1.33 7.52c-.07.64 0 1.27-.06 1.9a28.22 28.22 0 0 0 .32 3.79l.29 2a6.2 6.2 0 0 1-1.47 4.56 6.14 6.14 0 0 1-.43.45l-.34.33c-.22.22-.44.44-.65.67-.42.46-.82.93-1.19 1.42a15.38 15.38 0 0 0-2.82 13.77 20.44 20.44 0 0 0 1.28 3.48 11 11 0 0 0 1.87 3 12.05 12.05 0 0 0 2.68 2.31c1 .6 2.23 1.19 3.36 1.77a22.31 22.31 0 0 0 7 2.42 22.89 22.89 0 0 0 7.43-.23l1-.17a5.75 5.75 0 0 1 3.9.79c.19.12.37.25.55.39l.4.32c.23.2.49.39.73.59L35 92.12c4.24 3 8.69 5.87 13.09 8.76 8.83 5.77 17.68 11.54 26.38 17.57 4.34 3 8.66 6.09 12.89 9.29s8.41 6.51 12.39 10.11a76 76 0 0 1 5.75 5.74 39 39 0 0 1 2.59 3.29 17 17 0 0 1 2.09 4 9.65 9.65 0 0 1 .49 2.48 12.87 12.87 0 0 0 .25 1.65c.26 1.24.56 2.61.78 4a53.39 53.39 0 0 1 .57 8.18c0 2.67 0 5.35-.16 8l-.13 2c0 .65-.15 1.46-.14 1.8a6.75 6.75 0 0 0 .68 2.9 3.36 3.36 0 0 0 .32.51.57.57 0 0 0 .15.16l.06.06.17.14c.5.38 1 .78 1.5 1.15 1 .75 2.08 1.45 3.14 2.14a56.83 56.83 0 0 0 6.72 3.57 39.87 39.87 0 0 0 14.52 3.51 30 30 0 0 0 14.27-3l.84-.4.42-.19c.14-.07.2-.12.31-.18a4.65 4.65 0 0 0 1-.88 4.51 4.51 0 0 0 1-2.41c.27-2.64.63-5.31 1.05-7.95.85-5.28 1.93-10.52 3.29-15.69a132.88 132.88 0 0 1 11.55-30 84.83 84.83 0 0 1 20.21-25.21l1.61-1.26.81-.62a4.52 4.52 0 0 0 .58-.5c.94-.87 1.87-1.77 2.79-2.69 1.84-1.83 3.64-3.72 5.39-5.65a153.9 153.9 0 0 0 9.91-12c6.12-8.35 11.47-17.42 14.2-27.21a46.34 46.34 0 0 0 1.4-7.41 34.1 34.1 0 0 0-.12-7.42v-.15m-.07 0l-2.67 1.31-7 3.64c-9.31 4.9-18.53 10-27.48 15.44-4.47 2.73-8.88 5.57-13.07 8.62a71.59 71.59 0 0 0-6 4.83 25.52 25.52 0 0 0-2.56 2.64 8.45 8.45 0 0 0-.53.69 7.38 7.38 0 0 0-.46.68l-.18.33-.1.19a.82.82 0 0 0-.1.24l-.16.45-.59 1.78L129 77.26 79.66 43.37l-12.24-8.43-6.12-4.21-.2-.13-.1-.07-.13-.11-.35-.28c-.22-.16-.45-.32-.69-.47-.48-.32-1-.61-1.51-.9-1-.58-2.14-1.09-3.24-1.59A60.59 60.59 0 0 0 41.22 23a36.62 36.62 0 0 0-14.34.11 25 25 0 0 0-9 4.08l-1.24.92c-.33.27-.61.49-.85.65q-.72.51-.87.39c-.1-.09 0-.38.31-.9.15-.26.36-.57.62-.94a14.22 14.22 0 0 1 1-1.2 20 20 0 0 1 9.5-5.17z" fill="#010101"/><path d="M117.61 15.06a4.94 4.94 0 0 1 1.57.23c5.45 1.8 41.49 14.59 72.06 47.57 33.17 35.78 17.39 45-2.61 43 0 0-35.35-2.55-41.6-3.92a37.22 37.22 0 0 1-17.5-7.74c-7.64-6.3-16.83-25.2-19.42-31.33a3.15 3.15 0 0 0-1.11-1.38L87.47 46.62S80.68 41.39 96 25.06c0 0 10.65-9.81 21.61-10z" fill="#ef6572"/><path d="M114.44 16.06a30.52 30.52 0 0 0-9.19 3.51 48.32 48.32 0 0 0-8.12 5.69l-.46.41c-.1.08-.22.24-.37.4l-.82.94c-.54.64-1.11 1.25-1.63 1.89-1 1.31-2.06 2.6-3 4a24 24 0 0 0-1.29 2.1 17.1 17.1 0 0 0-1.13 2.16 23.27 23.27 0 0 0-.88 2.22 13.52 13.52 0 0 0-.46 2.26 6.92 6.92 0 0 0 .07 2.18 4.25 4.25 0 0 0 .8 1.77.72.72 0 0 0 .24.22l.52.36 1 .71 2.16 1.38 8.35 5.69 8.34 5.7 1 .71a5.63 5.63 0 0 1 .67.51 4.87 4.87 0 0 1 .61.68 6.18 6.18 0 0 1 .45.79l.26.59.51 1.13c.69 1.52 1.42 3 2.16 4.52a136.69 136.69 0 0 0 10 17.27 38.35 38.35 0 0 0 6.34 7.29 34.23 34.23 0 0 0 8.29 4.86 39.42 39.42 0 0 0 4.59 1.57c.77.22 1.56.4 2.34.56l1.16.2.72.12.58.1c3.19.51 6.59.83 9.92 1.16 6.69.65 13.41 1.2 20.12 1.73l10.08.78c1.7.13 3.3.27 4.93.25a32.27 32.27 0 0 0 4.81-.29c3.13-.42 6.24-1.4 8.28-3.35a7.28 7.28 0 0 0 2.07-3.54 11.89 11.89 0 0 0 .13-4.37 29.76 29.76 0 0 0-3.32-8.92 76.21 76.21 0 0 0-5.34-8.31q-3-4-6.26-7.8c-1.07-1.28-2.22-2.5-3.32-3.75l-3.47-3.63a184.24 184.24 0 0 0-14.7-13.65q-7.77-6.36-16.14-12a184.61 184.61 0 0 0-35.65-18.49c-.48-.18-.9-.34-1.26-.51s-.61-.27-.85-.36c-.46-.19-.74-.31-.75-.47s.25-.32.84-.36a3.59 3.59 0 0 1 1.08.13c.39.09.85.22 1.36.39a181.53 181.53 0 0 1 36.41 17.9q8.63 5.51 16.66 11.91A179.31 179.31 0 0 1 189 58.58c1.19 1.22 2.4 2.42 3.57 3.65s2.32 2.48 3.43 3.77q3.39 3.82 6.49 7.91a75.42 75.42 0 0 1 5.65 8.64 32.44 32.44 0 0 1 3.72 9.92 14.57 14.57 0 0 1-.18 5.66 10.46 10.46 0 0 1-2.94 5.07 14.15 14.15 0 0 1-4.84 3 22.77 22.77 0 0 1-5.25 1.29 44.47 44.47 0 0 1-10.44.09l-10.09-.76c-6.73-.53-13.45-1.08-20.19-1.75-3.37-.35-6.69-.66-10.16-1.23l-.66-.12-.33-.06h-.2c-.46-.07-.9-.15-1.33-.24-.87-.18-1.73-.38-2.57-.62a40.52 40.52 0 0 1-5-1.74 37 37 0 0 1-9-5.42 39.72 39.72 0 0 1-6.86-8 135.94 135.94 0 0 1-10.08-17.78 149.6 149.6 0 0 1-2.14-4.63l-.51-1.18-.24-.57c0-.1-.11-.19-.17-.29a1.78 1.78 0 0 0-.22-.26 2.85 2.85 0 0 0-.33-.25l-1-.73-8.35-5.89-8.27-5.83-2.06-1.47-1-.73-.57-.35a2.88 2.88 0 0 1-.69-.66 7.54 7.54 0 0 1-1.31-5.68 15.72 15.72 0 0 1 .61-2.68 22.63 22.63 0 0 1 1-2.46 20.54 20.54 0 0 1 1.26-2.3 25.29 25.29 0 0 1 1.41-2.18c1-1.43 2.08-2.74 3.16-4.06.55-.66 1.15-1.27 1.72-1.91l.86-.94.21-.24.29-.28.5-.42a50 50 0 0 1 8.55-5.69 31.94 31.94 0 0 1 9.71-3.42 8 8 0 0 1 2.58-.08c.56.08.82.22.81.38s-.3.33-.83.48a6.86 6.86 0 0 1-1 .22z" fill="#010101"/><path d="M121.08 19.65c9 4.23 34.56 17 49.63 31.48a10.19 10.19 0 0 1 2.52 4c1.71 5 3.76 16.49-8.26 27.32a2.69 2.69 0 0 1-.32.27c-1.46 1.17-12 9.41-17.13 8.76a33.25 33.25 0 0 1-18.31-8.69c-4.43-4-11-17.32-14.4-23.75a6.51 6.51 0 0 0-2.55-2.6c-4.65-2.64-17.38-9.86-18.33-11.38-1.11-1.91-4.73-5 5.86-17.75.12-.14.24-.28.38-.42a36.64 36.64 0 0 1 10.71-7.56 12.59 12.59 0 0 1 10.2.32z" fill="#1c507e" stroke="#1e1e1e" stroke-miterlimit="10" stroke-width="2.05"/><path d="M110.38 51.65a122.74 122.74 0 0 1 11.8-5.65 4.67 4.67 0 0 1 2.75-.5c1.21.29 1.95 1.46 2.78 2.39a1.86 1.86 0 0 0 .86.63 2.11 2.11 0 0 0 1.33-.2l10.17-3.79c1.54-.57 3.52-1.06 4.64.15.9 1 .87 2.71 2.06 3.27a2.42 2.42 0 0 0 1.48.1c3-.55 5.53-3.25 8.58-2.95a7.76 7.76 0 0 1 4.4 2.47c.38.36.76 1 .44 1.36a1 1 0 0 1-.58.31l-5.27 1.61-9.34 2.87a9.53 9.53 0 0 1-3.5.61 3.24 3.24 0 0 1-2.84-1.86 1.87 1.87 0 0 0-.49-.93 1.29 1.29 0 0 0-1-.1c-4 .64-7.71 2.61-11.66 3.57a3.37 3.37 0 0 1-2.26 0c-.71-.34-1.13-1.1-1.77-1.56-1.17-.85-2.81-.53-4.14 0a11.18 11.18 0 0 1-4.08 1.36A5.87 5.87 0 0 1 111 53.2a1.6 1.6 0 0 1-.73-1.19c0-.48.67-.88 1-.51" fill="#fff"/><ellipse cx="16.14" cy="72.81" rx="6.51" ry="9.53" transform="rotate(-24.2 16.128 72.812)" fill="#010101"/><ellipse cx="32.46" cy="15.1" rx="13.41" ry="15.88" transform="rotate(-35.42 32.466 15.095)" fill="#010101"/><ellipse cx="57.92" cy="52.09" rx="1.06" ry="1.66" fill="#010101"/><circle cx="65.89" cy="66.29" r="1.18" fill="#010101"/><ellipse cx="49.18" cy="65.66" rx=".85" ry="1.16" fill="#010101"/><path d="M145.3 101.13s17.65-5 23-11.52 6.36-6.47 9.1-10.83 8-18.76 6.87-21.38 19.11 20.31 20.36 22.35 7.79 15.85 3.53 20.24-20.79 5.89-30.76 5.07-32.1-3.93-32.1-3.93z" fill="url(#a)"/><path d="M187.69 87.83c-3.12 4.15-5.95 7.08-5.27 7.58s4.05-1.59 7.18-5.74 4.8-8.78 4.12-9.29-2.9 3.3-6.03 7.45zM193.56 90.88c-2.43 3.23-4.63 5.5-4.11 5.9s3.16-1.24 5.59-4.47 3.74-6.83 3.21-7.22-2.25 2.56-4.69 5.79z" fill="#010101"/></g></g></svg>