<svg xmlns="http://www.w3.org/2000/svg" xmlns:xlink="http://www.w3.org/1999/xlink" viewBox="0 0 288 288"><defs><style>.a{fill:none;}.b,.f{fill:#010101;}.c{fill:#ffe8ca;}.d{fill:#ce3339;}.e{isolation:isolate;}.f{mix-blend-mode:multiply;}.g{fill:#f7c451;}.h{fill:#ef6572;}.i{fill:#1c507e;stroke:#1e1e1e;stroke-miterlimit:10;stroke-width:2.05px;}.j{fill:#fff;}.k{fill:url(#a);}</style><pattern id="a" width="47.23" height="47.23" patternTransform="translate(38.15 47.37) scale(0.12)" patternUnits="userSpaceOnUse" viewBox="0 0 47.23 47.23"><rect class="a" width="47.23" height="47.23"/><path class="b" d="M47.23,47.23V43.17a6.07,6.07,0,0,0-4.06,4.06Zm-17.83,0a6,6,0,0,0-11.57,0Zm-25.33,0A6.07,6.07,0,0,0,0,43.17v4.06ZM29.66,23.62a6,6,0,1,0-6,6A6,6,0,0,0,29.66,23.62Zm17.57-5.79a6,6,0,0,0,0,11.57ZM0,29.4a6,6,0,0,0,4.32-5.78A6,6,0,0,0,0,17.83ZM29.4,0H17.83a6,6,0,0,0,5.79,4.32A6,6,0,0,0,29.4,0ZM47.23,0H43.17a6.07,6.07,0,0,0,4.06,4.07ZM0,4.07A6.06,6.06,0,0,0,4.07,0H0Z"/></pattern></defs><title>web images</title><path class="b" d="M271.93,247.39l-57.94.38-58.18.28-58.3.14c-19.46,0-38.91,0-58.34-.15h-.72v-.71l.26-46.85.14-46.85,0-46.84-.19-46.85v-.54h.55l58.17-.25L155.51,59l58.17-.09,58.17,0h1v1c0,15.68-.07,31.36-.15,47l-.24,46.94Zm-.15-.14-.55-93.88L271,106.61c-.08-15.57-.16-31.12-.15-46.68l1,1-58.17,0-58.17-.09-58.17-.18-58.17-.24.55-.55-.19,46.85,0,46.84.14,46.85.26,46.85-.72-.72c19.35-.14,38.68-.13,58-.16l58,.15,58.16.27Z"/><path class="b" d="M275.54,251.07l-240.06.8h-.8v-.81l-.2-209.13v-1h1l240.06.26h.74v.74Zm0,0-.73-209.14.73.73-240.06.26,1-1-.19,209.13-.81-.8Z"/><path class="b" d="M262.44,46.8q2.12,1.89,4.17,3.82c.69.64,1.41,1.25,2.05,2a19.15,19.15,0,0,1,1.77,2.22l-.05.05a21.23,21.23,0,0,1-2.21-1.78c-.7-.63-1.31-1.35-1.95-2.05-1.29-1.37-2.56-2.76-3.83-4.16Z"/><path class="b" d="M270.13,46.85Q268.24,49,266.3,51c-.64.7-1.25,1.42-1.95,2.05a20.23,20.23,0,0,1-2.21,1.78l-.05-.05a19.15,19.15,0,0,1,1.77-2.22c.64-.7,1.36-1.31,2.05-2,1.38-1.29,2.76-2.56,4.17-3.82Z"/><path class="c" d="M207,144.84c2.44,3.76,2.36,10.25,2.44,15.47s-1,10.6-4.09,14.95c-.78,1.11-2.07,2.26-3.4,1.83-.84-.27-1.32-1.07-1.89-1.71s-1.57-1.16-2.31-.69a2,2,0,0,0-.67.91l-3.42,7.1a7.65,7.65,0,0,1-2.71,3.55c-1.33.79-3.47.53-4-.85-2.1,4.12-5.16,7.73-8.19,11.3a2.83,2.83,0,0,1-2.19,1.32c-.94-.08-1.51-1-1.92-1.79-1.38-2.69-2.79-5.5-2.75-8.48,0-2.72,1.27-5.28,2.63-7.68,7.31-12.89,18.67-23.27,29.84-33.43a8.55,8.55,0,0,1,2.71-1.57Z"/><path class="c" d="M133.16,62.77c6.93-5.82,14.16-11.37,22.19-15.52s17-6.89,26-6.74a5,5,0,0,1,3.59,1.07c1.52,1.58.54,4.17-.52,6.1l-2.61,4.77a2.8,2.8,0,0,0-.34.84,1.88,1.88,0,0,0,1.31,1.9,5.55,5.55,0,0,0,2.47.13c8.09-.8,16.76-1.35,23.85,2.62a5.87,5.87,0,0,1,3.09,3.28c.45,1.69-.47,3.45-1.62,4.76a27.37,27.37,0,0,0-3.44,4,2.87,2.87,0,0,0-.16,3,3.37,3.37,0,0,0,1.81,1c3.8,1.11,7.88,1.58,11.25,3.66s5.76,6.58,3.85,10.06c-1.13,2.06-3.41,3.17-5.55,4.16l-8.71,4c-7.16,3.31-14.36,6.63-22,8.75s-15.68,3-23.4,1.37c-8.14-1.72-15.43-6.13-22.54-10.47a23.41,23.41,0,0,1-4-2.83c-2.36-2.21-3.7-5.26-5-8.22-1.71-3.92-3.44-8-3.53-12.26s1.86-8.89,5.75-10.67"/><path class="b" d="M133.13,63.53a10.62,10.62,0,0,0-2.78,5.09,14.2,14.2,0,0,0-.13,5.88c.69,4,2.55,7.7,4.25,11.46A21.27,21.27,0,0,0,137.58,91a18.1,18.1,0,0,0,4.71,3.53c3.57,2.13,7.14,4.24,10.82,6a47.87,47.87,0,0,0,11.43,4.07,41.35,41.35,0,0,0,12,.55c8.09-.74,15.9-3.47,23.45-6.76,3.79-1.64,7.55-3.42,11.33-5.18L217,90.63a15.11,15.11,0,0,0,4.76-2.87,4.18,4.18,0,0,0,.88-4.22,8.21,8.21,0,0,0-3-4.12,16.21,16.21,0,0,0-5.15-2.26c-1.92-.55-4-1-6.06-1.55a6.7,6.7,0,0,1-1.89-.78A3.54,3.54,0,0,1,205,72.49a4.62,4.62,0,0,1,.24-2.39,5.7,5.7,0,0,1,.45-1,9.17,9.17,0,0,1,.52-.8c1.49-2,3.22-3.16,4-4.58a3.13,3.13,0,0,0,.5-1.94,2.71,2.71,0,0,0-1.07-1.62,11.79,11.79,0,0,0-2.34-1.41,25.27,25.27,0,0,0-2.69-1.1,35,35,0,0,0-11.83-1.4c-2,0-4.09.19-6.15.37l-1.56.14a7.93,7.93,0,0,1-1.93,0A3.83,3.83,0,0,1,181,55.66a3.05,3.05,0,0,1-.88-2.61,3.35,3.35,0,0,1,.32-.92c.11-.22.2-.37.28-.52l.52-.94,1-1.86,1-1.86a12.25,12.25,0,0,0,.8-1.74,4.6,4.6,0,0,0,.32-1.62A1.63,1.63,0,0,0,184,42.5c-.45-.56-1.69-.76-3.07-.74a49.7,49.7,0,0,0-16.39,2.68c-10.67,3.53-20.14,10.05-29,17.11-2.69,2.16-3.51,1.36-.79-1a134.66,134.66,0,0,1,13.68-10.37,72.91,72.91,0,0,1,15.41-7.8A51.22,51.22,0,0,1,181,39.26a11.7,11.7,0,0,1,2.37.16,4.78,4.78,0,0,1,2.56,1.31A4.23,4.23,0,0,1,187,43.52a7.43,7.43,0,0,1-.43,2.56,14.43,14.43,0,0,1-1,2.15l-1,1.89-1,1.88-.5.94-.22.41a.47.47,0,0,0,0,.09.26.26,0,0,0,.1.24,1,1,0,0,0,.61.27,15.37,15.37,0,0,0,2.75-.17c2.09-.21,4.2-.39,6.33-.47a37.81,37.81,0,0,1,12.88,1.41A26.8,26.8,0,0,1,208.65,56a14.63,14.63,0,0,1,3,1.81,5.86,5.86,0,0,1,2.2,3.55,6.24,6.24,0,0,1-.85,4,12.84,12.84,0,0,1-2.2,2.77,18.7,18.7,0,0,0-1.92,2.13c-.12.17-.23.35-.33.51a3,3,0,0,0-.2.45,1.41,1.41,0,0,0-.1.69c0,.11,0,.06.14.18a4.31,4.31,0,0,0,1,.37c1.92.54,4,.93,6.06,1.52a19.25,19.25,0,0,1,6.23,2.78,11.5,11.5,0,0,1,4.19,5.86,8.24,8.24,0,0,1,.2,3.9A7.33,7.33,0,0,1,224.23,90a17.66,17.66,0,0,1-5.82,3.62l-5.68,2.62c-3.79,1.73-7.57,3.5-11.44,5.15-7.72,3.29-15.89,6.08-24.48,6.75a43.8,43.8,0,0,1-12.86-.78,50,50,0,0,1-12-4.5c-3.78-1.93-7.35-4.15-10.88-6.36a20.13,20.13,0,0,1-5.14-4.09,23.09,23.09,0,0,1-3.31-5.63c-.84-2-1.64-3.85-2.39-5.84a30.11,30.11,0,0,1-1.68-6.21c-.67-4.26.36-9.09,3.69-12.17a4.74,4.74,0,0,1,1.91-1.14c.48-.11.74-.07.79.08C135.07,61.86,134.31,62.39,133.13,63.53Z"/><path class="b" d="M205.21,141c-11.46,11.69-23.21,23.47-31.35,37.47-2,3.51-4.11,7.09-4.66,10.56s.83,6.91,2.62,10.56a12.92,12.92,0,0,0,.59,1.15l.12.17h0l.21-.21c.12-.13.25-.28.39-.46l.49-.61.95-1.2,1.88-2.41c1.22-1.61,2.39-3.24,3.46-4.91l.78-1.26.37-.63.28-.5.37-.68,2.88-5.7,1.14,3.14.39,1.06a3.29,3.29,0,0,0,.19.47l.15.12h0a1.34,1.34,0,0,0,.39.08,1.67,1.67,0,0,0,.87-.18,5.25,5.25,0,0,0,1.83-2.28c.56-1.12,1.16-2.48,1.75-3.73l1.77-3.81.89-1.91a6.2,6.2,0,0,1,1-1.68,3.35,3.35,0,0,1,1.51-1,4,4,0,0,1,3.52.77,7.63,7.63,0,0,1,.73.66c.11.13.21.24.31.37l.19.24c.23.3.42.56.58.75a2.1,2.1,0,0,0,.33.34.29.29,0,0,0,.13.05.32.32,0,0,0,.18,0,1.83,1.83,0,0,0,.44-.26,4.86,4.86,0,0,0,1-1.11c.34-.52.71-1.07,1-1.64a31.94,31.94,0,0,0,3.77-15.34c0-2.78.08-5.58,0-8.32a31.84,31.84,0,0,0-1.12-8c-.52-1.73-.62-2.72-.16-3s1.49.34,2.25,2.31a34,34,0,0,1,1.65,8.53c.24,2.86.31,5.66.4,8.48a34.52,34.52,0,0,1-3.59,17.09c-.35.67-.73,1.3-1.15,2a8.87,8.87,0,0,1-1.77,2,5.56,5.56,0,0,1-1.36.81,4.24,4.24,0,0,1-1.87.31,3.88,3.88,0,0,1-1.84-.59,5.63,5.63,0,0,1-1.23-1.06c-.3-.34-.53-.64-.73-.89l-.14-.17,0,0-.05,0a.21.21,0,0,0-.2,0c-.07,0-.08.11-.11.18l-.84,1.93-1.7,3.85c-.59,1.3-1.09,2.51-1.76,3.91a9.27,9.27,0,0,1-3.47,4.09,5.85,5.85,0,0,1-3.18.76,5.54,5.54,0,0,1-1.66-.32l-.06,0s0,0,0,0h0l-.09.18-.41.7c-.27.47-.55.92-.84,1.38-1.14,1.81-2.38,3.54-3.65,5.22L178,201.11l-1,1.22-.48.61c-.18.22-.38.46-.61.71a7.8,7.8,0,0,1-.93.84,4.61,4.61,0,0,1-1.35.71,3.89,3.89,0,0,1-2.92-.2,4.24,4.24,0,0,1-1.21-.9,4.16,4.16,0,0,1-.51-.59c-.14-.19-.22-.32-.32-.47a14.76,14.76,0,0,1-.83-1.59,37.9,37.9,0,0,1-2.43-6.09,15.67,15.67,0,0,1-.44-7.06,23.47,23.47,0,0,1,2.25-6.39c.48-1,1-1.9,1.53-2.81s1-1.84,1.6-2.73a119.89,119.89,0,0,1,15.44-19.77c5.72-6.07,11.74-11.66,17.89-17.29,2.07-1.63,3.6-1.44,3.72-.95.07.25-.11.56-.49,1S205.93,140.3,205.21,141Z"/><ellipse class="d" cx="145.46" cy="224.06" rx="19.51" ry="35.23" transform="translate(-99.9 329.73) rotate(-80.31)"/><g class="e"><path class="f" d="M128.78,237.58a58.18,58.18,0,0,0,13.22,3.8,59,59,0,0,0,13.71.7,40.15,40.15,0,0,0,13.08-3,20.56,20.56,0,0,0,5.42-3.37,11,11,0,0,0,3.3-4.78,1.41,1.41,0,0,1,1-.81,4.07,4.07,0,0,1,1.65-.13,2.49,2.49,0,0,1,1.48.65,1.5,1.5,0,0,1,.34,1.56,15.35,15.35,0,0,1-4.63,6.81,24.82,24.82,0,0,1-6.65,4.09,44.29,44.29,0,0,1-14.61,3.24,63.1,63.1,0,0,1-14.73-.92,61.75,61.75,0,0,1-14.14-4.25C125.82,240.55,127.54,237,128.78,237.58Z"/><path class="f" d="M119.42,232a36.94,36.94,0,0,0,5.65,3.71c1.26.68-.5,4.27-2,3.46a40.81,40.81,0,0,1-6.15-4.13C115.75,234,118.41,231.14,119.42,232Z"/><path class="f" d="M112.61,222.63a16.13,16.13,0,0,0,3.9,6.54c.46.52,0,1.47-.69,2.17s-1.73,1.12-2.31.47a20.11,20.11,0,0,1-4.69-8.17C108.43,221.93,112.36,221.51,112.61,222.63Z"/><path class="f" d="M130.8,206.17a31.8,31.8,0,0,0-12.59,4.44c-.57.38-1.45-.22-2-1s-.83-1.86-.1-2.35a35.85,35.85,0,0,1,14.15-5C131.71,202.08,132.14,206,130.8,206.17Z"/><path class="f" d="M115.18,213.05a10.67,10.67,0,0,0-2.74,5.34c-.13,1.16-4.18,1.23-3.91-.76a14.62,14.62,0,0,1,3.78-7.26C113.51,209.17,116,212.2,115.18,213.05Z"/><path class="f" d="M137,205.64c-.91,0-1.81.09-2.72.19-1.43.12-1.9-3.85-.24-4,1-.08,1.91-.11,2.86-.13C138.37,201.69,138.33,205.62,137,205.64Z"/><path class="f" d="M149.36,206.66a63,63,0,0,0-6.83-.83c-1.45-.1-1.31-4.09.35-4a69.87,69.87,0,0,1,7.2,1C151.54,203.08,150.71,206.91,149.36,206.66Z"/><path class="f" d="M165,211.94a52.16,52.16,0,0,0-8.91-3.58c-1.39-.42-.35-4.28,1.23-3.79a56.27,56.27,0,0,1,9.5,3.89C168.16,209.17,166.2,212.57,165,211.94Z"/><path class="b" d="M180.44,230c1.7.32,2.22-.38,2.24-1.43a15.62,15.62,0,0,0-.37-3.15,19.09,19.09,0,0,0-4.45-8.61,33.53,33.53,0,0,0-7-6c-1.42-.93-3.46,2.51-2.27,3.28a29.59,29.59,0,0,1,6.31,5.4,14.82,14.82,0,0,1,3.59,6.94,7.36,7.36,0,0,1-.27,2C178.23,229.09,178.7,229.71,180.44,230Z"/></g><path class="g" d="M26,66C24.2,68.17,17.72,79.31,20,91.61a5,5,0,0,1-1.51,4.56c-3.44,3.19-9.16,10.64-3.77,21.75a13.47,13.47,0,0,0,5.92,6c5.61,2.92,9.58,5.14,18.48,3.46a4.12,4.12,0,0,1,3.47.92c9.64,8.29,76.8,47.34,77.27,62,.07,2.16,1.43,5.32,1.54,11.86a108.38,108.38,0,0,1-.41,13.14c-.19,1.82.5,4.69,1.92,5.85,6.47,5.3,25.37,17.3,44,7.08a6.58,6.58,0,0,0,3.42-5.1c1.28-12.25,7.93-57.2,38.12-79.47,0,0,39.33-35.49,34.39-65.61a1.6,1.6,0,0,0-2.29-1.19c-10.34,5.22-60.07,30.81-62.05,41.08l-37.67-5.41L72.84,66.33C68.77,62.76,39.61,49.85,26,66Z"/><path class="b" d="M37.5,57.83a38.59,38.59,0,0,1,15.21-.33,61.8,61.8,0,0,1,14.53,4.24c1.16.5,2.31,1,3.45,1.64.56.3,1.13.62,1.69,1,.28.17.57.37.85.57l.38.29.32.22,6.17,4.15,12.33,8.28,49,33,35.81,5,0-.13v0s0,0,0,0,0,0,0,0l.29-.54a7.58,7.58,0,0,1,.63-1,10.34,10.34,0,0,1,.67-.89,31.49,31.49,0,0,1,2.91-3.06,75.55,75.55,0,0,1,6.29-5.14c4.32-3.18,8.78-6.09,13.3-8.88,9-5.59,18.29-10.73,27.63-15.71l7-3.69,1.77-.91.88-.45.79-.4a3.83,3.83,0,0,1,.87-.32,3.66,3.66,0,0,1,3.32.84,3.85,3.85,0,0,1,1,1.45,8.41,8.41,0,0,1,.32,1.76,37.23,37.23,0,0,1,.16,8.37,49.46,49.46,0,0,1-1.5,8.14c-2.93,10.61-8.53,20-14.82,28.67a157.59,157.59,0,0,1-10.18,12.41q-2.68,3-5.53,5.81c-1,1-1.9,1.88-2.9,2.81a11,11,0,0,1-.93.78l-.76.59L207,147.5a80.66,80.66,0,0,0-19.14,23.91,129.86,129.86,0,0,0-11.21,29c-1.33,5-2.4,10.14-3.24,15.27-.41,2.58-.76,5.14-1,7.74a8.77,8.77,0,0,1-4.05,6.43,5.3,5.3,0,0,1-.55.31l-.47.23-1,.45a34.33,34.33,0,0,1-16.33,3.47A44.29,44.29,0,0,1,134,230.35a59.84,59.84,0,0,1-7.23-3.89c-1.15-.74-2.29-1.5-3.38-2.33-.56-.39-1.09-.84-1.64-1.26l-.21-.17-.3-.28a4.51,4.51,0,0,1-.51-.58,6.38,6.38,0,0,1-.73-1.16,10.85,10.85,0,0,1-1.12-4.74c0-1,.13-1.48.17-2.14l.14-1.93c.15-2.57.2-5.17.19-7.78a47.44,47.44,0,0,0-.48-7.6c-.19-1.25-.45-2.46-.72-3.8a15.06,15.06,0,0,1-.31-2.26,5,5,0,0,0-.28-1.39,20.2,20.2,0,0,0-3.88-6,73.39,73.39,0,0,0-5.41-5.47c-3.82-3.51-7.91-6.79-12.06-10s-8.41-6.28-12.71-9.31c-8.59-6.06-17.37-11.89-26.14-17.74-4.39-2.94-8.79-5.84-13.12-9-.54-.4-1.08-.8-1.62-1.22-.27-.22-.54-.42-.81-.66l-.36-.3-.25-.19a2.54,2.54,0,0,0-1.17-.39,2.58,2.58,0,0,0-.62,0l-1,.16a26.52,26.52,0,0,1-8.35.17,25.56,25.56,0,0,1-7.85-2.78c-1.2-.64-2.33-1.16-3.6-2a14.84,14.84,0,0,1-3.26-2.87,14,14,0,0,1-2.26-3.69,24.21,24.21,0,0,1-1.39-3.94,18.74,18.74,0,0,1-.24-8.43,18.55,18.55,0,0,1,3.62-7.59c.44-.55.89-1.09,1.37-1.59.24-.26.49-.5.74-.74l.37-.35.26-.27a3.74,3.74,0,0,0,.92-2.76,2.33,2.33,0,0,0,0-.37l-.07-.51-.13-1a17.54,17.54,0,0,1-.18-2,17.49,17.49,0,0,1-.05-2.05c0-.68,0-1.37.09-2a36,36,0,0,1,1.51-8,28.83,28.83,0,0,1,3.86-8.1C25,66.43,25.86,65.82,26,66s-.23,1-1,2.79a61.81,61.81,0,0,0-3,8,34,34,0,0,0-1.33,7.52c-.07.64,0,1.27-.06,1.9A30,30,0,0,0,20.93,90l.29,2a6.21,6.21,0,0,1-1.47,4.56,6.14,6.14,0,0,1-.43.45l-.34.33c-.22.22-.44.44-.65.67a17.89,17.89,0,0,0-1.19,1.42,15.37,15.37,0,0,0-2.76,13.82,21.42,21.42,0,0,0,1.28,3.48,11,11,0,0,0,1.87,3,12.32,12.32,0,0,0,2.68,2.31c1,.6,2.23,1.19,3.36,1.77a22.58,22.58,0,0,0,7,2.42A23.07,23.07,0,0,0,38,126l1-.17a5.72,5.72,0,0,1,3.9.79,5.44,5.44,0,0,1,.55.39l.4.32c.23.2.49.39.73.59l1.55,1.14c4.24,3,8.69,5.87,13.09,8.76,8.83,5.77,17.68,11.54,26.38,17.57,4.34,3,8.66,6.09,12.89,9.29s8.41,6.51,12.39,10.11a74.13,74.13,0,0,1,5.75,5.74,37.17,37.17,0,0,1,2.59,3.29,16.61,16.61,0,0,1,2.09,3.95,9.49,9.49,0,0,1,.49,2.48,12.83,12.83,0,0,0,.25,1.65c.26,1.24.56,2.61.78,4a51.87,51.87,0,0,1,.57,8.18c0,2.67,0,5.35-.16,8l-.13,2c0,.65-.15,1.46-.14,1.8a6.9,6.9,0,0,0,.68,2.9,3.78,3.78,0,0,0,.32.51,1.17,1.17,0,0,0,.15.16l.06.06.17.14c.5.38,1,.78,1.5,1.15,1,.75,2.08,1.45,3.14,2.14a58.44,58.44,0,0,0,6.72,3.57,40.05,40.05,0,0,0,14.52,3.51A30.07,30.07,0,0,0,164.5,227l.84-.4.42-.19c.14-.07.2-.12.31-.18a5,5,0,0,0,1-.88,4.49,4.49,0,0,0,1-2.41c.27-2.64.63-5.31,1.05-7.95.85-5.28,1.93-10.52,3.29-15.69a133,133,0,0,1,11.55-30,84.74,84.74,0,0,1,20.21-25.21l1.61-1.26.81-.62a4.86,4.86,0,0,0,.58-.5c.94-.87,1.87-1.77,2.79-2.69,1.84-1.83,3.64-3.72,5.39-5.65a154.27,154.27,0,0,0,9.91-12c6.12-8.35,11.47-17.42,14.2-27.21a46.07,46.07,0,0,0,1.4-7.41,33.43,33.43,0,0,0-.12-7.42v-.15a.08.08,0,0,0,0,0,0,0,0,0,0-.07,0L238,80.49l-7,3.64c-9.31,4.9-18.53,10-27.48,15.44-4.47,2.73-8.88,5.57-13.07,8.62a69.79,69.79,0,0,0-6,4.83,25.36,25.36,0,0,0-2.56,2.64,8,8,0,0,0-.53.69,6.27,6.27,0,0,0-.46.68l-.18.33-.1.19a.68.68,0,0,0-.1.24l-.16.45-.59,1.78-39.61-5.82L90.78,80.31,78.54,71.88l-6.12-4.21-.2-.13-.09-.07L72,67.36l-.35-.28c-.22-.16-.45-.32-.69-.47-.48-.32-1-.61-1.51-.9-1-.58-2.14-1.09-3.24-1.59a59.62,59.62,0,0,0-13.87-4.23A36.35,36.35,0,0,0,38,60,24.82,24.82,0,0,0,29,64.08L27.76,65c-.33.27-.61.49-.85.65q-.72.51-.87.39c-.1-.09,0-.38.31-.9.15-.26.36-.57.62-.94S27.62,63.42,28,63A19.85,19.85,0,0,1,37.5,57.83Z"/><path class="h" d="M128.73,52a4.67,4.67,0,0,1,1.57.23c5.45,1.8,41.49,14.59,72.06,47.57,33.17,35.78,17.39,45-2.61,43,0,0-35.35-2.55-41.6-3.92a37.29,37.29,0,0,1-17.5-7.74c-7.64-6.3-16.83-25.19-19.42-31.33a3,3,0,0,0-1.15-1.38L98.59,83.56S91.8,78.33,107.08,62C107.08,62,117.77,52.19,128.73,52Z"/><path class="b" d="M125.56,53a30.39,30.39,0,0,0-9.19,3.51,48.32,48.32,0,0,0-8.12,5.69l-.46.41c-.1.08-.22.24-.37.4l-.82.94c-.54.64-1.11,1.25-1.63,1.89-1,1.31-2.06,2.6-3,4a22.59,22.59,0,0,0-1.29,2.09,17.74,17.74,0,0,0-1.13,2.16,22.27,22.27,0,0,0-.88,2.22,13.94,13.94,0,0,0-.46,2.26,7.19,7.19,0,0,0,.07,2.18,4.3,4.3,0,0,0,.8,1.77.92.92,0,0,0,.24.22l.52.36,1,.71L103,85.19l8.35,5.69,8.34,5.7,1,.71a4.77,4.77,0,0,1,.67.51,4,4,0,0,1,.61.68,4.74,4.74,0,0,1,.45.79l.26.59.51,1.13c.69,1.52,1.42,3,2.16,4.52a138.76,138.76,0,0,0,10,17.27,38.36,38.36,0,0,0,6.34,7.29,34.5,34.5,0,0,0,8.29,4.88,41.38,41.38,0,0,0,4.59,1.57c.77.22,1.56.4,2.34.56l1.16.2.72.12.58.1c3.19.51,6.59.83,9.92,1.16,6.69.65,13.41,1.2,20.12,1.73l10.08.78c1.7.13,3.3.27,4.93.25a33.41,33.41,0,0,0,4.81-.29c3.13-.42,6.24-1.4,8.28-3.35a7.25,7.25,0,0,0,2.07-3.54,11.8,11.8,0,0,0,.13-4.37,29.5,29.5,0,0,0-3.32-8.94,74.13,74.13,0,0,0-5.34-8.31q-3-4-6.26-7.8c-1.07-1.28-2.22-2.5-3.32-3.75l-3.47-3.63a180.74,180.74,0,0,0-14.7-13.65q-7.77-6.36-16.14-12a183.5,183.5,0,0,0-35.65-18.49c-.48-.18-.9-.34-1.26-.51s-.61-.27-.85-.36c-.46-.19-.74-.31-.75-.47s.25-.32.84-.36a3.43,3.43,0,0,1,1.08.13c.39.09.85.22,1.36.39a181,181,0,0,1,36.41,17.9A202.13,202.13,0,0,1,185,81.89a177.6,177.6,0,0,1,15.13,13.63c1.19,1.22,2.4,2.42,3.57,3.65s2.31,2.48,3.42,3.77q3.39,3.82,6.49,7.91a75.06,75.06,0,0,1,5.65,8.64,32.25,32.25,0,0,1,3.72,9.92,14.64,14.64,0,0,1-.18,5.66,10.51,10.51,0,0,1-2.94,5.07,14.22,14.22,0,0,1-4.84,3,23.42,23.42,0,0,1-5.25,1.29,45.08,45.08,0,0,1-10.44.09l-10.09-.76c-6.73-.53-13.45-1.08-20.19-1.75-3.37-.35-6.69-.66-10.16-1.23l-.66-.12-.33-.06h.07l-.1,0-.17,0c-.46-.07-.9-.15-1.33-.24-.87-.18-1.73-.38-2.57-.62a43,43,0,0,1-5-1.74,37.1,37.1,0,0,1-9-5.42,40.12,40.12,0,0,1-6.86-8,137.06,137.06,0,0,1-10.08-17.78c-.73-1.53-1.46-3.07-2.14-4.63l-.51-1.18-.24-.57a1.69,1.69,0,0,0-.17-.29,1.38,1.38,0,0,0-.22-.26,1.94,1.94,0,0,0-.33-.25l-1-.73L109.9,93l-8.27-5.83-2.06-1.47-1-.73L98,84.62a3.13,3.13,0,0,1-.69-.66A7.55,7.55,0,0,1,96,78.28a15.59,15.59,0,0,1,.61-2.68,23.19,23.19,0,0,1,1-2.46,20.39,20.39,0,0,1,1.26-2.3,24.61,24.61,0,0,1,1.41-2.18c1-1.43,2.08-2.74,3.16-4.06.55-.66,1.15-1.27,1.72-1.91l.86-.94.21-.24a3.9,3.9,0,0,1,.29-.28l.5-.42a49.85,49.85,0,0,1,8.55-5.69,31.57,31.57,0,0,1,9.71-3.42,7.7,7.7,0,0,1,2.58-.08c.56.08.82.22.81.38s-.3.33-.83.48a9.52,9.52,0,0,1-1,.22C126.52,52.77,126.07,52.89,125.56,53Z"/><path class="i" d="M132.2,56.59c9,4.23,34.56,17,49.63,31.48a10.06,10.06,0,0,1,2.52,4c1.71,5,3.76,16.49-8.26,27.32a2.69,2.69,0,0,1-.32.27c-1.46,1.17-12,9.41-17.13,8.76a33.39,33.39,0,0,1-18.31-8.69c-4.43-4-11-17.32-14.4-23.75a6.38,6.38,0,0,0-2.55-2.6C118.73,90.74,106,83.52,105.05,82c-1.11-1.91-4.73-5,5.86-17.75a5.14,5.14,0,0,1,.38-.42A36.37,36.37,0,0,1,122,56.27,12.57,12.57,0,0,1,132.2,56.59Z"/><path class="j" d="M121.5,88.59a120.4,120.4,0,0,1,11.8-5.65,4.61,4.61,0,0,1,2.75-.5c1.21.29,1.95,1.46,2.78,2.39a1.91,1.91,0,0,0,.86.63,2.22,2.22,0,0,0,1.33-.2l10.17-3.79c1.54-.57,3.52-1.06,4.64.15.9,1,.87,2.71,2.06,3.27a2.49,2.49,0,0,0,1.48.1c3-.55,5.53-3.25,8.58-2.95a7.73,7.73,0,0,1,4.4,2.47c.38.36.76.95.44,1.36a1.09,1.09,0,0,1-.58.31l-5.27,1.61-9.34,2.87a9.6,9.6,0,0,1-3.5.61,3.27,3.27,0,0,1-2.84-1.86,1.9,1.9,0,0,0-.49-.93,1.24,1.24,0,0,0-1-.1c-4,.64-7.71,2.61-11.66,3.57a3.43,3.43,0,0,1-2.26,0c-.71-.34-1.13-1.1-1.77-1.56-1.17-.85-2.81-.53-4.14,0a11.37,11.37,0,0,1-4.08,1.36,5.93,5.93,0,0,1-3.76-1.61,1.65,1.65,0,0,1-.73-1.19c0-.48.67-.88,1-.51"/><ellipse class="b" cx="27.26" cy="109.75" rx="6.51" ry="9.53" transform="translate(-42.59 20.81) rotate(-24.2)"/><ellipse class="b" cx="43.58" cy="52.03" rx="13.41" ry="15.88" transform="translate(-22.09 34.89) rotate(-35.42)"/><ellipse class="b" cx="69.04" cy="89.03" rx="1.06" ry="1.66"/><circle class="b" cx="77.01" cy="103.23" r="1.18"/><ellipse class="b" cx="60.3" cy="102.6" rx="0.85" ry="1.16"/><path class="k" d="M156.42,138.07s17.65-5,23-11.52,6.36-6.47,9.1-10.83,8-18.76,6.87-21.38,19.11,20.31,20.36,22.35,7.79,15.85,3.53,20.24-20.79,5.89-30.76,5.07S156.42,138.07,156.42,138.07Z"/><path class="b" d="M198.81,124.77c-3.12,4.15-5.95,7.08-5.27,7.58s4.05-1.59,7.18-5.74,4.8-8.78,4.12-9.29S201.94,120.62,198.81,124.77Z"/><path class="b" d="M204.68,127.82c-2.43,3.23-4.63,5.5-4.11,5.9s3.16-1.24,5.59-4.47,3.74-6.83,3.21-7.22S207.11,124.59,204.68,127.82Z"/></svg>